<?xml version="1.0" standalone="no"?>
<!DOCTYPE svg PUBLIC "-//W3C//DTD SVG 1.1//EN" "http://www.w3.org/Graphics/SVG/1.1/DTD/svg11.dtd" >
<svg xmlns="http://www.w3.org/2000/svg" xmlns:xlink="http://www.w3.org/1999/xlink" version="1.1">
<metadata>
Created by FontForge 20170731 at Sat Aug  1 23:37:10 2020
 By Aleksey,,,
Copyright (c) 2019 by BumBumType. All rights reserved. Desktop use is strictly prohibited.
</metadata>
<defs>
<font id="AlbraMedium" horiz-adv-x="1093" >
  <font-face 
    font-family="Albra Medium"
    font-weight="500"
    font-stretch="normal"
    units-per-em="2048"
    panose-1="0 0 6 0 0 0 0 0 0 0"
    ascent="1610"
    descent="-438"
    x-height="985"
    cap-height="1468"
    bbox="-47 -489 2187 1916"
    underline-thickness="0"
    underline-position="0"
    unicode-range="U+0020-25FC"
  />
<missing-glyph horiz-adv-x="748" 
d="M68 0v1365h544v-1365h-544zM136 68h408v1229h-408v-1229z" />
    <glyph glyph-name=".notdef" horiz-adv-x="748" 
d="M68 0v1365h544v-1365h-544zM136 68h408v1229h-408v-1229z" />
    <glyph glyph-name="glyph1" horiz-adv-x="0" 
 />
    <glyph glyph-name="glyph2" horiz-adv-x="682" 
 />
    <glyph glyph-name="space" unicode=" " horiz-adv-x="462" 
 />
    <glyph glyph-name="exclam" unicode="!" horiz-adv-x="479" 
d="M96 127q0 56 44 100q43 43 102 43t102 -43t43 -100t-43 -99q-44 -42 -103 -42h1q-60 0 -103 42t-43 99zM106 1446v18h271v-18q-37 -261 -109 -1028h-53q-73 791 -109 1028z" />
    <glyph glyph-name="quotedbl" unicode="&#x22;" horiz-adv-x="626" 
d="M48 1465h225q-53 -251 -99 -513h-28q-36 205 -98 513zM355 1462h226q-73 -359 -99 -512h-28q-41 242 -99 512z" />
    <glyph glyph-name="numbersign" unicode="#" horiz-adv-x="1269" 
d="M37 432l10 55h297l133 365h-295l11 55h305l149 414h49l-149 -414h344l147 414h49l-147 -414h299l-10 -55h-307l-131 -365h303l-11 -55h-311l-154 -432h-49l154 432h-348l-158 -432h-49l158 432h-289zM393 487h348l131 365h-346z" />
    <glyph glyph-name="dollar" unicode="$" horiz-adv-x="1150" 
d="M99 474h15q46 -100 100 -183q56 -85 144 -162q88 -76 179 -93v565l-27 17q-59 34 -84 50q-32 20 -74 48q-58 38 -77 57q-5 5 -24 24.5t-34 34.5q-40 40 -53 72q-14 34 -27 79t-13 96q0 170 117 272q118 103 299 110v146h67v-148q158 -8 338 -75l41 -366h-14
q-67 135 -161 245q-93 109 -204 138v-506q6 -4 41 -24q32 -19 77 -45t58 -34q40 -24 107 -74t95 -90q29 -41 51 -103q23 -64 23 -136l-5 -5q0 -203 -134 -308q-134 -106 -317 -107v-161h-67v163q-193 19 -412 126zM330 1187q0 -83 45 -135q46 -53 160 -120v475
q-85 -5 -144 -61q-60 -57 -60 -159h-1zM602 27q98 5 162 69q65 65 65 171q0 95 -55 159q-57 66 -172 134v-532v-1z" />
    <glyph glyph-name="percent" unicode="%" horiz-adv-x="1867" 
d="M56 991q0 193 108 333q108 139 289 139q173 0 281 -129t108 -324t-108 -333t-286 -138h-1q-178 0 -285 131q-106 130 -106 321zM237 1089q0 -115 24 -228q24 -111 80 -198q55 -85 132 -85h1q77 0 130 86q52 85 52 249q0 115 -24 228q-24 114 -79 198q-55 85 -132 85
q-78 0 -131 -86t-53 -249zM414 -2l997 1501l41 -31l-995 -1497zM1028 447q0 193 108 329q108 137 286 137h-3q180 0 286 -130t106 -322t-106 -331t-285 -139q-180 0 -286 132q-106 131 -106 324zM1209 540q0 -115 24 -226t79 -196t132 -85q78 0 131 86t53 249q0 116 -24 227
q-24 112 -79 195q-55 84 -132 84l-2 1q-77 0 -130 -86q-52 -85 -52 -249z" />
    <glyph glyph-name="ampersand" unicode="&#x26;" horiz-adv-x="1597" 
d="M52 339q0 156 119 255q118 99 320 165q-215 259 -215 415q0 130 108 225q109 95 281 95q161 0 262 -86q100 -85 100 -203q0 -98 -75 -182q-76 -85 -213 -170l381 -438q36 51 70 138q34 88 41 132q2 14 2 21q0 58 -35 96q-34 38 -105 72v15h415v-15q-91 -52 -131 -96
t-87 -131q-64 -170 -133 -276l148 -164q55 -61 111 -63q80 0 147 121l14 -6q-27 -110 -102 -199q-75 -88 -186 -88q-79 0 -146 50q-66 50 -156 150q-191 -197 -461 -197l-2 4q-212 0 -342 99t-130 261zM303 420q0 -136 96 -229t239 -93l-2 -1q172 0 312 123l-426 500
q-219 -112 -219 -300zM511 1251q0 -78 47 -157q46 -78 153 -201l-1 2q129 155 129 315q0 118 -52 177q-53 60 -117 60q-63 0 -111 -54t-48 -142z" />
    <glyph glyph-name="quotesingle" unicode="'" horiz-adv-x="317" 
d="M48 1465h225q-53 -251 -99 -513h-28q-36 205 -98 513z" />
    <glyph glyph-name="parenleft" unicode="(" horiz-adv-x="718" 
d="M104 605q0 670 572 1000l10 -19q-115 -112 -193 -229t-135 -312t-57 -439l1 -3q0 -244 57 -439t135 -312q80 -120 193 -230l-10 -18q-571 330 -573 1001z" />
    <glyph glyph-name="parenright" unicode=")" horiz-adv-x="718" 
d="M37 -377q180 172 282 401q102 228 102 582t-102 581q-102 226 -282 400l12 19h-1q572 -332 573 -999q0 -670 -572 -1002z" />
    <glyph glyph-name="asterisk" unicode="*" horiz-adv-x="960" 
d="M57 1085l74 222l16 -7l316 -200l-98 346v18h235v-18l-100 -348l319 202l17 7l71 -220l-18 -6l-379 -14l299 -223l10 -15l-190 -135l-11 13l-137 346l-135 -346l-10 -13l-193 133l13 15l297 225l-377 14z" />
    <glyph glyph-name="plus" unicode="+" horiz-adv-x="917" 
d="M37 657v56h399v385h51v-385h400v-56h-400v-389h-51v389h-399z" />
    <glyph glyph-name="comma" unicode="," horiz-adv-x="491" 
d="M106 135q0 57 42 98q43 41 98 41l-2 -1q59 0 101 -45t42 -131q0 -102 -64 -214t-193 -178l-8 16q118 137 147 276h-20q-60 0 -101 40q-42 41 -42 98z" />
    <glyph glyph-name="hyphen" unicode="-" horiz-adv-x="747" 
d="M78 504v76h596v-76h-596z" />
    <glyph glyph-name="period" unicode="." horiz-adv-x="497" 
d="M106 129q0 58 44 102q43 43 102 43t101 -43t42 -102t-42 -101t-101 -42h-1q-59 0 -102 42t-43 101z" />
    <glyph glyph-name="slash" unicode="/" horiz-adv-x="684" 
d="M6 -240l592 1821h53l-592 -1821h-53z" />
    <glyph glyph-name="zero" unicode="0" horiz-adv-x="1163" 
d="M61 719q0 337 155 542q154 204 366 204q214 0 368 -207q155 -208 155 -547q0 -336 -153 -537t-366 -201l-1 1q-215 0 -369 202q-155 203 -155 543zM312 720q0 -345 77 -520q77 -174 194 -174q116 0 191 174t75 516q0 345 -77 522q-77 176 -192 176t-192 -176
q-76 -174 -76 -518z" />
    <glyph glyph-name="one" unicode="1" horiz-adv-x="729" 
d="M74 1306v10l444 158v-1217q0 -125 27 -162t143 -81v-14h-584l-1 14q116 44 143 81t27 162v864q0 76 -39 112q-38 35 -160 73z" />
    <glyph glyph-name="two" unicode="2" horiz-adv-x="1011" 
d="M13 -2v45q331 331 482 562q153 234 153 414q0 132 -67 206q-67 75 -168 75q-175 0 -342 -194l-29 12q84 147 210 246t271 99q142 0 249 -98q106 -97 106 -261q0 -184 -147 -381t-485 -506h422l-1 -2q115 0 169 33q55 33 126 133l12 -4l-117 -379h-844z" />
    <glyph glyph-name="three" unicode="3" horiz-adv-x="1054" 
d="M65 63l108 246l14 -4q55 -113 137 -194q81 -81 182 -81q111 0 185 101t74 252q0 155 -78 249t-207 94q-78 0 -180 -41l-12 35q393 190 393 409q0 98 -60 146t-160 48q-197 0 -357 -174l-22 18l-4 -2q211 295 489 295q143 0 236 -78t93 -201q0 -226 -344 -360v-2
q35 8 74 8q144 0 254 -100q111 -101 111 -285q0 -215 -151 -341q-152 -126 -360 -126q-187 0 -415 88z" />
    <glyph glyph-name="four" unicode="4" horiz-adv-x="1167" 
d="M47 426v37l801 995h51v-921h223l-20 -111h-203v-168q0 -124 27 -162q27 -37 143 -81v-14h-567v14q116 44 143 81q27 38 27 162v168h-625zM174 537h498v637z" />
    <glyph glyph-name="five" unicode="5" horiz-adv-x="1081" 
d="M59 70l99 280h14q128 -330 301 -330q103 0 188 102q86 103 86 281q0 180 -90 270t-229 90q-158 0 -305 -84l182 760h438q112 0 158 27q47 28 107 105l12 -4l-125 -344h-582l-88 -383q107 51 281 51l-3 1q204 0 340 -119q135 -118 135 -323q0 -219 -154 -348t-357 -129
q-192 0 -408 97z" />
    <glyph glyph-name="six" unicode="6" horiz-adv-x="1128" 
d="M61 515q0 356 246 608t604 334l7 -26q-247 -112 -411 -311q-164 -198 -204 -448q137 141 336 141l-2 -1q173 0 301 -105q127 -105 127 -285q0 -193 -142 -322q-143 -129 -357 -129q-210 0 -358 134q-147 134 -147 410zM286 507q0 -217 78 -354q78 -136 207 -136h-1
q109 0 186 95t77 257q0 151 -72 252t-211 101q-151 0 -260 -121q-4 -55 -4 -94z" />
    <glyph glyph-name="seven" unicode="7" horiz-adv-x="1036" 
d="M30 1037l112 400h873v-37q-263 -316 -379 -634t-171 -766h-234l1 -1q122 625 582 1200h-481q-119 0 -171 -33q-53 -33 -120 -133z" />
    <glyph glyph-name="eight" unicode="8" horiz-adv-x="1081" 
d="M61 366q0 142 93 237q94 95 228 134q-266 140 -266 366q0 168 127 265t306 97q172 0 295 -90t123 -221q0 -116 -93 -204q-92 -88 -199 -127q74 -38 110 -61q42 -27 105 -81t98 -128q34 -72 34 -164q0 -182 -136 -299t-345 -117l1 1q-198 0 -340 107q-141 107 -141 285z
M249 375q0 -160 83 -255q82 -94 216 -94l-2 -1q117 0 191 77t74 194q0 128 -96 222q-95 94 -298 199q-72 -45 -120 -132t-48 -210zM326 1183q0 -107 72 -177q73 -72 240 -161h2q154 123 154 301q0 124 -69 197q-69 74 -173 74q-100 0 -163 -66t-63 -168z" />
    <glyph glyph-name="nine" unicode="9" horiz-adv-x="1128" 
d="M60 1013q0 193 143 322t360 129l-1 -1q209 0 356 -132t147 -408q0 -182 -69 -344q-69 -161 -189 -280t-270 -201t-320 -120l-6 28q248 111 410 309q163 199 203 449q-136 -141 -336 -141q-174 0 -301 105t-127 285zM291 1067q0 -151 72 -252t211 -101l-2 -2
q150 0 261 121q4 55 4 94q0 218 -79 354t-208 136q-109 0 -184 -94q-75 -95 -75 -256z" />
    <glyph glyph-name="colon" unicode=":" horiz-adv-x="458" 
d="M85 127q0 59 43 102t103 43t103 -43t43 -102t-43 -102t-103 -43t-103 43t-43 102zM85 826q0 60 43 103t103 43t103 -43t43 -103t-43 -103t-103 -43t-103 43t-43 103z" />
    <glyph glyph-name="semicolon" unicode=";" horiz-adv-x="471" 
d="M85 826q0 60 43 103t103 43t103 -43t43 -103t-43 -103t-103 -43t-103 43t-43 103zM104 135q0 57 42 98q43 41 99 41l-1 -1q59 0 101 -45t42 -131q0 -102 -64 -214t-193 -178l-8 16q118 137 147 276h-20q-59 0 -102 40t-43 98z" />
    <glyph glyph-name="less" unicode="&#x3c;" horiz-adv-x="894" 
d="M37 684v47l827 438v-61l-762 -403l762 -394v-61z" />
    <glyph glyph-name="equal" unicode="=" horiz-adv-x="831" 
d="M53 526v56h727v-56h-727zM53 780v56h727v-56h-727z" />
    <glyph glyph-name="greater" unicode="&#x3e;" horiz-adv-x="894" 
d="M37 250v61l760 394l-760 403v61l827 -438v-47z" />
    <glyph glyph-name="question" unicode="?" horiz-adv-x="909" 
d="M57 1346q188 143 414 143q173 0 285 -89q111 -88 111 -243q0 -91 -43 -170q-44 -79 -108 -141q-71 -68 -130 -120q-66 -58 -120 -138t-69 -168h-75l1 -4q6 102 41 197q34 91 80 159q40 59 90 127q45 61 75 132t30 147q0 104 -48 183t-126 79q-147 0 -264 -324l-8 -2z
M222 123q0 56 44 100q43 43 102 43t102 -43t43 -100t-43 -99q-44 -42 -103 -42h1q-60 0 -103 42t-43 99z" />
    <glyph glyph-name="at" unicode="@" horiz-adv-x="1517" 
d="M55 469q0 336 222 570t537 234q254 0 411 -154q157 -155 153 -375l-14 -710h-18q-101 98 -160 98q-33 0 -76 -31q-42 -31 -103 -64q-60 -33 -135 -33q-170 0 -269 140t-99 333q0 205 110 350q110 144 290 144q166 0 282 -111v21q0 49 -24 106q-24 58 -72 113
q-49 56 -129 92q-81 36 -184 36q-71 0 -135 -15q-66 -15 -138 -61q-74 -46 -126 -120q-54 -75 -89 -199q-36 -126 -36 -288q0 -178 42 -325q42 -146 110 -240q67 -93 156 -156q88 -63 179 -90q90 -27 181 -27q145 0 253 63q107 62 169 152l107 -125q-96 -54 -243 -95
q-149 -42 -300 -42q-347 0 -600 227q-252 227 -252 582zM720 542q0 -244 72 -352t165 -108q108 0 204 127l16 462q-32 91 -103 171q-72 81 -162 81q-190 0 -192 -381z" />
    <glyph glyph-name="A" unicode="A" horiz-adv-x="1480" 
d="M26 1v14q111 79 159 156t114 255l301 827l-65 131q155 63 247 129l500 -1316h1q28 -77 59 -111q30 -33 120 -72v-14h-622v14q89 37 123 65q33 27 33 65q0 32 -30 115l-88 242h-490l-22 -62q-72 -193 -72 -258q0 -58 37 -92q39 -35 129 -74v-14h-434zM419 588h428
l-215 594z" />
    <glyph glyph-name="B" unicode="B" horiz-adv-x="1376" 
d="M38 1v14q116 44 143 81q27 38 27 162v948q0 124 -27 162t-142 81v14h686q235 0 359 -101q123 -100 123 -239q0 -85 -57 -151t-130 -97q-74 -31 -162 -48v-4l3 1q109 -17 197 -58q90 -42 159 -132t69 -211q0 -191 -159 -306q-160 -116 -421 -116h-668zM489 150
q0 -40 57 -65t159 -27l-1 -2q285 14 285 342q0 186 -83 278q-78 86 -212 86h-18l-187 -8v-604zM490 818h156q121 0 202 82t81 216q0 128 -75 210t-202 82l-162 -2v-588z" />
    <glyph glyph-name="C" unicode="C" horiz-adv-x="1390" 
d="M63 714q0 358 201 567t508 209q193 0 457 -74l41 -364h-13q-101 156 -228 270t-261 114v-3q-163 0 -284 -178q-122 -179 -122 -513q0 -343 127 -528q127 -186 288 -186q125 0 251 114q124 112 226 272h15l-41 -369q-228 -74 -456 -74q-309 0 -509 194t-200 549z" />
    <glyph glyph-name="D" unicode="D" horiz-adv-x="1482" 
d="M36 2v14q116 44 143 81t27 162v948q0 125 -27 162q-27 38 -142 81v14h555l-3 2q410 0 620 -189t210 -512q0 -329 -199 -546t-535 -217h-649zM484 154q0 -82 209 -93l-1 -1q200 12 312 195q113 184 113 497q0 657 -538 657h-95v-1255z" />
    <glyph glyph-name="E" unicode="E" horiz-adv-x="1294" 
d="M35 0v14q116 44 143 81t27 162v948q0 125 -27 162q-27 38 -142 81v14h1038l37 -374h-12q-45 132 -145 224q-100 93 -247 93h-220v-596h218q157 0 246 147h11v-368h-11q-90 166 -242 166h-4l-218 -4v-600q0 -40 65 -66q66 -26 180 -26h84q119 0 215 99t153 228h12
l-49 -385h-1112z" />
    <glyph glyph-name="F" unicode="F" horiz-adv-x="1193" 
d="M36 2v14q116 44 143 81t27 162v948q0 125 -27 162q-27 38 -142 81v14h1053l33 -373h-12q-45 132 -145 224q-100 93 -247 93h-234v-596h209q158 0 248 147h10v-368h-10q-89 166 -244 166h-4l-209 -4v-494q0 -125 34 -162q35 -37 174 -81v-14h-657z" />
    <glyph glyph-name="G" unicode="G" horiz-adv-x="1538" 
d="M61 717q0 359 205 567t534 208q231 0 465 -84l39 -371h-13q-241 398 -504 400q-178 0 -301 -181q-123 -182 -123 -522q0 -345 128 -523q127 -177 306 -177q59 0 117 14q55 13 104 62q48 48 48 119v275q0 121 -51 178t-203 59v23h629v-12q-48 -32 -67 -54q-18 -21 -27 -63
t-9 -130v-467h-12q-70 55 -141 55q-43 0 -106 -30t-153 -60t-193 -30l-1 -1q-285 0 -478 196t-193 549z" />
    <glyph glyph-name="H" unicode="H" horiz-adv-x="1593" 
d="M34 5v14q116 44 143 81q27 38 27 162v948q0 124 -27 162t-142 81v14h618v-14q-113 -44 -140 -81q-27 -38 -27 -165v-362h625v362q0 125 -27 162q-27 38 -142 81v14h619v-14l-4 12q-113 -44 -140 -81t-27 -165v-948q0 -128 27 -165t140 -81v-14h-619v14q116 44 143 81
t27 162v500h-625v-500q0 -128 28 -165q29 -38 141 -81v-14h-618z" />
    <glyph glyph-name="I" unicode="I" horiz-adv-x="688" 
d="M34 20q116 44 143 81t27 162v948q0 125 -27 162q-27 38 -142 81v14h618v-14q-113 -44 -140 -81t-27 -165v-948q0 -128 28 -165t141 -81v-14h-618z" />
    <glyph glyph-name="J" unicode="J" horiz-adv-x="675" 
d="M32 1448v14h620v-14q-115 -43 -142 -81q-27 -37 -27 -162v-987q0 -118 -39 -206q-40 -90 -109 -143q-71 -54 -138 -84q-70 -31 -156 -53l-7 19q168 97 168 293v1161q0 125 -28 162q-29 38 -142 81z" />
    <glyph glyph-name="K" unicode="K" horiz-adv-x="1490" 
d="M35 4v14q116 44 143 81t27 162v948q0 125 -27 162q-27 38 -142 81v14h618v-14q-113 -44 -140 -81t-27 -165v-948l-3 6q0 -128 28 -165t141 -81v-14h-618zM515 721l438 430q97 96 99 174q0 85 -119 132v14h504v-14q-75 -38 -149 -93q-79 -58 -120 -94q-44 -39 -131 -119
l-303 -279l504 -671q106 -141 232 -181v-14h-431z" />
    <glyph glyph-name="L" unicode="L" horiz-adv-x="1261" 
d="M35 2v14q116 44 143 81t27 162v948q0 125 -27 162q-27 38 -142 81v14h618v-14q-113 -44 -140 -81t-27 -165v-1054q0 -40 65 -66q66 -26 180 -26h51q119 0 215 99t153 228l12 2l-49 -385h-1079z" />
    <glyph glyph-name="M" unicode="M" horiz-adv-x="1861" 
d="M34 -3v14q94 35 132 66q37 31 55 102t18 227v874q-27 50 -85 96t-115 73v14h444q271 -473 480 -888l464 889h402v-14l-6 -3q-115 -43 -142 -81t-27 -162v-948q0 -124 27 -162q27 -37 143 -81v-14h-621v14q116 44 143 81q27 38 27 162v965h-4q-388 -733 -502 -984h-36
q-269 525 -535 968v-800q0 -155 18 -226t55 -102t132 -66v-14h-467z" />
    <glyph glyph-name="N" unicode="N" horiz-adv-x="1507" 
d="M36 -1v14q94 35 132 66q37 31 55 102t18 227v866q-47 98 -198 176v14h408q401 -606 768 -1200v793q0 157 -18 227q-18 72 -55 101q-39 31 -132 65v14h471l-1 -17q-93 -34 -132 -65q-37 -29 -55 -101q-18 -71 -18 -225v-1057h-211q-388 631 -768 1200v-792q0 -155 18 -226
t55 -102t132 -66v-14h-469z" />
    <glyph glyph-name="O" unicode="O" horiz-adv-x="1562" 
d="M59 733q0 345 199 551q200 207 521 207q322 0 521 -208q200 -209 200 -550q0 -343 -199 -551q-200 -209 -521 -209h-2q-321 0 -520 208t-199 552zM354 856q0 -128 29 -270q28 -139 81 -265q52 -126 147 -207t211 -81l-2 -2q166 0 274 156t108 420q0 129 -27 267
q-27 139 -81 266q-54 128 -148 210t-213 82q-169 0 -274 -159t-105 -417z" />
    <glyph glyph-name="P" unicode="P" horiz-adv-x="1280" 
d="M35 1v14q116 44 143 81q27 38 27 162v948q0 124 -27 162t-142 81v14h610q264 0 416 -95t152 -291q0 -407 -682 -407h-47v-412q0 -125 31 -162q32 -38 156 -81v-14h-637zM485 725h39q424 0 424 348q0 168 -94 252t-262 84h-107v-684z" />
    <glyph glyph-name="Q" unicode="Q" horiz-adv-x="1562" 
d="M59 733q0 345 199 551q200 207 521 207q322 0 521 -208q200 -209 200 -550q0 -333 -187 -539q-188 -208 -492 -221l-4 1q56 -92 235 -134q182 -43 397 -44v-8l-195 -207q-174 40 -318 140q-142 99 -186 252q-311 11 -501 217t-190 543zM351 855q0 -128 29 -270
q28 -139 81 -265t147 -207t210 -81q166 0 274 156t108 420q0 129 -27 267q-27 139 -81 266q-54 128 -148 210t-213 82q-169 0 -274 -159t-105 -417z" />
    <glyph glyph-name="R" unicode="R" horiz-adv-x="1433" 
d="M37 1v14q116 44 143 81q27 38 27 162v948q0 124 -27 162t-142 81v14h637q257 0 404 -96t147 -258q0 -135 -99 -234q-100 -100 -255 -134q178 -284 369 -551l-1 3q64 -91 174 -176v-14h-373q-244 371 -442 713l-113 -6v-449q0 -128 28 -165q28 -38 141 -81v-14h-618z
M485 768h156q134 0 219 85t85 246q0 311 -319 311h-140z" />
    <glyph glyph-name="S" unicode="S" horiz-adv-x="1142" 
d="M101 484h15q79 -179 204 -316q124 -136 276 -136q101 0 168 65q66 65 66 177t-72 184q-73 73 -250 177q-102 59 -150 90q-44 29 -115 92q-67 60 -96 129q-28 68 -28 155q0 179 126 284t314 105q169 0 381 -82l41 -369h-14q-77 159 -187 276q-111 119 -236 119
q-87 0 -149 -58q-63 -58 -63 -165q0 -97 63 -157q62 -59 251 -168q92 -52 135 -81t108 -78q65 -50 93 -91q28 -42 51 -105q23 -64 23 -137q0 -208 -138 -315q-137 -106 -322 -106l1 -1q-212 0 -471 131z" />
    <glyph glyph-name="T" unicode="T" horiz-adv-x="1347" 
d="M53 1090l37 374h1172l34 -374h-14q-43 129 -142 223q-98 94 -248 94h-74v-1149q0 -124 27 -162q27 -37 143 -81v-14h-620v14q116 44 143 81q27 38 27 162v1149h-80q-146 0 -247 -93q-100 -92 -145 -224h-13z" />
    <glyph glyph-name="U" unicode="U" horiz-adv-x="1490" 
d="M36 1451v14h618v-14q-113 -44 -140 -81q-27 -38 -27 -165v-700q0 -219 96 -336t258 -117q152 0 260 102t108 311v592q0 154 -17 227q-17 71 -54 101q-39 31 -132 65v14h469l-3 -14q-93 -34 -132 -65q-37 -29 -55 -101q-18 -70 -18 -225v-590q0 -232 -134 -363
q-133 -130 -375 -130q-82 0 -157 15q-73 15 -148 53q-74 38 -128 96t-87 153t-33 213v702q0 124 -27 162t-142 81z" />
    <glyph glyph-name="V" unicode="V" horiz-adv-x="1456" 
d="M11 1452v12h621v-14q-89 -35 -121 -61q-33 -27 -33 -66q0 -31 35 -127l326 -866l311 841q29 79 29 119q0 46 -38 84q-37 37 -129 76v14l434 1v-12q-104 -57 -146 -111q-41 -53 -88 -175l-438 -1169h-86l-508 1296q-22 57 -54 90q-33 34 -115 68z" />
    <glyph glyph-name="W" unicode="W" horiz-adv-x="2193" 
d="M11 1447v14h621v-14q-92 -33 -126 -60q-35 -27 -35 -60q0 -17 12 -55l322 -922l252 733l-76 207q-19 55 -50 88q-29 30 -122 70v14h618v-14q-85 -34 -118 -63t-33 -69q0 -35 31 -119l297 -846l274 809q33 94 33 138q0 45 -37 78q-39 34 -133 74v14l446 -2v-14
q-109 -62 -150 -117t-81 -171l-416 -1165h-86l-360 987l-355 -987h-84l-473 1292q-20 58 -51 89q-32 32 -120 71z" />
    <glyph glyph-name="X" unicode="X" horiz-adv-x="1480" 
d="M26 -1v14q151 72 285 254l307 418l-366 578q-45 72 -87 111q-43 40 -128 74v14h653v-14q-143 -53 -143 -117q0 -29 33 -81l239 -381l240 338q43 61 43 108q0 74 -121 135v14h432v-14q-144 -62 -283 -248l-280 -381l395 -620v-4q47 -74 89 -113q43 -40 128 -74v-14h-655
v14q71 31 105 59q33 27 33 65q0 32 -29 78l-264 420l-262 -367q-53 -74 -53 -126q0 -74 127 -126v-14h-438z" />
    <glyph glyph-name="Y" unicode="Y" horiz-adv-x="1425" 
d="M13 1451v14h621v-14q-81 -43 -112 -66q-30 -23 -30 -51q0 -33 47 -110l295 -482l272 465q37 62 37 105q0 74 -133 138v14l408 2v-14q-61 -28 -112 -78q-52 -50 -69 -76q-21 -32 -57 -91l-322 -534v-414q0 -125 27 -162t143 -81v-14h-620v14q116 44 143 81t27 162v399
l-392 639q-32 54 -64 84q-32 31 -109 70z" />
    <glyph glyph-name="Z" unicode="Z" horiz-adv-x="1226" 
d="M61 -1v35l779 1372h-314q-151 0 -249 -94q-99 -94 -142 -223h-14l37 374h999v-34l-778 -1371h407q118 0 216 99q98 100 155 228l12 -1l-49 -385h-1059z" />
    <glyph glyph-name="bracketleft" unicode="[" horiz-adv-x="638" 
d="M176 -373v1968h389v-47h-217v-1876h217v-45h-389z" />
    <glyph glyph-name="backslash" unicode="\" horiz-adv-x="673" 
d="M37 1581h53l592 -1821h-53z" />
    <glyph glyph-name="bracketright" unicode="]" horiz-adv-x="622" 
d="M61 -328h218v1876h-218v47h390v-1968h-390v45z" />
    <glyph glyph-name="asciicircum" unicode="^" horiz-adv-x="1153" 
d="M176 836l387 628h33l387 -628h-59l-346 550l-342 -550h-60z" />
    <glyph glyph-name="underscore" unicode="_" horiz-adv-x="1013" 
d="M61 -176h895v-57h-895v57z" />
    <glyph glyph-name="grave" unicode="`" horiz-adv-x="462" 
d="M79 1464h266q13 -150 42 -327h-18h1q-102 107 -291 327z" />
    <glyph glyph-name="a" unicode="a" 
d="M63 215q0 141 160 246q162 106 475 191l4 148v8q0 62 -31 109q-33 51 -109 51q-98 0 -155 -96q-56 -95 -73 -220l-10 -2l-183 121q52 93 167 166q114 72 282 72q187 0 269 -91q78 -87 78 -207v-15l-12 -532q0 -70 51 -70q53 0 93 88l16 -8q-27 -79 -83 -137
q-56 -57 -144 -57l2 -2q-96 0 -133 63q-33 57 -33 131v16h-4q-45 -83 -139 -144q-95 -62 -217 -62q-124 0 -198 65q-73 64 -73 168zM324 279q0 -73 38 -116q38 -42 101 -42h-1q117 0 225 123l10 366q-202 -63 -288 -146q-85 -82 -85 -185z" />
    <glyph glyph-name="b" unicode="b" horiz-adv-x="1134" 
d="M-10 1456v14q198 12 384 70v-706h2q128 176 312 176l-4 -2q168 0 281 -141q113 -142 113 -364q0 -223 -117 -373t-304 -150q-68 0 -128 24t-96 51t-72 51t-63 24q-63 0 -147 -156h-25v1305q0 67 -28 102q-28 36 -108 75zM371 348q37 -126 104 -219q66 -92 156 -92l-1 -1
q94 0 141 108q47 109 47 292q0 214 -60 344q-60 131 -174 131q-110 0 -213 -145v-418z" />
    <glyph glyph-name="c" unicode="c" horiz-adv-x="962" 
d="M50 490q0 234 135 375t325 141q130 0 227 -63q98 -63 155 -149l-184 -144l-11 4q-12 118 -65 212q-52 93 -138 93q-90 0 -153 -103q-63 -104 -63 -265q0 -200 100 -316q100 -117 252 -117q110 0 180 58t102 138l19 -8q-29 -150 -129 -258t-276 -108l-3 -6
q-199 0 -336 141q-137 142 -137 375z" />
    <glyph glyph-name="d" unicode="d" horiz-adv-x="1159" 
d="M54 480q0 229 120 379t296 150q84 0 165 -35q80 -35 125 -75v377q0 128 -135 180v14q199 12 383 70v-1343q0 -62 26 -88q25 -25 110 -57v-12l-377 -61v186h-2q-51 -79 -135 -132q-85 -53 -184 -53v-2q-162 0 -277 136t-115 366zM308 549q0 -214 63 -344q63 -131 172 -131
l-2 1q115 0 217 141v432q-39 122 -106 211q-68 90 -156 90q-98 0 -143 -114t-45 -286z" />
    <glyph glyph-name="e" unicode="e" horiz-adv-x="1009" 
d="M50 491q0 229 140 374q140 144 351 144q95 0 172 -33q76 -33 118 -79q41 -45 70 -102q27 -53 37 -95q9 -39 9 -66v-25h-667l-2 -24q0 -215 108 -321q107 -106 265 -106q200 0 289 188l13 -10q-11 -52 -33 -105q-22 -51 -66 -115q-43 -62 -123 -100q-78 -37 -186 -37
q-213 0 -354 141t-141 371zM279 651l432 4q-1 37 -12 81t-33 96t-66 87t-101 35l-2 -1q-88 0 -145 -79q-56 -79 -73 -223z" />
    <glyph glyph-name="f" unicode="f" horiz-adv-x="704" 
d="M20 0v14q86 38 111 75t25 153v686h-129v57h129v88q0 467 290 467q130 0 318 -84l-160 -182l-10 4q-103 211 -195 211q-65 0 -65 -112q0 -121 69 -392h275l-16 -57h-259v-686q0 -115 29 -153q28 -37 129 -75v-14h-541z" />
    <glyph glyph-name="g" unicode="g" horiz-adv-x="1038" 
d="M25 -208q0 52 38 96t99 71q54 24 90 37q25 9 54 16q-4 0 -6 2l-16 2q-185 40 -187 158q0 70 63 123q64 53 168 80q-124 31 -195 110t-71 195q0 151 112 239q113 89 286 89h33q141 0 209 46q70 47 77 109l199 -67v-8q-98 -119 -281 -119q-43 0 -102 10v-8
q133 -29 222 -105q88 -76 88 -198q0 -135 -114 -222t-309 -87q-55 0 -98 7q-94 -22 -94 -80q0 -29 24 -41l25 -10q0 1 18.5 -3t59 -13t95.5 -21q69 -15 155.5 -34.5t90.5 -20.5l-1 -2q119 -29 189 -93q71 -65 71 -165q0 -83 -49 -145t-129 -97q-79 -35 -168 -51
q-86 -16 -178 -16q-111 0 -213 21q-103 21 -179 72t-76 123zM208 -186q0 -92 88 -141t222 -49v-1q126 0 213 43q89 44 89 126q0 51 -39 90q-38 38 -110 58q-34 9 -107 23q-78 15 -144 27t-67 12q-145 -72 -145 -188zM297 748q0 -127 59 -237t161 -110q67 0 111 54
q44 55 44 162q0 131 -60 240q-60 110 -156 110l-1 3q-68 0 -113 -57t-45 -165z" />
    <glyph glyph-name="h" unicode="h" horiz-adv-x="1204" 
d="M18 0v14q88 38 114 75q25 37 25 153v944q0 138 -26 181t-111 83v14q217 17 386 70v-741q145 217 360 217q116 0 201 -72q86 -72 86 -223v-473q0 -116 24 -153t110 -75v-14h-518v14q89 38 113 75t24 153q0 110 0.5 206t1 140t0.5 47q0 244 -166 244q-131 0 -237 -154v-483
q0 -116 24 -153t110 -75v-14h-521z" />
    <glyph glyph-name="i" unicode="i" horiz-adv-x="557" 
d="M19 14q89 38 114 75t25 153v424q0 138 -26 181t-111 83v14q217 17 386 70v-772q0 -116 24 -153t110 -75v-14h-521zM113 1292q0 53 43 93q44 41 100 41q57 0 100 -40t43 -94q0 -56 -43 -96q-44 -41 -100 -41t-100 41q-43 40 -43 96z" />
    <glyph glyph-name="j" unicode="j" horiz-adv-x="534" 
d="M-44 -414q104 56 147 139q44 85 44 239v701q0 138 -26 181t-111 83v14q213 17 385 70v-910q0 -427 -432 -531zM105 1292q0 52 44 93t101 41t100 -40t43 -94q0 -56 -43 -96q-44 -41 -100 -41h-2q-56 0 -100 41q-43 40 -43 96z" />
    <glyph glyph-name="k" unicode="k" horiz-adv-x="1142" 
d="M17 12q89 38 114 75t25 153v944q0 138 -26 181t-111 83v14q217 17 386 70v-1040l309 274q55 49 55 90q0 58 -108 113v14h428v-14q-2 -1 -7 -4t-14 -8l-18 -10l-18 -10t-14 -8t-7 -4t-12.5 -7t-20.5 -12q-29 -17 -35 -22q-9 -8 -30 -21q-16 -10 -33 -23q-4 -3 -8 -6.5
t-10 -8.5t-10 -8q-11 -9 -31 -27q-10 -9 -31 -30l-176 -154l330 -438q79 -106 183 -154v-14h-354l-332 465h-34v-223q0 -116 24 -153t110 -75v-14h-521z" />
    <glyph glyph-name="l" unicode="l" horiz-adv-x="557" 
d="M19 14q89 38 114 75t25 153v944q0 138 -26 181t-111 83v14q217 17 386 70v-1292q0 -116 24 -153t110 -75v-14h-521z" />
    <glyph glyph-name="m" unicode="m" horiz-adv-x="1792" 
d="M20 -4v14q88 38 114 75q25 37 25 153v426q0 134 -26 178q-25 44 -111 87v12q195 17 379 70v-228q131 223 339 225q97 0 177 -55t100 -168q131 223 339 225q112 0 198 -71t86 -218v-479l-1 -3q0 -116 25 -153q26 -38 111 -75v-14h-521v14q88 37 114 75t27 153q4 255 4 422
q0 103 -48 156t-120 53q-118 0 -209 -151v-481q0 -116 24 -153t110 -75v-14h-518v14q90 38 114 75q25 38 26 154q2 120 2 422q0 103 -48 156t-118 53q-119 0 -207 -151v-481q0 -116 24 -153t110 -75v-14h-521z" />
    <glyph glyph-name="n" unicode="n" horiz-adv-x="1204" 
d="M18 -1v14q88 37 114 75q25 37 25 153v426q0 134 -26 178q-25 43 -111 87v12q195 17 379 70v-230q150 225 367 226q116 0 201 -72q86 -72 86 -223v-473l1 -3q0 -115 24 -153q24 -37 110 -75v-14h-520v14q89 38 113 75q25 38 26 153q0 67 1 149t1 155q0 200 -34 267
q-35 68 -120 68q-83 0 -138 -39t-112 -115v-483q0 -115 24 -153q24 -37 110 -75v-14h-521z" />
    <glyph glyph-name="o" unicode="o" horiz-adv-x="1105" 
d="M52 483q0 224 137 376q136 151 369 151q221 0 357 -139q137 -140 137 -367q0 -228 -136 -376t-367 -148h-1q-220 0 -358 138t-138 365zM305 624q0 -82 17 -184q16 -95 50 -193q33 -95 91 -157q59 -63 130 -63l-2 1q86 0 146 86t60 254q0 88 -16 183q-16 96 -48 193
q-31 95 -90 157t-130 62q-88 0 -148 -87t-60 -252z" />
    <glyph glyph-name="p" unicode="p" horiz-adv-x="1150" 
d="M7 932v12q197 17 379 70l-2 -183l4 -2q130 181 312 181h3q170 0 284 -136t114 -360q0 -239 -125 -387q-125 -147 -293 -147q-158 0 -287 120h-4v-268q0 -115 35 -153q35 -37 156 -75v-15h-574v15q86 38 110 75t24 153v973q0 56 -27 80q-28 25 -109 47zM391 353
q34 -123 101 -219q66 -95 160 -95l-2 -1q95 0 143 104t48 285q0 213 -61 348q-62 137 -180 137q-102 0 -209 -143v-416z" />
    <glyph glyph-name="q" unicode="q" horiz-adv-x="1144" 
d="M52 488q0 232 123 377q123 146 299 146q89 0 162 -40q78 -43 125 -79q51 -39 82 -39q62 0 144 139h21v-1159q0 -115 24 -153q24 -37 113 -75v-15h-576l-1 14q122 37 157 75q34 37 34 153v324h-2q-49 -71 -129 -124q-79 -52 -180 -52q-168 0 -282 142t-114 366zM307 545
q0 -215 63 -342q63 -128 172 -128h-3q121 0 217 145v443q-39 119 -105 201q-66 83 -154 83q-97 0 -144 -111q-46 -110 -46 -291z" />
    <glyph glyph-name="r" unicode="r" horiz-adv-x="839" 
d="M19 13q89 37 114 75q25 37 25 153v432q0 125 -24 173q-24 47 -113 85v12q201 17 379 70l-6 -207h6q28 77 101 141q72 63 175 63q58 0 98 -27l-29 -272h-14q-112 139 -201 139q-76 0 -123 -98v-510q0 -116 30 -153t138 -75v-14h-555z" />
    <glyph glyph-name="s" unicode="s" horiz-adv-x="854" 
d="M62 733q0 135 99 207t236 72q132 0 314 -64l22 -256l-14 -2q-185 274 -336 276q-53 0 -89 -37t-36 -97q0 -39 17 -73q16 -32 56 -63q36 -28 72 -49q33 -19 99 -51q148 -72 222 -145q75 -73 75 -189q0 -130 -96 -210q-95 -79 -253 -79v1q-159 0 -357 82l-28 277l12 2
q218 -314 379 -315q61 0 100 40t39 102q0 77 -58 126q-59 50 -180 111q-50 24 -84 44q-32 19 -75 49q-47 34 -72 64q-26 32 -45 78q-19 45 -19 99z" />
    <glyph glyph-name="t" unicode="t" horiz-adv-x="677" 
d="M27 929v28q251 163 324 294h23v-266h268l-8 -57h-258l-4 -631v-9q0 -100 43 -144q45 -46 108 -46q73 0 144 72l8 -10q-112 -178 -288 -178h-1q-108 0 -184 71q-75 71 -75 206v670h-100z" />
    <glyph glyph-name="u" unicode="u" horiz-adv-x="1200" 
d="M19 931v14q214 17 384 70q0 -34 -2 -348t-2 -346q0 -106 48 -160t122 -54q122 0 234 130v430q0 135 -24 179t-112 84v14q191 12 384 68v-774h-1q0 -98 24 -128t110 -57v-12l-377 -70v213q-151 -211 -366 -211q-115 0 -201 72q-85 72 -85 223v398q0 134 -25 180t-111 85z
" />
    <glyph glyph-name="v" unicode="v" horiz-adv-x="1077" 
d="M4 967v14h526v-14q-66 -28 -92 -53q-26 -24 -26 -57q0 -25 24 -84l209 -502q33 78 63 156q11 28 28.5 73.5t24.5 63.5q5 13 13.5 35.5t15 39t11.5 29.5q9 23 28 74q11 28 12 33q14 39 14 69q0 38 -27 65q-28 28 -93 62v14l342 -4v-14q-85 -51 -114 -88q-30 -37 -63 -114
l-323 -772h-68l-356 827q-19 50 -51 81q-31 31 -98 66z" />
    <glyph glyph-name="w" unicode="w" horiz-adv-x="1677" 
d="M2 968v14h526v-14q-69 -26 -96 -49q-28 -24 -28 -57q0 -29 16 -65q41 -101 222 -518l170 415l-59 140q-35 82 -150 135v14h526v-14q-67 -22 -96 -47q-29 -24 -29 -57q0 -27 16 -63q93 -223 223 -522q110 271 195 493q14 36 14 66q0 37 -27 64q-29 29 -94 68v14l343 -5
v-14q-84 -52 -117 -93t-60 -102l-321 -776h-68l-268 631l-267 -631h-65l-356 833q-35 79 -150 140z" />
    <glyph glyph-name="x" unicode="x" horiz-adv-x="1101" 
d="M16 -2v14q69 37 115 72q45 34 96 99l213 273l-274 397q-58 89 -141 117v14h548v-14q-129 -34 -129 -81q0 -25 39 -82l148 -219l157 215q27 37 27 63q0 51 -110 105v14h354v-14q-125 -62 -213 -178l-187 -248l289 -414v-2q44 -62 142 -117v-14h-551v14q133 39 133 82
q0 13 -23 47l-180 273l-176 -234q-25 -34 -25 -63q0 -66 113 -105v-14h-365z" />
    <glyph glyph-name="y" unicode="y" 
d="M4 970v14h547v-14q-119 -53 -119 -113q0 -27 21 -72l219 -489q101 240 188 477q12 31 12 57q0 77 -127 141v14l347 -3v-14q-79 -45 -114 -88q-35 -42 -67 -123q-287 -711 -340 -813q-79 -153 -138 -229q-59 -75 -164 -149l-133 174l4 12q12 -1 23 -1q101 0 195 40
q104 43 154 147l31 63l-387 825q-23 48 -55 81q-33 35 -97 63z" />
    <glyph glyph-name="z" unicode="z" horiz-adv-x="942" 
d="M55 0v27l557 911h-250q-49 0 -97 -50q-47 -49 -159 -224h-12l33 321h760v-30l-553 -909h276q57 0 107 53q49 52 147 233h13l-33 -332h-789z" />
    <glyph glyph-name="braceleft" unicode="{" horiz-adv-x="741" 
d="M93 595v27q59 10 114 78q56 68 56 192q0 50 -10 104l-14 78q-11 64 -13 125q0 135 65 230q65 96 157 137q93 42 211 54l9 -18q-252 -56 -252 -340q0 -78 18 -179l17 -88q8 -46 8 -88q0 -131 -69 -210q-69 -80 -145 -87q76 -10 145 -90t69 -209q0 -42 -8 -88l-17 -88
l-3 -1q-18 -102 -18 -178q0 -284 252 -340l-9 -18q-118 12 -210 54t-156 136t-64 229q0 60 13 125l14 78q10 54 10 105q0 125 -55 192q-56 68 -115 78z" />
    <glyph glyph-name="bar" unicode="|" horiz-adv-x="372" 
d="M160 -240v1821h57v-1821h-57z" />
    <glyph glyph-name="braceright" unicode="}" horiz-adv-x="700" 
d="M36 1598l6 19q119 -12 212 -54q94 -43 158 -136q65 -95 65 -229q0 -58 -12 -125l-14 -78l-1 -1q-10 -57 -12 -104q0 -124 56 -192t114 -78v-27q-58 -11 -114 -78q-55 -67 -55 -192q0 -44 11 -105l14 -78q12 -67 12 -125q0 -135 -64 -229t-157 -136t-212 -54l-6 18
q125 29 188 108q63 80 63 231q0 80 -19 178l-16 88q-8 46 -8 88q0 129 68 209q67 79 146 90q-76 10 -145 90t-69 208q0 42 8 88l16 88q17 99 19 181q0 283 -252 337z" />
    <glyph glyph-name="asciitilde" unicode="~" horiz-adv-x="956" 
d="M36 648q128 219 291 219q68 0 206 -72t216 -72q76 0 156 47l21 -16q-105 -185 -250 -185l-1 -1q-71 0 -204 70t-216 70q-101 0 -199 -76z" />
    <glyph glyph-name="uni00A0" unicode="&#xa0;" horiz-adv-x="462" 
 />
    <glyph glyph-name="exclamdown" unicode="&#xa1;" horiz-adv-x="479" 
d="M95 872q0 58 43 101t103 43q59 0 103 -42q43 -42 43 -102q0 -57 -43 -99q-44 -42 -103 -42t-103 42q-43 42 -43 99zM105 -446q36 237 109 1028h53q72 -767 109 -1028v-19h-271v19z" />
    <glyph glyph-name="cent" unicode="&#xa2;" horiz-adv-x="962" 
d="M54 493q0 224 124 363q124 140 309 150v137h54v-135q217 -12 354 -213l-184 -144l-11 4q-14 109 -54 192t-105 105v-780q45 -14 96 -14q104 0 174 58q71 58 102 138l19 -8l2 -4q-28 -144 -125 -253q-96 -108 -268 -112v-168h-54v170q-185 13 -309 153q-124 139 -124 361z
M281 588v2q0 -146 55 -250q56 -105 151 -150v768q-78 -4 -142 -103q-64 -98 -64 -267z" />
    <glyph glyph-name="sterling" unicode="&#xa3;" horiz-adv-x="1114" 
d="M53 775v53h178q-49 116 -49 220q0 184 123 309t338 125q145 0 318 -56l40 -309h-14q-79 129 -180 221q-102 93 -199 93q-85 0 -151 -68q-66 -67 -66 -176q0 -75 56 -190q56 -114 69 -169h299v-53h-289q6 -47 6 -99q0 -50 -3 -81q-3 -32 -18 -86t-45 -99q-31 -47 -88 -105
q-60 -62 -141 -122h522q67 0 132 71q66 72 110 162l14 1l-53 -416h-902v78q135 90 192 201t57 261q0 105 -55 234h-201z" />
    <glyph glyph-name="currency" unicode="&#xa4;" horiz-adv-x="1062" 
d="M37 224l133 133l-2 2v2h2q-117 137 -117 312q0 179 119 319l-133 133l49 47l133 -133q129 117 316 117q175 0 315 -119v2l2 -2l131 133l45 -47l-131 -131l2 -2h-2q121 -140 121 -317q0 -175 -117 -315v1q0 -2 -1 -2t-1 -2l129 -129l-45 -49l-131 131h-2
q-140 -117 -315 -117q-180 0 -320 119l-133 -133zM125 672q0 -170 121 -291t289 -121q167 0 288 121q122 122 122 291q0 173 -120 293t-288 120t-289 -121t-121 -291z" />
    <glyph glyph-name="yen" unicode="&#xa5;" horiz-adv-x="1372" 
d="M11 1426v13h602v-13q-75 -39 -106 -65q-28 -24 -28 -52q0 -30 47 -109l281 -469l258 453q37 62 37 106q0 72 -129 137v13l387 -3v-13q-59 -33 -101 -73q-46 -44 -65 -73q-21 -32 -60 -96l-277 -471h260v-49h-289v-177h291v-49h-291v-180q0 -125 28 -162q29 -38 142 -81
v-14h-620v14q116 44 143 81q27 38 27 162v180h-287v49h287v160l-10 17h-279v49h250l-336 559q-23 38 -36 57q-13 18 -45 46q-33 28 -81 53z" />
    <glyph glyph-name="section" unicode="&#xa7;" horiz-adv-x="1105" 
d="M120 622q0 209 223 318q-143 122 -143 261q0 119 92 203t249 84q153 0 306 -64l25 -276h-15q-58 116 -141 205q-82 88 -174 88q-58 0 -107 -44q-48 -43 -48 -114q0 -17 5 -40q4 -19 17 -40q18 -30 22 -35q11 -16 31 -33q8 -7 20 -18l13 -11q11 -10 37 -28q27 -19 37 -24
q12 -6 39 -24q7 -5 15 -10t12 -8t6 -4q352 -222 352 -451h-7q0 -107 -63 -177q-62 -69 -171 -133q141 -119 141 -258q0 -129 -99 -214q-98 -85 -258 -85q-146 0 -322 76l-18 290h14q56 -129 141 -222t186 -93q67 0 119 39q53 39 53 115q0 41 -15 75q-16 36 -55 74
q-43 41 -67 60q-34 26 -93 68q-5 4 -11.5 9t-9.5 7q-84 61 -134 101q-46 37 -102 95q-54 55 -78 113q-24 57 -24 125zM279 726q0 -84 63 -156t216 -183q116 -77 156 -111v1q100 91 100 191q0 51 -24 99q-24 49 -78 98q-58 54 -91 77q-37 27 -111 78q-69 47 -131 94
q-100 -78 -100 -188z" />
    <glyph glyph-name="dieresis" unicode="&#xa8;" horiz-adv-x="753" 
d="M78 1290q0 51 37 88t88 37q52 0 89 -37q38 -38 38 -88q0 -51 -38 -89t-89 -38t-88 37t-37 90zM430 1290q0 51 37 88t88 37q52 0 89 -37q38 -38 38 -88q0 -51 -38 -89t-89 -38q-50 0 -88 38q-37 37 -37 89z" />
    <glyph glyph-name="copyright" unicode="&#xa9;" horiz-adv-x="1669" 
d="M85 735q0 309 220 528q221 219 530 219t528 -219t219 -528q0 -308 -218 -528q-218 -219 -529 -219q-312 0 -531 219t-219 528zM150 735q0 -285 205 -487q206 -203 480 -203l-2 -2q283 0 484 207t201 483q0 279 -201 485t-481 206q-276 0 -481 -202t-205 -487zM369 739
q0 238 134 380q133 141 336 141q127 0 305 -52l27 -237h-9q-164 254 -325 254h1q-112 0 -194 -120q-83 -121 -83 -343q0 -230 88 -355q89 -126 199 -126q80 0 165 75q85 74 150 176h9l-27 -240q-160 -49 -303 -49q-210 0 -341 130q-132 131 -132 366z" />
    <glyph glyph-name="ordfeminine" unicode="&#xaa;" horiz-adv-x="679" 
d="M33 1031q0 90 98 152q97 61 282 111l2 97q0 92 -70 92q-106 0 -135 -191l-6 -2l-125 70q32 59 104 104t182 45q127 0 177 -60t48 -146l-6 -297q0 -41 32 -41q29 0 51 49l10 -4q-18 -52 -57 -86q-40 -35 -96 -35l-2 -2q-112 0 -110 129v2q-72 -129 -215 -129
q-77 0 -120 40q-44 41 -44 102zM218 1080q0 -43 21 -67t56 -24v-2q59 0 114 64l4 215q-195 -58 -195 -186z" />
    <glyph glyph-name="guillemotleft" unicode="&#xab;" horiz-adv-x="1091" 
d="M86 504v20q259 206 481 414h43q-120 -213 -278 -424q159 -211 278 -424h-43q-222 209 -481 414zM485 504v20q267 211 482 414h43h1q-118 -216 -279 -424q161 -208 279 -424h-43q-218 207 -483 414z" />
    <glyph glyph-name="uni00AD" unicode="&#xad;" horiz-adv-x="747" 
d="M78 504v76h596v-76h-596z" />
    <glyph glyph-name="registered" unicode="&#xae;" horiz-adv-x="1155" 
d="M86 1075q0 203 144 347t350 144q203 0 347 -144t144 -347t-144 -347t-347 -144h-1q-205 0 -349 144t-144 347zM137 1074q0 -182 132 -309q133 -128 310 -128v-2q180 0 309 131q129 130 129 306q0 178 -129 310t-309 132q-178 0 -310 -129t-132 -311zM330 793v4
q44 17 54 33t10 66v379q0 50 -10 66q-10 17 -54 33v6h237q97 0 152 -39q56 -39 56 -101q0 -66 -52 -109t-130 -43h-27v-3q41 -27 96 -20q78 -142 117 -197l1 -3q26 -35 66 -66v-4h-137q-109 175 -171 285l-43 -2v-182q0 -50 10 -66q11 -16 54 -33v-4h-229zM496 1101h65
q47 0 80 34q33 35 33 97q0 125 -123 125h-55v-256z" />
    <glyph glyph-name="macron" unicode="&#xaf;" horiz-adv-x="673" 
d="M78 1204v135h522v-135h-522z" />
    <glyph glyph-name="degree" unicode="&#xb0;" horiz-adv-x="856" 
d="M110 1170q0 134 94 227t225 93t225 -93q95 -93 95 -226q0 -134 -94 -225q-95 -92 -225 -92l-1 -1q-130 0 -225 92q-94 91 -94 225zM171 1175q0 -111 75 -189t183 -78l-1 -1q109 0 182 79q74 80 74 188q0 109 -73 185t-182 76q-108 0 -183 -76q-75 -77 -75 -184z" />
    <glyph glyph-name="uni00B2" unicode="&#xb2;" horiz-adv-x="616" 
d="M6 900v29q193 194 283 332q88 134 88 241q0 78 -40 121t-99 43q-102 0 -197 -108l-18 8q49 88 127 151t170 63q88 0 154 -60t66 -160q0 -116 -90 -225q-91 -111 -286 -282h250l-1 -1q66 0 99 18q31 17 76 74l8 -2l-76 -242h-514z" />
    <glyph glyph-name="uni00B3" unicode="&#xb3;" horiz-adv-x="669" 
d="M40 938l72 174l10 -2q78 -190 186 -190q58 0 99 60q41 61 41 148q0 89 -44 147q-44 57 -119 57q-49 0 -108 -24l-8 24q231 111 231 238q0 56 -36 84q-37 29 -94 29q-118 0 -209 -102l-16 12l3 -4q129 185 305 187q87 0 145 -47q57 -47 57 -120q0 -143 -217 -216v-2
q15 4 49 4q92 0 158 -60t66 -171q0 -129 -93 -204t-224 -75q-112 0 -254 53z" />
    <glyph glyph-name="acute" unicode="&#xb4;" horiz-adv-x="462" 
d="M78 1137q20 115 45 327h266q-189 -220 -291 -327h-20z" />
    <glyph glyph-name="paragraph" unicode="&#xb6;" horiz-adv-x="999" 
d="M37 1018q0 184 101 315t243 131h164l-1 -1463h-287v14q116 44 143 81q27 38 27 162v317h-47q-142 0 -243 131q-100 130 -100 312zM679 1v1464h287l-1 -16q-115 -43 -142 -81t-27 -162v-948q0 -124 27 -162q27 -37 143 -81v-14h-287z" />
    <glyph glyph-name="periodcentered" unicode="&#xb7;" horiz-adv-x="481" 
d="M85 587q0 63 47 110t110 47t110 -47q46 -46 46 -110t-46 -110q-47 -47 -109 -47h-1q-63 0 -110 47t-47 110z" />
    <glyph glyph-name="cedilla" unicode="&#xb8;" horiz-adv-x="573" 
d="M78 -440l16 34l-2 2q110 10 177 45q68 35 68 90q0 47 -51 78t-135 33l108 152h39l-37 -62q238 -18 238 -157q0 -103 -109 -160t-312 -55z" />
    <glyph glyph-name="uni00B9" unicode="&#xb9;" horiz-adv-x="452" 
d="M44 1675v6l293 105v-731q0 -70 15 -94q14 -23 80 -52v-8h-369l1 7q62 27 78 51q17 25 17 96v504q0 45 -24 68t-91 48z" />
    <glyph glyph-name="ordmasculine" unicode="&#xba;" horiz-adv-x="688" 
d="M31 1194q0 140 86 228q85 87 227 87t228 -83q85 -82 85 -222t-86 -228q-85 -87 -227 -87q-143 0 -228 82t-85 223zM215 1297q0 -119 40 -246q41 -129 118 -129l1 -1q44 0 71 44q27 43 27 134q0 119 -39 249t-115 130q-43 0 -73 -46t-30 -135z" />
    <glyph glyph-name="guillemotright" unicode="&#xbb;" horiz-adv-x="1091" 
d="M86 90q118 216 279 424q-161 208 -279 424h43q220 -208 481 -414v-20q-261 -205 -481 -414h-43zM485 92q111 202 279 423q-168 221 -279 423l44 2q216 -203 482 -414v-20q-263 -207 -483 -414h-43z" />
    <glyph glyph-name="onequarter" unicode="&#xbc;" horiz-adv-x="1611" 
d="M44 1384v9l293 104v-731q0 -72 15 -96q14 -23 80 -49v-9h-369l1 9q62 26 79 50q16 22 16 95v502q0 46 -24 69q-25 24 -91 47zM214 0l1008 1464h55l-1008 -1464h-55zM882 254v18l505 605h31v-553h129l-12 -70l-116 -2v-100q0 -72 15 -94t78 -51v-8h-352v8q66 29 80 53
q14 25 14 94v100h-372zM971 322h284v350z" />
    <glyph glyph-name="onehalf" unicode="&#xbd;" horiz-adv-x="1574" 
d="M44 1384v9l293 104v-731q0 -72 15 -96q14 -23 80 -49v-9h-369l1 9q62 26 79 50q16 22 16 95v502q0 46 -24 69q-25 24 -91 47zM214 0l1008 1464h55l-1008 -1464h-55zM923 2v29q371 373 369 573q0 78 -40 121t-99 43q-103 0 -197 -109l-18 9q50 86 129 149t169 63
q88 0 154 -60t66 -161q0 -115 -89 -225t-285 -282h250l-3 2q66 0 99 18q31 17 76 74l8 -2l-75 -242h-514z" />
    <glyph glyph-name="threequarters" unicode="&#xbe;" horiz-adv-x="1726" 
d="M38 648l72 176l10 -2q78 -190 186 -190q58 0 99 60q41 61 41 148q0 89 -44 147q-44 57 -120 57q-46 0 -105 -24l-8 24q231 111 231 236q0 58 -36 86q-37 29 -94 29q-119 0 -209 -105l-16 15l1 -2q129 184 305 184q90 0 146 -47t56 -119q0 -141 -217 -219v-2q26 6 51 6
q91 0 156 -61q66 -61 66 -169q0 -129 -93 -204t-222 -75q-116 0 -256 51zM331 -2l1007 1464h56l-1008 -1464h-55zM998 252v18l506 605h31v-553h129l-12 -70l-116 -2v-100q0 -72 15 -94t78 -51v-8h-352v8q66 29 80 53q14 25 14 94v100h-373zM1087 320h285v350z" />
    <glyph glyph-name="questiondown" unicode="&#xbf;" horiz-adv-x="901" 
d="M48 -158q0 90 43 169q43 78 107 141q70 69 129 122q65 59 120 140q55 80 68 168h76q-6 -101 -41 -196q-34 -91 -80 -159q-50 -73 -90 -128q-44 -61 -76 -133q-31 -71 -31 -148q0 -103 50 -182q50 -78 128 -78q142 0 264 323l6 2l137 -231q-195 -141 -416 -141
q-171 0 -283 89q-111 88 -111 242zM400 872q0 58 43 101t103 43t103 -42t43 -102q0 -57 -43 -99t-103 -42t-103 42t-43 99z" />
    <glyph glyph-name="Agrave" unicode="&#xc0;" horiz-adv-x="1480" 
d="M26 1v14q111 79 159 156t114 255l301 827l-65 131q155 63 247 129l500 -1316h1q28 -77 59 -111q30 -33 120 -72v-14h-622v14q89 37 123 65q33 27 33 65q0 32 -30 115l-88 242h-490l-22 -62q-72 -193 -72 -258q0 -58 37 -92q39 -35 129 -74v-14h-434zM419 588h428
l-215 594zM524 1888h269q16 -156 45 -313h-21q-143 143 -293 313z" />
    <glyph glyph-name="Aacute" unicode="&#xc1;" horiz-adv-x="1480" 
d="M26 1v14q111 79 159 156t114 255l301 827l-65 131q155 63 247 129l500 -1316h1q28 -77 59 -111q30 -33 120 -72v-14h-622v14q89 37 123 65q33 27 33 65q0 32 -30 115l-88 242h-490l-22 -62q-72 -193 -72 -258q0 -58 37 -92q39 -35 129 -74v-14h-434zM419 588h428
l-215 594zM649 1561q25 162 45 327h267q-173 -201 -291 -327h-21z" />
    <glyph glyph-name="Acircumflex" unicode="&#xc2;" horiz-adv-x="1480" 
d="M25 1v14q111 79 159 156t114 255l301 827l-65 131q155 63 247 129l500 -1316h1q28 -77 59 -111q30 -33 120 -72v-14h-622v14q89 37 123 65q33 27 33 65q0 32 -30 115l-88 242h-490l-22 -62q-72 -193 -72 -258q0 -58 37 -92q39 -35 129 -74v-14h-434zM418 588h428
l-215 594zM480 1538q137 191 260 375h15q127 -193 261 -375l-12 -12l-254 168l-257 -168z" />
    <glyph glyph-name="Atilde" unicode="&#xc3;" horiz-adv-x="1480" 
d="M25 -1v14q111 79 159 156t114 255l301 827l-65 131q155 63 247 129l500 -1316h1q28 -77 59 -111q30 -33 120 -72v-14h-622v14q89 37 123 65q33 27 33 65q0 32 -30 115l-88 242h-490l-22 -62q-72 -193 -72 -258q0 -58 37 -92q39 -35 129 -74v-14h-434zM414 1591
q37 205 225 205q45 0 141 -31q112 -35 132 -33q60 0 84 10q25 10 64 48l18 -4q-20 -113 -73 -159t-157 -46q-25 0 -133 33q-119 35 -152 35l-1 -2q-74 0 -132 -60zM418 586h428l-215 594z" />
    <glyph glyph-name="Adieresis" unicode="&#xc4;" horiz-adv-x="1480" 
d="M24 -2v14q111 80 159 156t114 255l301 827l-65 131q155 63 247 129l500 -1316h1q28 -77 59 -111q30 -33 120 -72v-14h-622v14q89 37 123 65q33 27 33 65q0 33 -30 115l-88 242h-490l-22 -62q-72 -194 -72 -258q0 -58 37 -92q39 -35 129 -74v-14h-434zM413 1682
q0 53 38 91t92 38q52 0 90 -37q39 -38 39 -91t-39 -91q-40 -38 -90 -38l-2 -2q-52 0 -90 38t-38 92zM417 585h428l-215 594zM815 1681q0 54 37 91q38 38 90 38q53 0 90 -37q38 -38 38 -91t-38 -91q-37 -37 -90 -37v-1q-52 0 -89 37q-38 38 -38 91z" />
    <glyph glyph-name="Aring" unicode="&#xc5;" horiz-adv-x="1480" 
d="M22 -3v14q111 79 159 156t114 255l301 827l-65 131q155 63 247 129l500 -1316h1q28 -77 59 -111q30 -33 120 -72v-14h-622v14q89 37 123 65q33 27 33 65q0 32 -30 115l-88 242h-490l-22 -62q-72 -193 -72 -258q0 -58 37 -92q39 -35 129 -74v-14h-434zM415 584h428
l-215 594zM557 1728q0 78 54 133t132 55t132 -55t54 -132q0 -83 -54 -138t-132 -55v-2q-78 0 -132 56t-54 138zM618 1727q0 -55 38 -99t90 -44q53 0 86 41q33 40 33 98q0 59 -36 101t-89 42l-3 -2q-50 0 -85 -41q-34 -40 -34 -96z" />
    <glyph glyph-name="AE" unicode="&#xc6;" horiz-adv-x="1990" 
d="M7 -2v14q83 62 135 120q54 60 122 174l580 983q10 16 10 31q0 28 -34 53t-123 75v14h1078l36 -374h-12q-45 132 -145 224q-100 93 -247 93h-213v-594h209q158 0 248 148h10v-369h-10q-90 168 -248 166l-209 -4v-602q0 -40 66 -66q67 -26 181 -26h71q119 0 215 99t153 228
h13l-49 -385h-1102v14q116 44 143 81t27 162v240h-475l-110 -187q-56 -94 -58 -147q0 -43 38 -78q36 -34 126 -73v-14h-426zM486 582h426v718h-4z" />
    <glyph glyph-name="Ccedilla" unicode="&#xc7;" horiz-adv-x="1390" 
d="M62 716q0 354 201 564t508 210q193 0 457 -74l41 -364h-13q-100 156 -228 270t-261 114q-163 0 -284 -178q-122 -179 -122 -513q0 -343 127 -528q128 -186 288 -186l1 -3q125 0 251 114q124 112 226 272h15l-41 -369q-233 -73 -451 -74l-16 -34q270 -23 270 -180
q0 -181 -385 -180l10 35q104 8 161 39t57 78q0 50 -58 84q-58 35 -150 36l69 123q-289 6 -481 201t-192 543z" />
    <glyph glyph-name="Egrave" unicode="&#xc8;" horiz-adv-x="1294" 
d="M35 -1v14q116 44 143 81q27 38 27 162v948q0 124 -27 162t-142 81v14h1038l37 -374h-12q-45 132 -145 224q-100 93 -247 93h-220v-596h218q157 0 246 147h11v-368h-11q-91 168 -246 166l-218 -4v-600q0 -40 65 -66q66 -26 180 -26h84q119 0 215 99t153 228h12l-49 -385
h-1112zM438 1890h267q26 -213 45 -329l-21 -1q-131 140 -291 330z" />
    <glyph glyph-name="Eacute" unicode="&#xc9;" horiz-adv-x="1294" 
d="M36 0v14q116 44 143 81t27 162v948q0 125 -27 162q-27 38 -142 81v14h1038l37 -374h-12q-45 132 -145 224q-100 93 -247 93h-220v-596h218q158 0 246 147h11v-368h-11q-91 168 -246 166l-218 -4v-600q0 -40 65 -66q66 -26 180 -26h84q119 0 215 99t153 228h12l-49 -385
h-1112zM563 1561q25 162 45 327h266h1q-173 -201 -291 -327h-21z" />
    <glyph glyph-name="Ecircumflex" unicode="&#xca;" horiz-adv-x="1294" 
d="M34 0v14q116 44 143 81t27 162v948q0 125 -27 162q-27 38 -142 81v14h1038l37 -374h-12q-45 132 -145 224q-101 93 -247 93h-220v-596h218q158 0 246 147h11v-368h-11q-91 168 -246 166l-218 -4v-600q0 -40 65 -66q66 -26 180 -26h84q119 0 215 99t153 228h12l-49 -385
h-1112zM394 1538q137 191 260 375h15q127 -193 261 -375l-12 -12l-254 168l-257 -168z" />
    <glyph glyph-name="Edieresis" unicode="&#xcb;" horiz-adv-x="1294" 
d="M33 -3v14q116 44 143 81q27 38 27 162v948q0 124 -27 162t-142 81v14h1038l37 -374h-12q-45 132 -145 224q-100 93 -247 93h-220v-596h218q157 0 246 147h11v-368h-11q-91 168 -246 166l-218 -4v-600q0 -40 65 -66q66 -26 180 -26h84q119 0 215 99t153 228h12l-49 -385
h-1112zM327 1682q0 53 38 91t92 38q52 0 90 -37q39 -38 39 -91t-39 -91q-40 -38 -90 -38l-2 -2q-52 0 -90 38t-38 92zM729 1681q0 54 37 91q38 38 90 38q53 0 90 -37q38 -38 38 -91t-38 -91q-37 -37 -90 -37v-1q-52 0 -89 37q-38 38 -38 91z" />
    <glyph glyph-name="Igrave" unicode="&#xcc;" horiz-adv-x="688" 
d="M34 19q116 44 143 81q27 38 27 162v948q0 124 -27 162t-142 81v14h618v-14q-113 -44 -140 -81q-27 -38 -27 -165v-948q0 -128 28 -165q28 -38 141 -81v-14h-618zM131 1890h266q26 -215 45 -329h-20v-1q-130 140 -291 330z" />
    <glyph glyph-name="Iacute" unicode="&#xcd;" horiz-adv-x="688" 
d="M34 20q116 44 143 81t27 162v948q0 125 -27 162q-27 38 -142 81v14h618v-14q-113 -44 -140 -81t-27 -165v-948q0 -128 28 -165t141 -81v-14h-618zM254 1561q26 162 45 327h266q-173 -200 -291 -327h-20z" />
    <glyph glyph-name="Icircumflex" unicode="&#xce;" horiz-adv-x="688" 
d="M34 20q116 44 143 81t27 162v948q0 125 -27 162q-27 38 -142 81v14h618v-14q-113 -44 -140 -81t-27 -165v-948q0 -128 28 -165t141 -81v-14h-618zM86 1538q137 191 260 375h14q128 -193 261 -375l-13 -12l-254 168l-256 -168z" />
    <glyph glyph-name="Idieresis" unicode="&#xcf;" horiz-adv-x="688" 
d="M16 1682q0 53 38 91t92 38t91 -37q38 -38 38 -91q0 -54 -37 -91q-38 -38 -91 -38l-2 -2q-53 0 -91 38t-38 92zM31 17q116 44 143 81q27 38 27 162v948q0 124 -27 162t-142 81v14h618v-14q-113 -44 -140 -81q-27 -38 -27 -165v-948q0 -128 28 -165q29 -38 141 -81v-14
h-618zM419 1681q0 54 37 91q38 38 90 38q53 0 90 -37q38 -38 38 -91t-38 -91q-37 -37 -90 -37v-1q-53 0 -90 37t-37 91z" />
    <glyph glyph-name="Eth" unicode="&#xd0;" horiz-adv-x="1482" 
d="M36 2v14q116 44 143 81t27 162v479h-98v54h98v415q0 125 -27 162q-27 38 -142 81v14h555l-3 2q410 0 620 -189t210 -512q0 -329 -199 -546t-535 -217h-649zM484 154q0 -82 209 -93l-1 -1q200 12 312 195q113 184 113 497q0 657 -538 657h-95v-616h224v-54h-224v-585z" />
    <glyph glyph-name="Ntilde" unicode="&#xd1;" horiz-adv-x="1507" 
d="M35 -3v14q95 35 132 66t55 102t18 227v866q-47 98 -198 176v14h408q400 -606 768 -1200v793q0 157 -18 227q-18 72 -55 101q-39 31 -132 65v14h471l-1 -17q-93 -34 -132 -65q-37 -29 -55 -101q-18 -71 -18 -225v-1057h-211q-389 631 -768 1200v-792q0 -155 18 -226
t55 -102q38 -31 132 -66v-14h-469zM444 1591q37 205 226 205q45 0 141 -31q113 -35 132 -33q60 0 84 10q25 10 64 48l18 -4q-20 -113 -73 -159t-157 -46q-25 0 -135 33q-117 35 -150 35l-1 -2q-73 0 -132 -60z" />
    <glyph glyph-name="Ograve" unicode="&#xd2;" horiz-adv-x="1562" 
d="M59 732q0 345 199 551q200 207 521 207q322 0 521 -208q200 -209 200 -550q0 -343 -199 -551q-200 -209 -521 -209h-2q-321 0 -520 208t-199 552zM354 855q0 -128 29 -270q28 -139 81 -265q52 -126 147 -207t211 -81l-2 -2q166 0 274 156t108 420q0 129 -27 267
q-27 139 -81 266q-54 128 -148 210t-213 82q-169 0 -274 -159t-105 -417zM563 1890h266q26 -215 45 -329h-20v-1q-130 140 -291 330z" />
    <glyph glyph-name="Oacute" unicode="&#xd3;" horiz-adv-x="1562" 
d="M59 733q0 345 199 551q200 207 521 207q322 0 521 -208q200 -209 200 -550q0 -343 -199 -551q-200 -209 -521 -209h-2q-321 0 -520 208t-199 552zM354 856q0 -128 29 -270q28 -139 81 -265q52 -126 147 -207t211 -81l-2 -2q166 0 274 156t108 420q0 129 -27 267
q-27 139 -81 266q-54 128 -148 210t-213 82q-169 0 -274 -159t-105 -417zM688 1561q26 162 45 327h266q-165 -193 -290 -327h-21z" />
    <glyph glyph-name="Ocircumflex" unicode="&#xd4;" horiz-adv-x="1562" 
d="M58 733q0 345 199 551q199 207 521 207t521 -208q200 -209 200 -550q0 -343 -199 -551q-200 -209 -521 -209h-2q-321 0 -520 208t-199 552zM353 856q0 -128 29 -270q28 -139 81 -265t147 -207t211 -81l-2 -2q166 0 274 156t108 420q0 129 -27 267q-27 139 -81 266
q-54 128 -148 210t-213 82q-169 0 -274 -159t-105 -417zM519 1538q137 191 260 375h15q128 -193 261 -375l-13 -12l-254 168l-256 -168z" />
    <glyph glyph-name="Otilde" unicode="&#xd5;" horiz-adv-x="1562" 
d="M58 731q0 345 199 551q199 207 521 207t521 -208q200 -209 200 -550q0 -343 -199 -551q-200 -209 -521 -209h-2q-321 0 -520 208t-199 552zM353 854q0 -128 29 -270q28 -139 81 -265t147 -207t211 -81l-2 -2q166 0 274 156t108 420q0 129 -27 267q-27 139 -81 266
q-54 128 -148 210t-213 82q-169 0 -274 -159t-105 -417zM454 1591q37 205 225 205q45 0 141 -31q112 -35 132 -33q60 0 84 10q25 10 64 48l17 -6q-20 -113 -73 -159t-157 -46q-25 0 -133 33q-119 35 -152 35q-74 0 -132 -60z" />
    <glyph glyph-name="Odieresis" unicode="&#xd6;" horiz-adv-x="1562" 
d="M56 730q0 345 199 551q199 207 521 207t521 -208q200 -209 200 -550q0 -343 -199 -551q-200 -209 -521 -209h-2q-321 0 -520 208t-199 552zM351 853q0 -128 29 -270q28 -139 81 -265t147 -207t211 -81l-2 -2q166 0 274 156t108 420q0 129 -27 267q-27 139 -81 266
q-54 128 -148 210t-213 82q-169 0 -274 -159t-105 -417zM451 1682q0 53 38 91t91 38q55 0 92 -37q38 -38 38 -91t-38 -91t-91 -38l-2 -2q-53 0 -91 38q-37 37 -37 92zM853 1681q0 54 37 91q38 38 90 38q53 0 90 -37q38 -38 38 -91t-38 -91q-37 -37 -90 -37v-1q-53 0 -90 37
t-37 91z" />
    <glyph glyph-name="multiply" unicode="&#xd7;" horiz-adv-x="806" 
d="M86 969l39 39l283 -283l272 274l37 -36l-273 -273l281 -282l-39 -39l-280 282l-275 -274l-37 35l275 274z" />
    <glyph glyph-name="Oslash" unicode="&#xd8;" horiz-adv-x="1562" 
d="M61 733q0 345 199 551q199 207 520 207q244 0 426 -125l105 147h59l-127 -176h-1q258 -213 258 -604q0 -343 -199 -551q-200 -209 -522 -209q-241 0 -423 125l-114 -161h-60l137 190q-258 213 -258 606zM355 856l2 -2q0 -285 107 -525l612 856q-128 246 -339 246
q-172 0 -277 -158q-105 -157 -105 -417zM488 279q131 -248 336 -248l-1 -1q168 0 276 156t108 422q0 292 -106 525z" />
    <glyph glyph-name="Ugrave" unicode="&#xd9;" horiz-adv-x="1490" 
d="M36 1450v14h618v-14q-113 -44 -140 -81t-27 -165v-700q0 -219 96 -336t258 -117q152 0 260 102t108 311v592q0 154 -17 227q-17 71 -54 101q-39 31 -132 65v14h469l-3 -14q-93 -34 -132 -65q-37 -29 -55 -101q-18 -71 -18 -225v-590q0 -232 -134 -363
q-133 -130 -375 -130q-82 0 -157 15q-73 15 -148 53q-74 38 -128 96q-54 59 -87 153t-33 213v702q0 125 -27 162q-27 38 -142 81zM559 1890h266q26 -215 45 -329h-20v-1q-130 140 -291 330z" />
    <glyph glyph-name="Uacute" unicode="&#xda;" horiz-adv-x="1490" 
d="M36 1451v14h618v-14q-113 -44 -140 -81q-27 -38 -27 -165v-700q0 -219 96 -336t258 -117q152 0 260 102t108 311v592q0 154 -17 227q-17 71 -54 101q-39 31 -132 65v14h469l-3 -14q-93 -34 -132 -65q-37 -29 -55 -101q-18 -70 -18 -225v-590q0 -232 -134 -363
q-133 -130 -375 -130q-82 0 -157 15q-73 15 -148 53q-74 38 -128 96t-87 153t-33 213v702q0 124 -27 162t-142 81zM682 1561q26 162 45 327h266q-173 -200 -291 -327h-20z" />
    <glyph glyph-name="Ucircumflex" unicode="&#xdb;" horiz-adv-x="1490" 
d="M36 1451v14h618v-14q-113 -44 -140 -81q-27 -38 -27 -165v-700q0 -219 96 -336t258 -117q152 0 260 102t108 311v592q0 154 -17 227q-17 71 -54 101q-39 31 -132 65v14h469l-3 -14q-93 -34 -132 -65q-37 -29 -55 -101q-18 -70 -18 -225v-590q0 -232 -134 -363
q-133 -130 -375 -130q-82 0 -157 15q-73 15 -148 53q-74 38 -128 96t-87 153t-33 213v702q0 124 -27 162t-142 81zM514 1538q137 191 260 375h14q128 -193 261 -375l-13 -12l-254 168l-256 -168z" />
    <glyph glyph-name="Udieresis" unicode="&#xdc;" horiz-adv-x="1490" 
d="M36 1448v14h618v-14q-113 -44 -140 -81t-27 -165v-700q0 -219 96 -336t258 -117q152 0 260 102t108 311v592q0 154 -17 227q-17 71 -54 101q-39 31 -132 65v14h469l-3 -14q-93 -34 -132 -65q-37 -29 -55 -101q-18 -71 -18 -225v-590q0 -232 -134 -363
q-133 -130 -375 -130q-82 0 -157 15q-73 15 -148 53q-74 38 -128 96q-54 59 -87 153t-33 213v702q0 125 -27 162q-27 38 -142 81zM447 1682q0 53 38 91t90 38t90 -37q39 -38 39 -91t-39 -91q-40 -38 -90 -38v-2q-52 0 -90 38t-38 92zM850 1681q0 54 37 91q38 38 90 38
q53 0 90 -37q38 -38 38 -91t-38 -91q-37 -37 -90 -37v-1q-52 0 -89 37q-38 38 -38 91z" />
    <glyph glyph-name="Yacute" unicode="&#xdd;" horiz-adv-x="1425" 
d="M13 1451v14h621v-14q-81 -43 -112 -66q-30 -23 -30 -51q0 -33 47 -110l295 -482l272 465q37 62 37 105q0 74 -133 138v14l408 2v-14q-61 -28 -112 -78q-52 -50 -69 -76q-21 -32 -57 -91l-322 -534v-414q0 -125 27 -162t143 -81v-14h-620v14q116 44 143 81t27 162v399
l-392 639q-32 54 -64 84q-32 31 -109 70zM670 1561q26 162 45 327h266q-173 -201 -291 -327h-20z" />
    <glyph glyph-name="germandbls" unicode="&#xdf;" horiz-adv-x="1249" 
d="M17 0v14q85 38 111 75q25 37 25 153v690h-117v57h117v58q0 197 120 320t341 123q162 0 264 -66t102 -183q0 -71 -44 -121q-43 -49 -98 -67t-98 -48q-44 -30 -44 -69l-9 -2q0 -44 51 -87q50 -42 125 -90q70 -44 147 -104q74 -57 125 -146t51 -198q0 -158 -100 -246
t-240 -88q-159 0 -328 101l47 309l11 -4q45 -145 114 -253t151 -108q55 0 99 51q43 50 43 145q0 90 -45 161q-44 70 -108 118q-53 41 -128 91q-63 43 -109 99q-45 55 -45 123q0 51 26 92q26 42 63 71q25 20 75 62q38 31 63 81q26 50 26 114q0 96 -51 156t-126 60
q-90 0 -157 -88t-67 -271v-843q0 -116 25 -153t111 -75v-14h-519z" />
    <glyph glyph-name="agrave" unicode="&#xe0;" 
d="M63 215q0 141 160 246q162 106 475 191l4 148q2 67 -31 117q-33 51 -109 51q-98 0 -155 -96q-56 -95 -73 -220l-10 -2l-183 121q52 93 167 166q114 72 282 72q187 0 269 -91q83 -92 78 -222l-12 -532q0 -70 51 -70q53 0 93 88l16 -8q-27 -79 -83 -137q-56 -57 -144 -57
l2 -2q-96 0 -133 63t-33 147h-4q-45 -83 -139 -144q-95 -62 -217 -62q-124 0 -198 65q-73 64 -73 168zM324 279q0 -73 38 -116q38 -42 101 -42h-1q117 0 225 123l10 366q-202 -63 -288 -146q-85 -82 -85 -185zM336 1460h266q18 -168 45 -327h-20q-102 107 -291 327z" />
    <glyph glyph-name="aacute" unicode="&#xe1;" 
d="M64 215q0 141 160 246q162 106 475 191l4 148q2 67 -31 117q-33 51 -109 51q-98 0 -155 -96q-56 -95 -73 -220l-10 -2l-183 121q52 93 167 166q114 72 282 72q187 0 269 -91q82 -92 78 -222l-12 -532q0 -70 51 -70q53 0 93 88l16 -8q-27 -79 -83 -137q-55 -57 -144 -57
l2 -2q-95 0 -133 63t-33 147h-4q-45 -83 -139 -144q-95 -62 -217 -62q-124 0 -198 65q-73 64 -73 168zM325 279q0 -73 38 -116q37 -42 101 -42h-1q117 0 225 123l10 366q-202 -63 -288 -146q-85 -82 -85 -185zM488 1133q28 179 42 327h269q-169 -197 -293 -327h-18z" />
    <glyph glyph-name="acircumflex" unicode="&#xe2;" 
d="M64 215q0 141 160 246q162 106 475 191l4 148q2 67 -31 117q-33 51 -109 51q-98 0 -155 -96q-56 -95 -73 -220l-10 -2l-183 121q52 93 167 166q114 72 282 72q187 0 269 -91q82 -92 78 -222l-12 -532q0 -70 51 -70q53 0 93 88l16 -8q-27 -79 -83 -137q-55 -57 -144 -57
l2 -2q-95 0 -133 63t-33 147h-4q-45 -83 -139 -144q-95 -62 -217 -62q-124 0 -198 65q-73 64 -73 168zM308 1124q57 75 131 183q79 115 120 174h12q151 -226 250 -357l-12 -12l-244 162l-246 -162zM325 279q0 -73 38 -116q37 -42 101 -42h-1q117 0 225 123l10 366
q-202 -63 -288 -146q-85 -82 -85 -185z" />
    <glyph glyph-name="atilde" unicode="&#xe3;" 
d="M65 214q0 141 160 246q162 106 475 191l4 148q2 67 -31 117q-33 51 -109 51q-98 0 -155 -96q-56 -95 -73 -220l-10 -2l-183 121q52 93 167 166q114 72 282 72q187 0 269 -91q83 -91 78 -222l-12 -532q0 -70 51 -70q53 0 93 88l16 -8q-27 -79 -83 -137q-56 -57 -144 -57
l2 -2q-96 0 -133 63t-33 147h-4q-45 -83 -139 -144q-95 -62 -217 -62q-124 0 -198 65q-73 64 -73 168zM266 1195q22 113 72 156q49 43 152 43q14 0 110 -33t123 -33q54 0 74 10q22 11 59 48l20 -5q-17 -98 -65.5 -147t-128.5 -48q-51 0 -141 31q-103 35 -138 33
q-67 0 -120 -59zM326 278q0 -73 38 -116q38 -42 101 -42h-1q117 0 225 123l10 366q-202 -63 -288 -146q-85 -82 -85 -185z" />
    <glyph glyph-name="adieresis" unicode="&#xe4;" 
d="M60 215q0 141 160 246q162 106 475 191l4 148q2 67 -31 117q-33 51 -109 51q-98 0 -155 -96q-56 -95 -73 -220l-10 -2l-183 121q52 93 167 166q114 72 282 72q187 0 269 -91q82 -92 78 -222l-12 -532q0 -70 51 -70q53 0 93 88l16 -8q-27 -79 -83 -137q-55 -57 -144 -57
l2 -2q-95 0 -133 63t-33 147h-4q-45 -83 -139 -144q-95 -62 -217 -62q-124 0 -198 65q-73 64 -73 168zM262 1286q0 51 37 88t88 37q52 0 89 -37q38 -38 38 -88q0 -51 -38 -89t-89 -38q-50 0 -88 38q-37 37 -37 89zM321 279q0 -73 38 -116q37 -42 101 -42h-1q117 0 225 123
l10 366q-202 -63 -288 -146q-85 -82 -85 -185zM612 1286q0 51 37 88t89 37t89 -37q38 -38 38 -88q0 -53 -37 -90t-89 -37h-2q-50 0 -88 38q-37 37 -37 89z" />
    <glyph glyph-name="aring" unicode="&#xe5;" 
d="M62 213q0 141 160 246q162 106 475 191l4 148q2 67 -31 117q-33 51 -109 51q-98 0 -155 -96q-56 -95 -73 -220l-10 -2l-183 121q52 93 167 166q114 72 282 72q187 0 269 -91q82 -92 78 -222l-12 -532q0 -70 51 -70q53 0 93 88l16 -8q-27 -79 -83 -137q-55 -57 -144 -57
l2 -2q-95 0 -133 63t-33 147h-4q-45 -83 -139 -144q-95 -62 -217 -62q-124 0 -198 65q-73 64 -73 168zM323 277q0 -73 38 -116q37 -42 101 -42h-1q117 0 225 123l10 366q-202 -63 -288 -146q-85 -82 -85 -185zM379 1274q0 78 54 133t132 55t132 -55t54 -133q0 -82 -54 -138
q-54 -55 -132 -55v-1q-78 0 -132 56t-54 138zM442 1275q0 -55 39 -99t90 -44v-1q51 0 84 43q33 44 33 99q0 57 -38 98t-89 41t-85 -40t-34 -97z" />
    <glyph glyph-name="ae" unicode="&#xe6;" horiz-adv-x="1640" 
d="M57 204q0 156 166 259q165 103 469 187l2 156q2 74 -36 116t-105 42q-102 0 -157 -94q-55 -93 -67 -219l-13 -2l-180 123q51 92 164 164q112 72 264 72q206 0 288 -144q135 143 328 144q180 0 290 -116t110 -263v-23h-666q0 -12 -1 -20t-1 -28q0 -201 115 -301t262 -100
q193 0 285 182l12 -6q-27 -157 -133 -255q-107 -99 -274 -99q-129 0 -235 54t-166 150q-50 -85 -168 -144q-120 -59 -252 -59l-4 -3q-130 0 -213 58q-84 59 -84 169zM316 268q0 -97 52 -137q53 -41 126 -41h1q71 0 141 35q69 35 113 98q-61 123 -63 264q0 73 6 125
q-200 -68 -288 -148q-88 -81 -88 -196zM916 650l424 3q-5 122 -64 211q-60 90 -148 90q-84 0 -144 -85q-61 -86 -68 -219z" />
    <glyph glyph-name="ccedilla" unicode="&#xe7;" horiz-adv-x="962" 
d="M50 491q0 233 135 374t325 141q130 0 227 -63q98 -63 155 -149l-184 -144l-11 4q-12 118 -65 212q-52 93 -138 93q-90 0 -153 -103q-63 -104 -63 -265q0 -200 100 -316q100 -117 252 -117q110 0 180 58t102 138l19 -8q-29 -150 -129 -258t-276 -108l-6 -3q-24 0 -42 2
l-26 -48q118 -9 176.5 -49.5t57.5 -111.5q0 -100 -109 -157t-312 -55l17 35q110 11 177 45t67 90q0 46 -51 78t-135 33l102 142q-170 29 -281 165t-111 345z" />
    <glyph glyph-name="egrave" unicode="&#xe8;" horiz-adv-x="1009" 
d="M50 491q0 229 140 374q140 144 351 144q95 0 172 -33q76 -33 118 -79q41 -45 70 -102q27 -53 37 -95q9 -39 9 -66v-25h-667l-2 -24q0 -215 108 -321q107 -106 265 -106q200 0 289 188l13 -10q-11 -52 -33 -105q-22 -51 -66 -115q-43 -62 -123 -100q-78 -37 -186 -37
q-213 0 -354 141t-141 371zM279 651l432 4q-1 37 -12 81t-33 96t-66 87t-101 35l-2 -1q-88 0 -145 -79q-56 -79 -73 -223zM297 1460h266q18 -166 45 -327h-20q-102 107 -291 327z" />
    <glyph glyph-name="eacute" unicode="&#xe9;" horiz-adv-x="1009" 
d="M51 491q0 229 140 374q139 144 351 144q96 0 172 -33t118 -79q41 -45 70 -102q27 -53 37 -95q9 -39 9 -66v-25h-667l-2 -24q0 -215 108 -321q107 -106 265 -106q200 0 289 188l13 -10q-10 -52 -33 -105q-22 -51 -66 -115q-43 -62 -123 -100q-78 -37 -186 -37
q-213 0 -354 141t-141 371zM280 651l432 4q-2 37 -12 81t-33 96t-66 87q-44 35 -101 35l-2 -1q-88 0 -145 -79q-56 -79 -73 -223zM450 1133q28 179 42 327h268h1q-169 -197 -293 -327h-18z" />
    <glyph glyph-name="ecircumflex" unicode="&#xea;" horiz-adv-x="1009" 
d="M51 491q0 229 140 374q139 144 351 144q96 0 172 -33t118 -79q41 -45 70 -102q27 -53 37 -95q9 -39 9 -66v-25h-667l-2 -24q0 -215 108 -321q107 -106 265 -106q200 0 289 188l13 -10q-10 -52 -33 -105q-22 -51 -66 -115q-43 -62 -123 -100q-78 -37 -186 -37
q-213 0 -354 141t-141 371zM267 1124q57 75 131 183q80 115 120 174h12q151 -226 250 -357l-12 -12l-244 162l-244 -162zM280 651l432 4q-2 37 -12 81t-33 96t-66 87q-44 35 -101 35l-2 -1q-88 0 -145 -79q-56 -79 -73 -223z" />
    <glyph glyph-name="edieresis" unicode="&#xeb;" horiz-adv-x="1009" 
d="M49 491q0 229 140 374q139 144 351 144q95 0 172 -33q76 -33 118 -79q41 -45 70 -102q27 -53 37 -95q9 -39 9 -66v-25h-667l-2 -24q0 -215 108 -321q107 -106 265 -106q200 0 289 188l13 -10q-10 -52 -33 -105q-22 -51 -66 -115q-43 -62 -123 -100q-78 -37 -186 -37
q-213 0 -354 141t-141 371zM223 1286q0 51 37 88t88 37q52 0 89 -37q38 -38 38 -88q0 -51 -38 -89t-89 -38q-50 0 -88 38q-37 37 -37 89zM278 651l432 4q-2 37 -12 81t-33 96t-66 87q-44 35 -101 35l-2 -1q-88 0 -145 -79q-56 -79 -73 -223zM574 1286q0 51 37 88t89 37
t89 -37q38 -38 38 -88q0 -53 -37 -90t-90 -37h-1q-50 0 -88 38q-37 37 -37 89z" />
    <glyph glyph-name="igrave" unicode="&#xec;" horiz-adv-x="557" 
d="M19 14q89 38 114 75t25 153v424q0 138 -26 181t-111 83v14q217 17 386 70v-772q0 -116 24 -153t110 -75v-14h-521zM27 1464h266q18 -168 45 -327h-21q-106 111 -290 327z" />
    <glyph glyph-name="iacute" unicode="&#xed;" horiz-adv-x="557" 
d="M19 14q89 38 114 75t25 153v424q0 138 -26 181t-111 83v14q217 17 386 70v-772q0 -116 24 -153t110 -75v-14h-521zM178 1137q28 179 42 327h268q-172 -202 -291 -327h-19z" />
    <glyph glyph-name="icircumflex" unicode="&#xee;" horiz-adv-x="557" 
d="M-1 1128q57 75 131 183q80 115 120 174h12q151 -226 250 -357l-12 -12l-244 162l-246 -162zM20 14q88 38 114 75q25 37 25 153v424q0 138 -26 181t-111 83v14q217 17 386 70v-772q0 -116 24 -153t110 -75v-14h-521z" />
    <glyph glyph-name="idieresis" unicode="&#xef;" horiz-adv-x="557" 
d="M-47 1290q0 51 37 88t88 37q52 0 89 -37q38 -38 38 -88q0 -51 -38 -89t-89 -38q-50 0 -88 38q-37 37 -37 89zM19 14q89 38 114 75t25 153v424q0 138 -26 181t-111 83v14q217 17 386 70v-772q0 -116 24 -153t110 -75v-14h-521zM305 1290q0 51 37 88t88 37q52 0 89 -37
q38 -38 38 -88q0 -53 -37 -90t-90 -37q-50 0 -88 38q-37 37 -37 89z" />
    <glyph glyph-name="ntilde" unicode="&#xf1;" horiz-adv-x="1204" 
d="M19 -3v14q89 37 114 75q25 37 25 153v426q0 134 -26 178q-26 43 -111 87v12q195 17 379 70v-230q150 225 367 226q115 0 201 -72t86 -223v-473l1 -3q0 -115 24 -153q24 -37 110 -75v-14h-520v14q89 38 113 75q25 38 26 153q0 67 1 149t1 155q0 200 -34 267
q-35 68 -120 68q-82 0 -138 -39q-55 -39 -112 -115v-483q0 -115 24 -153q24 -37 110 -75v-14h-521zM319 1194q23 112 72 156q49 43 153 43q14 0 110 -33t122 -33q52 0 74 11q21 10 59 47l19 -4q-34 -197 -195 -195q-51 0 -141 31q-102 34 -137 34l1 -2q-67 0 -120 -59z" />
    <glyph glyph-name="ograve" unicode="&#xf2;" horiz-adv-x="1105" 
d="M52 483q0 224 137 376q136 151 369 151q221 0 357 -139q137 -140 137 -367q0 -228 -136 -376t-367 -148h-1q-220 0 -358 138t-138 365zM305 624q0 -82 17 -184q16 -95 50 -193q33 -95 91 -157q59 -63 130 -63l-2 1q86 0 146 86t60 254q0 88 -16 183q-16 96 -48 193
q-31 95 -90 157t-130 62q-88 0 -148 -87t-60 -252zM326 1460h266q18 -168 45 -327h-21q-106 111 -290 327z" />
    <glyph glyph-name="oacute" unicode="&#xf3;" horiz-adv-x="1105" 
d="M52 483q0 224 137 376q136 151 369 151q221 0 357 -139q137 -140 137 -367q0 -228 -136 -376t-367 -148h-1q-220 0 -358 138t-138 365zM305 624q0 -82 17 -184q16 -95 50 -193q33 -95 91 -157q59 -63 130 -63l-2 1q86 0 146 86t60 254q0 88 -16 183q-16 96 -48 193
q-31 95 -90 157t-130 62q-88 0 -148 -87t-60 -252zM477 1133q29 179 42 327h268q-173 -202 -291 -327h-19z" />
    <glyph glyph-name="ocircumflex" unicode="&#xf4;" horiz-adv-x="1105" 
d="M53 483q0 224 137 376q136 151 369 151q221 0 357 -139q137 -140 137 -367q0 -228 -136 -376t-367 -148h-1q-220 0 -358 138t-138 365zM296 1124q57 75 131 183q79 115 120 174h12q151 -226 250 -357l-12 -12l-244 162l-246 -162zM306 624q0 -82 17 -184q16 -95 50 -193
q33 -95 91 -157q58 -63 130 -63l-2 1q86 0 146 86t60 254q0 88 -16 183q-16 96 -48 193q-31 95 -90 157t-130 62q-88 0 -148 -87t-60 -252z" />
    <glyph glyph-name="otilde" unicode="&#xf5;" horiz-adv-x="1105" 
d="M53 482q0 224 137 376q136 151 369 151q221 0 357 -139q137 -140 137 -367q0 -228 -136 -376t-367 -148h-1q-220 0 -358 138t-138 365zM256 1195q22 113 72 156q49 43 152 43q14 0 110 -33t123 -33q54 0 74 10q22 11 59 48l19 -5q-17 -98 -65.5 -147t-128.5 -48
q-50 0 -142 31q-104 35 -137 33q-67 0 -120 -59zM306 623q0 -82 17 -184q16 -95 50 -193q33 -95 91 -157q58 -63 130 -63l-2 1q86 0 146 86q60 85 60 254q0 88 -16 183q-16 96 -48 193q-31 95 -90 157t-130 62q-88 0 -148 -87t-60 -252z" />
    <glyph glyph-name="odieresis" unicode="&#xf6;" horiz-adv-x="1105" 
d="M52 483q0 224 137 376q136 151 369 151q221 0 357 -139q137 -140 137 -367q0 -228 -136 -376t-367 -148h-1q-220 0 -358 138t-138 365zM252 1286q0 51 37 88t88 37q52 0 89 -37q38 -38 38 -88q0 -51 -38 -89t-89 -38q-50 0 -88 38q-37 37 -37 89zM305 624q0 -82 17 -184
q16 -95 50 -193q33 -95 91 -157q59 -63 130 -63l-2 1q86 0 146 86t60 254q0 88 -16 183q-16 96 -48 193q-31 95 -90 157t-130 62q-88 0 -148 -87t-60 -252zM604 1286q0 51 37 88t88 37q52 0 89 -37q38 -38 38 -88q0 -53 -37 -90t-90 -37q-50 0 -88 38q-37 37 -37 89z" />
    <glyph glyph-name="divide" unicode="&#xf7;" horiz-adv-x="892" 
d="M85 658v56h727v-56h-727zM333 415q0 44 30 74t74 30q43 0 75 -30q31 -30 31 -73q0 -44 -31 -75t-75 -31l-1 -1q-43 0 -73 31q-30 32 -30 75zM340 942q0 40 30 72t74 32q43 0 75 -32q31 -31 31 -72q0 -44 -31 -75t-75 -31l-1 -1q-43 0 -73 32q-30 31 -30 75z" />
    <glyph glyph-name="oslash" unicode="&#xf8;" horiz-adv-x="1105" 
d="M53 483q0 224 137 376q136 151 363 151q166 0 289 -78l88 121h53l-106 -148l-1 -1q176 -141 176 -403q0 -225 -135 -373t-364 -148q-170 0 -291 79l-104 -143h-49l120 166q-176 141 -176 401zM305 625q0 -181 58 -355l358 498q-78 193 -205 193q-90 0 -150 -85
q-60 -86 -60 -252zM381 225q79 -198 209 -198h-1q88 0 148 85t60 250q0 186 -58 357z" />
    <glyph glyph-name="ugrave" unicode="&#xf9;" horiz-adv-x="1200" 
d="M19 931v14q214 17 384 70q0 -34 -2 -348t-2 -346q0 -106 48 -160t122 -54q122 0 234 130v430q0 135 -24 179t-112 84v14q191 12 384 68v-774h-1q0 -98 24 -128t110 -57v-12l-377 -70v213q-151 -211 -366 -211q-115 0 -201 72q-85 72 -85 223v398q0 134 -25 180t-111 85z
M375 1460h266q18 -166 45 -327h-20q-102 107 -291 327z" />
    <glyph glyph-name="uacute" unicode="&#xfa;" horiz-adv-x="1200" 
d="M20 931v14q214 17 384 70q0 -34 -2 -348t-2 -346q0 -106 48 -160t122 -54q122 0 234 130v430q0 135 -24 179t-112 84v14q191 12 384 68v-774h-1q0 -98 24 -128t110 -57v-12l-377 -70v213q-151 -211 -366 -211q-116 0 -201 72t-85 223v398q0 134 -25 180t-111 85z
M527 1133q29 179 42 327h269h1q-169 -197 -293 -327h-19z" />
    <glyph glyph-name="ucircumflex" unicode="&#xfb;" horiz-adv-x="1200" 
d="M20 931v14q214 17 384 70q0 -34 -2 -348t-2 -346q0 -106 48 -160t122 -54q122 0 234 130v430q0 135 -24 179t-112 84v14q191 12 384 68v-774h-1q0 -98 24 -128t110 -57v-12l-377 -70v213q-151 -211 -366 -211q-116 0 -201 72t-85 223v398q0 134 -25 180t-111 85z
M345 1124q57 75 131 183q80 115 120 174h12q151 -226 250 -357l-12 -12l-244 162l-245 -162z" />
    <glyph glyph-name="udieresis" unicode="&#xfc;" horiz-adv-x="1200" 
d="M19 931v14q214 17 384 70q0 -34 -2 -348t-2 -346q0 -106 48 -160t122 -54q122 0 234 130v430q0 135 -24 179t-112 84v14q191 12 384 68v-774h-1q0 -98 24 -128t110 -57v-12l-377 -70v213q-151 -211 -366 -211q-115 0 -201 72q-85 72 -85 223v398q0 134 -25 180t-111 85z
M301 1286q0 51 37 88t88 37q52 0 89 -37q38 -38 38 -88q0 -51 -38 -89t-89 -38q-50 0 -88 38q-37 37 -37 89zM653 1286q0 51 37 88t88 37q52 0 89 -37q38 -38 38 -88q0 -53 -37 -90t-90 -37q-50 0 -88 38q-37 37 -37 89z" />
    <glyph glyph-name="yacute" unicode="&#xfd;" 
d="M5 970v14h547v-14q-119 -53 -119 -113q0 -27 21 -72l219 -489q101 240 188 477q12 31 12 57q0 77 -127 141v14l347 -3v-14q-79 -45 -114 -88q-35 -42 -67 -123q-287 -711 -340 -813q-79 -153 -138 -229q-59 -75 -164 -149l-133 174l4 12q113 -5 218 39q104 43 154 147
l31 63l-387 825q-23 48 -55 81q-33 35 -97 63zM501 1133q29 179 42 327h268h1q-169 -197 -293 -327h-18z" />
    <glyph glyph-name="ydieresis" unicode="&#xff;" 
d="M1 970v14h547v-14q-119 -53 -119 -113q0 -27 21 -72l219 -489q101 240 188 477q12 31 12 57q0 77 -127 141v14l347 -3v-14q-79 -45 -114 -88q-35 -42 -67 -123q-287 -711 -340 -813q-79 -153 -138 -229q-59 -75 -164 -149l-133 174l4 12q113 -5 218 39q104 43 154 147
l31 63l-387 825q-23 48 -55 81q-33 35 -97 63zM272 1286q0 51 37 88t89 37t89 -37q38 -38 38 -88q0 -52 -37 -89q-38 -38 -89 -38h-2q-50 0 -88 38q-37 37 -37 89zM626 1286q0 50 36 88q36 37 87 37q52 0 89 -37q38 -38 38 -88q0 -52 -38 -90q-37 -37 -89 -37q-51 0 -87 38
q-36 37 -36 89z" />
    <glyph glyph-name="OE" unicode="&#x152;" horiz-adv-x="2183" 
d="M60 731q0 342 200 548t498 206q212 0 358 -115v92h860l37 -374h-14q-43 129 -142 223q-98 94 -248 94h-226v-594h211q158 0 248 148h10v-369h-10q-91 168 -248 166l-211 -4v-602q0 -40 65 -66q66 -26 180 -26h76q118 0 216 99q98 100 155 228l13 -2l-49 -385h-922v92
q-146 -115 -356 -115q-299 0 -500 207t-201 549zM355 858q0 -133 28 -270q29 -140 81 -267q53 -128 146 -209t212 -81l-1 -1q199 0 295 213v813q-57 183 -154 278q-98 96 -222 96q-169 0 -277 -153t-108 -419z" />
    <glyph glyph-name="oe" unicode="&#x153;" horiz-adv-x="1761" 
d="M49 481q0 224 137 376q136 151 363 151q251 0 366 -174q139 174 372 174q119 0 207 -48t129 -117q40 -68 58 -121q18 -52 18 -90v-25h-668l-2 -24q0 -215 108 -321q107 -106 266 -106q85 0 150 36q66 37 89 70q26 37 50 84l8 -12q-8 -40 -21 -81t-45 -93q-32 -53 -73 -90
q-43 -39 -112 -65q-71 -27 -156 -27q-241 0 -384 176q-117 -176 -364 -176q-223 0 -360 138q-136 137 -136 365zM300 620q0 -82 17 -184q16 -95 50 -193q33 -95 91 -157q58 -63 132 -63l-2 2q86 0 146 86q60 85 60 252q0 88 -16 183q-17 101 -49 194q-33 96 -91 157
q-59 62 -130 62q-88 0 -148 -87t-60 -252zM1023 651l432 4q-1 37 -12 81q-10 40 -32 96q-21 52 -66 87q-46 35 -102 35l-3 -1q-86 0 -143 -79q-58 -80 -74 -223z" />
    <glyph glyph-name="Ydieresis" unicode="&#x178;" horiz-adv-x="1425" 
d="M12 1448v14h621v-14q-81 -43 -112 -66q-30 -22 -30 -51q0 -33 47 -110l295 -482l272 465q37 62 37 105q0 74 -133 138v14l408 2v-14q-61 -28 -112 -78q-52 -50 -69 -76q-21 -32 -57 -91l-322 -534v-414q0 -124 27 -162q27 -37 143 -81v-14h-620v14q116 44 143 81
q27 38 27 162v399l-392 639q-32 54 -64 84q-32 31 -109 70zM435 1682q0 53 38 91t90 38t90 -37q39 -38 39 -91t-39 -91q-40 -38 -90 -38v-2q-52 0 -90 38t-38 92zM837 1681q0 53 36 91t90 38q55 0 92 -37q38 -38 38 -91t-38 -91q-37 -37 -90 -37l-1 -1q-52 0 -89 37
q-38 38 -38 91z" />
    <glyph glyph-name="circumflex" unicode="&#x2c6;" horiz-adv-x="663" 
d="M78 1127q52 69 128 182q75 112 122 176h12q147 -221 252 -357l-12 -12l-246 162l-246 -162z" />
    <glyph glyph-name="tilde" unicode="&#x2dc;" horiz-adv-x="761" 
d="M80 1201q22 113 72 156q49 43 152 43q14 0 110 -33t123 -33q52 0 74 11t59 48l19 -4q-35 -197 -194 -197q-50 0 -142 31q-104 35 -137 33q-67 0 -120 -59z" />
    <glyph glyph-name="uni2000" unicode="&#x2000;" horiz-adv-x="958" 
 />
    <glyph glyph-name="uni2001" unicode="&#x2001;" horiz-adv-x="1916" 
 />
    <glyph glyph-name="uni2002" unicode="&#x2002;" horiz-adv-x="958" 
 />
    <glyph glyph-name="uni2003" unicode="&#x2003;" horiz-adv-x="1916" 
 />
    <glyph glyph-name="uni2004" unicode="&#x2004;" horiz-adv-x="638" 
 />
    <glyph glyph-name="uni2005" unicode="&#x2005;" horiz-adv-x="479" 
 />
    <glyph glyph-name="uni2006" unicode="&#x2006;" horiz-adv-x="319" 
 />
    <glyph glyph-name="uni2007" unicode="&#x2007;" horiz-adv-x="319" 
 />
    <glyph glyph-name="uni2008" unicode="&#x2008;" horiz-adv-x="239" 
 />
    <glyph glyph-name="uni2009" unicode="&#x2009;" horiz-adv-x="383" 
 />
    <glyph glyph-name="uni200A" unicode="&#x200a;" horiz-adv-x="106" 
 />
    <glyph glyph-name="uni2010" unicode="&#x2010;" horiz-adv-x="747" 
d="M78 504v76h596v-76h-596z" />
    <glyph glyph-name="uni2011" unicode="&#x2011;" horiz-adv-x="747" 
d="M78 504v76h596v-76h-596z" />
    <glyph glyph-name="figuredash" unicode="&#x2012;" horiz-adv-x="747" 
d="M78 504v76h596v-76h-596z" />
    <glyph glyph-name="endash" unicode="&#x2013;" horiz-adv-x="980" 
d="M78 504v59h829v-59h-829z" />
    <glyph glyph-name="emdash" unicode="&#x2014;" horiz-adv-x="1812" 
d="M78 504v59h1661v-59h-1661z" />
    <glyph glyph-name="quoteleft" unicode="&#x2018;" horiz-adv-x="372" 
d="M56 1133q0 91 60 195q60 103 179 159l6 -14q-101 -115 -129 -246h16l-2 1q56 0 93 -36q38 -36 38 -89q0 -56 -37 -93t-91 -37q-55 0 -94 41q-39 40 -39 119z" />
    <glyph glyph-name="quoteright" unicode="&#x2019;" horiz-adv-x="372" 
d="M58 1361q0 52 38 90t90 38l1 1q55 0 94 -41t39 -119q0 -91 -59 -195q-58 -102 -176 -160l-8 16q97 113 129 243h-17q-56 0 -93 37q-38 38 -38 90z" />
    <glyph glyph-name="quotesinglbase" unicode="&#x201a;" horiz-adv-x="491" 
d="M106 135q0 57 42 98q43 41 98 41l-2 -1q59 0 101 -45t42 -131q0 -102 -64 -214t-193 -178l-8 16q118 137 147 276h-20q-60 0 -101 40q-42 41 -42 98z" />
    <glyph glyph-name="quotedblleft" unicode="&#x201c;" horiz-adv-x="714" 
d="M56 1133q0 91 60 195q60 103 179 159l6 -14q-101 -115 -129 -246h16l-2 1q56 0 93 -36q38 -36 38 -89q0 -56 -37 -93t-91 -37q-55 0 -94 41q-39 40 -39 119zM396 1134q0 92 60 195t177 159l8 -14q-101 -116 -129 -246h16l-2 1q55 0 94 -36t39 -89q0 -55 -38 -93
q-37 -37 -92 -37t-94 41t-39 119z" />
    <glyph glyph-name="quotedblright" unicode="&#x201d;" horiz-adv-x="714" 
d="M58 1361q0 52 38 90t90 38l1 1q55 0 94 -41t39 -119q0 -91 -59 -195q-58 -102 -176 -160l-8 16q97 113 129 243h-17q-56 0 -93 37q-38 38 -38 90zM401 1362q0 52 38 90t90 38l1 1q56 0 95 -41q39 -40 39 -119q0 -91 -60 -195q-60 -103 -178 -160l-6 16q98 112 129 243
h-17q-56 0 -93 37q-38 38 -38 90z" />
    <glyph glyph-name="quotedblbase" unicode="&#x201e;" horiz-adv-x="851" 
d="M106 135q0 57 42 98q43 41 98 41l-2 -1q59 0 101 -45t42 -131q0 -102 -64 -214t-193 -178l-8 16q118 137 147 276h-20q-60 0 -101 40q-42 41 -42 98zM465 134q0 57 41 98t98 41l1 -1q59 0 101 -45t42 -131q0 -102 -64 -214t-193 -178l-9 16q118 136 147 276h-21
q-60 0 -101 40q-42 41 -42 98z" />
    <glyph glyph-name="bullet" unicode="&#x2022;" horiz-adv-x="776" 
d="M86 594q0 122 91 213q92 92 214 92t214 -92q91 -91 91 -213q0 -123 -91 -214t-214 -91t-214 91t-91 214z" />
    <glyph glyph-name="ellipsis" unicode="&#x2026;" horiz-adv-x="1400" 
d="M106 129q0 58 44 102q43 43 102 43t101 -43t42 -102t-42 -101t-101 -42h-1q-59 0 -102 42t-43 101zM557 129q0 59 42 102t102 43t103 -43t43 -102q0 -57 -43 -100t-103 -43t-102 42t-42 101zM1008 129q0 59 43 102t102 43t101 -43t42 -102t-43 -101t-100 -42
q-59 0 -102 42t-43 101z" />
    <glyph glyph-name="uni202F" unicode="&#x202f;" horiz-adv-x="383" 
 />
    <glyph glyph-name="guilsinglleft" unicode="&#x2039;" horiz-adv-x="692" 
d="M86 504v20q259 206 481 414h43q-120 -213 -278 -424q159 -211 278 -424h-43q-222 209 -481 414z" />
    <glyph glyph-name="guilsinglright" unicode="&#x203a;" horiz-adv-x="692" 
d="M86 90q118 216 279 424q-161 208 -279 424h43q220 -208 481 -414v-20q-261 -205 -481 -414h-43z" />
    <glyph glyph-name="uni205F" unicode="&#x205f;" horiz-adv-x="479" 
 />
    <glyph glyph-name="Euro" unicode="&#x20ac;" horiz-adv-x="1476" 
d="M63 651v51h191v15q0 89 12 165h-203v49h213q52 250 224 393t402 143q168 0 411 -71l37 -361h-13q-96 156 -213 267t-226 111q-118 0 -212 -127q-94 -128 -123 -357h576l-9 -49h-573q-6 -74 -6 -156v-23h524l-8 -51h-514q12 -294 119 -457q106 -162 237 -162v2
q103 0 218 113q112 111 208 269h15l-37 -367q-209 -72 -417 -72q-268 0 -445 174t-195 501h-193z" />
    <glyph glyph-name="trademark" unicode="&#x2122;" horiz-adv-x="1667" 
d="M53 1260l19 204h592l17 -206h-6q-25 68 -75 120q-49 52 -120 52h-32v-572q0 -58 11 -78t66 -42v-8h-317v8q55 22 69 44t14 78v572h-37q-71 0 -120 -52q-50 -52 -75 -120h-6zM715 728v8q73 32 86 66q14 36 14 141v424q-29 49 -99 87v8h237q133 -230 230 -426l227 426h207
v-8l2 -3q-55 -22 -67 -42q-12 -19 -12 -75v-477q0 -59 12 -77q11 -17 65 -43v-6h-315v6q54 22 67 44q12 21 12 77v469h-2q-206 -398 -245 -486h-21q-104 206 -264 479v-377q0 -106 15 -142q15 -37 84 -65v-8h-233z" />
    <glyph glyph-name="uni25FC" unicode="&#x25fc;" horiz-adv-x="985" 
d="M0 0v985h985v-985h-985z" />
    </font>
</defs>
</svg>
