<?xml version="1.0" standalone="no"?>
<!DOCTYPE svg PUBLIC "-//W3C//DTD SVG 1.1//EN" "http://www.w3.org/Graphics/SVG/1.1/DTD/svg11.dtd" >
<svg xmlns="http://www.w3.org/2000/svg" xmlns:xlink="http://www.w3.org/1999/xlink" version="1.1">
<metadata>
Created by FontForge 20170731 at Sat Aug  1 23:58:15 2020
 By Aleksey,,,
Copyright (c) 2018 by Grida. All rights reserved. |DCNT
</metadata>
<defs>
<font id="Conamore-Light" horiz-adv-x="892" >
  <font-face 
    font-family="Conamore Light"
    font-weight="300"
    font-stretch="normal"
    units-per-em="2048"
    panose-1="2 11 0 0 0 0 0 0 0 0"
    ascent="1581"
    descent="-467"
    x-height="1044"
    cap-height="1446"
    bbox="-856 -543 2169 2034"
    underline-thickness="102"
    underline-position="-358"
    unicode-range="U+0020-FB04"
  />
<missing-glyph horiz-adv-x="1024" 
d="M866 1536v-1536h-708v1536h708zM279 1434v-1330h466v1330h-466z" />
    <glyph glyph-name="f_f" unicode="ff" horiz-adv-x="1306" 
d="M362 1044h510v195q0 130 67.5 201t195.5 71q111 0 202 -36l-22 -107q-76 31 -170 31q-139 0 -139 -160v-195h245v-112h-245v-932h-134v932h-510v-932h-131v932h-184v112h184v195q0 130 67.5 201t195.5 71q112 0 208 -38l-24 -107q-70 33 -174 33q-142 0 -142 -160v-195z
" />
    <glyph glyph-name="f_i" unicode="fi" horiz-adv-x="1191" 
d="M1006 1044v-1044h-132v932h-509v-932h-134v932h-182v112h182v195q0 130 67.5 201t195.5 71q104 0 202 -36l-22 -107q-76 31 -170 31q-139 0 -139 -160v-195h641zM1006 1464q26 -26 26 -65.5t-26 -65.5t-66 -26t-66 26t-26 65.5t26 65.5t66 26t66 -26z" />
    <glyph glyph-name="f_l" unicode="fl" horiz-adv-x="1193" 
d="M1006 1487v-1487h-132v1309q-159 90 -327 90q-182 0 -182 -180v-175h272v-112h-272v-932h-134v932h-182v112h182v175q0 136 81.5 214t226.5 78q168 0 335 -86v62h132z" />
    <glyph glyph-name="f_f_i" unicode="ffi" horiz-adv-x="1832" 
d="M1647 1044v-1044h-131v932h-510v-932h-134v932h-510v-932h-131v932h-184v112h184v195q0 130 67.5 201t195.5 71q112 0 208 -38l-24 -107q-70 33 -174 33q-142 0 -142 -160v-195h510v195q0 130 67.5 201t195.5 71q104 0 202 -36l-22 -107q-76 31 -170 31q-139 0 -139 -160
v-195h641zM1581 1491q56 4 79.5 -44t0 -96t-79.5 -44q-38 0 -65 27t-27 65q0 39 25.5 65.5t66.5 26.5z" />
    <glyph glyph-name="f_f_l" unicode="ffl" horiz-adv-x="1835" 
d="M874 932h-512v-932h-131v932h-184v112h184v195q0 130 67.5 201t195.5 71q112 0 208 -38l-24 -107q-70 33 -174 33q-142 0 -142 -160v-195h512v175q0 136 81 214t227 78q170 0 334 -86v62h131v-1487h-131v1309q-159 90 -328 90q-182 0 -182 -180v-175h274v-112h-274v-932
h-132v932z" />
    <glyph glyph-name=".notdef" horiz-adv-x="1024" 
d="M866 1536v-1536h-708v1536h708zM279 1434v-1330h466v1330h-466z" />
    <glyph glyph-name=".null" horiz-adv-x="0" 
 />
    <glyph glyph-name="nonmarkingreturn" horiz-adv-x="682" 
 />
    <glyph glyph-name="space" unicode=" " horiz-adv-x="491" 
 />
    <glyph glyph-name="exclam" unicode="!" horiz-adv-x="745" 
d="M311 389l-12 1057h150l-13 -1057h-125zM270 78q0 44 30 73t75 29q43 0 72.5 -29t29.5 -73q0 -43 -29.5 -73t-72.5 -30q-44 0 -74.5 30t-30.5 73z" />
    <glyph glyph-name="quotedbl" unicode="&#x22;" horiz-adv-x="905" 
d="M373 1446l-11 -537h-122l-11 537h144zM676 1446l-8 -537h-125l-8 537h141z" />
    <glyph glyph-name="numbersign" unicode="#" horiz-adv-x="1337" 
d="M248 0l53 387h-217v113h233l64 448h-244v115h260l56 383h135l-56 -383h369l55 383h136l-56 -383h217v-115h-233l-64 -448h246v-113h-262l-55 -387h-135l55 387h-369l-55 -387h-133zM821 500l64 448h-369l-63 -448h368z" />
    <glyph glyph-name="dollar" unicode="$" horiz-adv-x="1042" 
d="M580 -193h-105v168q-180 0 -348 82l37 123q137 -88 311 -88v621q-180 74 -265 170.5t-85 230.5q0 136 95.5 231.5t254.5 118.5v174h105v-168q151 -3 288 -63l-30 -113q-126 57 -258 60v-549q359 -147 356 -428q-1 -159 -96 -263t-260 -130v-177zM803 365q0 98 -53 170.5
t-170 132.5v-566q105 23 164 92t59 171zM260 1114q0 -84 51 -146t164 -118v498q-100 -20 -157.5 -83t-57.5 -151z" />
    <glyph glyph-name="percent" unicode="%" horiz-adv-x="1665" 
d="M1309 1446l-815 -1446h-136l816 1446h135zM217 1106q0 -117 51.5 -188.5t141.5 -71.5q89 0 140.5 71.5t51.5 188.5q0 115 -51.5 186.5t-140.5 71.5t-141 -71.5t-52 -186.5zM92 1106q0 157 86 260q85 104 232 104q146 0 231 -104q86 -103 86 -260q0 -158 -86 -264
q-86 -103 -231 -103q-146 0 -232 103q-86 106 -86 264zM1063 342q0 -117 51.5 -187.5t142.5 -70.5q90 0 141.5 70.5t51.5 187.5q0 115 -52 186.5t-141 71.5t-141.5 -72t-52.5 -186zM1257 707q147 0 232 -105q86 -103 86 -260q0 -156 -86 -262q-85 -105 -232 -105t-233 105
q-86 106 -86 262q0 157 86 260q86 105 233 105z" />
    <glyph glyph-name="ampersand" unicode="&#x26;" horiz-adv-x="1357" 
d="M1110 784h135q-12 -298 -162 -516l246 -268h-170l-153 170q-189 -195 -443 -195q-212 0 -340 107q-129 108 -129 291q0 262 336 432l-14 14q-170 197 -170 338q0 136 106 223q110 90 275 90q145 0 241 -84q97 -85 97 -212q0 -235 -342 -402l372 -407q100 166 115 419z
M227 379q0 -133 94 -211t244 -78q215 0 359 170l-416 459q-281 -145 -281 -340zM831 1157q0 89 -57 144t-153 55q-104 0 -173 -57.5t-69 -147.5q0 -110 129 -254l37 -41q286 129 286 301z" />
    <glyph glyph-name="quotesingle" unicode="'" horiz-adv-x="602" 
d="M373 1446l-11 -537h-122l-11 537h144z" />
    <glyph glyph-name="parenleft" unicode="(" horiz-adv-x="659" 
d="M479 1516h115q-275 -411 -275 -902q0 -490 275 -901h-115q-299 388 -299 901q0 514 299 902z" />
    <glyph glyph-name="parenright" unicode=")" horiz-adv-x="659" 
d="M182 -287h-116q276 411 276 901q0 491 -276 902h116q297 -388 297 -902q0 -513 -297 -901z" />
    <glyph glyph-name="asterisk" unicode="*" horiz-adv-x="1183" 
d="M223 408l-67 120l329 170l-329 172l67 121l312 -194l-15 358h146l-15 -358l312 194l67 -121l-330 -172l330 -170l-67 -120l-312 194l15 -358h-146l15 358z" />
    <glyph glyph-name="plus" unicode="+" horiz-adv-x="1214" 
d="M541 219v422h-410v117h410v424h135v-424h407v-117h-407v-422h-135z" />
    <glyph glyph-name="comma" unicode="," horiz-adv-x="587" 
d="M414 25q0 -104 -57 -194t-156 -144l-54 55q73 38 115 103.5t47 144.5q-12 -6 -33 -6q-42 0 -71 29t-29 71q0 43 31 71.5t78 28.5q56 0 92.5 -43.5t36.5 -115.5z" />
    <glyph glyph-name="hyphen" unicode="-" horiz-adv-x="841" 
d="M721 721v-119h-598v119h598z" />
    <glyph glyph-name="period" unicode="." horiz-adv-x="587" 
d="M219 6q-31 31 -31 76t31 74q31 31 76 31t76 -31q31 -29 31 -74t-31 -76t-76 -31t-76 31z" />
    <glyph glyph-name="slash" unicode="/" horiz-adv-x="835" 
d="M817 1528l-655 -1753h-142l658 1753h139z" />
    <glyph glyph-name="zero" unicode="0" horiz-adv-x="1175" 
d="M590 1358q-166 0 -254 -174q-90 -178 -90 -461t90 -461q88 -172 254 -172q164 0 252 172q90 178 90 461t-90 461q-88 174 -252 174zM590 -25q-224 0 -350 203q-127 207 -127 545q0 339 127 543q125 204 350 204q223 0 348 -204q127 -204 127 -543q0 -338 -127 -545
q-126 -203 -348 -203z" />
    <glyph glyph-name="one" unicode="1" horiz-adv-x="1175" 
d="M573 1313l-292 -125l-39 106l360 152h105v-1446h-134v1313z" />
    <glyph glyph-name="two" unicode="2" horiz-adv-x="1175" 
d="M997 117v-117h-854v109l490 522q219 239 219 440q0 130 -83.5 207.5t-225.5 77.5q-162 0 -318 -117l-39 115q168 116 371 116q193 0 309 -110q119 -107 119 -277q0 -252 -254 -524l-414 -442h680z" />
    <glyph glyph-name="three" unicode="3" horiz-adv-x="1175" 
d="M373 723v113q229 1 343.5 80t114.5 208q0 104 -80.5 168t-209.5 64q-161 0 -312 -74l-20 113q163 75 344 75q178 0 297 -96q117 -95 117 -248q0 -125 -87 -220t-237 -124q168 -31 271.5 -137t103.5 -254q0 -185 -146 -301q-145 -115 -380 -115q-198 0 -353 76l31 115
q162 -76 328 -76q171 0 278 81t107 214q0 151 -133 244.5t-377 93.5z" />
    <glyph glyph-name="four" unicode="4" horiz-adv-x="1175" 
d="M760 1264l-549 -779h549v779zM760 0v371h-688v116l682 959h139v-961h211v-114h-211v-371h-133z" />
    <glyph glyph-name="five" unicode="5" horiz-adv-x="1175" 
d="M225 721l45 725h697v-115h-570l-28 -475q79 29 196 29q203 0 334 -125q135 -123 135 -314q0 -211 -143 -342q-141 -129 -375 -129q-186 0 -344 88l41 117q143 -88 303 -88q176 0 280.5 94t104.5 250q0 153 -101.5 244.5t-273.5 91.5q-173 0 -301 -51z" />
    <glyph glyph-name="six" unicode="6" horiz-adv-x="1175" 
d="M616 799q-118 0 -207.5 -71t-136.5 -206q17 -208 103 -320t231 -112q150 0 237 98t87 258t-84.5 256.5t-229.5 96.5zM705 1356q-209 0 -316 -180q-109 -180 -121 -474q126 211 363 211q192 0 311 -131q123 -132 123 -331q0 -206 -125 -340q-127 -136 -336 -136
q-222 0 -346.5 179.5t-124.5 509.5q0 363 148 585q147 221 434 221q114 0 229 -36l-22 -119q-109 41 -217 41z" />
    <glyph glyph-name="seven" unicode="7" horiz-adv-x="1175" 
d="M1030 1337l-579 -1337h-150l588 1331h-725v115h866v-109z" />
    <glyph glyph-name="eight" unicode="8" horiz-adv-x="1175" 
d="M928 367q0 112 -88.5 200t-249.5 129q-161 -41 -249.5 -129t-88.5 -200q0 -118 94 -197q96 -78 244 -78t244 78q94 79 94 197zM590 811q295 99 295 295q0 107 -83.5 178.5t-211.5 71.5q-129 0 -213 -71.5t-84 -178.5q0 -196 297 -295zM590 -25q-211 0 -342 113t-131 270
q0 128 90 231.5t256 164.5q-303 125 -303 364q0 143 123 248q122 104 307 104q183 0 305 -104q123 -105 123 -248q0 -239 -303 -364q166 -61 256 -164.5t90 -231.5q0 -155 -133 -270q-131 -113 -338 -113z" />
    <glyph glyph-name="nine" unicode="9" horiz-adv-x="1175" 
d="M561 649q118 0 207.5 71t136.5 206q-17 208 -102.5 319t-231.5 111q-150 0 -236.5 -98.5t-86.5 -256.5q0 -160 84 -256t229 -96zM473 92q207 0 315 178q109 183 121 473q-126 -211 -362 -211q-191 0 -314 132q-120 132 -120 333q0 204 125 338q126 135 335 135
q222 0 346.5 -178.5t124.5 -507.5q0 -362 -147 -587q-148 -222 -434 -222q-112 0 -230 37l23 119q98 -39 217 -39z" />
    <glyph glyph-name="colon" unicode=":" horiz-adv-x="587" 
d="M219 6q-31 31 -31 76t31 74q31 31 76 31t76 -31q31 -29 31 -74t-31 -76t-76 -31t-76 31zM219 889q-31 31 -31 75.5t31 73.5q31 31 76 31t76 -31q31 -29 31 -73.5t-31 -75.5t-76 -31t-76 31z" />
    <glyph glyph-name="semicolon" unicode=";" horiz-adv-x="587" 
d="M219 889q-31 31 -31 75.5t31 73.5q31 31 76 31t76 -31q31 -29 31 -73.5t-31 -75.5t-76 -31t-76 31zM414 25q0 -104 -57 -194t-156 -144l-54 55q73 38 115 103.5t47 144.5q-12 -6 -33 -6q-42 0 -71 29t-29 71q0 43 31 71.5t78 28.5q56 0 92.5 -43.5t36.5 -115.5z" />
    <glyph glyph-name="less" unicode="&#x3c;" horiz-adv-x="1214" 
d="M272 700l777 -419v-134l-922 500v105l922 499v-133z" />
    <glyph glyph-name="equal" unicode="=" horiz-adv-x="1214" 
d="M1073 987v-117h-930v117h930zM1073 528v-116h-930v116h930z" />
    <glyph glyph-name="greater" unicode="&#x3e;" horiz-adv-x="1214" 
d="M1090 647l-924 -500v134l776 419l-776 418v133l924 -499v-105z" />
    <glyph glyph-name="question" unicode="?" horiz-adv-x="1017" 
d="M162 1251l-39 113q166 106 344 106q181 0 299 -100q121 -100 121 -260q0 -228 -248 -397q-75 -54 -104 -108t-29 -142v-84h-133v92q0 110 37 182t127 133q111 79 162 151.5t51 166.5q0 115 -80.5 182.5t-214.5 67.5q-148 0 -293 -103zM336 78q0 44 30 73t74 29
q43 0 73 -29t30 -73q0 -43 -30 -73t-73 -30q-44 0 -74 30t-30 73z" />
    <glyph glyph-name="at" unicode="@" horiz-adv-x="1861" 
d="M1327 866l-55 -399q0 -72 39 -112t112 -40q99 0 160.5 97.5t61.5 257.5q0 284 -201 485q-200 203 -502 203q-308 0 -516 -211q-207 -213 -207 -516q0 -305 207 -518q206 -209 522 -209q256 0 461 129l43 -103q-230 -139 -504 -139q-370 0 -612 242t-242 598
q0 355 246 598q244 241 602 241q352 0 588 -233q237 -231 237 -567q0 -218 -96.5 -342.5t-259.5 -124.5q-85 0 -146.5 42t-84.5 115q-132 -147 -338 -147q-132 0 -228 90q-92 92 -92 227q0 218 137 367q140 152 330 152q108 0 197.5 -49t140.5 -134zM852 328q182 0 291 139
l51 373q-75 96 -207 96q-135 0 -233 -119q-97 -120 -97 -276q0 -94 54 -153.5t141 -59.5z" />
    <glyph glyph-name="A" unicode="A" horiz-adv-x="1337" 
d="M326 387l-146 -387h-141l565 1446h129l567 -1446h-143l-147 387h-684zM670 1294l-301 -792h600z" />
    <glyph glyph-name="B" unicode="B" horiz-adv-x="1140" 
d="M535 0h-351v1446h332q211 0 333 -103t122 -270q0 -108 -61.5 -193t-164.5 -122q133 -33 213 -127.5t80 -227.5q0 -181 -135 -292t-368 -111zM535 696h-218v-581h218q172 0 271 76.5t99 214.5t-99 214t-271 76zM516 1333h-199v-522h199q149 0 236.5 69.5t87.5 190.5
q0 119 -87.5 190.5t-236.5 71.5z" />
    <glyph glyph-name="C" unicode="C" horiz-adv-x="1323" 
d="M94 725q0 336 199 541q198 204 522 204q205 0 377 -81l-31 -113q-168 80 -346 80q-267 0 -426 -176q-160 -177 -160 -455q0 -280 160 -457q159 -176 426 -176q190 0 363 84l32 -115q-189 -86 -395 -86q-323 0 -522 205t-199 545z" />
    <glyph glyph-name="D" unicode="D" horiz-adv-x="1343" 
d="M506 1333h-189v-1218h189q304 0 457 156.5t153 453.5q0 294 -153 451t-457 157zM506 0h-322v1446h322q362 0 553.5 -190t191.5 -531q0 -343 -191.5 -534t-553.5 -191z" />
    <glyph glyph-name="E" unicode="E" horiz-adv-x="1069" 
d="M946 117v-117h-762v1446h734v-115h-599v-526h529v-115h-529v-573h627z" />
    <glyph glyph-name="F" unicode="F" horiz-adv-x="976" 
d="M319 690v-690h-135v1446h709v-115h-574v-526h512v-115h-512z" />
    <glyph glyph-name="G" unicode="G" horiz-adv-x="1394" 
d="M815 -25q-323 0 -522 205t-199 545q0 336 199 541q198 204 522 204q201 0 379 -81l-31 -115q-163 82 -348 82q-267 0 -426 -176q-160 -177 -160 -455q0 -280 160 -457q159 -176 426 -176q176 0 307 70v459h-358v116h491v-635q-201 -127 -440 -127z" />
    <glyph glyph-name="H" unicode="H" horiz-adv-x="1390" 
d="M319 690v-690h-135v1446h135v-639h754v639h133v-1446h-133v690h-754z" />
    <glyph glyph-name="I" unicode="I" horiz-adv-x="524" 
d="M330 1446v-1446h-133v1446h133z" />
    <glyph glyph-name="J" unicode="J" horiz-adv-x="737" 
d="M426 356v1090h135v-1090q0 -182 -95.5 -281.5t-258.5 -99.5q-89 0 -162 31l14 111q83 -25 146 -25q105 0 163 66.5t58 197.5z" />
    <glyph glyph-name="K" unicode="K" horiz-adv-x="1230" 
d="M319 727v-727h-135v1446h135v-655l656 655h170l-688 -686l751 -760h-172z" />
    <glyph glyph-name="L" unicode="L" horiz-adv-x="989" 
d="M932 117v-117h-748v1446h135v-1329h613z" />
    <glyph glyph-name="M" unicode="M" horiz-adv-x="1796" 
d="M1483 0v1204l-522 -1204h-123l-523 1204v-1204h-131v1446h164l551 -1284l551 1284h162v-1446h-129z" />
    <glyph glyph-name="N" unicode="N" horiz-adv-x="1423" 
d="M1239 1446v-1446h-152l-772 1260v-1260h-131v1446h154l772 -1260v1260h129z" />
    <glyph glyph-name="O" unicode="O" horiz-adv-x="1507" 
d="M229 723q0 -270 142 -453q143 -180 383 -180t383 180t143 453q0 275 -143 455t-383 180t-383 -180q-142 -183 -142 -455zM1231 186q-181 -211 -477 -211q-299 0 -480 211q-180 210 -180 537t180 537t480 210q299 0 479 -210t180 -537q0 -325 -182 -537z" />
    <glyph glyph-name="P" unicode="P" horiz-adv-x="1107" 
d="M535 612h-218v-612h-133v1446h351q232 0 364 -117q133 -118 133 -299q0 -185 -133 -303q-133 -115 -364 -115zM535 1331h-218v-606h218q172 0 269 82t97 223q0 138 -97 219.5t-269 81.5z" />
    <glyph glyph-name="Q" unicode="Q" horiz-adv-x="1507" 
d="M754 -25q-299 0 -480 211q-180 210 -180 537t180 537t480 210q299 0 479 -210t180 -537q0 -267 -127 -465q-126 -194 -346 -256q94 -198 365 -291l-41 -104q-323 109 -459 370q-12 -2 -51 -2zM229 723q0 -270 142 -453q143 -180 383 -180t383 180t143 453q0 275 -143 455
t-383 180t-383 -180q-142 -183 -142 -455z" />
    <glyph glyph-name="R" unicode="R" horiz-adv-x="1124" 
d="M670 670l381 -670h-148l-362 651h-226v-651h-131v1446h334q221 0 346 -113q127 -112 127 -284q0 -141 -85 -242.5t-236 -136.5zM315 1331v-567h203q157 0 249.5 79t92.5 206q0 126 -92 204t-250 78h-203z" />
    <glyph glyph-name="S" unicode="S" horiz-adv-x="1042" 
d="M477 -25q-182 0 -350 82l37 123q146 -88 313 -88q148 0 237 74.5t89 198.5q0 116 -70.5 195t-230.5 142q-194 76 -285.5 175t-91.5 237q0 153 121 256q118 100 311 100q170 0 311 -63l-30 -113q-136 62 -279 62q-135 0 -217 -67.5t-82 -174.5q0 -98 72 -168.5t239 -138.5
q368 -145 365 -430q-1 -183 -127.5 -292.5t-331.5 -109.5z" />
    <glyph glyph-name="T" unicode="T" horiz-adv-x="1110" 
d="M623 1329v-1329h-134v1329h-430v117h994v-117h-430z" />
    <glyph glyph-name="U" unicode="U" horiz-adv-x="1380" 
d="M174 506v940h135v-940q0 -190 102 -302t279 -112q178 0 280.5 112t102.5 302v940h133v-940q0 -235 -139 -383t-377 -148t-377 148t-139 383z" />
    <glyph glyph-name="V" unicode="V" horiz-adv-x="1316" 
d="M717 0h-117l-565 1446h143l481 -1260l480 1260h143z" />
    <glyph glyph-name="W" unicode="W" horiz-adv-x="1902" 
d="M532 217l357 1229h127l356 -1229l357 1229h139l-434 -1446h-123l-359 1241l-358 -1241h-121l-436 1446h141z" />
    <glyph glyph-name="X" unicode="X" horiz-adv-x="1277" 
d="M1026 1446h156l-465 -680l522 -766h-156l-444 655l-442 -655h-158l522 766l-463 680h156l385 -574z" />
    <glyph glyph-name="Y" unicode="Y" horiz-adv-x="1261" 
d="M631 735l440 711h156l-529 -834v-612h-133v612l-528 834h156z" />
    <glyph glyph-name="Z" unicode="Z" horiz-adv-x="1161" 
d="M1049 117v-117h-926v111l743 1220h-725v115h879v-109l-744 -1220h773z" />
    <glyph glyph-name="bracketleft" unicode="[" horiz-adv-x="659" 
d="M596 -170v-117h-377v1803h377v-117h-242v-1569h242z" />
    <glyph glyph-name="backslash" unicode="\" horiz-adv-x="835" 
d="M162 1528l655 -1753h-139l-658 1753h142z" />
    <glyph glyph-name="bracketright" unicode="]" horiz-adv-x="659" 
d="M440 1516v-1803h-377v117h244v1569h-244v117h377z" />
    <glyph glyph-name="asciicircum" unicode="^" horiz-adv-x="1155" 
d="M637 1446l387 -766h-143l-303 616l-304 -616h-143l387 766h119z" />
    <glyph glyph-name="underscore" unicode="_" horiz-adv-x="1009" 
d="M1010 -328h-1010v117h1010v-117z" />
    <glyph glyph-name="grave" unicode="`" horiz-adv-x="804" 
d="M440 1163l-229 324h151l203 -324h-125z" />
    <glyph glyph-name="a" unicode="a" horiz-adv-x="1001" 
d="M84 252q0 156 141 258q144 102 371 102h119v152q0 91 -53.5 142.5t-147.5 51.5q-150 0 -301 -86l-31 109q175 88 338 88q151 0 237.5 -81.5t86.5 -217.5v-512q0 -135 30 -258h-129q-22 84 -28 166q-132 -191 -330 -191q-138 0 -220.5 76.5t-82.5 200.5zM403 86
q174 0 312 209v211h-107q-181 0 -288 -70t-107 -182q0 -79 50 -123.5t140 -44.5z" />
    <glyph glyph-name="b" unicode="b" horiz-adv-x="1114" 
d="M174 76v1411h129v-594q55 81 137 128.5t174 47.5q180 0 293 -143q115 -142 115 -383q0 -259 -137 -414q-136 -154 -342 -154q-192 0 -369 101zM893 535q0 195 -81 309t-218 114q-172 0 -291 -198v-621q103 -53 244 -53q155 0 250 121q96 125 96 328z" />
    <glyph glyph-name="c" unicode="c" horiz-adv-x="948" 
d="M584 -25q-225 0 -359 152q-133 154 -133 395q0 245 133 396t359 151q140 0 270 -53l-35 -109q-122 49 -235 49q-171 0 -265 -122q-96 -122 -96 -312q0 -188 96 -313q95 -121 265 -121q122 0 243 53l35 -108q-122 -58 -278 -58z" />
    <glyph glyph-name="d" unicode="d" horiz-adv-x="1114" 
d="M502 -25q-181 0 -295 144q-113 143 -113 385q0 258 135 411q139 154 346 154q136 0 238 -57v475h129v-1487h-129v152q-121 -177 -311 -177zM522 88q176 0 291 201v610q-109 62 -246 62q-149 0 -248 -123q-96 -125 -96 -326q0 -198 79.5 -311t219.5 -113z" />
    <glyph glyph-name="e" unicode="e" horiz-adv-x="1017" 
d="M928 557v-55h-705q3 -181 86 -299q83 -117 230 -117q134 0 262 61l35 -104q-145 -68 -299 -68q-201 0 -322 154t-121 393q0 240 117 393q121 154 313 154q186 0 295 -145t109 -367zM227 610h572q-3 148 -80 248q-72 100 -195 100q-121 0 -202 -100q-80 -100 -95 -248z
" />
    <glyph glyph-name="f" unicode="f" horiz-adv-x="665" 
d="M365 932v-932h-134v932h-182v112h182v195q0 130 67.5 201t195.5 71q111 0 202 -36l-22 -107q-76 31 -170 31q-139 0 -139 -160v-195h245v-112h-245z" />
    <glyph glyph-name="g" unicode="g" horiz-adv-x="1107" 
d="M813 -27v179q-121 -177 -313 -177q-179 0 -293 144q-113 143 -113 385q0 258 135 411q136 154 346 154q189 0 367 -100v-994q0 -193 -117 -307t-307 -114q-153 0 -289 53l27 110q139 -53 262 -53q135 0 215 84t80 225zM223 512q0 -198 80 -312t219 -114q176 0 291 201
v618q-103 53 -246 53q-154 0 -248 -122q-96 -122 -96 -324z" />
    <glyph glyph-name="h" unicode="h" horiz-adv-x="1097" 
d="M621 956q-173 0 -316 -233v-723h-131v1487h131v-625q145 207 338 207q132 0 219 -90q88 -88 88 -229v-750h-131v735q0 102 -54.5 161.5t-143.5 59.5z" />
    <glyph glyph-name="i" unicode="i" horiz-adv-x="503" 
d="M319 1044v-1044h-133v1044h133zM254 1491q56 4 79.5 -44t0 -96t-79.5 -44q-38 0 -66 27t-28 65q0 39 26.5 65.5t67.5 26.5z" />
    <glyph glyph-name="j" unicode="j" horiz-adv-x="503" 
d="M186 -53v1097h133v-1097q0 -270 -292 -393l-52 100q211 94 211 293zM254 1491q56 4 79.5 -44t0 -96t-79.5 -44q-38 0 -66 27t-28 65q0 39 26.5 65.5t67.5 26.5z" />
    <glyph glyph-name="k" unicode="k" horiz-adv-x="976" 
d="M434 559l547 -559h-172l-504 524v-524h-131v1487h131v-895l453 452h170z" />
    <glyph glyph-name="l" unicode="l" horiz-adv-x="507" 
d="M322 1487v-1487h-134v1487h134z" />
    <glyph glyph-name="m" unicode="m" horiz-adv-x="1619" 
d="M299 725v-725h-131v1044h131v-176q139 201 311 201q100 0 170 -57t90 -154q138 211 328 211q124 0 199.5 -86t75.5 -227v-756h-132v741q0 215 -165 215q-75 0 -152 -58.5t-137 -162.5v-735h-133v741q0 215 -166 215q-157 0 -289 -231z" />
    <glyph glyph-name="n" unicode="n" horiz-adv-x="1089" 
d="M612 956q-170 0 -313 -233v-723h-133v1044h133v-182q145 207 338 207q130 0 217 -90q88 -88 88 -229v-750h-131v735q0 103 -55 162t-144 59z" />
    <glyph glyph-name="o" unicode="o" horiz-adv-x="1118" 
d="M559 -25q-208 0 -338 154q-129 156 -129 393q0 238 129 391q129 156 338 156q211 0 338 -154q129 -153 129 -393t-129 -393q-127 -154 -338 -154zM807 834q-90 124 -248 124t-248 -124q-90 -128 -90 -312q0 -183 90 -311q91 -123 248 -123q156 0 248 123q92 127 92 311
q0 185 -92 312z" />
    <glyph glyph-name="p" unicode="p" horiz-adv-x="1114" 
d="M614 1069q180 0 293 -143q115 -142 115 -383q0 -259 -137 -414q-136 -154 -342 -154q-135 0 -240 60v-457h-129v1466h129v-151q55 81 137 128.5t174 47.5zM594 958q-172 0 -291 -198v-613q107 -61 246 -61q153 0 248 121q96 125 96 328q0 195 -81 309t-218 114z" />
    <glyph glyph-name="q" unicode="q" horiz-adv-x="1114" 
d="M942 969v-1391h-129v574q-121 -177 -313 -177q-179 0 -293 144q-113 143 -113 385q0 258 135 411q139 154 346 154q198 0 367 -100zM223 512q0 -198 79.5 -311t219.5 -113q176 0 291 201v616q-109 56 -244 56q-151 0 -250 -123q-96 -125 -96 -326z" />
    <glyph glyph-name="r" unicode="r" horiz-adv-x="681" 
d="M647 1059l-10 -111q-27 8 -78 8q-82 0 -153.5 -72.5t-106.5 -191.5v-692h-131v1044h131v-180q44 90 117 147.5t151 57.5q50 0 80 -10z" />
    <glyph glyph-name="s" unicode="s" horiz-adv-x="839" 
d="M106 31l25 119q115 -62 252 -62q106 0 170.5 49t64.5 131q0 150 -221 230q-288 101 -288 293q0 124 92.5 201t244.5 77q122 0 246 -47l-24 -111q-121 50 -222 50q-90 0 -148 -47t-58 -119q0 -115 231 -203q277 -102 277 -320q0 -130 -98.5 -213.5t-256.5 -83.5
q-148 0 -287 56z" />
    <glyph glyph-name="t" unicode="t" horiz-adv-x="688" 
d="M365 1346v-302h247v-112h-247v-707q0 -137 108 -137q57 0 148 31l20 -105q-85 -39 -188 -39q-107 0 -164.5 60t-57.5 176v721h-182v112h182v302h134z" />
    <glyph glyph-name="u" unicode="u" horiz-adv-x="1089" 
d="M479 88q170 0 314 234v722h131v-1044h-131v182q-145 -207 -338 -207q-134 0 -222 88q-86 89 -86 232v749h132v-735q0 -101 55.5 -161t144.5 -60z" />
    <glyph glyph-name="v" unicode="v" horiz-adv-x="960" 
d="M182 1044l299 -870l297 870h137l-372 -1044h-123l-375 1044h137z" />
    <glyph glyph-name="w" unicode="w" horiz-adv-x="1501" 
d="M430 170l256 874h133l252 -874l254 874h135l-323 -1044h-131l-254 866l-254 -866h-133l-322 1044h135z" />
    <glyph glyph-name="x" unicode="x" horiz-adv-x="937" 
d="M893 0h-145l-279 446l-279 -446h-145l352 551l-315 493h143l244 -391l242 391h145l-315 -493z" />
    <glyph glyph-name="y" unicode="y" horiz-adv-x="960" 
d="M184 1044l305 -864l289 864h137l-403 -1148q-70 -205 -238 -330l-81 86q147 106 206 280l27 78l-381 1034h139z" />
    <glyph glyph-name="z" unicode="z" horiz-adv-x="935" 
d="M854 113v-113h-766v106l592 826h-574v112h728v-104l-590 -827h610z" />
    <glyph glyph-name="braceleft" unicode="{" horiz-adv-x="659" 
d="M68 559v111q196 15 196 233v326q0 134 77 210.5t208 76.5h55v-117h-53q-70 0 -111 -45.5t-41 -128.5v-334q0 -98 -49 -173t-131 -104q82 -29 131 -102.5t49 -171.5v-334q0 -86 39.5 -131t112.5 -45h53v-117h-55q-131 0 -208 76.5t-77 210.5v326q0 218 -196 233z" />
    <glyph glyph-name="bar" unicode="|" horiz-adv-x="561" 
d="M348 1569v-1966h-135v1966h135z" />
    <glyph glyph-name="braceright" unicode="}" horiz-adv-x="659" 
d="M592 670v-111q-197 -18 -197 -233v-326q0 -134 -76.5 -210.5t-207.5 -76.5h-54v117h54q72 0 111.5 45t39.5 131v334q0 99 48 172t130 102q-82 29 -130 103.5t-48 173.5v334q0 83 -40.5 128.5t-110.5 45.5h-54v117h54q131 0 207.5 -76.5t76.5 -210.5v-326q0 -215 197 -233
z" />
    <glyph glyph-name="asciitilde" unicode="~" horiz-adv-x="1214" 
d="M580 645q-107 88 -181 88q-124 0 -127 -176h-131q1 144 68.5 218.5t187.5 74.5q116 0 240 -100q110 -88 180 -88q125 0 125 178h133q-1 -144 -68.5 -218.5t-187.5 -74.5q-117 0 -239 98z" />
    <glyph glyph-name="uni00A0" unicode="&#xa0;" horiz-adv-x="491" 
 />
    <glyph glyph-name="exclamdown" unicode="&#xa1;" horiz-adv-x="745" 
d="M436 655l13 -1056h-150l12 1056h125zM375 1069q43 0 72.5 -29.5t29.5 -72.5t-29.5 -73t-72.5 -30q-64 -4 -90 49t0 106.5t90 49.5z" />
    <glyph glyph-name="cent" unicode="&#xa2;" horiz-adv-x="948" 
d="M602 -229h-106v211q-188 30 -297 176q-107 146 -107 364q0 217 109 365q110 149 295 176v211h106v-205q132 -3 252 -53l-35 -109q-107 43 -217 49v-868q117 3 225 53l35 -108q-126 -55 -260 -58v-204zM223 522q0 -163 72.5 -277.5t200.5 -146.5v848
q-128 -31 -200.5 -144.5t-72.5 -279.5z" />
    <glyph glyph-name="sterling" unicode="&#xa3;" horiz-adv-x="1282" 
d="M305 496v139h-213v113h213v286q0 210 111 323t315 113q218 0 365 -153l-82 -94q-118 133 -283 133q-143 0 -218 -82t-75 -240v-286h459v-113h-459v-131q0 -259 -168 -387h899v-117h-1077v109q213 136 213 387z" />
    <glyph glyph-name="currency" unicode="&#xa4;" horiz-adv-x="1372" 
d="M283 995l-197 197l90 90l199 -199q131 107 313 107q177 0 311 -107l199 199l90 -90l-196 -197q110 -137 110 -317q0 -181 -110 -318l196 -196l-90 -90l-199 198q-137 -104 -311 -104q-182 0 -313 104l-199 -198l-90 90l197 196q-111 138 -111 318q0 179 111 317zM688 279
q159 0 273 114q112 115 112 285t-112 285q-113 116 -273 116q-161 0 -274 -116t-113 -285t113 -285q114 -114 274 -114z" />
    <glyph glyph-name="yen" unicode="&#xa5;" horiz-adv-x="1261" 
d="M631 735l440 711h156l-488 -768h381v-100h-422v-189h422v-100h-422v-289h-133v289h-422v100h422v189h-422v100h379l-485 768h156z" />
    <glyph glyph-name="brokenbar" unicode="&#xa6;" horiz-adv-x="561" 
d="M213 -225v696h135v-696h-135zM213 733v697h135v-697h-135z" />
    <glyph glyph-name="section" unicode="&#xa7;" horiz-adv-x="1144" 
d="M780 250q174 -107 174 -260q0 -125 -106.5 -202t-282.5 -77q-171 0 -342 74l45 113q141 -72 297 -72q120 0 188 44t68 120q0 115 -159 188l-283 127q-219 103 -219 320q0 211 205 305q-177 103 -177 262q0 125 105 201.5t278 76.5q170 0 336 -75l-45 -111
q-150 72 -291 72q-116 0 -181.5 -44t-65.5 -120q0 -119 182 -199l258 -116q221 -102 221 -320q0 -205 -205 -307zM852 553q0 153 -156 221l-209 94q-194 -68 -194 -239q0 -151 153 -221l209 -95q197 71 197 240z" />
    <glyph glyph-name="dieresis" unicode="&#xa8;" horiz-adv-x="804" 
d="M236 1262q-39 0 -67 27t-28 67q0 41 27 67.5t68 26.5q58 5 82 -44.5t0 -99t-82 -44.5zM637 1423q26 -26 26 -67.5t-26 -67.5t-67.5 -26t-67.5 26t-26 67.5t26 67.5t67.5 26t67.5 -26z" />
    <glyph glyph-name="copyright" unicode="&#xa9;" horiz-adv-x="1671" 
d="M872 1178q121 0 244 -54l-24 -98q-118 53 -220 53q-147 0 -235 -97.5t-88 -256.5t88 -256.5t235 -97.5q113 0 228 59l28 -100q-129 -60 -256 -60q-197 0 -319 125q-121 127 -121 330q0 201 121 328q122 125 319 125zM836 1470q314 0 528 -217q217 -217 217 -530
t-217 -530q-215 -218 -528 -218q-311 0 -529 218q-217 217 -217 530q0 311 217 528q219 219 529 219zM373 1192q-191 -194 -191 -469q0 -277 191 -471q190 -193 463 -193q272 0 462 193q193 193 193 471q0 276 -193 469q-191 194 -462 194q-272 0 -463 -194z" />
    <glyph glyph-name="ordfeminine" unicode="&#xaa;" horiz-adv-x="968" 
d="M150 811q0 132 122 211q122 82 301 82h80v104q0 67 -38.5 107.5t-106.5 40.5q-112 0 -250 -78l-31 104q149 82 283 82q127 0 199.5 -67.5t72.5 -179.5v-402q0 -110 27 -215h-129q-15 56 -18 119q-107 -137 -256 -137q-117 0 -186.5 62.5t-69.5 166.5zM418 688
q127 0 235 164v147h-78q-132 0 -215.5 -52.5t-83.5 -131.5q0 -57 38.5 -92t103.5 -35z" />
    <glyph glyph-name="guillemotleft" unicode="&#xab;" horiz-adv-x="1187" 
d="M600 156l-473 313v111l473 313v-137l-350 -232l350 -229v-139zM1063 156l-475 313v111l475 313v-137l-352 -232l352 -229v-139z" />
    <glyph glyph-name="logicalnot" unicode="&#xac;" horiz-adv-x="1214" 
d="M938 788h-813v117h946v-545h-133v428z" />
    <glyph glyph-name="uni00AD" unicode="&#xad;" horiz-adv-x="841" 
d="M721 721v-119h-598v119h598z" />
    <glyph glyph-name="registered" unicode="&#xae;" horiz-adv-x="1671" 
d="M305 193q-215 218 -215 530t215 530q217 217 531 217t528 -217q217 -217 217 -530t-217 -530q-215 -218 -528 -218t-531 218zM371 1192q-191 -194 -191 -469q0 -277 191 -471q193 -193 465 -193t462 193q193 193 193 471q0 276 -193 469q-191 194 -462 194t-465 -194z
M936 682l225 -397h-125l-211 381h-102v-381h-117v878h215q135 0 217 -69t82 -179q0 -85 -48 -146t-136 -87zM723 1065v-301h98q85 0 134 42t49 109t-49 108.5t-134 41.5h-98z" />
    <glyph glyph-name="overscore" unicode="&#xaf;" horiz-adv-x="804" 
d="M690 1300h-575v111h575v-111z" />
    <glyph glyph-name="degree" unicode="&#xb0;" horiz-adv-x="790" 
d="M397 950q-116 0 -192 76t-76 184q0 109 76 185q75 75 192 75q114 0 189 -75q78 -78 78 -185q0 -106 -78 -184q-76 -76 -189 -76zM397 1053q66 0 111 45t45 112t-45 112.5t-111 45.5q-67 0 -112 -45t-45 -113t45 -112.5t112 -44.5z" />
    <glyph glyph-name="plusminus" unicode="&#xb1;" horiz-adv-x="1214" 
d="M1083 172v-117h-952v117h952zM541 334v424h-410v116h410v422h135v-422h407v-116h-407v-424h-135z" />
    <glyph glyph-name="twosuperior" unicode="&#xb2;" 
d="M739 582v-109h-589v94l321 344q133 145 133 271q0 76 -48.5 124t-129.5 48q-97 0 -219 -88l-35 110q127 86 262 86q131 0 215 -78t84 -192q0 -162 -170 -350l-241 -260h417z" />
    <glyph glyph-name="threesuperior" unicode="&#xb3;" 
d="M295 942v105q146 0 219.5 47t73.5 125q0 61 -46 98t-120 37q-103 0 -215 -56l-23 107q126 57 246 57q127 0 207 -67.5t80 -173.5q0 -74 -49.5 -136t-130.5 -88q98 -30 155.5 -97t57.5 -157q0 -129 -99 -207.5t-260 -78.5q-132 0 -252 57l29 109q119 -58 225 -58
q101 0 164.5 47.5t63.5 126.5q0 91 -85 147t-241 56z" />
    <glyph glyph-name="acute" unicode="&#xb4;" horiz-adv-x="804" 
d="M242 1163l202 324h152l-231 -324h-123z" />
    <glyph glyph-name="mu" unicode="&#xb5;" horiz-adv-x="1118" 
d="M510 88q85 0 166.5 58t142.5 163v735h131v-1044h-131v164q-127 -189 -311 -189q-130 0 -203 88v-485h-131v1466h131v-843q67 -113 205 -113z" />
    <glyph glyph-name="paragraph" unicode="&#xb6;" horiz-adv-x="1228" 
d="M649 -352v923h-59q-207 0 -344 119q-135 120 -135 320q0 197 135 317q137 119 344 119h430v-1798h-115v1691h-139v-1691h-117z" />
    <glyph glyph-name="middot" unicode="&#xb7;" horiz-adv-x="587" 
d="M219 588q-31 31 -31 75.5t31 75.5t76 31t76 -31t31 -75.5t-31 -75.5q-31 -29 -76 -29t-76 29z" />
    <glyph glyph-name="cedilla" unicode="&#xb8;" horiz-adv-x="804" 
d="M203 -461l18 90q58 -24 125 -24q57 0 93 29t36 73q0 110 -196 113l71 180h117l-53 -117q81 -12 127.5 -60t46.5 -118q0 -85 -65.5 -139.5t-170.5 -54.5q-79 0 -149 28z" />
    <glyph glyph-name="onesuperior" unicode="&#xb9;" 
d="M424 1315l-182 -76l-39 98l254 109h96v-973h-129v842z" />
    <glyph glyph-name="ordmasculine" unicode="&#xba;" horiz-adv-x="968" 
d="M870 1022q0 -195 -104 -317q-105 -123 -281 -123q-174 0 -282 123q-105 123 -105 317q0 197 105 317q108 123 282 123q176 0 281 -123q104 -119 104 -317zM227 1022q0 -146 69.5 -239t188.5 -93t187.5 93t68.5 239q0 149 -68.5 240.5t-187.5 91.5q-120 0 -189 -91.5
t-69 -240.5z" />
    <glyph glyph-name="guillemotright" unicode="&#xbb;" horiz-adv-x="1187" 
d="M588 893l475 -313v-111l-475 -313v139l350 229l-350 232v137zM127 893l473 -313v-111l-473 -313v139l350 229l-350 232v137z" />
    <glyph glyph-name="onequarter" unicode="&#xbc;" horiz-adv-x="2072" 
d="M1497 1446l-790 -1446h-132l789 1446h133zM424 1315l-182 -76l-39 98l254 109h96v-973h-129v842zM1718 788l-307 -438h307v438zM1718 0v242h-444v96l450 635h121v-623h140v-108h-140v-242h-127z" />
    <glyph glyph-name="onehalf" unicode="&#xbd;" horiz-adv-x="2072" 
d="M1497 1446l-790 -1446h-132l789 1446h133zM424 1315l-182 -76l-39 98l254 109h96v-973h-129v842zM1919 109v-109h-592v94l322 344q133 142 133 271q0 79 -47 125.5t-131 46.5q-98 0 -220 -88l-32 110q127 86 260 86q132 0 215.5 -76.5t83.5 -193.5q0 -168 -170 -350
l-240 -260h418z" />
    <glyph glyph-name="threequarters" unicode="&#xbe;" horiz-adv-x="2072" 
d="M1718 0v242h-444v96l450 635h121v-623h140v-108h-140v-242h-127zM295 942v105q146 0 219.5 47t73.5 125q0 61 -46 98t-120 37q-103 0 -215 -56l-23 107q126 57 246 57q127 0 207 -67.5t80 -173.5q0 -74 -49.5 -136t-130.5 -88q98 -30 155.5 -97t57.5 -157
q0 -129 -99 -207.5t-260 -78.5q-132 0 -252 57l29 109q119 -58 225 -58q101 0 164.5 47.5t63.5 126.5q0 91 -85 147t-241 56zM1497 1446l-790 -1446h-132l789 1446h133zM1718 788l-307 -438h307v438z" />
    <glyph glyph-name="questiondown" unicode="&#xbf;" horiz-adv-x="1017" 
d="M858 -207l39 -112q-168 -107 -344 -107q-183 0 -301 100q-119 98 -119 260q0 229 248 398q75 51 104 106.5t29 143.5v84h133v-91q0 -111 -37 -183.5t-127 -133.5q-109 -77 -161 -150.5t-52 -166.5q0 -115 80.5 -182.5t214.5 -67.5q149 0 293 102zM582 864q-64 -4 -90 49
t0 106.5t90 49.5q43 0 72.5 -29.5t29.5 -72.5t-29.5 -73t-72.5 -30z" />
    <glyph glyph-name="Agrave" unicode="&#xc0;" horiz-adv-x="1337" 
d="M326 387l-146 -387h-141l565 1446h129l567 -1446h-143l-147 387h-684zM670 1294l-301 -792h600zM621 1569l-230 323h152l202 -323h-124z" />
    <glyph glyph-name="Aacute" unicode="&#xc1;" horiz-adv-x="1337" 
d="M326 387l-146 -387h-141l565 1446h129l567 -1446h-143l-147 387h-684zM670 1294l-301 -792h600zM594 1569l203 323h151l-229 -323h-125z" />
    <glyph glyph-name="Acircumflex" unicode="&#xc2;" horiz-adv-x="1337" 
d="M326 387l-146 -387h-141l565 1446h129l567 -1446h-143l-147 387h-684zM670 1294l-301 -792h600zM332 1569l268 323h141l269 -323h-129l-211 235l-211 -235h-127z" />
    <glyph glyph-name="Atilde" unicode="&#xc3;" horiz-adv-x="1337" 
d="M326 387l-146 -387h-141l565 1446h129l567 -1446h-143l-147 387h-684zM670 1294l-301 -792h600zM643 1673q-65 53 -100 53q-59 0 -62 -110h-116q1 103 45.5 159t124.5 56q83 0 161 -66q68 -53 101 -53q59 0 59 111h117q0 -103 -44 -160t-124 -57q-86 0 -162 67z" />
    <glyph glyph-name="Adieresis" unicode="&#xc4;" horiz-adv-x="1337" 
d="M326 387l-146 -387h-141l565 1446h129l567 -1446h-143l-147 387h-684zM670 1294l-301 -792h600zM502 1624q-38 0 -66 28t-28 66q0 40 28.5 67.5t64.5 27.5t68 -27q27 -32 27 -68t-27 -65t-67 -29zM903 1786q26 -26 26 -67.5t-26 -67.5t-67.5 -26t-67.5 26t-26 67.5
t26 67.5t67.5 26t67.5 -26z" />
    <glyph glyph-name="Aring" unicode="&#xc5;" horiz-adv-x="1337" 
d="M326 387l-146 -387h-141l565 1446h129l567 -1446h-143l-147 387h-684zM670 1294l-301 -792h600zM829 1880q66 -60 66 -151t-66 -154q-65 -59 -159 -59t-162 59q-66 63 -66 154t66 151q68 62 162 62t159 -62zM551 1729q0 -49 34 -82t85 -33q50 0 83 33t33 82
q0 48 -33.5 81t-82.5 33q-51 0 -85 -33t-34 -81z" />
    <glyph glyph-name="AE" unicode="&#xc6;" horiz-adv-x="1781" 
d="M899 0v387h-496l-208 -387h-156l795 1446h796v-115h-600v-526h529v-115h-529v-575h627v-115h-758zM899 1309l-436 -807h436v807z" />
    <glyph glyph-name="Ccedilla" unicode="&#xc7;" horiz-adv-x="1323" 
d="M94 725q0 336 199 541q198 204 522 204q205 0 377 -81l-31 -113q-168 80 -346 80q-267 0 -426 -176q-160 -177 -160 -455q0 -280 160 -457q159 -176 426 -176q190 0 363 84l32 -115q-183 -83 -381 -86l-43 -92q81 -12 128 -60t47 -118q0 -85 -65.5 -139.5t-170.5 -54.5
q-80 0 -150 28l19 90q58 -24 125 -24q57 0 93 29t36 73q0 110 -197 113l64 162q-283 35 -451 233q-170 200 -170 510z" />
    <glyph glyph-name="Egrave" unicode="&#xc8;" horiz-adv-x="1069" 
d="M946 117v-117h-762v1446h734v-115h-599v-526h529v-115h-529v-573h627zM512 1569l-229 323h151l203 -323h-125z" />
    <glyph glyph-name="Eacute" unicode="&#xc9;" horiz-adv-x="1069" 
d="M946 117v-117h-762v1446h734v-115h-599v-526h529v-115h-529v-573h627zM457 1569l202 323h152l-231 -323h-123z" />
    <glyph glyph-name="Ecircumflex" unicode="&#xca;" horiz-adv-x="1069" 
d="M946 117v-117h-762v1446h734v-115h-599v-526h529v-115h-529v-573h627zM209 1569l268 323h141l269 -323h-129l-211 235l-211 -235h-127z" />
    <glyph glyph-name="Edieresis" unicode="&#xcb;" horiz-adv-x="1069" 
d="M946 117v-117h-762v1446h734v-115h-599v-526h529v-115h-529v-573h627zM287 1718q-5 58 44.5 82t99 0t44.5 -82q0 -41 -26.5 -67.5t-67.5 -26.5t-67.5 27.5t-26.5 66.5zM782 1786q26 -26 26 -67.5t-26 -67.5t-67.5 -26t-67.5 26t-26 67.5t26 67.5t67.5 26t67.5 -26z" />
    <glyph glyph-name="Igrave" unicode="&#xcc;" horiz-adv-x="524" 
d="M330 1446v-1446h-133v1446h133zM207 1569l-232 323h152l203 -323h-123z" />
    <glyph glyph-name="Iacute" unicode="&#xcd;" horiz-adv-x="524" 
d="M330 1446v-1446h-133v1446h133zM197 1569l202 323h152l-232 -323h-122z" />
    <glyph glyph-name="Icircumflex" unicode="&#xce;" horiz-adv-x="524" 
d="M330 1446v-1446h-133v1446h133zM-76 1569l271 323h141l268 -323h-129l-211 235l-211 -235h-129z" />
    <glyph glyph-name="Idieresis" unicode="&#xcf;" horiz-adv-x="524" 
d="M330 1446v-1446h-133v1446h133zM96 1624q-38 0 -66 28t-28 66q0 40 29 67.5t65 27.5t68 -27q27 -32 27 -68t-27.5 -65t-67.5 -29zM498 1786q26 -26 26 -67.5t-26 -67.5t-68 -26t-68 26t-26 67.5t26 67.5t68 26t68 -26z" />
    <glyph glyph-name="Eth" unicode="&#xd0;" horiz-adv-x="1460" 
d="M633 0h-320v657h-239v111h239v678h320q364 0 555.5 -189.5t191.5 -531.5q0 -343 -191.5 -534t-555.5 -191zM633 1333h-187v-565h367v-111h-367v-542h187q304 0 458 156.5t154 453.5q0 294 -154 451t-458 157z" />
    <glyph glyph-name="Ntilde" unicode="&#xd1;" horiz-adv-x="1423" 
d="M1239 1446v-1446h-152l-772 1260v-1260h-131v1446h154l772 -1260v1260h129zM686 1673q-65 53 -100 53q-59 0 -62 -110h-116q1 103 45.5 159t124.5 56q83 0 161 -66q68 -53 101 -53q59 0 59 111h117q0 -103 -44 -160t-124 -57q-86 0 -162 67z" />
    <glyph glyph-name="Ograve" unicode="&#xd2;" horiz-adv-x="1507" 
d="M229 723q0 -270 142 -453q143 -180 383 -180t383 180t143 453q0 275 -143 455t-383 180t-383 -180q-142 -183 -142 -455zM1231 186q-181 -211 -477 -211q-299 0 -480 211q-180 210 -180 537t180 537t480 210q299 0 479 -210t180 -537q0 -325 -182 -537zM711 1569
l-230 323h152l203 -323h-125z" />
    <glyph glyph-name="Oacute" unicode="&#xd3;" horiz-adv-x="1507" 
d="M229 723q0 -270 142 -453q143 -180 383 -180t383 180t143 453q0 275 -143 455t-383 180t-383 -180q-142 -183 -142 -455zM1231 186q-181 -211 -477 -211q-299 0 -480 211q-180 210 -180 537t180 537t480 210q299 0 479 -210t180 -537q0 -325 -182 -537zM674 1569l203 323
h151l-231 -323h-123z" />
    <glyph glyph-name="Ocircumflex" unicode="&#xd4;" horiz-adv-x="1507" 
d="M229 723q0 -270 142 -453q143 -180 383 -180t383 180t143 453q0 275 -143 455t-383 180t-383 -180q-142 -183 -142 -455zM1231 186q-181 -211 -477 -211q-299 0 -480 211q-180 210 -180 537t180 537t480 210q299 0 479 -210t180 -537q0 -325 -182 -537zM416 1569l268 323
h141l269 -323h-129l-211 235l-211 -235h-127z" />
    <glyph glyph-name="Otilde" unicode="&#xd5;" horiz-adv-x="1507" 
d="M229 723q0 -270 142 -453q143 -180 383 -180t383 180t143 453q0 275 -143 455t-383 180t-383 -180q-142 -183 -142 -455zM1231 186q-181 -211 -477 -211q-299 0 -480 211q-180 210 -180 537t180 537t480 210q299 0 479 -210t180 -537q0 -325 -182 -537zM727 1673
q-65 53 -100 53q-59 0 -62 -110h-116q2 103 46 159t123 56q84 0 162 -66q68 -53 101 -53q59 0 59 111h117q0 -103 -44 -160t-124 -57q-86 0 -162 67z" />
    <glyph glyph-name="Odieresis" unicode="&#xd6;" horiz-adv-x="1507" 
d="M229 723q0 -270 142 -453q143 -180 383 -180t383 180t143 453q0 275 -143 455t-383 180t-383 -180q-142 -183 -142 -455zM1231 186q-181 -211 -477 -211q-299 0 -480 211q-180 210 -180 537t180 537t480 210q299 0 479 -210t180 -537q0 -325 -182 -537zM492 1718
q-5 58 44.5 82t99 0t44.5 -82q0 -41 -26.5 -67.5t-67.5 -26.5t-67.5 27.5t-26.5 66.5zM987 1786q26 -26 26 -67.5t-26 -67.5t-67.5 -26t-67.5 26t-26 67.5t26 67.5t67.5 26t67.5 -26z" />
    <glyph glyph-name="multiply" unicode="&#xd7;" horiz-adv-x="1214" 
d="M961 256l-353 356l-352 -356l-86 90l350 354l-350 353l86 90l352 -357l353 357l86 -90l-351 -353l351 -354z" />
    <glyph glyph-name="Oslash" unicode="&#xd8;" horiz-adv-x="1507" 
d="M754 -25q-199 0 -353 101l-112 -178h-125l155 243q-225 211 -225 582q0 327 180 537t480 210q205 0 352 -100l113 178h127l-158 -243q225 -211 225 -582q0 -325 -182 -537q-181 -211 -477 -211zM1280 723q0 293 -160 473l-653 -1018q122 -88 287 -88q240 0 383 180
t143 453zM754 1358q-240 0 -383 -180q-142 -183 -142 -455q0 -293 160 -473l651 1018q-128 90 -286 90z" />
    <glyph glyph-name="Ugrave" unicode="&#xd9;" horiz-adv-x="1380" 
d="M174 506v940h135v-940q0 -190 102 -302t279 -112q178 0 280.5 112t102.5 302v940h133v-940q0 -235 -139 -383t-377 -148t-377 148t-139 383zM645 1569l-229 323h151l203 -323h-125z" />
    <glyph glyph-name="Uacute" unicode="&#xda;" horiz-adv-x="1380" 
d="M174 506v940h135v-940q0 -190 102 -302t279 -112q178 0 280.5 112t102.5 302v940h133v-940q0 -235 -139 -383t-377 -148t-377 148t-139 383zM616 1569l203 323h152l-232 -323h-123z" />
    <glyph glyph-name="Ucircumflex" unicode="&#xdb;" horiz-adv-x="1380" 
d="M174 506v940h135v-940q0 -190 102 -302t279 -112q178 0 280.5 112t102.5 302v940h133v-940q0 -235 -139 -383t-377 -148t-377 148t-139 383zM352 1569l269 323h141l268 -323h-127l-211 235l-211 -235h-129z" />
    <glyph glyph-name="Udieresis" unicode="&#xdc;" horiz-adv-x="1380" 
d="M174 506v940h135v-940q0 -190 102 -302t279 -112q178 0 280.5 112t102.5 302v940h133v-940q0 -235 -139 -383t-377 -148t-377 148t-139 383zM522 1624q-38 0 -66 28t-28 66q0 40 29 67.5t65 27.5t68 -27q27 -32 27 -68t-27.5 -65t-67.5 -29zM924 1786q26 -26 26 -67.5
t-26 -67.5t-68 -26t-68 26t-26 67.5t26 67.5t68 26t68 -26z" />
    <glyph glyph-name="Yacute" unicode="&#xdd;" horiz-adv-x="1261" 
d="M631 735l440 711h156l-529 -834v-612h-133v612l-528 834h156zM553 1569l203 323h151l-231 -323h-123z" />
    <glyph glyph-name="Thorn" unicode="&#xde;" horiz-adv-x="1107" 
d="M537 313h-220v-313h-133v1446h133v-299h220q230 0 362 -117q133 -115 133 -299q0 -183 -133 -301q-132 -117 -362 -117zM537 1034h-220v-606h220q171 0 267.5 82.5t96.5 220.5t-96.5 220.5t-267.5 82.5z" />
    <glyph glyph-name="germandbls" unicode="&#xdf;" horiz-adv-x="1132" 
d="M492 700v113q159 7 247 86t88 209q0 112 -71 181t-191 69q-124 0 -192 -79t-68 -232v-1047h-131v1047q0 205 105 314t286 109q177 0 285 -102t108 -258q0 -127 -75 -220t-203 -128q166 -41 258 -147.5t92 -258.5q0 -168 -106 -274q-104 -107 -275 -107q-128 0 -233 54
l14 123q103 -62 211 -62q114 0 185 72t71 194q0 149 -113 240q-112 95 -292 104z" />
    <glyph glyph-name="agrave" unicode="&#xe0;" horiz-adv-x="1001" 
d="M84 252q0 156 141 258q144 102 371 102h119v152q0 91 -53.5 142.5t-147.5 51.5q-150 0 -301 -86l-31 109q175 88 338 88q151 0 237.5 -81.5t86.5 -217.5v-512q0 -135 30 -258h-129q-22 84 -28 166q-132 -191 -330 -191q-138 0 -220.5 76.5t-82.5 200.5zM403 86
q174 0 312 209v211h-107q-181 0 -288 -70t-107 -182q0 -79 50 -123.5t140 -44.5zM459 1188l-230 323h152l203 -323h-125z" />
    <glyph glyph-name="aacute" unicode="&#xe1;" horiz-adv-x="1001" 
d="M84 252q0 156 141 258q144 102 371 102h119v152q0 91 -53.5 142.5t-147.5 51.5q-150 0 -301 -86l-31 109q175 88 338 88q151 0 237.5 -81.5t86.5 -217.5v-512q0 -135 30 -258h-129q-22 84 -28 166q-132 -191 -330 -191q-138 0 -220.5 76.5t-82.5 200.5zM403 86
q174 0 312 209v211h-107q-181 0 -288 -70t-107 -182q0 -79 50 -123.5t140 -44.5zM406 1188l202 323h152l-232 -323h-122z" />
    <glyph glyph-name="acircumflex" unicode="&#xe2;" horiz-adv-x="1001" 
d="M84 252q0 156 141 258q144 102 371 102h119v152q0 91 -53.5 142.5t-147.5 51.5q-150 0 -301 -86l-31 109q175 88 338 88q151 0 237.5 -81.5t86.5 -217.5v-512q0 -135 30 -258h-129q-22 84 -28 166q-132 -191 -330 -191q-138 0 -220.5 76.5t-82.5 200.5zM403 86
q174 0 312 209v211h-107q-181 0 -288 -70t-107 -182q0 -79 50 -123.5t140 -44.5zM154 1188l268 323h141l268 -323h-126l-211 235l-211 -235h-129z" />
    <glyph glyph-name="atilde" unicode="&#xe3;" horiz-adv-x="1001" 
d="M84 252q0 156 141 258q144 102 371 102h119v152q0 91 -53.5 142.5t-147.5 51.5q-150 0 -301 -86l-31 109q175 88 338 88q151 0 237.5 -81.5t86.5 -217.5v-512q0 -135 30 -258h-129q-22 84 -28 166q-132 -191 -330 -191q-138 0 -220.5 76.5t-82.5 200.5zM403 86
q174 0 312 209v211h-107q-181 0 -288 -70t-107 -182q0 -79 50 -123.5t140 -44.5zM465 1292q-66 54 -100 54q-59 0 -62 -109h-117q1 103 45.5 159t124.5 56q81 0 162 -66q68 -53 100 -53q60 0 60 109h117q0 -103 -44 -159t-124 -56q-82 0 -162 65z" />
    <glyph glyph-name="adieresis" unicode="&#xe4;" horiz-adv-x="1001" 
d="M84 252q0 156 141 258q144 102 371 102h119v152q0 91 -53.5 142.5t-147.5 51.5q-150 0 -301 -86l-31 109q175 88 338 88q151 0 237.5 -81.5t86.5 -217.5v-512q0 -135 30 -258h-129q-22 84 -28 166q-132 -191 -330 -191q-138 0 -220.5 76.5t-82.5 200.5zM403 86
q174 0 312 209v211h-107q-181 0 -288 -70t-107 -182q0 -79 50 -123.5t140 -44.5zM233 1337q-5 58 45 82t99.5 0t44.5 -82q0 -41 -26.5 -67.5t-67.5 -26.5t-68 27.5t-27 66.5zM729 1405q26 -26 26 -67.5t-26 -67.5t-67.5 -26t-67.5 26t-26 67.5t26 67.5t67.5 26t67.5 -26z
" />
    <glyph glyph-name="aring" unicode="&#xe5;" horiz-adv-x="1001" 
d="M84 252q0 156 141 258q144 102 371 102h119v152q0 91 -53.5 142.5t-147.5 51.5q-150 0 -301 -86l-31 109q175 88 338 88q151 0 237.5 -81.5t86.5 -217.5v-512q0 -135 30 -258h-129q-22 84 -28 166q-132 -191 -330 -191q-138 0 -220.5 76.5t-82.5 200.5zM403 86
q174 0 312 209v211h-107q-181 0 -288 -70t-107 -182q0 -79 50 -123.5t140 -44.5zM643 1503q66 -60 66 -151t-66 -154q-65 -59 -160 -59q-93 0 -161 59q-66 63 -66 154t66 151q68 62 161 62q95 0 160 -62zM483 1237q49 0 83 33.5t34 81.5q0 47 -34 80.5t-83 33.5
q-51 0 -84.5 -33t-33.5 -81t34 -81.5t84 -33.5z" />
    <glyph glyph-name="ae" unicode="&#xe6;" horiz-adv-x="1675" 
d="M1585 557v-55h-692q12 -195 97 -303.5t227 -108.5q135 0 243 57l37 -104q-145 -68 -297 -68q-138 0 -237.5 76t-147.5 213q-50 -135 -156.5 -212t-246.5 -77q-146 0 -237 77.5t-91 201.5q0 158 139 258q138 100 369 100h172q-1 158 -74.5 252t-191.5 94q-148 0 -289 -84
l-31 109q164 86 326 86q117 0 206.5 -68t125.5 -180q45 114 138.5 181t213.5 67q185 0 291 -145q106 -141 106 -367zM424 84q141 0 235 119t103 303h-158q-178 0 -284.5 -69.5t-106.5 -180.5q0 -79 58 -125.5t153 -46.5zM1188 958q-118 0 -197.5 -96.5t-93.5 -251.5h559
q-3 150 -76 248q-69 100 -192 100z" />
    <glyph glyph-name="ccedilla" unicode="&#xe7;" horiz-adv-x="948" 
d="M356 -461l19 90q59 -24 125 -24q57 0 93 29t36 73q0 110 -197 113l66 162q-188 27 -297 176q-109 148 -109 364q0 245 133 396t359 151q140 0 270 -53l-35 -109q-122 49 -235 49q-171 0 -265 -122q-96 -122 -96 -312q0 -188 96 -313q95 -121 265 -121q122 0 243 53
l35 -108q-110 -52 -252 -58l-43 -92q81 -12 127.5 -60t46.5 -118q0 -85 -65 -139.5t-170 -54.5q-80 0 -150 28z" />
    <glyph glyph-name="egrave" unicode="&#xe8;" horiz-adv-x="1017" 
d="M928 557v-55h-705q3 -181 86 -299q83 -117 230 -117q134 0 262 61l35 -104q-145 -68 -299 -68q-201 0 -322 154t-121 393q0 240 117 393q121 154 313 154q186 0 295 -145t109 -367zM227 610h572q-3 148 -80 248q-72 100 -195 100q-121 0 -202 -100q-80 -100 -95 -248z
M469 1188l-229 323h151l203 -323h-125z" />
    <glyph glyph-name="eacute" unicode="&#xe9;" horiz-adv-x="1017" 
d="M928 557v-55h-705q3 -181 86 -299q83 -117 230 -117q134 0 262 61l35 -104q-145 -68 -299 -68q-201 0 -322 154t-121 393q0 240 117 393q121 154 313 154q186 0 295 -145t109 -367zM227 610h572q-3 148 -80 248q-72 100 -195 100q-121 0 -202 -100q-80 -100 -95 -248z
M432 1188l203 323h151l-231 -323h-123z" />
    <glyph glyph-name="ecircumflex" unicode="&#xea;" horiz-adv-x="1017" 
d="M928 557v-55h-705q3 -181 86 -299q83 -117 230 -117q134 0 262 61l35 -104q-145 -68 -299 -68q-201 0 -322 154t-121 393q0 240 117 393q121 154 313 154q186 0 295 -145t109 -367zM227 610h572q-3 148 -80 248q-72 100 -195 100q-121 0 -202 -100q-80 -100 -95 -248z
M172 1188l268 323h142l268 -323h-127l-211 235l-211 -235h-129z" />
    <glyph glyph-name="edieresis" unicode="&#xeb;" horiz-adv-x="1017" 
d="M928 557v-55h-705q3 -181 86 -299q83 -117 230 -117q134 0 262 61l35 -104q-145 -68 -299 -68q-201 0 -322 154t-121 393q0 240 117 393q121 154 313 154q186 0 295 -145t109 -367zM227 610h572q-3 148 -80 248q-72 100 -195 100q-121 0 -202 -100q-80 -100 -95 -248z
M438 1337q0 -39 -26.5 -66.5t-67.5 -27.5t-67.5 26.5t-26.5 67.5q-5 58 44.5 82t99 0t44.5 -82zM582 1337q-5 58 44.5 82t99.5 0t46 -82q0 -41 -27.5 -67.5t-68.5 -26.5t-67.5 27.5t-26.5 66.5z" />
    <glyph glyph-name="igrave" unicode="&#xec;" horiz-adv-x="503" 
d="M195 1188l-230 323h152l202 -323h-124zM319 1044v-1044h-133v1044h133z" />
    <glyph glyph-name="iacute" unicode="&#xed;" horiz-adv-x="503" 
d="M188 1188l203 323h152l-232 -323h-123zM319 1044v-1044h-133v1044h133z" />
    <glyph glyph-name="icircumflex" unicode="&#xee;" horiz-adv-x="503" 
d="M319 1044v-1044h-133v1044h133zM-86 1188l270 323h142l268 -323h-129l-211 235l-211 -235h-129z" />
    <glyph glyph-name="idieresis" unicode="&#xef;" horiz-adv-x="503" 
d="M-8 1337q-5 58 44.5 82t99 0t44.5 -82q0 -41 -26.5 -67.5t-67.5 -26.5t-67.5 27.5t-26.5 66.5zM487 1405q26 -26 26 -67.5t-26 -67.5t-67.5 -26t-67.5 26t-26 67.5t26 67.5t67.5 26t67.5 -26zM319 1044v-1044h-133v1044h133z" />
    <glyph glyph-name="eth" unicode="&#xf0;" horiz-adv-x="1157" 
d="M711 1221l-410 -125l-33 98l355 106q-103 83 -248 138l57 75q184 -56 316 -176l276 86l33 -98l-228 -70q193 -236 193 -612q0 -321 -141 -496q-138 -172 -369 -172q-179 0 -301 134q-119 134 -119 366q0 247 129 391q134 146 338 146q206 0 315 -158q-27 216 -163 367z
M893 643v39q-49 105 -136 162t-198 57q-159 0 -248.5 -110t-89.5 -310q0 -182 81.5 -288.5t213.5 -106.5q175 0 276 145t101 412z" />
    <glyph glyph-name="ntilde" unicode="&#xf1;" horiz-adv-x="1089" 
d="M612 956q-170 0 -313 -233v-723h-133v1044h133v-182q145 207 338 207q130 0 217 -90q88 -88 88 -229v-750h-131v735q0 103 -55 162t-144 59zM543 1292q-66 54 -101 54q-58 0 -61 -109h-117q1 103 45.5 159t124.5 56q81 0 162 -66q68 -53 100 -53q60 0 60 109h116
q0 -103 -43.5 -159t-123.5 -56q-82 0 -162 65z" />
    <glyph glyph-name="ograve" unicode="&#xf2;" horiz-adv-x="1118" 
d="M559 -25q-208 0 -338 154q-129 156 -129 393q0 238 129 391q129 156 338 156q211 0 338 -154q129 -153 129 -393t-129 -393q-127 -154 -338 -154zM807 834q-90 124 -248 124t-248 -124q-90 -128 -90 -312q0 -183 90 -311q91 -123 248 -123q156 0 248 123q92 127 92 311
q0 185 -92 312zM516 1188l-229 323h151l203 -323h-125z" />
    <glyph glyph-name="oacute" unicode="&#xf3;" horiz-adv-x="1118" 
d="M559 -25q-208 0 -338 154q-129 156 -129 393q0 238 129 391q129 156 338 156q211 0 338 -154q129 -153 129 -393t-129 -393q-127 -154 -338 -154zM807 834q-90 124 -248 124t-248 -124q-90 -128 -90 -312q0 -183 90 -311q91 -123 248 -123q156 0 248 123q92 127 92 311
q0 185 -92 312zM481 1188l203 323h152l-232 -323h-123z" />
    <glyph glyph-name="ocircumflex" unicode="&#xf4;" horiz-adv-x="1118" 
d="M559 -25q-208 0 -338 154q-129 156 -129 393q0 238 129 391q129 156 338 156q211 0 338 -154q129 -153 129 -393t-129 -393q-127 -154 -338 -154zM807 834q-90 124 -248 124t-248 -124q-90 -128 -90 -312q0 -183 90 -311q91 -123 248 -123q156 0 248 123q92 127 92 311
q0 185 -92 312zM221 1188l268 323h142l268 -323h-127l-211 235l-211 -235h-129z" />
    <glyph glyph-name="otilde" unicode="&#xf5;" horiz-adv-x="1118" 
d="M559 -25q-208 0 -338 154q-129 156 -129 393q0 238 129 391q129 156 338 156q211 0 338 -154q129 -153 129 -393t-129 -393q-127 -154 -338 -154zM807 834q-90 124 -248 124t-248 -124q-90 -128 -90 -312q0 -183 90 -311q91 -123 248 -123q156 0 248 123q92 127 92 311
q0 185 -92 312zM532 1292q-66 54 -100 54q-58 0 -61 -109h-117q1 103 45.5 159t124.5 56q81 0 162 -66q68 -53 100 -53q59 0 59 109h117q0 -103 -44 -159t-124 -56q-82 0 -162 65z" />
    <glyph glyph-name="odieresis" unicode="&#xf6;" horiz-adv-x="1118" 
d="M559 -25q-208 0 -338 154q-129 156 -129 393q0 238 129 391q129 156 338 156q211 0 338 -154q129 -153 129 -393t-129 -393q-127 -154 -338 -154zM807 834q-90 124 -248 124t-248 -124q-90 -128 -90 -312q0 -183 90 -311q91 -123 248 -123q156 0 248 123q92 127 92 311
q0 185 -92 312zM391 1243q-38 0 -66 28t-28 66q0 40 29 67.5t65 27.5t68 -27q27 -32 27 -68t-27.5 -65t-67.5 -29zM793 1405q26 -26 26 -67.5t-26 -67.5t-68 -26t-68 26t-26 67.5t26 67.5t68 26t68 -26z" />
    <glyph glyph-name="divide" unicode="&#xf7;" horiz-adv-x="1214" 
d="M608 1188q44 0 74.5 -29.5t30.5 -71.5t-32 -72t-71.5 -30t-74.5 29q-23 22 -27.5 53.5t6.5 58.5t36.5 45.5t57.5 16.5zM131 641v117h952v-117h-952zM535 240q-29 31 -29 73.5t29 71.5q31 31 73.5 31t73.5 -31q31 -29 31 -71.5t-31 -73.5q-29 -29 -73.5 -29t-73.5 29z" />
    <glyph glyph-name="oslash" unicode="&#xf8;" horiz-adv-x="1118" 
d="M559 -25q-133 0 -237 66l-89 -143h-112l125 204q-154 154 -154 420q0 238 129 391q129 156 338 156q135 0 238 -65l88 143h112l-125 -205q154 -154 154 -420q0 -240 -129 -393q-127 -154 -338 -154zM559 958q-158 0 -248 -124q-90 -128 -90 -312q0 -190 92 -311l422 692
q-76 55 -176 55zM899 522q0 191 -92 312l-424 -693q77 -53 176 -53q156 0 248 123q92 127 92 311z" />
    <glyph glyph-name="ugrave" unicode="&#xf9;" horiz-adv-x="1089" 
d="M479 88q170 0 314 234v722h131v-1044h-131v182q-145 -207 -338 -207q-134 0 -222 88q-86 89 -86 232v749h132v-735q0 -101 55.5 -161t144.5 -60zM494 1188l-230 323h152l202 -323h-124z" />
    <glyph glyph-name="uacute" unicode="&#xfa;" horiz-adv-x="1089" 
d="M479 88q170 0 314 234v722h131v-1044h-131v182q-145 -207 -338 -207q-134 0 -222 88q-86 89 -86 232v749h132v-735q0 -101 55.5 -161t144.5 -60zM457 1188l202 323h152l-229 -323h-125z" />
    <glyph glyph-name="ucircumflex" unicode="&#xfb;" horiz-adv-x="1089" 
d="M479 88q170 0 314 234v722h131v-1044h-131v182q-145 -207 -338 -207q-134 0 -222 88q-86 89 -86 232v749h132v-735q0 -101 55.5 -161t144.5 -60zM199 1188l268 323h141l269 -323h-129l-211 235l-211 -235h-127z" />
    <glyph glyph-name="udieresis" unicode="&#xfc;" horiz-adv-x="1089" 
d="M479 88q170 0 314 234v722h131v-1044h-131v182q-145 -207 -338 -207q-134 0 -222 88q-86 89 -86 232v749h132v-735q0 -101 55.5 -161t144.5 -60zM274 1337q-5 58 44.5 82t99.5 0t45 -82q0 -41 -26.5 -67.5t-67.5 -26.5t-68 27.5t-27 66.5zM770 1405q26 -26 26 -67.5
t-26 -67.5t-67.5 -26t-67.5 26t-26 67.5t26 67.5t67.5 26t67.5 -26z" />
    <glyph glyph-name="yacute" unicode="&#xfd;" horiz-adv-x="960" 
d="M184 1044l305 -864l289 864h137l-403 -1148q-70 -205 -238 -330l-81 86q147 106 206 280l27 78l-381 1034h139zM403 1188l203 323h152l-232 -323h-123z" />
    <glyph glyph-name="thorn" unicode="&#xfe;" horiz-adv-x="1118" 
d="M307 100v-522h-129v1909h129v-602q111 184 311 184q178 0 293 -145q113 -143 113 -389q0 -259 -127 -410q-126 -150 -330 -150q-162 0 -260 125zM307 739v-510q98 -143 264 -143q148 0 237 119.5t89 322.5q0 198 -81 314t-218 116q-185 0 -291 -219z" />
    <glyph glyph-name="ydieresis" unicode="&#xff;" horiz-adv-x="960" 
d="M184 1044l305 -864l289 864h137l-403 -1148q-70 -205 -238 -330l-81 86q147 106 206 280l27 78l-381 1034h139zM313 1243q-38 0 -66 28t-28 66q0 40 29 67.5t65 27.5t68 -27q27 -32 27 -68t-27.5 -65t-67.5 -29zM715 1405q26 -26 26 -67.5t-26 -67.5t-67.5 -26t-67.5 26
t-26 67.5t26 67.5t67.5 26t67.5 -26z" />
    <glyph glyph-name="Amacron" unicode="&#x100;" horiz-adv-x="1337" 
d="M326 387l-146 -387h-141l565 1446h129l567 -1446h-143l-147 387h-684zM670 1294l-301 -792h600zM956 1663h-575v111h575v-111z" />
    <glyph glyph-name="amacron" unicode="&#x101;" horiz-adv-x="1001" 
d="M84 252q0 156 141 258q144 102 371 102h119v152q0 91 -53.5 142.5t-147.5 51.5q-150 0 -301 -86l-31 109q175 88 338 88q151 0 237.5 -81.5t86.5 -217.5v-512q0 -135 30 -258h-129q-22 84 -28 166q-132 -191 -330 -191q-138 0 -220.5 76.5t-82.5 200.5zM403 86
q174 0 312 209v211h-107q-181 0 -288 -70t-107 -182q0 -79 50 -123.5t140 -44.5zM801 1282h-576v111h576v-111z" />
    <glyph glyph-name="Abreve" unicode="&#x102;" horiz-adv-x="1337" 
d="M326 387l-146 -387h-141l565 1446h129l567 -1446h-143l-147 387h-684zM670 1294l-301 -792h600zM354 1851h123q5 -88 56.5 -139t136.5 -51t135.5 49.5t56.5 140.5h123q-3 -132 -94 -217q-88 -82 -221 -82q-136 0 -224 82q-89 83 -92 217z" />
    <glyph glyph-name="abreve" unicode="&#x103;" horiz-adv-x="1001" 
d="M84 252q0 156 141 258q144 102 371 102h119v152q0 91 -53.5 142.5t-147.5 51.5q-150 0 -301 -86l-31 109q175 88 338 88q151 0 237.5 -81.5t86.5 -217.5v-512q0 -135 30 -258h-129q-22 84 -28 166q-132 -191 -330 -191q-138 0 -220.5 76.5t-82.5 200.5zM403 86
q174 0 312 209v211h-107q-181 0 -288 -70t-107 -182q0 -79 50 -123.5t140 -44.5zM186 1470h123q5 -88 56.5 -139t136.5 -51t135.5 49.5t56.5 140.5h123q-3 -132 -94 -217q-88 -82 -221 -82q-135 0 -223 82q-90 84 -93 217z" />
    <glyph glyph-name="Aogonek" unicode="&#x104;" horiz-adv-x="1337" 
d="M1180 0h-23l-145 387h-686l-146 -387h-141l565 1446h129l567 -1446q-153 -132 -153 -252q0 -50 32 -79t87 -29q43 0 84 14l20 -90q-71 -23 -127 -23q-94 0 -153.5 54t-59.5 141q0 138 150 264zM670 1294l-301 -792h600z" />
    <glyph glyph-name="aogonek" unicode="&#x105;" horiz-adv-x="1001" 
d="M754 0h-9q-22 84 -28 166q-132 -191 -330 -191q-138 0 -220.5 76.5t-82.5 200.5q0 156 141 258q144 102 371 102h119v152q0 91 -53.5 142.5t-147.5 51.5q-150 0 -301 -86l-31 109q175 88 338 88q151 0 237.5 -81.5t86.5 -217.5v-512q0 -135 30 -258q-155 -137 -155 -252
q0 -50 33 -79t88 -29q43 0 84 14l20 -92q-58 -21 -127 -21q-94 0 -153.5 53.5t-59.5 139.5q0 140 150 266zM403 86q174 0 312 209v211h-107q-181 0 -288 -70t-107 -182q0 -79 50 -123.5t140 -44.5z" />
    <glyph glyph-name="Cacute" unicode="&#x106;" horiz-adv-x="1323" 
d="M94 725q0 336 199 541q198 204 522 204q205 0 377 -81l-31 -113q-168 80 -346 80q-267 0 -426 -176q-160 -177 -160 -455q0 -280 160 -457q159 -176 426 -176q190 0 363 84l32 -115q-189 -86 -395 -86q-323 0 -522 205t-199 545zM680 1569l203 323h151l-231 -323h-123z
" />
    <glyph glyph-name="cacute" unicode="&#x107;" horiz-adv-x="948" 
d="M584 -25q-225 0 -359 152q-133 154 -133 395q0 245 133 396t359 151q140 0 270 -53l-35 -109q-122 49 -235 49q-171 0 -265 -122q-96 -122 -96 -312q0 -188 96 -313q95 -121 265 -121q122 0 243 53l35 -108q-122 -58 -278 -58zM457 1188l202 323h152l-229 -323h-125z" />
    <glyph glyph-name="Ccircumflex" unicode="&#x108;" horiz-adv-x="1323" 
d="M94 725q0 336 199 541q198 204 522 204q205 0 377 -81l-31 -113q-168 80 -346 80q-267 0 -426 -176q-160 -177 -160 -455q0 -280 160 -457q159 -176 426 -176q190 0 363 84l32 -115q-189 -86 -395 -86q-323 0 -522 205t-199 545zM422 1569l268 323h141l269 -323h-127
l-211 235l-211 -235h-129z" />
    <glyph glyph-name="ccircumflex" unicode="&#x109;" horiz-adv-x="948" 
d="M584 -25q-225 0 -359 152q-133 154 -133 395q0 245 133 396t359 151q140 0 270 -53l-35 -109q-122 49 -235 49q-171 0 -265 -122q-96 -122 -96 -312q0 -188 96 -313q95 -121 265 -121q122 0 243 53l35 -108q-122 -58 -278 -58zM190 1188l269 323h141l268 -323h-127
l-211 235l-211 -235h-129z" />
    <glyph glyph-name="Cdotaccent" unicode="&#x10a;" horiz-adv-x="1323" 
d="M94 725q0 336 199 541q198 204 522 204q205 0 377 -81l-31 -113q-168 80 -346 80q-267 0 -426 -176q-160 -177 -160 -455q0 -280 160 -457q159 -176 426 -176q190 0 363 84l32 -115q-189 -86 -395 -86q-323 0 -522 205t-199 545zM829 1788q29 -29 29 -69.5t-29 -69.5
t-69.5 -29t-69.5 29t-29 69.5t29 69.5t69.5 29t69.5 -29z" />
    <glyph glyph-name="cdotaccent" unicode="&#x10b;" horiz-adv-x="948" 
d="M584 -25q-225 0 -359 152q-133 154 -133 395q0 245 133 396t359 151q140 0 270 -53l-35 -109q-122 49 -235 49q-171 0 -265 -122q-96 -122 -96 -312q0 -188 96 -313q95 -121 265 -121q122 0 243 53l35 -108q-122 -58 -278 -58zM631 1337q0 -41 -28.5 -68.5t-70.5 -27.5
q-41 0 -69.5 27.5t-28.5 68.5q0 43 28 71t70 28t70.5 -28.5t28.5 -70.5z" />
    <glyph glyph-name="Ccaron" unicode="&#x10c;" horiz-adv-x="1323" 
d="M94 725q0 336 199 541q198 204 522 204q205 0 377 -81l-31 -113q-168 80 -346 80q-267 0 -426 -176q-160 -177 -160 -455q0 -280 160 -457q159 -176 426 -176q190 0 363 84l32 -115q-189 -86 -395 -86q-323 0 -522 205t-199 545zM1104 1892l-268 -323h-142l-268 323h127
l211 -233l211 233h129z" />
    <glyph glyph-name="ccaron" unicode="&#x10d;" horiz-adv-x="948" 
d="M584 -25q-225 0 -359 152q-133 154 -133 395q0 245 133 396t359 151q140 0 270 -53l-35 -109q-122 49 -235 49q-171 0 -265 -122q-96 -122 -96 -312q0 -188 96 -313q95 -121 265 -121q122 0 243 53l35 -108q-122 -58 -278 -58zM870 1511l-268 -323h-141l-268 323h129
l210 -233l211 233h127z" />
    <glyph glyph-name="Dcaron" unicode="&#x10e;" horiz-adv-x="1343" 
d="M506 1333h-189v-1218h189q304 0 457 156.5t153 453.5q0 294 -153 451t-457 157zM506 0h-322v1446h322q362 0 553.5 -190t191.5 -531q0 -343 -191.5 -534t-553.5 -191zM950 1892l-268 -323h-141l-269 323h129l211 -233l211 233h127z" />
    <glyph glyph-name="dcaron" unicode="&#x10f;" horiz-adv-x="1406" 
d="M502 -25q-181 0 -295 144q-113 143 -113 385q0 258 135 411q139 154 346 154q136 0 238 -57v475h129v-1487h-129v152q-121 -177 -311 -177zM522 88q176 0 291 201v610q-109 62 -246 62q-149 0 -248 -123q-96 -125 -96 -326q0 -198 79.5 -311t219.5 -113zM1137 1415
q0 43 27.5 69.5t74.5 26.5q50 0 83.5 -41.5t33.5 -109.5q0 -100 -52.5 -184t-144.5 -134l-49 50q144 83 150 237q-12 -6 -31 -6q-38 0 -65 27t-27 65z" />
    <glyph glyph-name="Dcroat" unicode="&#x110;" horiz-adv-x="1460" 
d="M633 0h-320v657h-239v111h239v678h320q364 0 555.5 -189.5t191.5 -531.5q0 -343 -191.5 -534t-555.5 -191zM633 1333h-187v-565h367v-111h-367v-542h187q304 0 458 156.5t154 453.5q0 294 -154 451t-458 157z" />
    <glyph glyph-name="dslash" unicode="&#x111;" horiz-adv-x="1224" 
d="M502 -25q-181 0 -295 144q-113 143 -113 385q0 258 135 411q139 154 346 154q136 0 238 -57v202h-387v105h387v168h129v-168h225v-105h-225v-1214h-129v152q-121 -177 -311 -177zM522 88q176 0 291 201v610q-109 62 -246 62q-149 0 -248 -123q-96 -125 -96 -326
q0 -198 79.5 -311t219.5 -113z" />
    <glyph glyph-name="Emacron" unicode="&#x112;" horiz-adv-x="1069" 
d="M946 117v-117h-762v1446h734v-115h-599v-526h529v-115h-529v-573h627zM842 1663h-576v111h576v-111z" />
    <glyph glyph-name="emacron" unicode="&#x113;" horiz-adv-x="1017" 
d="M928 557v-55h-705q3 -181 86 -299q83 -117 230 -117q134 0 262 61l35 -104q-145 -68 -299 -68q-201 0 -322 154t-121 393q0 240 117 393q121 154 313 154q186 0 295 -145t109 -367zM227 610h572q-3 148 -80 248q-72 100 -195 100q-121 0 -202 -100q-80 -100 -95 -248z
M799 1282h-576v111h576v-111z" />
    <glyph glyph-name="Ebreve" unicode="&#x114;" horiz-adv-x="1069" 
d="M946 117v-117h-762v1446h734v-115h-599v-526h529v-115h-529v-573h627zM242 1851h123q5 -88 56 -139t136 -51t136 50t57 140h122q-3 -132 -94 -217q-88 -82 -221 -82q-135 0 -223 82q-89 83 -92 217z" />
    <glyph glyph-name="ebreve" unicode="&#x115;" horiz-adv-x="1017" 
d="M928 557v-55h-705q3 -181 86 -299q83 -117 230 -117q134 0 262 61l35 -104q-145 -68 -299 -68q-201 0 -322 154t-121 393q0 240 117 393q121 154 313 154q186 0 295 -145t109 -367zM227 610h572q-3 148 -80 248q-72 100 -195 100q-121 0 -202 -100q-80 -100 -95 -248z
M510 1171q-133 0 -221 82q-91 85 -94 217h122q6 -90 57 -140t136 -50t136 51t56 139h125q-6 -133 -94.5 -216t-222.5 -83z" />
    <glyph glyph-name="Edotaccent" unicode="&#x116;" horiz-adv-x="1069" 
d="M946 117v-117h-762v1446h734v-115h-599v-526h529v-115h-529v-573h627zM549 1620q-41 0 -68.5 28.5t-27.5 69.5q0 42 27.5 70.5t68.5 28.5q42 0 70 -28.5t28 -70.5t-28 -70t-70 -28z" />
    <glyph glyph-name="edotaccent" unicode="&#x117;" horiz-adv-x="1017" 
d="M928 557v-55h-705q3 -181 86 -299q83 -117 230 -117q134 0 262 61l35 -104q-145 -68 -299 -68q-201 0 -322 154t-121 393q0 240 117 393q121 154 313 154q186 0 295 -145t109 -367zM227 610h572q-3 148 -80 248q-72 100 -195 100q-121 0 -202 -100q-80 -100 -95 -248z
M608 1337q0 -41 -27.5 -68.5t-70.5 -27.5q-41 0 -68.5 27.5t-27.5 68.5q0 43 27.5 71t68.5 28q43 0 70.5 -28t27.5 -71z" />
    <glyph glyph-name="Eogonek" unicode="&#x118;" horiz-adv-x="1069" 
d="M944 115v-115h-110q-154 -133 -154 -252q0 -50 32 -79t87 -29q43 0 84 14l20 -90q-71 -23 -127 -23q-94 0 -153.5 54t-59.5 141q0 136 152 264h-531v1446h734v-115h-599v-526h527v-115h-527v-575h625z" />
    <glyph glyph-name="eogonek" unicode="&#x119;" horiz-adv-x="1017" 
d="M928 557v-55h-705q3 -181 86 -299q83 -117 230 -117q134 0 262 61l35 -104q-102 -51 -230 -63q-131 -125 -131 -232q0 -50 32 -79t87 -29q45 0 86 14l18 -92q-59 -21 -127 -21q-94 0 -152.5 53.5t-58.5 139.5q0 126 123 243q-180 21 -284 170q-105 150 -105 375
q0 240 117 393q121 154 313 154q186 0 295 -145t109 -367zM227 610h572q-3 148 -80 248q-72 100 -195 100q-121 0 -202 -100q-80 -100 -95 -248z" />
    <glyph glyph-name="Ecaron" unicode="&#x11a;" horiz-adv-x="1069" 
d="M946 117v-117h-762v1446h734v-115h-599v-526h529v-115h-529v-573h627zM895 1892l-268 -323h-142l-268 323h127l211 -233l211 233h129z" />
    <glyph glyph-name="ecaron" unicode="&#x11b;" horiz-adv-x="1017" 
d="M928 557v-55h-705q3 -181 86 -299q83 -117 230 -117q134 0 262 61l35 -104q-145 -68 -299 -68q-201 0 -322 154t-121 393q0 240 117 393q121 154 313 154q186 0 295 -145t109 -367zM227 610h572q-3 148 -80 248q-72 100 -195 100q-121 0 -202 -100q-80 -100 -95 -248z
M850 1511l-268 -323h-142l-268 323h129l211 -233l211 233h127z" />
    <glyph glyph-name="Gcircumflex" unicode="&#x11c;" horiz-adv-x="1394" 
d="M815 -25q-323 0 -522 205t-199 545q0 336 199 541q198 204 522 204q201 0 379 -81l-31 -115q-163 82 -348 82q-267 0 -426 -176q-160 -177 -160 -455q0 -280 160 -457q159 -176 426 -176q176 0 307 70v459h-358v116h491v-635q-201 -127 -440 -127zM403 1569l269 323h141
l268 -323h-129l-211 235l-211 -235h-127z" />
    <glyph glyph-name="gcircumflex" unicode="&#x11d;" horiz-adv-x="1107" 
d="M813 -27v179q-121 -177 -313 -177q-179 0 -293 144q-113 143 -113 385q0 258 135 411q136 154 346 154q189 0 367 -100v-994q0 -193 -117 -307t-307 -114q-153 0 -289 53l27 110q139 -53 262 -53q135 0 215 84t80 225zM223 512q0 -198 80 -312t219 -114q176 0 291 201
v618q-103 53 -246 53q-154 0 -248 -122q-96 -122 -96 -324zM215 1188l268 323h142l268 -323h-127l-211 235l-211 -235h-129z" />
    <glyph glyph-name="Gbreve" unicode="&#x11e;" horiz-adv-x="1394" 
d="M815 -25q-323 0 -522 205t-199 545q0 336 199 541q198 204 522 204q201 0 379 -81l-31 -115q-163 82 -348 82q-267 0 -426 -176q-160 -177 -160 -455q0 -280 160 -457q159 -176 426 -176q176 0 307 70v459h-358v116h491v-635q-201 -127 -440 -127zM430 1851h123
q5 -88 56 -139t136 -51t136 50t57 140h123q-3 -132 -94 -217q-88 -82 -222 -82q-135 0 -223 82q-89 83 -92 217z" />
    <glyph glyph-name="gbreve" unicode="&#x11f;" horiz-adv-x="1107" 
d="M813 -27v179q-121 -177 -313 -177q-179 0 -293 144q-113 143 -113 385q0 258 135 411q136 154 346 154q189 0 367 -100v-994q0 -193 -117 -307t-307 -114q-153 0 -289 53l27 110q139 -53 262 -53q135 0 215 84t80 225zM223 512q0 -198 80 -312t219 -114q176 0 291 201
v618q-103 53 -246 53q-154 0 -248 -122q-96 -122 -96 -324zM233 1470h123q5 -88 56.5 -139t136.5 -51t135.5 49.5t56.5 140.5h123q-3 -132 -94 -217q-88 -82 -221 -82q-135 0 -223 82q-90 84 -93 217z" />
    <glyph glyph-name="Gdotaccent" unicode="&#x120;" horiz-adv-x="1394" 
d="M815 -25q-323 0 -522 205t-199 545q0 336 199 541q198 204 522 204q201 0 379 -81l-31 -115q-163 82 -348 82q-267 0 -426 -176q-160 -177 -160 -455q0 -280 160 -457q159 -176 426 -176q176 0 307 70v459h-358v116h491v-635q-201 -127 -440 -127zM813 1788
q29 -29 29 -69.5t-29 -69.5t-69.5 -29t-69.5 29t-29 69.5t29 69.5t69.5 29t69.5 -29z" />
    <glyph glyph-name="gdotaccent" unicode="&#x121;" horiz-adv-x="1107" 
d="M813 -27v179q-121 -177 -313 -177q-179 0 -293 144q-113 143 -113 385q0 258 135 411q136 154 346 154q189 0 367 -100v-994q0 -193 -117 -307t-307 -114q-153 0 -289 53l27 110q139 -53 262 -53q135 0 215 84t80 225zM223 512q0 -198 80 -312t219 -114q176 0 291 201
v618q-103 53 -246 53q-154 0 -248 -122q-96 -122 -96 -324zM653 1337q0 -41 -27.5 -68.5t-70.5 -27.5q-41 0 -68.5 27.5t-27.5 68.5q0 43 27.5 71t68.5 28q43 0 70.5 -28t27.5 -71z" />
    <glyph glyph-name="Gcommaaccent" unicode="&#x122;" horiz-adv-x="1394" 
d="M815 -25q-323 0 -522 205t-199 545q0 336 199 541q198 204 522 204q201 0 379 -81l-31 -115q-163 82 -348 82q-267 0 -426 -176q-160 -177 -160 -455q0 -280 160 -457q159 -176 426 -176q176 0 307 70v459h-358v116h491v-635q-201 -127 -440 -127zM662 -215
q0 41 27.5 66.5t70.5 25.5q48 0 79 -38.5t31 -104.5q0 -86 -51 -160.5t-135 -116.5l-45 51q130 68 139 195q-8 -8 -28 -8q-37 0 -62.5 26t-25.5 64z" />
    <glyph glyph-name="gcommaaccent" unicode="&#x123;" horiz-adv-x="1107" 
d="M813 -27v179q-121 -177 -313 -177q-179 0 -293 144q-113 143 -113 385q0 258 135 411q136 154 346 154q189 0 367 -100v-994q0 -193 -117 -307t-307 -114q-153 0 -289 53l27 110q139 -53 262 -53q135 0 215 84t80 225zM223 512q0 -198 80 -312t219 -114q176 0 291 201
v618q-103 53 -246 53q-154 0 -248 -122q-96 -122 -96 -324zM651 1268q0 -41 -27.5 -66.5t-70.5 -25.5q-48 0 -79.5 38t-31.5 103q0 86 51.5 161t135.5 117l45 -51q-130 -71 -139 -194q13 8 28 8q36 0 62 -26t26 -64z" />
    <glyph glyph-name="Hcircumflex" unicode="&#x124;" horiz-adv-x="1390" 
d="M319 690v-690h-135v1446h135v-639h754v639h133v-1446h-133v690h-754zM358 1569l269 323h141l268 -323h-129l-211 235l-211 -235h-127z" />
    <glyph glyph-name="hcircumflex" unicode="&#x125;" horiz-adv-x="1097" 
d="M621 956q-173 0 -316 -233v-723h-131v1487h131v-625q145 207 338 207q132 0 219 -90q88 -88 88 -229v-750h-131v735q0 102 -54.5 161.5t-143.5 59.5zM-100 1569l270 323h141l269 -323h-129l-211 235l-211 -235h-129z" />
    <glyph glyph-name="Hbar" unicode="&#x126;" horiz-adv-x="1495" 
d="M373 690v-690h-135v1112h-160v111h160v223h135v-223h753v223h134v-223h159v-111h-159v-1112h-134v690h-753zM373 1112v-307h753v307h-753z" />
    <glyph glyph-name="hbar" unicode="&#x127;" horiz-adv-x="1208" 
d="M416 1487v-168h383v-105h-383v-352q145 207 338 207q129 0 219 -90q88 -88 88 -229v-750h-131v735q0 101 -56 161t-145 60q-170 0 -313 -233v-723h-131v1214h-226v105h226v168h131z" />
    <glyph glyph-name="Itilde" unicode="&#x128;" horiz-adv-x="524" 
d="M330 1446v-1446h-133v1446h133zM238 1673q-65 53 -101 53q-58 0 -61 -110h-117q1 103 45.5 159t124.5 56q84 0 162 -66q68 -53 100 -53q60 0 60 111h116q0 -103 -44 -160t-124 -57q-85 0 -161 67z" />
    <glyph glyph-name="itilde" unicode="&#x129;" horiz-adv-x="503" 
d="M227 1292q-66 54 -100 54q-58 0 -61 -109h-117q1 103 45.5 159t124.5 56q81 0 162 -66q68 -53 100 -53q59 0 59 109h117q0 -103 -44 -159t-124 -56q-82 0 -162 65zM319 1044v-1044h-133v1044h133z" />
    <glyph glyph-name="Imacron" unicode="&#x12a;" horiz-adv-x="524" 
d="M330 1446v-1446h-133v1446h133zM551 1663h-576v111h576v-111z" />
    <glyph glyph-name="imacron" unicode="&#x12b;" horiz-adv-x="503" 
d="M541 1282h-576v111h576v-111zM319 1044v-1044h-133v1044h133z" />
    <glyph glyph-name="Ibreve" unicode="&#x12c;" horiz-adv-x="524" 
d="M330 1446v-1446h-133v1446h133zM-53 1851h125q5 -88 56 -139t136 -51t136 50t57 140h123q-3 -131 -95 -217q-88 -82 -221 -82q-135 0 -223 82q-91 85 -94 217z" />
    <glyph glyph-name="ibreve" unicode="&#x12d;" horiz-adv-x="503" 
d="M-63 1470h124q5 -88 56.5 -139t136.5 -51t135.5 49.5t56.5 140.5h123q-3 -132 -94 -217q-88 -82 -221 -82q-135 0 -223 82q-91 85 -94 217zM319 1044v-1044h-133v1044h133z" />
    <glyph glyph-name="Iogonek" unicode="&#x12e;" horiz-adv-x="524" 
d="M211 0h-14v1446h133v-1446q-154 -139 -154 -252q0 -50 32 -79t87 -29q45 0 86 14l18 -92q-58 -21 -127 -21q-94 0 -152.5 53.5t-58.5 139.5q0 140 150 266z" />
    <glyph glyph-name="iogonek" unicode="&#x12f;" horiz-adv-x="503" 
d="M199 0h-13v1044h133v-1044q-155 -137 -155 -252q0 -50 33 -79t88 -29q43 0 84 14l20 -92q-59 -21 -127 -21q-94 0 -153.5 53.5t-59.5 139.5q0 140 150 266zM254 1491q56 4 79.5 -44t0 -96t-79.5 -44q-38 0 -66 27t-28 65q0 39 26.5 65.5t67.5 26.5z" />
    <glyph glyph-name="Idot" unicode="&#x130;" horiz-adv-x="524" 
d="M330 1446v-1446h-133v1446h133zM334 1788q29 -29 29 -69.5t-29 -69.5t-69.5 -29t-69.5 29t-29 69.5t29 69.5t69.5 29t69.5 -29z" />
    <glyph glyph-name="dotlessi" unicode="&#x131;" horiz-adv-x="503" 
d="M319 1044v-1044h-133v1044h133z" />
    <glyph glyph-name="IJ" unicode="&#x132;" horiz-adv-x="1263" 
d="M330 1446v-1446h-133v1446h133zM952 356v1090h133v-1090q0 -182 -95 -281.5t-257 -99.5q-89 0 -162 31l15 111q80 -25 145 -25q105 0 163 66.5t58 197.5z" />
    <glyph glyph-name="ij" unicode="&#x133;" horiz-adv-x="1009" 
d="M319 1044v-1044h-133v1044h133zM254 1491q56 4 79.5 -44t0 -96t-79.5 -44q-38 0 -66 27t-28 65q0 39 26.5 65.5t67.5 26.5zM692 -53v1097h131v-1097q0 -270 -293 -393l-49 100q211 99 211 293zM758 1491q41 0 66.5 -26.5t25.5 -65.5q0 -38 -27 -65t-65 -27
q-56 -4 -79.5 44t0 96t79.5 44z" />
    <glyph glyph-name="Jcircumflex" unicode="&#x134;" horiz-adv-x="737" 
d="M426 356v1090h135v-1090q0 -182 -95.5 -281.5t-258.5 -99.5q-89 0 -162 31l14 111q83 -25 146 -25q105 0 163 66.5t58 197.5zM154 1569l268 323h141l268 -323h-126l-211 235l-211 -235h-129z" />
    <glyph glyph-name="jcircumflex" unicode="&#x135;" horiz-adv-x="503" 
d="M186 -53v1097h133v-1097q0 -270 -292 -393l-52 100q211 94 211 293zM-88 1188l270 323h142l268 -323h-129l-211 235l-211 -235h-129z" />
    <glyph glyph-name="Kcommaaccent" unicode="&#x136;" horiz-adv-x="1230" 
d="M319 727v-727h-135v1446h135v-655l656 655h170l-688 -686l751 -760h-172zM539 -215q0 41 26.5 66.5t69.5 25.5q48 0 79 -38.5t31 -104.5q0 -87 -50.5 -161t-135.5 -116l-45 51q129 67 141 195q-8 -8 -28 -8q-37 0 -62.5 26t-25.5 64z" />
    <glyph glyph-name="kcommaaccent" unicode="&#x137;" horiz-adv-x="976" 
d="M434 559l547 -559h-172l-504 524v-524h-131v1487h131v-895l453 452h170zM432 -215q0 41 27.5 66.5t70.5 25.5q49 0 80 -38.5t31 -104.5q0 -86 -51 -160.5t-135 -116.5l-45 51q130 68 139 195q-8 -8 -29 -8q-37 0 -62.5 26t-25.5 64z" />
    <glyph glyph-name="kgreenlandic" unicode="&#x138;" horiz-adv-x="970" 
d="M428 559l545 -559h-172l-502 524v-524h-133v1044h133v-452l453 452h168z" />
    <glyph glyph-name="Lacute" unicode="&#x139;" horiz-adv-x="989" 
d="M932 117v-117h-748v1446h135v-1329h613zM186 1569l203 323h152l-232 -323h-123z" />
    <glyph glyph-name="lacute" unicode="&#x13a;" horiz-adv-x="507" 
d="M322 1487v-1487h-134v1487h134zM190 1569l203 323h152l-232 -323h-123z" />
    <glyph glyph-name="Lcommaaccent" unicode="&#x13b;" horiz-adv-x="989" 
d="M932 117v-117h-748v1446h135v-1329h613zM463 -215q0 41 26.5 66.5t69.5 25.5q49 0 80 -38.5t31 -104.5q0 -87 -50.5 -161t-136.5 -116l-45 51q130 68 142 195q-8 -8 -29 -8q-37 0 -62.5 26t-25.5 64z" />
    <glyph glyph-name="lcommaaccent" unicode="&#x13c;" horiz-adv-x="507" 
d="M322 1487v-1487h-134v1487h134zM158 -215q0 41 26.5 66.5t69.5 25.5q49 0 80 -38.5t31 -104.5q0 -87 -50.5 -161t-136.5 -116l-45 51q129 67 141 195q-8 -8 -28 -8q-37 0 -62.5 26t-25.5 64z" />
    <glyph glyph-name="Lcaron" unicode="&#x13d;" horiz-adv-x="989" 
d="M932 117v-117h-748v1446h135v-1329h613zM692 1415q0 43 28 69.5t75 26.5q50 0 83 -41.5t33 -109.5q0 -100 -52 -184.5t-144 -133.5l-49 50q143 82 149 237q-12 -6 -31 -6q-38 0 -65 27t-27 65z" />
    <glyph glyph-name="lcaron" unicode="&#x13e;" horiz-adv-x="790" 
d="M322 1487v-1487h-134v1487h134zM520 1415q0 41 29.5 68.5t73.5 27.5q51 0 84.5 -41.5t33.5 -109.5q0 -99 -53 -183.5t-145 -134.5l-49 50q67 38 106.5 101t44.5 136q-12 -6 -31 -6q-41 0 -67.5 26.5t-26.5 65.5z" />
    <glyph glyph-name="Ldot" unicode="&#x13f;" horiz-adv-x="989" 
d="M932 117v-117h-748v1446h135v-1329h613zM727 702q-41 0 -68.5 28.5t-27.5 70.5q0 41 27.5 69.5t68.5 28.5q42 0 70 -28t28 -70t-28 -70.5t-70 -28.5z" />
    <glyph glyph-name="ldot" unicode="&#x140;" horiz-adv-x="765" 
d="M322 1487v-1487h-134v1487h134zM688 870q29 -29 29 -69.5t-29 -69.5t-69.5 -29t-69.5 29t-29 69.5t29 69.5t69.5 29t69.5 -29z" />
    <glyph glyph-name="Lslash" unicode="&#x141;" horiz-adv-x="1089" 
d="M1030 117v-117h-745v606l-176 -119l-58 93l234 157v709h135v-619l430 291l57 -94l-487 -330v-577h610z" />
    <glyph glyph-name="lslash" unicode="&#x142;" horiz-adv-x="913" 
d="M524 760v-760h-133v674l-280 -182l-60 92l340 221v682h133v-598l281 182l59 -90z" />
    <glyph glyph-name="Nacute" unicode="&#x143;" horiz-adv-x="1423" 
d="M1239 1446v-1446h-152l-772 1260v-1260h-131v1446h154l772 -1260v1260h129zM635 1569l203 323h151l-231 -323h-123z" />
    <glyph glyph-name="nacute" unicode="&#x144;" horiz-adv-x="1089" 
d="M612 956q-170 0 -313 -233v-723h-133v1044h133v-182q145 207 338 207q130 0 217 -90q88 -88 88 -229v-750h-131v735q0 103 -55 162t-144 59zM481 1188l203 323h152l-230 -323h-125z" />
    <glyph glyph-name="Ncommaaccent" unicode="&#x145;" horiz-adv-x="1423" 
d="M1239 1446v-1446h-152l-772 1260v-1260h-131v1446h154l772 -1260v1260h129zM614 -215q0 41 28 66.5t71 25.5q48 0 79 -38.5t31 -104.5q0 -86 -51 -160.5t-135 -116.5l-45 51q130 68 139 195q-8 -8 -29 -8q-37 0 -62.5 26t-25.5 64z" />
    <glyph glyph-name="ncommaaccent" unicode="&#x146;" horiz-adv-x="1089" 
d="M612 956q-170 0 -313 -233v-723h-133v1044h133v-182q145 207 338 207q130 0 217 -90q88 -88 88 -229v-750h-131v735q0 103 -55 162t-144 59zM459 -215q0 41 27.5 66.5t70.5 25.5q49 0 80 -38.5t31 -104.5q0 -86 -51.5 -160.5t-135.5 -116.5l-45 51q130 68 139 195
q-8 -8 -28 -8q-37 0 -62.5 26t-25.5 64z" />
    <glyph glyph-name="Ncaron" unicode="&#x147;" horiz-adv-x="1423" 
d="M1239 1446v-1446h-152l-772 1260v-1260h-131v1446h154l772 -1260v1260h129zM1053 1892l-269 -323h-141l-268 323h127l211 -233l211 233h129z" />
    <glyph glyph-name="ncaron" unicode="&#x148;" horiz-adv-x="1089" 
d="M612 956q-170 0 -313 -233v-723h-133v1044h133v-182q145 207 338 207q130 0 217 -90q88 -88 88 -229v-750h-131v735q0 103 -55 162t-144 59zM895 1511l-268 -323h-142l-268 323h129l211 -233l211 233h127z" />
    <glyph glyph-name="napostrophe" unicode="&#x149;" horiz-adv-x="1263" 
d="M786 956q-172 0 -315 -233v-723h-131v1044h131v-182q145 207 338 207q132 0 219 -90q88 -88 88 -229v-750h-131v735q0 101 -55 161t-144 60zM84 1415q0 43 27.5 69.5t74.5 26.5q50 0 83.5 -41.5t33.5 -109.5q0 -100 -52.5 -184t-144.5 -134l-49 50q144 83 150 237
q-12 -6 -31 -6q-38 0 -65 27t-27 65z" />
    <glyph glyph-name="Eng" unicode="&#x14a;" horiz-adv-x="1423" 
d="M1108 -66v52l-793 1274v-1260h-131v1446h154l772 -1239v1239h129v-1514q0 -180 -94.5 -279t-255.5 -99q-86 0 -162 28l14 113q70 -25 144 -25q105 0 164 66.5t59 197.5z" />
    <glyph glyph-name="eng" unicode="&#x14b;" horiz-adv-x="1093" 
d="M811 -66v801q0 103 -55 162t-144 59q-170 0 -313 -233v-723h-131v1044h131v-180q144 205 338 205q134 0 219 -88q88 -88 88 -229v-820q0 -180 -95.5 -279t-256.5 -99q-86 0 -162 28l14 113q73 -25 146 -25q105 0 163 66.5t58 197.5z" />
    <glyph glyph-name="Omacron" unicode="&#x14c;" horiz-adv-x="1507" 
d="M229 723q0 -270 142 -453q143 -180 383 -180t383 180t143 453q0 275 -143 455t-383 180t-383 -180q-142 -183 -142 -455zM1231 186q-181 -211 -477 -211q-299 0 -480 211q-180 210 -180 537t180 537t480 210q299 0 479 -210t180 -537q0 -325 -182 -537zM1040 1663h-575
v111h575v-111z" />
    <glyph glyph-name="omacron" unicode="&#x14d;" horiz-adv-x="1118" 
d="M559 -25q-208 0 -338 154q-129 156 -129 393q0 238 129 391q129 156 338 156q211 0 338 -154q129 -153 129 -393t-129 -393q-127 -154 -338 -154zM807 834q-90 124 -248 124t-248 -124q-90 -128 -90 -312q0 -183 90 -311q91 -123 248 -123q156 0 248 123q92 127 92 311
q0 185 -92 312zM846 1282h-576v111h576v-111z" />
    <glyph glyph-name="Obreve" unicode="&#x14e;" horiz-adv-x="1507" 
d="M229 723q0 -270 142 -453q143 -180 383 -180t383 180t143 453q0 275 -143 455t-383 180t-383 -180q-142 -183 -142 -455zM1231 186q-181 -211 -477 -211q-299 0 -480 211q-180 210 -180 537t180 537t480 210q299 0 479 -210t180 -537q0 -325 -182 -537zM438 1851h123
q5 -88 56.5 -139t136.5 -51t135.5 49.5t56.5 140.5h123q-3 -132 -94 -217q-88 -82 -221 -82q-136 0 -224 82q-89 83 -92 217z" />
    <glyph glyph-name="obreve" unicode="&#x14f;" horiz-adv-x="1118" 
d="M559 -25q-208 0 -338 154q-129 156 -129 393q0 238 129 391q129 156 338 156q211 0 338 -154q129 -153 129 -393t-129 -393q-127 -154 -338 -154zM807 834q-90 124 -248 124t-248 -124q-90 -128 -90 -312q0 -183 90 -311q91 -123 248 -123q156 0 248 123q92 127 92 311
q0 185 -92 312zM244 1470h123q5 -88 56 -139t136 -51t136 50t57 140h122q-3 -132 -94 -217q-88 -82 -221 -82q-135 0 -223 82q-89 83 -92 217z" />
    <glyph glyph-name="Ohungarumlaut" unicode="&#x150;" horiz-adv-x="1507" 
d="M229 723q0 -270 142 -453q143 -180 383 -180t383 180t143 453q0 275 -143 455t-383 180t-383 -180q-142 -183 -142 -455zM1231 186q-181 -211 -477 -211q-299 0 -480 211q-180 210 -180 537t180 537t480 210q299 0 479 -210t180 -537q0 -325 -182 -537zM547 1569l203 323
h151l-231 -323h-123zM799 1569l202 323h152l-229 -323h-125z" />
    <glyph glyph-name="ohungarumlaut" unicode="&#x151;" horiz-adv-x="1118" 
d="M559 -25q-208 0 -338 154q-129 156 -129 393q0 238 129 391q129 156 338 156q211 0 338 -154q129 -153 129 -393t-129 -393q-127 -154 -338 -154zM807 834q-90 124 -248 124t-248 -124q-90 -128 -90 -312q0 -183 90 -311q91 -123 248 -123q156 0 248 123q92 127 92 311
q0 185 -92 312zM352 1188l203 323h152l-232 -323h-123zM604 1188l203 323h151l-229 -323h-125z" />
    <glyph glyph-name="OE" unicode="&#x152;" horiz-adv-x="1691" 
d="M809 115v1216q-261 0 -420 -170q-160 -171 -160 -438q0 -269 160 -440q158 -168 420 -168zM940 115h627v-115h-758q-317 0 -518 201q-197 200 -197 522t197 522q201 201 518 201h731v-115h-600v-526h528v-115h-528v-575z" />
    <glyph glyph-name="oe" unicode="&#x153;" horiz-adv-x="1751" 
d="M1663 557v-55h-694q12 -193 93 -304.5t216 -111.5q132 0 260 61l35 -104q-145 -68 -297 -68q-131 0 -226.5 73.5t-146.5 203.5q-55 -130 -151.5 -203.5t-221.5 -73.5q-198 0 -319 154q-119 155 -119 393q0 239 119 391q120 156 319 156q125 0 222 -73.5t149 -200.5
q48 126 144 200t219 74q183 0 292 -145q107 -143 107 -367zM303 834q-82 -125 -82 -312q0 -186 82 -311t227 -125q144 0 226 125q84 128 84 311q0 184 -84 312q-81 124 -226 124q-146 0 -227 -124zM1264 958q-118 0 -197.5 -96.5t-93.5 -251.5h559q-3 150 -76 248
q-69 100 -192 100z" />
    <glyph glyph-name="Racute" unicode="&#x154;" horiz-adv-x="1124" 
d="M670 670l381 -670h-148l-362 651h-226v-651h-131v1446h334q221 0 346 -113q127 -112 127 -284q0 -141 -85 -242.5t-236 -136.5zM315 1331v-567h203q157 0 249.5 79t92.5 206q0 126 -92 204t-250 78h-203zM451 1569l202 323h152l-232 -323h-122z" />
    <glyph glyph-name="racute" unicode="&#x155;" horiz-adv-x="681" 
d="M647 1059l-10 -111q-27 8 -78 8q-82 0 -153.5 -72.5t-106.5 -191.5v-692h-131v1044h131v-180q44 90 117 147.5t151 57.5q50 0 80 -10zM279 1188l202 323h152l-230 -323h-124z" />
    <glyph glyph-name="Rcommaaccent" unicode="&#x156;" horiz-adv-x="1124" 
d="M670 670l381 -670h-148l-362 651h-226v-651h-131v1446h334q221 0 346 -113q127 -112 127 -284q0 -141 -85 -242.5t-236 -136.5zM315 1331v-567h203q157 0 249.5 79t92.5 206q0 126 -92 204t-250 78h-203zM446 -215q0 41 28 66.5t71 25.5q48 0 79 -38.5t31 -104.5
q0 -86 -51 -160.5t-135 -116.5l-45 51q130 68 139 195q-8 -8 -28 -8q-37 0 -63 26t-26 64z" />
    <glyph glyph-name="rcommaaccent" unicode="&#x157;" horiz-adv-x="718" 
d="M647 1059l-10 -111q-27 8 -78 8q-82 0 -153.5 -72.5t-106.5 -191.5v-692h-131v1044h131v-180q44 90 117 147.5t151 57.5q50 0 80 -10zM145 -215q0 41 27 66.5t70 25.5q48 0 79 -38.5t31 -104.5q0 -87 -50.5 -161t-135.5 -116l-45 51q129 67 141 195q-8 -8 -29 -8
q-37 0 -62.5 26t-25.5 64z" />
    <glyph glyph-name="Rcaron" unicode="&#x158;" horiz-adv-x="1124" 
d="M670 670l381 -670h-148l-362 651h-226v-651h-131v1446h334q221 0 346 -113q127 -112 127 -284q0 -141 -85 -242.5t-236 -136.5zM315 1331v-567h203q157 0 249.5 79t92.5 206q0 126 -92 204t-250 78h-203zM887 1892l-269 -323h-141l-268 323h129l211 -233l211 233h127z
" />
    <glyph glyph-name="rcaron" unicode="&#x159;" horiz-adv-x="718" 
d="M647 1059l-10 -111q-27 8 -78 8q-82 0 -153.5 -72.5t-106.5 -191.5v-692h-131v1044h131v-180q44 90 117 147.5t151 57.5q50 0 80 -10zM715 1511l-269 -323h-141l-268 323h129l211 -233l211 233h127z" />
    <glyph glyph-name="Sacute" unicode="&#x15a;" horiz-adv-x="1042" 
d="M477 -25q-182 0 -350 82l37 123q146 -88 313 -88q148 0 237 74.5t89 198.5q0 116 -70.5 195t-230.5 142q-194 76 -285.5 175t-91.5 237q0 153 121 256q118 100 311 100q170 0 311 -63l-30 -113q-136 62 -279 62q-135 0 -217 -67.5t-82 -174.5q0 -98 72 -168.5t239 -138.5
q368 -145 365 -430q-1 -183 -127.5 -292.5t-331.5 -109.5zM440 1569l203 323h152l-232 -323h-123z" />
    <glyph glyph-name="sacute" unicode="&#x15b;" horiz-adv-x="839" 
d="M106 31l25 119q115 -62 252 -62q106 0 170.5 49t64.5 131q0 150 -221 230q-288 101 -288 293q0 124 92.5 201t244.5 77q122 0 246 -47l-24 -111q-121 50 -222 50q-90 0 -148 -47t-58 -119q0 -115 231 -203q277 -102 277 -320q0 -130 -98.5 -213.5t-256.5 -83.5
q-148 0 -287 56zM328 1188l202 323h152l-231 -323h-123z" />
    <glyph glyph-name="Scircumflex" unicode="&#x15c;" horiz-adv-x="1042" 
d="M477 -25q-182 0 -350 82l37 123q146 -88 313 -88q148 0 237 74.5t89 198.5q0 116 -70.5 195t-230.5 142q-194 76 -285.5 175t-91.5 237q0 153 121 256q118 100 311 100q170 0 311 -63l-30 -113q-136 62 -279 62q-135 0 -217 -67.5t-82 -174.5q0 -98 72 -168.5t239 -138.5
q368 -145 365 -430q-1 -183 -127.5 -292.5t-331.5 -109.5zM180 1569l269 323h141l268 -323h-127l-211 235l-211 -235h-129z" />
    <glyph glyph-name="scircumflex" unicode="&#x15d;" horiz-adv-x="839" 
d="M106 31l25 119q115 -62 252 -62q106 0 170.5 49t64.5 131q0 150 -221 230q-288 101 -288 293q0 124 92.5 201t244.5 77q122 0 246 -47l-24 -111q-121 50 -222 50q-90 0 -148 -47t-58 -119q0 -115 231 -203q277 -102 277 -320q0 -130 -98.5 -213.5t-256.5 -83.5
q-148 0 -287 56zM74 1188l268 323h141l269 -323h-127l-211 235l-211 -235h-129z" />
    <glyph glyph-name="Scedilla" unicode="&#x15e;" horiz-adv-x="1042" 
d="M338 -461l18 90q58 -24 125 -24q57 0 93 29t36 73q0 110 -196 113l61 155q-180 0 -348 82l37 123q146 -88 313 -88q148 0 237 74.5t89 198.5q0 116 -70.5 195t-230.5 142q-194 76 -285.5 175t-91.5 237q0 153 121 256q118 100 311 100q170 0 311 -63l-30 -113
q-136 62 -279 62q-135 0 -217 -67.5t-82 -174.5q0 -98 72 -168.5t239 -138.5q368 -145 365 -430q-1 -154 -92.5 -258t-247.5 -133l-47 -103q81 -12 127.5 -60t46.5 -118q0 -85 -65.5 -139.5t-170.5 -54.5q-79 0 -149 28z" />
    <glyph glyph-name="scedilla" unicode="&#x15f;" horiz-adv-x="839" 
d="M240 -461l16 90q58 -24 125 -24q57 0 93 29t36 73q0 110 -195 113l62 155q-144 3 -271 56l25 119q115 -62 252 -62q106 0 170.5 49t64.5 131q0 150 -221 230q-288 101 -288 293q0 124 92.5 201t244.5 77q122 0 246 -47l-24 -111q-121 50 -222 50q-90 0 -148 -47t-58 -119
q0 -115 231 -203q277 -102 277 -320q0 -106 -67.5 -183t-182.5 -103l-47 -103q81 -12 127.5 -60t46.5 -118q0 -85 -66.5 -139.5t-171.5 -54.5q-80 0 -147 28z" />
    <glyph glyph-name="Scaron" unicode="&#x160;" horiz-adv-x="1042" 
d="M477 -25q-182 0 -350 82l37 123q146 -88 313 -88q148 0 237 74.5t89 198.5q0 116 -70.5 195t-230.5 142q-194 76 -285.5 175t-91.5 237q0 153 121 256q118 100 311 100q170 0 311 -63l-30 -113q-136 62 -279 62q-135 0 -217 -67.5t-82 -174.5q0 -98 72 -168.5t239 -138.5
q368 -145 365 -430q-1 -183 -127.5 -292.5t-331.5 -109.5zM860 1892l-268 -323h-141l-269 323h127l211 -233l211 233h129z" />
    <glyph glyph-name="scaron" unicode="&#x161;" horiz-adv-x="839" 
d="M106 31l25 119q115 -62 252 -62q106 0 170.5 49t64.5 131q0 150 -221 230q-288 101 -288 293q0 124 92.5 201t244.5 77q122 0 246 -47l-24 -111q-121 50 -222 50q-90 0 -148 -47t-58 -119q0 -115 231 -203q277 -102 277 -320q0 -130 -98.5 -213.5t-256.5 -83.5
q-148 0 -287 56zM756 1511l-269 -323h-141l-268 323h129l211 -233l211 233h127z" />
    <glyph glyph-name="Tcommaaccent" unicode="&#x162;" horiz-adv-x="1110" 
d="M356 -461l19 90q59 -24 125 -24q57 0 93 29t36 73q0 110 -197 113l72 180h-15v1329h-430v117h994v-117h-430v-1329h-2l-54 -117q81 -12 127.5 -60t46.5 -118q0 -85 -65 -139.5t-170 -54.5q-80 0 -150 28z" />
    <glyph glyph-name="tcommaaccent" unicode="&#x163;" horiz-adv-x="688" 
d="M199 -461l18 90q58 -24 125 -24q57 0 93 29t36 73q0 110 -197 113l70 176q-113 52 -113 215v721h-182v112h182v302h134v-302h247v-112h-247v-707q0 -137 108 -137q57 0 148 31l20 -105q-85 -39 -188 -39l-43 -92q81 -12 127.5 -60t46.5 -118q0 -85 -65.5 -139.5
t-170.5 -54.5q-79 0 -149 28z" />
    <glyph glyph-name="Tcaron" unicode="&#x164;" horiz-adv-x="1110" 
d="M623 1329v-1329h-134v1329h-430v117h994v-117h-430zM895 1892l-268 -323h-142l-268 323h129l211 -233l211 233h127z" />
    <glyph glyph-name="tcaron" unicode="&#x165;" horiz-adv-x="978" 
d="M365 1346v-302h247v-112h-247v-707q0 -137 108 -137q57 0 148 31l20 -105q-85 -39 -188 -39q-107 0 -164.5 60t-57.5 176v721h-182v112h182v302h134zM709 1415q0 41 29 68.5t73 27.5q51 0 85 -41.5t34 -109.5q0 -99 -53 -183.5t-146 -134.5l-49 50q67 38 107 101t45 136
q-12 -6 -31 -6q-41 0 -67.5 26.5t-26.5 65.5z" />
    <glyph glyph-name="Tbar" unicode="&#x166;" horiz-adv-x="1110" 
d="M623 647v-647h-134v647h-329v111h329v571h-430v117h994v-117h-430v-571h329v-111h-329z" />
    <glyph glyph-name="tbar" unicode="&#x167;" horiz-adv-x="704" 
d="M373 1346v-302h248v-112h-248v-352h217v-107h-217v-248q0 -137 108 -137q57 0 148 31l20 -105q-85 -39 -188 -39q-107 0 -164 60t-57 176v262h-162v107h162v352h-183v112h183v302h133z" />
    <glyph glyph-name="Utilde" unicode="&#x168;" horiz-adv-x="1380" 
d="M174 506v940h135v-940q0 -190 102 -302t279 -112q178 0 280.5 112t102.5 302v940h133v-940q0 -235 -139 -383t-377 -148t-377 148t-139 383zM664 1673q-65 53 -101 53q-58 0 -61 -110h-117q1 103 45.5 159t124.5 56q84 0 162 -66q68 -53 100 -53q60 0 60 111h116
q0 -103 -44 -160t-124 -57q-85 0 -161 67z" />
    <glyph glyph-name="utilde" unicode="&#x169;" horiz-adv-x="1089" 
d="M479 88q170 0 314 234v722h131v-1044h-131v182q-145 -207 -338 -207q-134 0 -222 88q-86 89 -86 232v749h132v-735q0 -101 55.5 -161t144.5 -60zM514 1292q-66 54 -100 54q-59 0 -62 -109h-116q1 103 45.5 159t124.5 56t161 -66q68 -53 101 -53q59 0 59 109h117
q0 -103 -44 -159t-124 -56q-82 0 -162 65z" />
    <glyph glyph-name="Umacron" unicode="&#x16a;" horiz-adv-x="1380" 
d="M174 506v940h135v-940q0 -190 102 -302t279 -112q178 0 280.5 112t102.5 302v940h133v-940q0 -235 -139 -383t-377 -148t-377 148t-139 383zM977 1663h-576v111h576v-111z" />
    <glyph glyph-name="umacron" unicode="&#x16b;" horiz-adv-x="1089" 
d="M479 88q170 0 314 234v722h131v-1044h-131v182q-145 -207 -338 -207q-134 0 -222 88q-86 89 -86 232v749h132v-735q0 -101 55.5 -161t144.5 -60zM823 1282h-575v111h575v-111z" />
    <glyph glyph-name="Ubreve" unicode="&#x16c;" horiz-adv-x="1380" 
d="M174 506v940h135v-940q0 -190 102 -302t279 -112q178 0 280.5 112t102.5 302v940h133v-940q0 -235 -139 -383t-377 -148t-377 148t-139 383zM375 1851h123q5 -88 56 -139t136 -51t136 50t57 140h123q-3 -131 -95 -217q-88 -82 -221 -82q-135 0 -223 82q-89 83 -92 217z
" />
    <glyph glyph-name="ubreve" unicode="&#x16d;" horiz-adv-x="1089" 
d="M479 88q170 0 314 234v722h131v-1044h-131v182q-145 -207 -338 -207q-134 0 -222 88q-86 89 -86 232v749h132v-735q0 -101 55.5 -161t144.5 -60zM221 1470h123q5 -88 56.5 -139t136.5 -51t135.5 49.5t56.5 140.5h123q-3 -132 -94 -217q-88 -82 -221 -82q-136 0 -224 82
q-89 83 -92 217z" />
    <glyph glyph-name="Uring" unicode="&#x16e;" horiz-adv-x="1380" 
d="M174 506v940h135v-940q0 -190 102 -302t279 -112q178 0 280.5 112t102.5 302v940h133v-940q0 -235 -139 -383t-377 -148t-377 148t-139 383zM850 1880q65 -59 65 -151t-65 -154q-65 -59 -160 -59q-94 0 -162 59q-65 62 -65 154t65 151q68 62 162 62q95 0 160 -62z
M571 1729q0 -49 34 -82t85 -33q50 0 83.5 33t33.5 82q0 47 -34 80.5t-83 33.5q-51 0 -85 -33t-34 -81z" />
    <glyph glyph-name="uring" unicode="&#x16f;" horiz-adv-x="1089" 
d="M479 88q170 0 314 234v722h131v-1044h-131v182q-145 -207 -338 -207q-134 0 -222 88q-86 89 -86 232v749h132v-735q0 -101 55.5 -161t144.5 -60zM696 1503q66 -60 66 -151t-66 -154q-65 -59 -159 -59t-162 59q-66 63 -66 154t66 151q68 62 162 62t159 -62zM537 1237
q49 0 82.5 33.5t33.5 81.5t-33.5 81t-82.5 33q-51 0 -85 -33t-34 -81t34 -81.5t85 -33.5z" />
    <glyph glyph-name="Uhungarumlaut" unicode="&#x170;" horiz-adv-x="1380" 
d="M174 506v940h135v-940q0 -190 102 -302t279 -112q178 0 280.5 112t102.5 302v940h133v-940q0 -235 -139 -383t-377 -148t-377 148t-139 383zM485 1569l203 323h152l-232 -323h-123zM737 1569l203 323h152l-230 -323h-125z" />
    <glyph glyph-name="uhungarumlaut" unicode="&#x171;" horiz-adv-x="1089" 
d="M479 88q170 0 314 234v722h131v-1044h-131v182q-145 -207 -338 -207q-134 0 -222 88q-86 89 -86 232v749h132v-735q0 -101 55.5 -161t144.5 -60zM328 1188l202 323h152l-229 -323h-125zM582 1188l202 323h150l-229 -323h-123z" />
    <glyph glyph-name="Uogonek" unicode="&#x172;" horiz-adv-x="1380" 
d="M532 -266q0 127 123 241q-221 12 -352 158q-129 144 -129 373v940h135v-940q0 -190 102 -302t279 -112q178 0 280.5 112t102.5 302v940h133v-940q0 -213 -112 -354q-116 -143 -312 -170q-135 -126 -135 -234q0 -50 33 -79t88 -29q43 0 84 14l20 -92q-58 -21 -127 -21
q-94 0 -153.5 53.5t-59.5 139.5z" />
    <glyph glyph-name="uogonek" unicode="&#x173;" horiz-adv-x="1144" 
d="M805 0h-12v182q-145 -207 -338 -207q-134 0 -222 88q-86 89 -86 232v749h132v-735q0 -101 55.5 -161t144.5 -60q170 0 314 234v722h131v-1044q-154 -139 -154 -252q0 -50 32 -79t87 -29q45 0 86 14l18 -92q-59 -21 -127 -21q-94 0 -152.5 53.5t-58.5 139.5q0 140 150 266
z" />
    <glyph glyph-name="Wcircumflex" unicode="&#x174;" horiz-adv-x="1902" 
d="M532 217l357 1229h127l356 -1229l357 1229h139l-434 -1446h-123l-359 1241l-358 -1241h-121l-436 1446h141zM614 1569l269 323h141l268 -323h-129l-211 235l-211 -235h-127z" />
    <glyph glyph-name="wcircumflex" unicode="&#x175;" horiz-adv-x="1501" 
d="M430 170l256 874h133l252 -874l254 874h135l-323 -1044h-131l-254 866l-254 -866h-133l-322 1044h135zM414 1188l268 323h141l269 -323h-129l-211 235l-211 -235h-127z" />
    <glyph glyph-name="Ycircumflex" unicode="&#x176;" horiz-adv-x="1261" 
d="M631 735l440 711h156l-529 -834v-612h-133v612l-528 834h156zM293 1569l268 323h141l269 -323h-129l-211 235l-211 -235h-127z" />
    <glyph glyph-name="ycircumflex" unicode="&#x177;" horiz-adv-x="960" 
d="M184 1044l305 -864l289 864h137l-403 -1148q-70 -205 -238 -330l-81 86q147 106 206 280l27 78l-381 1034h139zM147 1188l269 323h141l268 -323h-127l-211 235l-211 -235h-129z" />
    <glyph glyph-name="Ydieresis" unicode="&#x178;" horiz-adv-x="1261" 
d="M631 735l440 711h156l-529 -834v-612h-133v612l-528 834h156zM369 1718q-5 58 44.5 82t99 0t44.5 -82q0 -41 -26.5 -67.5t-67.5 -26.5t-67.5 27.5t-26.5 66.5zM864 1786q26 -26 26 -67.5t-26 -67.5t-67.5 -26t-67.5 26t-26 67.5t26 67.5t67.5 26t67.5 -26z" />
    <glyph glyph-name="Zacute" unicode="&#x179;" horiz-adv-x="1161" 
d="M1049 117v-117h-926v111l743 1220h-725v115h879v-109l-744 -1220h773zM512 1569l203 323h151l-229 -323h-125z" />
    <glyph glyph-name="zacute" unicode="&#x17a;" horiz-adv-x="935" 
d="M854 113v-113h-766v106l592 826h-574v112h728v-104l-590 -827h610zM387 1188l203 323h151l-231 -323h-123z" />
    <glyph glyph-name="Zdotaccent" unicode="&#x17b;" horiz-adv-x="1161" 
d="M1049 117v-117h-926v111l743 1220h-725v115h879v-109l-744 -1220h773zM580 1620q-41 0 -69 28.5t-28 69.5t28 70t69 29q42 0 70 -28.5t28 -70.5t-28 -70t-70 -28z" />
    <glyph glyph-name="zdotaccent" unicode="&#x17c;" horiz-adv-x="935" 
d="M854 113v-113h-766v106l592 826h-574v112h728v-104l-590 -827h610zM575 1337q0 -41 -27.5 -68.5t-70.5 -27.5q-41 0 -68.5 27.5t-27.5 68.5q0 43 27.5 71t68.5 28q43 0 70.5 -28t27.5 -71z" />
    <glyph glyph-name="Zcaron" unicode="&#x17d;" horiz-adv-x="1161" 
d="M1049 117v-117h-926v111l743 1220h-725v115h879v-109l-744 -1220h773zM938 1892l-268 -323h-142l-268 323h127l211 -233l211 233h129z" />
    <glyph glyph-name="zcaron" unicode="&#x17e;" horiz-adv-x="935" 
d="M854 113v-113h-766v106l592 826h-574v112h728v-104l-590 -827h610zM817 1511l-268 -323h-141l-269 323h129l211 -233l211 233h127z" />
    <glyph glyph-name="longs" unicode="&#x17f;" horiz-adv-x="665" 
d="M365 1239v-1239h-134v932h-182v112h182v195q0 130 67.5 201t195.5 71q104 0 202 -36l-22 -107q-76 31 -170 31q-139 0 -139 -160z" />
    <glyph glyph-name="uni0191" unicode="&#x191;" horiz-adv-x="976" 
d="M184 -66v1512h709v-115h-574v-526h512v-115h-512v-758q0 -181 -94.5 -279.5t-257.5 -98.5q-86 0 -162 28l15 113q70 -25 143 -25q105 0 163 66.5t58 197.5z" />
    <glyph glyph-name="florin" unicode="&#x192;" horiz-adv-x="665" 
d="M231 -66v998h-182v112h182v195q0 130 67.5 201t195.5 71q104 0 202 -36l-22 -107q-76 31 -170 31q-139 0 -139 -160v-195h245v-112h-245v-1000q0 -180 -96 -279t-257 -99q-86 0 -162 28l15 113q70 -25 143 -25q105 0 164 66.5t59 197.5z" />
    <glyph glyph-name="Aringacute" unicode="&#x1fa;" horiz-adv-x="1337" 
d="M889 1524q0 -61 -32.5 -111.5t-88.5 -75.5l532 -1337h-143l-149 387h-680l-148 -387h-141l532 1337q-122 55 -122 187q0 87 64 147t157 60q92 0 155.5 -59.5t63.5 -147.5zM371 502h596l-297 778zM557 1524q0 -43 33 -75t80 -32q46 0 78 31.5t32 75.5q0 45 -31.5 76.5
t-78.5 31.5t-80 -32t-33 -76zM582 1772l170 262h147l-197 -262h-120z" />
    <glyph glyph-name="aringacute" unicode="&#x1fb;" horiz-adv-x="1001" 
d="M492 1135q-97 0 -162.5 60.5t-65.5 152.5t65.5 152.5t162.5 60.5q95 0 160 -61t65 -152t-65 -152t-160 -61zM492 1235q49 0 82.5 33t33.5 80q0 48 -33.5 81t-82.5 33q-51 0 -85 -33t-34 -81t34 -80.5t85 -32.5zM414 1624l182 283h149l-210 -283h-121zM84 252
q0 156 141 258q144 102 371 102h119v152q0 91 -53.5 142.5t-147.5 51.5q-150 0 -301 -86l-31 109q175 88 338 88q151 0 237.5 -81.5t86.5 -217.5v-512q0 -135 30 -258h-129q-22 84 -28 166q-132 -191 -330 -191q-138 0 -220.5 76.5t-82.5 200.5zM403 86q174 0 312 209v211
h-107q-181 0 -288 -70t-107 -182q0 -79 50 -123.5t140 -44.5z" />
    <glyph glyph-name="AEacute" unicode="&#x1fc;" horiz-adv-x="1781" 
d="M899 0v387h-496l-208 -387h-156l795 1446h796v-115h-600v-526h529v-115h-529v-575h627v-115h-758zM899 1309l-436 -807h436v807zM866 1569l203 323h152l-230 -323h-125z" />
    <glyph glyph-name="aeacute" unicode="&#x1fd;" horiz-adv-x="1675" 
d="M1585 557v-55h-692q12 -195 97 -303.5t227 -108.5q135 0 243 57l37 -104q-145 -68 -297 -68q-138 0 -237.5 76t-147.5 213q-50 -135 -156.5 -212t-246.5 -77q-146 0 -237 77.5t-91 201.5q0 158 139 258q138 100 369 100h172q-1 158 -74.5 252t-191.5 94q-148 0 -289 -84
l-31 109q164 86 326 86q117 0 206.5 -68t125.5 -180q45 114 138.5 181t213.5 67q185 0 291 -145q106 -141 106 -367zM424 84q141 0 235 119t103 303h-158q-178 0 -284.5 -69.5t-106.5 -180.5q0 -79 58 -125.5t153 -46.5zM1188 958q-118 0 -197.5 -96.5t-93.5 -251.5h559
q-3 150 -76 248q-69 100 -192 100zM756 1188l202 323h152l-229 -323h-125z" />
    <glyph glyph-name="Oslashacute" unicode="&#x1fe;" horiz-adv-x="1507" 
d="M754 -25q-199 0 -353 101l-112 -178h-125l155 243q-225 211 -225 582q0 327 180 537t480 210q205 0 352 -100l113 178h127l-158 -243q225 -211 225 -582q0 -325 -182 -537q-181 -211 -477 -211zM1280 723q0 293 -160 473l-653 -1018q122 -88 287 -88q240 0 383 180
t143 453zM754 1358q-240 0 -383 -180q-142 -183 -142 -455q0 -293 160 -473l651 1018q-128 90 -286 90zM674 1569l203 323h151l-229 -323h-125z" />
    <glyph glyph-name="oslashacute" unicode="&#x1ff;" horiz-adv-x="1118" 
d="M559 -25q-133 0 -237 66l-89 -143h-112l125 204q-154 154 -154 420q0 238 129 391q129 156 338 156q135 0 238 -65l88 143h112l-125 -205q154 -154 154 -420q0 -240 -129 -393q-127 -154 -338 -154zM559 958q-158 0 -248 -124q-90 -128 -90 -312q0 -190 92 -311l422 692
q-76 55 -176 55zM899 522q0 191 -92 312l-424 -693q77 -53 176 -53q156 0 248 123q92 127 92 311zM481 1188l203 323h152l-232 -323h-123z" />
    <glyph glyph-name="Scommaaccent" unicode="&#x218;" horiz-adv-x="1042" 
d="M477 -25q-182 0 -350 82l37 123q146 -88 313 -88q148 0 237 74.5t89 198.5q0 116 -70.5 195t-230.5 142q-194 76 -285.5 175t-91.5 237q0 153 121 256q118 100 311 100q170 0 311 -63l-30 -113q-136 62 -279 62q-135 0 -217 -67.5t-82 -174.5q0 -98 72 -168.5t239 -138.5
q368 -145 365 -430q-1 -183 -127.5 -292.5t-331.5 -109.5zM444 -215q0 41 27 66.5t70 25.5q48 0 79 -38.5t31 -104.5q0 -87 -50.5 -161t-135.5 -116l-45 51q129 67 141 195q-8 -8 -29 -8q-37 0 -62.5 26t-25.5 64z" />
    <glyph glyph-name="scommaaccent" unicode="&#x219;" horiz-adv-x="839" 
d="M106 31l25 119q115 -62 252 -62q106 0 170.5 49t64.5 131q0 150 -221 230q-288 101 -288 293q0 124 92.5 201t244.5 77q122 0 246 -47l-24 -111q-121 50 -222 50q-90 0 -148 -47t-58 -119q0 -115 231 -203q277 -102 277 -320q0 -130 -98.5 -213.5t-256.5 -83.5
q-148 0 -287 56zM350 -215q0 41 26.5 66.5t69.5 25.5q49 0 80 -38.5t31 -104.5q0 -87 -50.5 -161t-135.5 -116l-45 51q129 67 141 195q-8 -8 -29 -8q-37 0 -62.5 26t-25.5 64z" />
    <glyph glyph-name="uni021A" unicode="&#x21a;" horiz-adv-x="1110" 
d="M623 1329v-1329h-134v1329h-430v117h994v-117h-430zM461 -215q0 41 26.5 66.5t69.5 25.5q49 0 80 -38.5t31 -104.5q0 -87 -50.5 -161t-136.5 -116l-45 51q130 68 142 195q-8 -8 -29 -8q-37 0 -62.5 26t-25.5 64z" />
    <glyph glyph-name="uni021B" unicode="&#x21b;" horiz-adv-x="688" 
d="M365 1346v-302h247v-112h-247v-707q0 -137 108 -137q57 0 148 31l20 -105q-85 -39 -188 -39q-107 0 -164.5 60t-57.5 176v721h-182v112h182v302h134zM276 -215q0 41 28 66.5t71 25.5q48 0 79 -38.5t31 -104.5q0 -86 -51 -160.5t-135 -116.5l-45 51q130 68 139 195
q-8 -8 -28 -8q-37 0 -63 26t-26 64z" />
    <glyph glyph-name="dotlessj" unicode="&#x237;" horiz-adv-x="503" 
d="M186 -53v1097h133v-1097q0 -270 -292 -393l-52 100q211 94 211 293z" />
    <glyph glyph-name="apostrophe" unicode="&#x2bc;" horiz-adv-x="804" 
d="M297 1407q0 41 29 68.5t73 27.5q51 0 85 -41.5t34 -109.5q0 -99 -53 -183.5t-146 -134.5l-49 49q67 38 107 101.5t45 136.5q-12 -6 -31 -6q-41 0 -67.5 26.5t-26.5 65.5z" />
    <glyph glyph-name="circumflex" unicode="&#x2c6;" horiz-adv-x="804" 
d="M63 1163l269 324h141l268 -324h-127l-211 236l-210 -236h-130z" />
    <glyph glyph-name="caron" unicode="&#x2c7;" horiz-adv-x="804" 
d="M741 1487l-268 -324h-141l-269 324h130l210 -234l211 234h127z" />
    <glyph glyph-name="uni02C9" unicode="&#x2c9;" horiz-adv-x="804" 
d="M690 1300h-575v111h575v-111z" />
    <glyph glyph-name="breve" unicode="&#x2d8;" horiz-adv-x="804" 
d="M88 1481h123q5 -88 56 -139.5t136 -51.5t136 50t57 141h123q-3 -132 -94 -217q-88 -82 -222 -82q-135 0 -223 82q-89 83 -92 217z" />
    <glyph glyph-name="dotaccent" unicode="&#x2d9;" horiz-adv-x="804" 
d="M473 1423q29 -29 29 -69.5t-29 -69.5t-69.5 -29t-69.5 29t-29 69.5t29 69.5t69.5 29t69.5 -29z" />
    <glyph glyph-name="ring" unicode="&#x2da;" horiz-adv-x="804" 
d="M563 1483q66 -60 66 -152q0 -90 -66 -153q-66 -60 -160 -60q-92 0 -161 60q-66 63 -66 153q0 92 66 152q67 61 161 61q96 0 160 -61zM285 1331q0 -49 33.5 -81.5t84.5 -32.5q50 0 83.5 32.5t33.5 81.5q0 48 -34 81.5t-83 33.5q-50 0 -84 -33.5t-34 -81.5z" />
    <glyph glyph-name="ogonek" unicode="&#x2db;" horiz-adv-x="804" 
d="M393 0h121q-156 -138 -156 -252q0 -50 33 -79t88 -29q43 0 84 14l21 -92q-58 -21 -127 -21q-94 0 -153.5 53.5t-59.5 139.5q0 141 149 266z" />
    <glyph glyph-name="tilde" unicode="&#x2dc;" horiz-adv-x="804" 
d="M377 1317q-65 53 -101 53q-58 0 -61 -110h-117q1 103 45.5 159t124.5 56q84 0 162 -66q68 -53 100 -53q60 0 60 110h117q0 -103 -44 -160t-124 -57q-85 0 -162 68z" />
    <glyph glyph-name="hungarumlaut" unicode="&#x2dd;" horiz-adv-x="804" 
d="M115 1163l202 324h152l-231 -324h-123zM367 1163l202 324h152l-229 -324h-125z" />
    <glyph glyph-name="gravecomb" unicode="&#x300;" horiz-adv-x="0" 
d="M-510 1163l-229 324h151l203 -324h-125z" />
    <glyph glyph-name="acutecomb" unicode="&#x301;" horiz-adv-x="0" 
d="M-639 1163l203 324h151l-229 -324h-125z" />
    <glyph glyph-name="uni0302" unicode="&#x302;" horiz-adv-x="0" 
d="M-856 1163l268 324h142l268 -324h-127l-211 236l-211 -236h-129z" />
    <glyph glyph-name="tildecomb" unicode="&#x303;" horiz-adv-x="0" 
d="M-543 1317q-65 53 -100 53q-56 0 -59 -110h-117q3 215 170 215q84 0 162 -66q65 -53 98 -53q58 0 61 110h117q3 -99 -44.5 -158.5t-126.5 -58.5t-161 68z" />
    <glyph glyph-name="uni0304" unicode="&#x304;" horiz-adv-x="0" 
d="M-225 1303h-576v110h576v-110z" />
    <glyph glyph-name="uni0306" unicode="&#x306;" horiz-adv-x="0" 
d="M-834 1481h123q5 -88 56.5 -139.5t136.5 -51.5t135.5 50t56.5 141h123q-3 -134 -92 -217q-88 -82 -223 -82q-133 0 -221 82q-92 86 -95 217z" />
    <glyph glyph-name="uni0307" unicode="&#x307;" horiz-adv-x="0" 
d="M-449 1423q29 -29 29 -69.5t-29 -69.5t-69.5 -29t-69.5 29t-29 69.5t29 69.5t69.5 29t69.5 -29z" />
    <glyph glyph-name="uni0308" unicode="&#x308;" horiz-adv-x="0" 
d="M-686 1262q-39 0 -66.5 26.5t-27.5 67.5t26.5 67.5t67.5 26.5q58 5 82 -44.5t0 -99t-82 -44.5zM-285 1423q26 -26 26 -67.5t-26 -67.5t-67.5 -26t-67.5 26t-26 67.5t26 67.5t67.5 26t67.5 -26z" />
    <glyph glyph-name="uni030A" unicode="&#x30a;" horiz-adv-x="0" 
d="M-358 1483q65 -59 65 -152q0 -91 -65 -153q-66 -60 -160 -60t-160 60q-67 61 -67 153q0 94 67 152q64 61 160 61t160 -61zM-637 1331q0 -49 34 -81.5t85 -32.5q50 0 83.5 32.5t33.5 81.5q0 48 -34 81.5t-83 33.5q-51 0 -85 -33.5t-34 -81.5z" />
    <glyph glyph-name="uni030C" unicode="&#x30c;" horiz-adv-x="0" 
d="M-178 1487l-268 -324h-142l-268 324h129l211 -234l211 234h127z" />
    <glyph glyph-name="uni0327" unicode="&#x327;" horiz-adv-x="0" 
d="M-719 -461l19 90q58 -24 125 -24q57 0 93 29t36 73q0 110 -197 113l72 180h116l-53 -117q81 -12 127.5 -60t46.5 -118q0 -85 -65 -139.5t-170 -54.5q-80 0 -150 28z" />
    <glyph glyph-name="uni03A9" unicode="&#x3a9;" horiz-adv-x="1527" 
d="M764 1358q-237 0 -381 -166q-145 -168 -145 -428q0 -438 432 -655v-109h-525v117h322q-365 217 -365 647q0 312 183 510q184 196 479 196q296 0 477 -196q184 -196 184 -510q0 -434 -364 -647h321v-117h-524v109q434 218 434 655q0 260 -145 428q-144 166 -383 166z" />
    <glyph glyph-name="uni0400" unicode="&#x400;" horiz-adv-x="1069" 
d="M946 117v-117h-762v1446h734v-115h-599v-526h529v-115h-529v-573h627zM512 1569l-229 323h151l203 -323h-125z" />
    <glyph glyph-name="afii10023" unicode="&#x401;" horiz-adv-x="1069" 
d="M946 117v-117h-762v1446h734v-115h-599v-526h529v-115h-529v-573h627zM299 1718q-5 58 44.5 82t99 0t44.5 -82q0 -41 -26.5 -67.5t-67.5 -26.5t-67.5 27.5t-26.5 66.5zM795 1786q26 -26 26 -67.5t-26 -67.5t-68 -26t-68 26t-26 67.5t26 67.5t68 26t68 -26z" />
    <glyph glyph-name="afii10051" unicode="&#x402;" horiz-adv-x="1499" 
d="M629 637v-637h-135v1329h-435v117h1004v-117h-434v-561q131 162 344 162q194 0 313 -125t119 -324q0 -205 -115 -344q-113 -137 -315 -137h-37v117h33q145 0 221 102q80 106 80 250q0 157 -84 250.5t-230 93.5q-197 0 -329 -176z" />
    <glyph glyph-name="afii10052" unicode="&#x403;" horiz-adv-x="989" 
d="M453 1569l202 323h152l-232 -323h-122zM319 1329v-1329h-135v1446h746v-117h-611z" />
    <glyph glyph-name="afii10053" unicode="&#x404;" horiz-adv-x="1323" 
d="M94 725q0 336 199 541q198 204 522 204q205 0 377 -81l-31 -113q-168 80 -346 80q-252 0 -409 -160q-160 -160 -175 -414h852v-116h-852q15 -256 175 -416q158 -158 409 -158q190 0 363 84l32 -115q-189 -86 -395 -86q-323 0 -522 205t-199 545z" />
    <glyph glyph-name="afii10054" unicode="&#x405;" horiz-adv-x="1042" 
d="M477 -25q-182 0 -350 82l37 123q146 -88 313 -88q148 0 237 74.5t89 198.5q0 116 -70.5 195t-230.5 142q-194 76 -285.5 175t-91.5 237q0 153 121 256q118 100 311 100q170 0 311 -63l-30 -113q-136 62 -279 62q-135 0 -217 -67.5t-82 -174.5q0 -98 72 -168.5t239 -138.5
q368 -145 365 -430q-1 -183 -127.5 -292.5t-331.5 -109.5z" />
    <glyph glyph-name="afii10055" unicode="&#x406;" horiz-adv-x="524" 
d="M330 1446v-1446h-133v1446h133z" />
    <glyph glyph-name="afii10056" unicode="&#x407;" horiz-adv-x="524" 
d="M330 1446v-1446h-133v1446h133zM96 1624q-38 0 -66 28t-28 66q0 40 29 67.5t65 27.5t68 -27q27 -32 27 -68t-27.5 -65t-67.5 -29zM498 1786q26 -26 26 -67.5t-26 -67.5t-68 -26t-68 26t-26 67.5t26 67.5t68 26t68 -26z" />
    <glyph glyph-name="afii10057" unicode="&#x408;" horiz-adv-x="737" 
d="M426 356v1090h135v-1090q0 -182 -95.5 -281.5t-258.5 -99.5q-89 0 -162 31l14 111q83 -25 146 -25q105 0 163 66.5t58 197.5z" />
    <glyph glyph-name="afii10058" unicode="&#x409;" horiz-adv-x="2158" 
d="M430 356v1090h938v-612h215q237 0 369 -117q133 -118 133 -301t-133 -301q-133 -115 -369 -115h-348v1329h-672v-973q0 -181 -96.5 -281t-259.5 -100q-86 0 -162 31l14 111q73 -25 144 -25q108 0 167.5 66.5t59.5 197.5zM1583 719h-215v-604h215q175 0 272 81.5t97 219.5
q0 141 -97 222t-272 81z" />
    <glyph glyph-name="afii10059" unicode="&#x40a;" horiz-adv-x="1996" 
d="M1421 0h-354v690h-748v-690h-135v1446h135v-639h748v639h133v-612h221q235 0 367 -117q133 -118 133 -301t-133 -301q-133 -115 -367 -115zM1421 719h-221v-604h221q176 0 272.5 80t96.5 221t-97 222t-272 81z" />
    <glyph glyph-name="afii10060" unicode="&#x40b;" horiz-adv-x="1523" 
d="M629 614v-614h-135v1329h-435v117h1004v-117h-434v-573q119 174 344 174q190 0 297 -119q108 -117 108 -309v-502h-135v489q0 151 -75 237.5t-210 86.5q-97 0 -184 -53.5t-145 -145.5z" />
    <glyph glyph-name="afii10061" unicode="&#x40c;" horiz-adv-x="1230" 
d="M319 727v-727h-135v1446h135v-655l656 655h170l-688 -686l751 -760h-172zM551 1569l203 323h151l-229 -323h-125z" />
    <glyph glyph-name="uni040D" unicode="&#x40d;" horiz-adv-x="1423" 
d="M670 1569l-230 323h152l203 -323h-125zM1110 1260l-772 -1260h-154v1446h131v-1260l772 1260h152v-1446h-129v1260z" />
    <glyph glyph-name="afii10062" unicode="&#x40e;" horiz-adv-x="1234" 
d="M616 1552q-133 0 -221 82q-91 85 -94 217h123q6 -91 56.5 -140.5t135.5 -49.5t136.5 51t56.5 139h125q-6 -133 -95 -216t-223 -83zM190 1446l449 -860l412 860h149l-633 -1307q-80 -164 -252 -164q-96 0 -174 35l23 111q79 -29 151 -29q87 0 134 96l116 242l-528 1016
h153z" />
    <glyph glyph-name="afii10145" unicode="&#x40f;" horiz-adv-x="1390" 
d="M184 0v1446h135v-1329h754v1329h133v-1446h-442v-246h-135v246h-445z" />
    <glyph glyph-name="afii10017" unicode="&#x410;" horiz-adv-x="1337" 
d="M326 387l-146 -387h-141l565 1446h129l567 -1446h-143l-147 387h-684zM670 1294l-301 -792h600z" />
    <glyph glyph-name="afii10018" unicode="&#x411;" horiz-adv-x="1116" 
d="M532 0h-348v1446h742v-115h-609v-497h215q235 0 367 -117q133 -118 133 -301t-133 -301q-133 -115 -367 -115zM532 719h-215v-604h215q176 0 272.5 80t96.5 221t-97 222t-272 81z" />
    <glyph glyph-name="afii10019" unicode="&#x412;" horiz-adv-x="1140" 
d="M535 0h-351v1446h332q211 0 333 -103t122 -270q0 -108 -61.5 -193t-164.5 -122q133 -33 213 -127.5t80 -227.5q0 -181 -135 -292t-368 -111zM535 696h-218v-581h218q172 0 271 76.5t99 214.5t-99 214t-271 76zM516 1333h-199v-522h199q149 0 236.5 69.5t87.5 190.5
q0 119 -87.5 190.5t-236.5 71.5z" />
    <glyph glyph-name="afii10020" unicode="&#x413;" horiz-adv-x="989" 
d="M319 1329v-1329h-135v1446h746v-117h-611z" />
    <glyph glyph-name="afii10021" unicode="&#x414;" horiz-adv-x="1275" 
d="M1049 1446v-1331h170v-328h-134v213h-892v-213h-134v328h111q315 537 315 1331h564zM317 115h598v1218h-303q-9 -697 -295 -1218z" />
    <glyph glyph-name="afii10022" unicode="&#x415;" horiz-adv-x="1069" 
d="M946 117v-117h-762v1446h734v-115h-599v-526h529v-115h-529v-573h627z" />
    <glyph glyph-name="afii10024" unicode="&#x416;" horiz-adv-x="1843" 
d="M1067 690h-78v-690h-133v690h-78q-153 0 -233 -127l-352 -563h-162l405 633q65 96 150 133l-498 680h166l463 -643q10 2 49 2h90v641h133v-641h90q39 0 49 -2l465 643h164l-497 -680q86 -37 149 -133l406 -633h-160l-355 563q-80 127 -233 127z" />
    <glyph glyph-name="afii10025" unicode="&#x417;" horiz-adv-x="1083" 
d="M328 723v113q228 1 343 80.5t115 207.5q0 104 -80.5 168t-209.5 64q-159 0 -310 -74l-20 113q160 75 342 75q179 0 295 -96q117 -95 117 -248q0 -125 -87 -220t-237 -124q165 -27 270 -135q107 -107 107 -256q0 -185 -146 -301q-145 -115 -381 -115q-179 0 -352 78
l31 115q155 -76 328 -76q171 0 278 80t107 213q0 151 -133 244.5t-377 93.5z" />
    <glyph glyph-name="afii10026" unicode="&#x418;" horiz-adv-x="1423" 
d="M1110 1260l-772 -1260h-154v1446h131v-1260l772 1260h152v-1446h-129v1260z" />
    <glyph glyph-name="afii10027" unicode="&#x419;" horiz-adv-x="1423" 
d="M397 1851h123q5 -88 56.5 -139t136.5 -51t135.5 49.5t56.5 140.5h123q-3 -132 -94 -217q-88 -82 -221 -82q-136 0 -224 82q-89 83 -92 217zM1110 1260l-772 -1260h-154v1446h131v-1260l772 1260h152v-1446h-129v1260z" />
    <glyph glyph-name="afii10028" unicode="&#x41a;" horiz-adv-x="1234" 
d="M459 690h-140v-690h-135v1446h135v-641h150q41 0 51 -2l463 643h164l-498 -678q91 -42 152 -135l405 -633h-162l-352 563q-80 127 -233 127z" />
    <glyph glyph-name="afii10029" unicode="&#x41b;" horiz-adv-x="1552" 
d="M430 1446h938v-1446h-133v1329h-672v-973q0 -185 -95.5 -283t-260.5 -98q-80 0 -162 29l14 113q73 -25 144 -25q109 0 168 68t59 196v1090z" />
    <glyph glyph-name="afii10030" unicode="&#x41c;" horiz-adv-x="1796" 
d="M1483 0v1204l-522 -1204h-123l-523 1204v-1204h-131v1446h164l551 -1284l551 1284h162v-1446h-129z" />
    <glyph glyph-name="afii10031" unicode="&#x41d;" horiz-adv-x="1390" 
d="M319 690v-690h-135v1446h135v-639h754v639h133v-1446h-133v690h-754z" />
    <glyph glyph-name="afii10032" unicode="&#x41e;" horiz-adv-x="1507" 
d="M229 723q0 -270 142 -453q143 -180 383 -180t383 180t143 453q0 275 -143 455t-383 180t-383 -180q-142 -183 -142 -455zM1231 186q-181 -211 -477 -211q-299 0 -480 211q-180 210 -180 537t180 537t480 210q299 0 479 -210t180 -537q0 -325 -182 -537z" />
    <glyph glyph-name="afii10033" unicode="&#x41f;" horiz-adv-x="1390" 
d="M319 1329v-1329h-135v1446h1022v-1446h-133v1329h-754z" />
    <glyph glyph-name="afii10034" unicode="&#x420;" horiz-adv-x="1107" 
d="M535 612h-218v-612h-133v1446h351q232 0 364 -117q133 -118 133 -299q0 -185 -133 -303q-133 -115 -364 -115zM535 1331h-218v-606h218q172 0 269 82t97 223q0 138 -97 219.5t-269 81.5z" />
    <glyph glyph-name="afii10035" unicode="&#x421;" horiz-adv-x="1323" 
d="M94 725q0 336 199 541q198 204 522 204q205 0 377 -81l-31 -113q-168 80 -346 80q-267 0 -426 -176q-160 -177 -160 -455q0 -280 160 -457q159 -176 426 -176q190 0 363 84l32 -115q-189 -86 -395 -86q-323 0 -522 205t-199 545z" />
    <glyph glyph-name="afii10036" unicode="&#x422;" horiz-adv-x="1110" 
d="M623 1329v-1329h-134v1329h-430v117h994v-117h-430z" />
    <glyph glyph-name="afii10037" unicode="&#x423;" horiz-adv-x="1234" 
d="M190 1446l449 -860l412 860h149l-633 -1307q-80 -164 -252 -164q-96 0 -174 35l23 111q79 -29 151 -29q87 0 134 96l116 242l-528 1016h153z" />
    <glyph glyph-name="afii10038" unicode="&#x424;" horiz-adv-x="1466" 
d="M668 1274v172h133v-172q255 -18 416 -170q161 -148 161 -379t-161 -379q-161 -152 -416 -170v-176h-133v176q-252 18 -418 170q-160 151 -160 379t160 379q166 152 418 170zM801 1157v-864q201 15 321 135q121 121 121 297q0 177 -121 295q-119 119 -321 137zM668 293
v864q-203 -18 -322 -137q-121 -118 -121 -295q0 -176 121 -297q120 -120 322 -135z" />
    <glyph glyph-name="afii10039" unicode="&#x425;" horiz-adv-x="1277" 
d="M1026 1446h156l-465 -680l522 -766h-156l-444 655l-442 -655h-158l522 766l-463 680h156l385 -574z" />
    <glyph glyph-name="afii10040" unicode="&#x426;" horiz-adv-x="1433" 
d="M1241 -213v213h-1057v1446h135v-1329h754v1329h133v-1331h168v-328h-133z" />
    <glyph glyph-name="afii10041" unicode="&#x427;" horiz-adv-x="1351" 
d="M1169 1446v-1446h-135v688q-170 -270 -448 -270q-187 0 -312 119q-127 121 -127 303v606h136v-590q0 -147 86 -234t229 -87q128 0 241.5 82.5t194.5 236.5v592h135z" />
    <glyph glyph-name="afii10042" unicode="&#x428;" horiz-adv-x="1802" 
d="M184 1446h135v-1329h515v1329h135v-1329h516v1329h133v-1446h-1434v1446z" />
    <glyph glyph-name="afii10043" unicode="&#x429;" horiz-adv-x="1843" 
d="M1483 1446h135v-1331h168v-328h-133v213h-1469v1446h135v-1329h515v1329h135v-1329h514v1329z" />
    <glyph glyph-name="afii10044" unicode="&#x42a;" horiz-adv-x="1316" 
d="M739 0h-348v1329h-332v117h465v-612h215q237 0 369 -117q133 -118 133 -301t-133 -301q-133 -115 -369 -115zM739 719h-215v-604h215q176 0 272.5 80t96.5 221t-97 222t-272 81z" />
    <glyph glyph-name="afii10045" unicode="&#x42b;" horiz-adv-x="1611" 
d="M532 0h-348v1446h133v-612h215q235 0 367 -117q133 -118 133 -301t-133 -301q-133 -115 -367 -115zM532 719h-215v-604h215q176 0 272.5 80t96.5 221t-97 222t-272 81zM1427 1446v-1446h-133v1446h133z" />
    <glyph glyph-name="afii10046" unicode="&#x42c;" horiz-adv-x="1107" 
d="M532 0h-348v1446h133v-612h215q235 0 367 -117q133 -118 133 -301t-133 -301q-133 -115 -367 -115zM532 719h-215v-604h215q176 0 272.5 80t96.5 221t-97 222t-272 81z" />
    <glyph glyph-name="afii10047" unicode="&#x42d;" horiz-adv-x="1323" 
d="M1229 725q0 -340 -199 -545t-522 -205q-207 0 -393 86l30 115q176 -84 363 -84q252 0 410 158q159 159 174 416h-850v116h850q-15 255 -174 414q-157 160 -410 160q-178 0 -346 -80l-31 113q178 81 377 81q324 0 522 -204q199 -205 199 -541z" />
    <glyph glyph-name="afii10048" unicode="&#x42e;" horiz-adv-x="1730" 
d="M1122 -25q-229 0 -364 191q-134 194 -146 500h-293v-666h-135v1446h135v-666h293q12 306 146 500q135 190 364 190q243 0 375 -208q135 -205 135 -539q0 -333 -135 -541q-133 -207 -375 -207zM842 266q99 -176 280 -176q184 0 279 176q98 174 98 457t-98 457
q-95 176 -279 176q-181 0 -280 -176q-97 -180 -97 -457t97 -457z" />
    <glyph glyph-name="afii10049" unicode="&#x42f;" horiz-adv-x="1124" 
d="M809 0v651h-227l-361 -651h-147l379 670q-151 35 -236.5 136.5t-85.5 242.5q0 172 127 284q128 113 348 113h334v-1446h-131zM606 764h203v567h-203q-157 0 -249.5 -78.5t-92.5 -203.5q0 -127 92.5 -206t249.5 -79z" />
    <glyph glyph-name="afii10065" unicode="&#x430;" horiz-adv-x="1001" 
d="M84 252q0 156 141 258q144 102 371 102h119v152q0 91 -53.5 142.5t-147.5 51.5q-150 0 -301 -86l-31 109q175 88 338 88q151 0 237.5 -81.5t86.5 -217.5v-512q0 -135 30 -258h-129q-22 84 -28 166q-132 -191 -330 -191q-138 0 -220.5 76.5t-82.5 200.5zM403 86
q174 0 312 209v211h-107q-181 0 -288 -70t-107 -182q0 -79 50 -123.5t140 -44.5z" />
    <glyph glyph-name="afii10066" unicode="&#x431;" horiz-adv-x="1171" 
d="M606 -25q-218 0 -352 168q-133 171 -133 459q0 299 46.5 462.5t160.5 240.5q145 95 399 122q133 12 244 84v-112q-98 -67 -232 -76q-222 -18 -352 -113q-128 -91 -137 -399q43 118 145 188t230 70q197 0 325 -158q125 -155 125 -389q0 -236 -131 -391
q-129 -156 -338 -156zM258 547q0 -202 94 -330q94 -129 254 -129t248 123q92 127 92 311t-90 312q-87 124 -248 124q-149 0 -250 -122q-100 -118 -100 -289z" />
    <glyph glyph-name="afii10067" unicode="&#x432;" horiz-adv-x="1038" 
d="M494 0h-326v1044h309q190 0 302 -74.5t112 -197.5q0 -74 -51.5 -133.5t-137.5 -85.5q114 -25 180 -92.5t66 -163.5q0 -135 -122.5 -216t-331.5 -81zM494 492h-199v-383h199q151 0 238 50t87 140t-87.5 141.5t-237.5 51.5zM477 938h-182v-342h182q132 0 207.5 46.5
t75.5 125.5q0 76 -76 123t-207 47z" />
    <glyph glyph-name="afii10068" unicode="&#x433;" horiz-adv-x="835" 
d="M168 1044h629v-112h-498v-932h-131v1044z" />
    <glyph glyph-name="afii10069" unicode="&#x434;" horiz-adv-x="1128" 
d="M913 1044v-931h168v-326h-129v213h-776v-213h-127v326h109q266 374 278 931h477zM303 113h483v821h-231q-9 -208 -76 -438q-64 -217 -176 -383z" />
    <glyph glyph-name="afii10070" unicode="&#x435;" horiz-adv-x="1017" 
d="M928 557v-55h-705q3 -181 86 -299q83 -117 230 -117q134 0 262 61l35 -104q-145 -68 -299 -68q-201 0 -322 154t-121 393q0 240 117 393q121 154 313 154q186 0 295 -145t109 -367zM227 610h572q-3 148 -80 248q-72 100 -195 100q-121 0 -202 -100q-80 -100 -95 -248z
" />
    <glyph glyph-name="afii10072" unicode="&#x436;" horiz-adv-x="1478" 
d="M874 483h-69v-483h-131v483h-68q-129 0 -192 -100l-254 -383h-154l307 451q52 78 121 112l-377 481h158l342 -450q6 2 37 2h80v448h131v-448h82q29 0 35 -2l344 450h155l-377 -481q70 -36 123 -112l306 -451h-152l-254 383q-69 100 -193 100z" />
    <glyph glyph-name="afii10073" unicode="&#x437;" horiz-adv-x="989" 
d="M299 506v106q205 0 308.5 53.5t103.5 139.5q0 69 -69.5 111t-184.5 42q-148 0 -285 -55l-25 111q143 55 318 55q161 0 270 -74q107 -73 107 -188q0 -85 -68 -153t-180 -91q129 -20 211 -98t82 -178q0 -138 -131 -226q-133 -86 -346 -86q-166 0 -320 60l31 110
q140 -57 295 -57q150 0 245 54.5t95 140.5q0 98 -118.5 160t-338.5 63z" />
    <glyph glyph-name="afii10074" unicode="&#x438;" horiz-adv-x="1243" 
d="M1077 0h-127v881l-643 -881h-141v1044h129v-880l643 880h139v-1044z" />
    <glyph glyph-name="afii10075" unicode="&#x439;" horiz-adv-x="1243" 
d="M621 1171q-134 0 -222 82q-91 85 -94 217h123q6 -90 57 -140t136 -50t136 51t56 139h125q-6 -133 -94.5 -216t-222.5 -83zM1077 0h-127v881l-643 -881h-141v1044h129v-880l643 880h139v-1044z" />
    <glyph glyph-name="afii10076" unicode="&#x43a;" horiz-adv-x="995" 
d="M391 483h-92v-483h-131v1044h131v-448h104q31 0 37 -2l342 450h156l-377 -481q69 -34 123 -112l307 -451h-153l-254 383q-69 100 -193 100z" />
    <glyph glyph-name="afii10077" unicode="&#x43b;" horiz-adv-x="1325" 
d="M342 270v774h817v-1044h-131v932h-555v-662q0 -139 -80 -217t-217 -78q-71 0 -135 23l18 111q49 -21 113 -21q170 0 170 182z" />
    <glyph glyph-name="afii10078" unicode="&#x43c;" horiz-adv-x="1495" 
d="M336 1044l412 -901l411 901h170v-1044h-125v866l-399 -866h-115l-399 866v-866h-125v1044h170z" />
    <glyph glyph-name="afii10079" unicode="&#x43d;" horiz-adv-x="1259" 
d="M299 479v-479h-131v1044h131v-452h662v452h133v-1044h-133v479h-662z" />
    <glyph glyph-name="afii10080" unicode="&#x43e;" horiz-adv-x="1118" 
d="M559 -25q-208 0 -338 154q-129 156 -129 393q0 238 129 391q129 156 338 156q211 0 338 -154q129 -153 129 -393t-129 -393q-127 -154 -338 -154zM807 834q-90 124 -248 124t-248 -124q-90 -128 -90 -312q0 -183 90 -311q91 -123 248 -123q156 0 248 123q92 127 92 311
q0 185 -92 312z" />
    <glyph glyph-name="afii10081" unicode="&#x43f;" horiz-adv-x="1181" 
d="M299 932v-932h-131v1044h848v-1044h-131v932h-586z" />
    <glyph glyph-name="afii10082" unicode="&#x440;" horiz-adv-x="1114" 
d="M614 1069q180 0 293 -143q115 -142 115 -383q0 -259 -137 -414q-136 -154 -342 -154q-135 0 -240 60v-457h-129v1466h129v-151q55 81 137 128.5t174 47.5zM594 958q-172 0 -291 -198v-613q107 -61 246 -61q153 0 248 121q96 125 96 328q0 195 -81 309t-218 114z" />
    <glyph glyph-name="afii10083" unicode="&#x441;" horiz-adv-x="948" 
d="M584 -25q-225 0 -359 152q-133 154 -133 395q0 245 133 396t359 151q140 0 270 -53l-35 -109q-122 49 -235 49q-171 0 -265 -122q-96 -122 -96 -312q0 -188 96 -313q95 -121 265 -121q122 0 243 53l35 -108q-122 -58 -278 -58z" />
    <glyph glyph-name="afii10084" unicode="&#x442;" horiz-adv-x="995" 
d="M565 932v-932h-133v932h-385v112h903v-112h-385z" />
    <glyph glyph-name="afii10085" unicode="&#x443;" horiz-adv-x="960" 
d="M184 1044l305 -864l289 864h137l-403 -1148q-70 -205 -238 -330l-81 86q147 106 206 280l27 78l-381 1034h139z" />
    <glyph glyph-name="afii10086" unicode="&#x444;" horiz-adv-x="1753" 
d="M813 891v596h129v-598q110 180 309 180q181 0 295 -147q115 -145 115 -400q0 -247 -117 -397q-114 -150 -293 -150q-195 0 -309 179v-576h-129v578q-111 -181 -307 -181q-181 0 -297 146q-115 148 -115 401q0 247 115 398q116 149 295 149q195 0 309 -178zM1235 958
q-185 0 -293 -215v-440q105 -217 293 -217q137 0 217 117.5t80 318.5q0 202 -80 319t-217 117zM522 88q186 0 291 215v440q-108 218 -291 218q-137 0 -218 -119t-81 -320q0 -202 79.5 -318t219.5 -116z" />
    <glyph glyph-name="afii10087" unicode="&#x445;" horiz-adv-x="937" 
d="M893 0h-145l-279 446l-279 -446h-145l352 551l-315 493h143l244 -391l242 391h145l-315 -493z" />
    <glyph glyph-name="afii10088" unicode="&#x446;" horiz-adv-x="1234" 
d="M885 113v931h131v-931h170v-326h-129v213h-889v1044h131v-931h586z" />
    <glyph glyph-name="afii10089" unicode="&#x447;" horiz-adv-x="1193" 
d="M1028 1044v-1044h-131v506q-176 -209 -397 -209q-171 0 -285 102q-111 102 -111 252v393h132v-380q0 -112 74.5 -183t199.5 -71q208 0 387 237v397h131z" />
    <glyph glyph-name="afii10090" unicode="&#x448;" horiz-adv-x="1531" 
d="M700 1044h134v-931h401v931h131v-1044h-1198v1044h131v-931h401v931z" />
    <glyph glyph-name="afii10091" unicode="&#x449;" horiz-adv-x="1585" 
d="M1536 -213h-127v213h-1241v1044h131v-931h401v931h134v-931h401v931h131v-931h170v-326z" />
    <glyph glyph-name="afii10092" unicode="&#x44a;" horiz-adv-x="1243" 
d="M45 1044h438v-409h228q207 0 330.5 -89.5t123.5 -228.5t-123.5 -228t-330.5 -89h-355v932h-311v112zM711 524h-228v-413h228q150 0 237.5 57t87.5 149q0 94 -86.5 150.5t-238.5 56.5z" />
    <glyph glyph-name="afii10093" unicode="&#x44b;" horiz-adv-x="1503" 
d="M1337 1044v-1044h-131v1044h131zM295 524v-413h227q150 0 238 57t88 149q0 94 -87 150.5t-239 56.5h-227zM522 0h-356v1044h129v-409h227q207 0 331 -89.5t124 -228.5t-124 -228t-331 -89z" />
    <glyph glyph-name="afii10094" unicode="&#x44c;" horiz-adv-x="1054" 
d="M295 524v-413h227q150 0 238 57t88 149q0 94 -87 150.5t-239 56.5h-227zM522 0h-356v1044h129v-409h227q207 0 331 -89.5t124 -228.5t-124 -228t-331 -89z" />
    <glyph glyph-name="afii10095" unicode="&#x44d;" horiz-adv-x="948" 
d="M367 -25q-156 0 -281 58l37 108q121 -53 244 -53q155 0 249 107q98 112 107 278h-522v109h522q-14 169 -109 271.5t-247 102.5q-114 0 -236 -49l-35 109q130 53 271 53q225 0 358 -151t133 -396q0 -241 -133 -395q-134 -152 -358 -152z" />
    <glyph glyph-name="afii10096" unicode="&#x44e;" horiz-adv-x="1564" 
d="M1014 -25q-194 0 -320 138t-141 354h-254v-467h-131v1044h131v-464h254q15 214 141 352q125 137 320 137q208 0 334 -156q127 -157 127 -391t-127 -391q-126 -156 -334 -156zM1255 831q-89 127 -241 127q-155 0 -244 -127q-90 -128 -90 -309t90 -309q88 -125 244 -125
q153 0 241 125q91 130 91 309t-91 309z" />
    <glyph glyph-name="afii10097" unicode="&#x44f;" horiz-adv-x="1038" 
d="M543 449l-326 -449h-158l353 463q-133 29 -209 105t-76 177q0 132 121 215.5t317 83.5h307v-1044h-127v446h-180q-16 0 -22 3zM565 555h180v383h-180q-137 0 -222 -55t-85 -138q0 -81 85 -135.5t222 -54.5z" />
    <glyph glyph-name="uni0450" unicode="&#x450;" horiz-adv-x="1017" 
d="M928 557v-55h-705q3 -181 86 -299q83 -117 230 -117q134 0 262 61l35 -104q-145 -68 -299 -68q-201 0 -322 154t-121 393q0 240 117 393q121 154 313 154q186 0 295 -145t109 -367zM227 610h572q-3 148 -80 248q-72 100 -195 100q-121 0 -202 -100q-80 -100 -95 -248z
M469 1188l-229 323h151l203 -323h-125z" />
    <glyph glyph-name="afii10071" unicode="&#x451;" horiz-adv-x="1017" 
d="M928 557v-55h-705q3 -181 86 -299q83 -117 230 -117q134 0 262 61l35 -104q-145 -68 -299 -68q-201 0 -322 154t-121 393q0 240 117 393q121 154 313 154q186 0 295 -145t109 -367zM227 610h572q-3 148 -80 248q-72 100 -195 100q-121 0 -202 -100q-80 -100 -95 -248z
M438 1337q0 -39 -26.5 -66.5t-67.5 -27.5t-67.5 26.5t-26.5 67.5q-5 58 44.5 82t99 0t44.5 -82zM582 1337q-5 58 44.5 82t99.5 0t46 -82q0 -41 -27.5 -67.5t-68.5 -26.5t-67.5 27.5t-26.5 66.5z" />
    <glyph glyph-name="afii10099" unicode="&#x452;" horiz-adv-x="1208" 
d="M799 1214h-383v-350q147 205 338 205q134 0 219 -88q88 -88 88 -229v-820q0 -180 -95.5 -279t-256.5 -99q-86 0 -162 28l14 113q73 -25 146 -25q105 0 163 66.5t58 197.5v801q0 103 -55 162t-144 59q-170 0 -313 -233v-723h-131v1214h-226v105h226v168h131v-168h383v-105
z" />
    <glyph glyph-name="afii10100" unicode="&#x453;" horiz-adv-x="831" 
d="M362 1188l203 323h152l-232 -323h-123zM168 1044h629v-112h-498v-932h-131v1044z" />
    <glyph glyph-name="afii10101" unicode="&#x454;" horiz-adv-x="948" 
d="M584 -25q-225 0 -359 152q-133 154 -133 395q0 245 133 396t359 151q140 0 270 -53l-35 -109q-122 49 -235 49q-152 0 -247.5 -102.5t-109.5 -271.5h521v-109h-523q12 -175 107.5 -280t251.5 -105q122 0 243 53l35 -108q-122 -58 -278 -58z" />
    <glyph glyph-name="afii10102" unicode="&#x455;" horiz-adv-x="839" 
d="M106 31l25 119q115 -62 252 -62q106 0 170.5 49t64.5 131q0 150 -221 230q-288 101 -288 293q0 124 92.5 201t244.5 77q122 0 246 -47l-24 -111q-121 50 -222 50q-90 0 -148 -47t-58 -119q0 -115 231 -203q277 -102 277 -320q0 -130 -98.5 -213.5t-256.5 -83.5
q-148 0 -287 56z" />
    <glyph glyph-name="afii10103" unicode="&#x456;" horiz-adv-x="503" 
d="M319 1044v-1044h-133v1044h133zM254 1491q56 4 79.5 -44t0 -96t-79.5 -44q-38 0 -66 27t-28 65q0 39 26.5 65.5t67.5 26.5z" />
    <glyph glyph-name="afii10104" unicode="&#x457;" horiz-adv-x="503" 
d="M-8 1337q-5 58 44.5 82t99 0t44.5 -82q0 -41 -26.5 -67.5t-67.5 -26.5t-67.5 27.5t-26.5 66.5zM487 1405q26 -26 26 -67.5t-26 -67.5t-67.5 -26t-67.5 26t-26 67.5t26 67.5t67.5 26t67.5 -26zM319 1044v-1044h-133v1044h133z" />
    <glyph glyph-name="afii10105" unicode="&#x458;" horiz-adv-x="503" 
d="M186 -53v1097h133v-1097q0 -270 -292 -393l-52 100q211 94 211 293zM254 1491q56 4 79.5 -44t0 -96t-79.5 -44q-38 0 -66 27t-28 65q0 39 26.5 65.5t67.5 26.5z" />
    <glyph glyph-name="afii10106" unicode="&#x459;" horiz-adv-x="1916" 
d="M342 270v774h817v-409h225q212 0 334 -90q123 -88 123 -228q0 -139 -123 -227q-122 -90 -334 -90h-356v932h-555v-662q0 -139 -80 -217t-217 -78q-71 0 -135 23l18 111q49 -21 113 -21q170 0 170 182zM1384 524h-225v-413h225q152 0 240 57t88 149q0 93 -88 150t-240 57z
" />
    <glyph glyph-name="afii10107" unicode="&#x45a;" horiz-adv-x="1845" 
d="M1313 0h-357v477h-657v-477h-133v1044h133v-454h657v454h131v-409h226q207 0 331.5 -89.5t124.5 -228.5t-122 -227q-122 -90 -334 -90zM1313 524h-226v-413h226q152 0 239.5 56.5t87.5 149.5q0 92 -88 149.5t-239 57.5z" />
    <glyph glyph-name="afii10108" unicode="&#x45b;" horiz-adv-x="1208" 
d="M416 1487v-168h383v-105h-383v-352q145 207 338 207q129 0 219 -90q88 -88 88 -229v-750h-131v735q0 101 -56 161t-145 60q-170 0 -313 -233v-723h-131v1214h-226v105h226v168h131z" />
    <glyph glyph-name="afii10109" unicode="&#x45c;" horiz-adv-x="995" 
d="M428 1188l203 323h151l-229 -323h-125zM391 483h-92v-483h-131v1044h131v-448h104q31 0 37 -2l342 450h156l-377 -481q69 -34 123 -112l307 -451h-153l-254 383q-69 100 -193 100z" />
    <glyph glyph-name="uni045D" unicode="&#x45d;" horiz-adv-x="1243" 
d="M578 1188l-230 323h152l202 -323h-124zM1077 0h-127v881l-643 -881h-141v1044h129v-880l643 880h139v-1044z" />
    <glyph glyph-name="afii10110" unicode="&#x45e;" horiz-adv-x="960" 
d="M184 1044l305 -864l289 864h137l-403 -1148q-70 -205 -238 -330l-81 86q147 106 206 280l27 78l-381 1034h139zM166 1470h123q5 -88 56 -139t136 -51t136 50t57 140h123q-3 -131 -95 -217q-88 -82 -221 -82q-135 0 -223 82q-89 83 -92 217z" />
    <glyph glyph-name="afii10193" unicode="&#x45f;" horiz-adv-x="1181" 
d="M166 0v1044h133v-931h586v931h131v-1044h-361v-233h-129v233h-360z" />
    <glyph glyph-name="afii10050" unicode="&#x490;" horiz-adv-x="1048" 
d="M319 1329v-1329h-135v1446h676v213h131v-330h-672z" />
    <glyph glyph-name="afii10098" unicode="&#x491;" horiz-adv-x="868" 
d="M702 1257h127v-325h-530v-932h-131v1044h534v213z" />
    <glyph glyph-name="Wgrave" unicode="&#x1e80;" horiz-adv-x="1902" 
d="M532 217l357 1229h127l356 -1229l357 1229h139l-434 -1446h-123l-359 1241l-358 -1241h-121l-436 1446h141zM907 1569l-229 323h151l203 -323h-125z" />
    <glyph glyph-name="wgrave" unicode="&#x1e81;" horiz-adv-x="1501" 
d="M430 170l256 874h133l252 -874l254 874h135l-323 -1044h-131l-254 866l-254 -866h-133l-322 1044h135zM707 1188l-230 323h150l202 -323h-122z" />
    <glyph glyph-name="Wacute" unicode="&#x1e82;" horiz-adv-x="1902" 
d="M532 217l357 1229h127l356 -1229l357 1229h139l-434 -1446h-123l-359 1241l-358 -1241h-121l-436 1446h141zM874 1569l203 323h152l-232 -323h-123z" />
    <glyph glyph-name="wacute" unicode="&#x1e83;" horiz-adv-x="1501" 
d="M430 170l256 874h133l252 -874l254 874h135l-323 -1044h-131l-254 866l-254 -866h-133l-322 1044h135zM674 1188l203 323h151l-229 -323h-125z" />
    <glyph glyph-name="Wdieresis" unicode="&#x1e84;" horiz-adv-x="1902" 
d="M532 217l357 1229h127l356 -1229l357 1229h139l-434 -1446h-123l-359 1241l-358 -1241h-121l-436 1446h141zM784 1624q-38 0 -66 28t-28 66q0 40 29 67.5t65 27.5t68 -27q27 -32 27 -68t-27.5 -65t-67.5 -29zM1186 1786q26 -26 26 -67.5t-26 -67.5t-67.5 -26t-67.5 26
t-26 67.5t26 67.5t67.5 26t67.5 -26z" />
    <glyph glyph-name="wdieresis" unicode="&#x1e85;" horiz-adv-x="1501" 
d="M430 170l256 874h133l252 -874l254 874h135l-323 -1044h-131l-254 866l-254 -866h-133l-322 1044h135zM678 1337q0 -38 -28 -66t-66 -28q-40 0 -67.5 29t-27.5 65t27 68q32 27 68 27t65 -27.5t29 -67.5zM915 1243q-38 0 -66 28t-28 66q0 40 29 67.5t65 27.5t68 -27
q29 -32 28.5 -68t-28.5 -65t-68 -29z" />
    <glyph glyph-name="Ygrave" unicode="&#x1ef2;" horiz-adv-x="1261" 
d="M631 735l440 711h156l-529 -834v-612h-133v612l-528 834h156zM590 1569l-230 323h150l203 -323h-123z" />
    <glyph glyph-name="ygrave" unicode="&#x1ef3;" horiz-adv-x="960" 
d="M184 1044l305 -864l289 864h137l-403 -1148q-70 -205 -238 -330l-81 86q147 106 206 280l27 78l-381 1034h139zM438 1188l-229 323h151l203 -323h-125z" />
    <glyph glyph-name="thinspace" unicode="&#x2009;" horiz-adv-x="409" 
 />
    <glyph glyph-name="uni2010" unicode="&#x2010;" horiz-adv-x="841" 
d="M721 737v-119h-598v119h598z" />
    <glyph glyph-name="figuredash" unicode="&#x2012;" horiz-adv-x="1228" 
d="M1126 621h-1024v116h1024v-116z" />
    <glyph glyph-name="endash" unicode="&#x2013;" horiz-adv-x="1024" 
d="M1024 621h-1024v116h1024v-116z" />
    <glyph glyph-name="emdash" unicode="&#x2014;" horiz-adv-x="2048" 
d="M2048 621h-2048v114h2048v-114z" />
    <glyph glyph-name="afii00208" unicode="&#x2015;" horiz-adv-x="2048" 
d="M1843 621h-1638v114h1638v-114z" />
    <glyph glyph-name="uni2016" unicode="&#x2016;" horiz-adv-x="917" 
d="M213 1528h135v-1831h-135v1831zM571 1528h134v-1831h-134v1831z" />
    <glyph glyph-name="underscoredbl" unicode="&#x2017;" horiz-adv-x="1228" 
d="M1126 -403h-1024v114h1024v-114zM1126 -166h-1024v115h1024v-115z" />
    <glyph glyph-name="quoteleft" unicode="&#x2018;" horiz-adv-x="587" 
d="M176 1214q0 103 57 192.5t156 143.5l53 -55q-73 -38 -114.5 -103.5t-46.5 -144.5q12 6 32 6q43 0 72 -28t29 -70q0 -43 -31 -72.5t-78 -29.5q-56 0 -92.5 44t-36.5 117z" />
    <glyph glyph-name="quoteright" unicode="&#x2019;" horiz-adv-x="587" 
d="M414 1366q0 -103 -57 -192.5t-156 -143.5l-54 53q73 38 115 104.5t47 145.5q-8 -8 -33 -8q-42 0 -71 29t-29 71q0 43 31 72t78 29q56 0 92.5 -44t36.5 -116z" />
    <glyph glyph-name="quotesinglbase" unicode="&#x201a;" horiz-adv-x="587" 
d="M414 25q0 -104 -57 -194t-156 -144l-54 55q73 38 115 103.5t47 144.5q-12 -6 -33 -6q-42 0 -71 29t-29 71q0 43 31 71.5t78 28.5q56 0 92.5 -43.5t36.5 -115.5z" />
    <glyph glyph-name="quotereversed" unicode="&#x201b;" horiz-adv-x="587" 
d="M176 1366q0 72 36.5 116t92.5 44q47 0 78 -29t31 -72q0 -42 -29.5 -71t-71.5 -29q-24 0 -32 8q5 -79 47 -145.5t114 -104.5l-53 -53q-99 54 -156 143.5t-57 192.5z" />
    <glyph glyph-name="quotedblleft" unicode="&#x201c;" horiz-adv-x="903" 
d="M492 1214q0 103 57 192.5t156 143.5l53 -55q-73 -38 -115 -103.5t-47 -144.5q12 6 33 6q43 0 71.5 -27.5t28.5 -70.5t-30.5 -72.5t-77.5 -29.5q-56 0 -92.5 44t-36.5 117zM176 1214q0 103 57 192.5t156 143.5l53 -55q-73 -38 -114.5 -103.5t-46.5 -144.5q12 6 32 6
q43 0 72 -28t29 -70q0 -43 -31 -72.5t-78 -29.5q-56 0 -92.5 44t-36.5 117z" />
    <glyph glyph-name="quotedblright" unicode="&#x201d;" horiz-adv-x="903" 
d="M729 1366q0 -103 -57 -192.5t-156 -143.5l-53 53q73 38 115 104.5t47 145.5q-8 -8 -33 -8q-42 0 -71 29t-29 71q0 43 30.5 72t77.5 29q56 0 92.5 -44t36.5 -116zM414 1366q0 -103 -57 -192.5t-156 -143.5l-54 53q73 38 115 104.5t47 145.5q-8 -8 -33 -8q-42 0 -71 29
t-29 71q0 43 31 72t78 29q56 0 92.5 -44t36.5 -116z" />
    <glyph glyph-name="quotedblbase" unicode="&#x201e;" horiz-adv-x="903" 
d="M729 25q0 -104 -57 -194t-156 -144l-53 55q73 38 115 103.5t47 144.5q-12 -6 -33 -6q-42 0 -71 29t-29 71q0 43 30.5 71.5t77.5 28.5q56 0 92.5 -43.5t36.5 -115.5zM414 25q0 -104 -57 -194t-156 -144l-54 55q73 38 115 103.5t47 144.5q-12 -6 -33 -6q-42 0 -71 29
t-29 71q0 43 31 71.5t78 28.5q56 0 92.5 -43.5t36.5 -115.5z" />
    <glyph glyph-name="uni201F" unicode="&#x201f;" horiz-adv-x="903" 
d="M492 1366q0 72 36.5 116t92.5 44q47 0 77.5 -29t30.5 -72q0 -42 -29 -71t-71 -29q-25 0 -33 8q5 -79 47 -145.5t115 -104.5l-53 -53q-99 54 -156 143.5t-57 192.5zM176 1366q0 72 36.5 116t92.5 44q47 0 78 -29t31 -72q0 -42 -29.5 -71t-71.5 -29q-24 0 -32 8
q5 -79 47 -145.5t114 -104.5l-53 -53q-99 54 -156 143.5t-57 192.5z" />
    <glyph glyph-name="dagger" unicode="&#x2020;" horiz-adv-x="1157" 
d="M647 1528v-371h379v-117h-379v-1343h-135v1343h-381v117h381v371h135z" />
    <glyph glyph-name="daggerdbl" unicode="&#x2021;" horiz-adv-x="1157" 
d="M645 1040v-856h381v-116h-381v-371h-133v371h-381v116h381v856h-381v117h381v371h133v-371h381v-117h-381z" />
    <glyph glyph-name="bullet" unicode="&#x2022;" horiz-adv-x="923" 
d="M463 926q110 0 186 -76q78 -78 78 -186q0 -109 -78 -187q-76 -76 -186 -76q-113 0 -189 76q-75 75 -75 187q0 111 75 186q76 76 189 76z" />
    <glyph glyph-name="onedotenleader" unicode="&#x2024;" horiz-adv-x="587" 
d="M219 6q-31 31 -31 76t31 74q31 31 76 31t76 -31q31 -29 31 -74t-31 -76t-76 -31t-76 31z" />
    <glyph glyph-name="twodotenleader" unicode="&#x2025;" horiz-adv-x="1175" 
d="M807 6q-31 31 -31 76t31 74q31 31 75.5 31t75.5 -31q31 -29 31 -74t-31 -76t-75.5 -31t-75.5 31zM219 6q-31 31 -31 76t31 74q31 31 76 31t76 -31q31 -29 31 -74t-31 -76t-76 -31t-76 31z" />
    <glyph glyph-name="ellipsis" unicode="&#x2026;" horiz-adv-x="1765" 
d="M807 6q-31 31 -31 76t31 74q31 31 75.5 31t75.5 -31q31 -29 31 -74t-31 -76t-75.5 -31t-75.5 31zM1395 6q-31 31 -31 76t31 74q31 31 75.5 31t75.5 -31q31 -29 31 -74t-31 -76t-75.5 -31t-75.5 31zM219 6q-31 31 -31 76t31 74q31 31 76 31t76 -31q31 -29 31 -74t-31 -76
t-76 -31t-76 31z" />
    <glyph glyph-name="perthousand" unicode="&#x2030;" horiz-adv-x="2072" 
d="M1133 1446l-711 -1446h-127l711 1446h127zM498 1276q-47 78 -119 78t-119 -78q-47 -77 -47 -191q0 -113 47 -190q47 -78 119 -78t119 78q49 76 49 190q0 115 -49 191zM586 815q-78 -106 -207 -106t-207 106q-80 109 -80 270q0 160 80 269q80 108 207 108t207 -108
q80 -109 80 -269q0 -161 -80 -270zM1167 551q-47 78 -118.5 78t-118.5 -78q-47 -77 -47 -191q0 -113 47 -190q47 -78 118.5 -78t118.5 78q47 77 47 190q0 114 -47 191zM1255 90q-78 -106 -206 -106q-129 0 -207 106q-80 109 -80 270q0 160 80 269q80 108 207 108t206 -108
q80 -109 80 -269q0 -161 -80 -270zM1812 551q-47 78 -118.5 78t-118.5 -78q-47 -77 -47 -191q0 -113 47 -190q47 -78 118.5 -78t118.5 78q48 79 48 190q0 112 -48 191zM1901 90q-78 -106 -207 -106t-207 106q-80 109 -80 270q0 160 80 269q79 108 207 108t207 -108
q79 -107 79 -269q0 -163 -79 -270z" />
    <glyph glyph-name="minute" unicode="&#x2032;" horiz-adv-x="620" 
d="M453 1446l-187 -516h-119l154 516h152z" />
    <glyph glyph-name="second" unicode="&#x2033;" horiz-adv-x="923" 
d="M453 1446l-187 -516h-119l154 516h152zM756 1446l-187 -516h-118l153 516h152z" />
    <glyph glyph-name="guilsinglleft" unicode="&#x2039;" horiz-adv-x="724" 
d="M600 156l-473 313v111l473 313v-137l-350 -232l350 -229v-139z" />
    <glyph glyph-name="guilsinglright" unicode="&#x203a;" horiz-adv-x="724" 
d="M127 893l473 -313v-111l-473 -313v139l350 229l-350 232v137z" />
    <glyph glyph-name="exclamdbl" unicode="&#x203c;" horiz-adv-x="1196" 
d="M760 389l-10 1057h147l-10 -1057h-127zM719 78q-5 63 49.5 89t109.5 0t50 -89q0 -43 -30.5 -73t-74.5 -30t-74 30t-30 73zM311 389l-12 1057h150l-13 -1057h-125zM270 78q0 44 30 73t75 29q43 0 72.5 -29t29.5 -73q0 -43 -29.5 -73t-72.5 -30q-44 0 -74.5 30t-30.5 73z
" />
    <glyph glyph-name="uni203E" unicode="&#x203e;" horiz-adv-x="804" 
d="M690 1300h-575v111h575v-111z" />
    <glyph glyph-name="fraction" unicode="&#x2044;" horiz-adv-x="286" 
d="M604 1446l-790 -1446h-131l790 1446h131z" />
    <glyph glyph-name="zerosuperior" unicode="&#x2070;" 
d="M596 674q55 110 55 287t-55 284q-52 111 -150 111q-96 0 -149 -111q-53 -109 -53 -284t53 -287q53 -109 149 -109q97 0 150 109zM776 961q0 -229 -88.5 -366.5t-241.5 -137.5q-152 0 -240.5 137.5t-88.5 366.5q0 225 88 362q89 139 241 139q153 0 242 -139
q88 -137 88 -362z" />
    <glyph glyph-name="uni2071" unicode="&#x2071;" 
d="M510 1186v-713h-127v713h127zM446 1317q-48 -3 -68 37.5t0 81t68 37.5q50 3 70.5 -37.5t0 -81t-70.5 -37.5z" />
    <glyph glyph-name="foursuperior" unicode="&#x2074;" 
d="M539 1262l-306 -439h306v439zM539 473v242h-443v96l449 635h121v-623h141v-108h-141v-242h-127z" />
    <glyph glyph-name="fivesuperior" unicode="&#x2075;" 
d="M195 936l30 510h488v-109h-369l-16 -268q46 12 106 12q137 0 232 -86q94 -85 94 -215q0 -143 -100 -233t-259 -90q-124 0 -245 65l39 111q103 -68 206 -68q105 0 167.5 56.5t62.5 150.5q0 93 -58.5 147t-162.5 54q-117 0 -215 -37z" />
    <glyph glyph-name="sixsuperior" unicode="&#x2076;" 
d="M522 1354q-115 0 -180 -94.5t-76 -262.5q80 103 209 103q133 0 217 -90t84 -228q0 -139 -88 -233q-86 -92 -229 -92q-153 0 -239.5 121t-86.5 342q0 251 103 396.5t294 145.5q84 0 172 -30l-24 -113q-81 35 -156 35zM467 993q-144 0 -203 -164q11 -125 62 -195.5
t135 -70.5q87 0 138.5 60t51.5 155t-50 155t-134 60z" />
    <glyph glyph-name="sevensuperior" unicode="&#x2077;" 
d="M762 1354l-383 -881h-137l383 864h-465v109h602v-92z" />
    <glyph glyph-name="eightsuperior" unicode="&#x2078;" 
d="M743 1217q0 -150 -178 -238q205 -85 205 -256q0 -108 -92 -188q-90 -78 -232 -78q-140 0 -233 78q-90 81 -90 188q0 170 207 256q-180 88 -180 238q0 101 83 172q85 73 213 73q129 0 211 -73q86 -71 86 -172zM446 930q-93 -30 -144.5 -84.5t-51.5 -118.5q0 -70 54.5 -116
t141.5 -46t143 46t56 116q0 66 -51.5 119t-147.5 84zM446 1356q-73 0 -121.5 -43t-48.5 -105q0 -116 170 -178q170 62 170 178q0 64 -48 106t-122 42z" />
    <glyph glyph-name="ninesuperior" unicode="&#x2079;" 
d="M371 565q115 0 181 95t77 264q-83 -105 -209 -105q-132 0 -219 90q-84 93 -84 230q0 140 88 231q89 92 231 92q151 0 237.5 -121.5t86.5 -341.5q0 -244 -101 -393t-294 -149q-83 0 -172 30l22 113q90 -35 156 -35zM428 928q144 0 203 164q-11 124 -62 194t-135 70
q-87 0 -138.5 -59t-51.5 -154q0 -97 50 -156t134 -59z" />
    <glyph glyph-name="uni207A" unicode="&#x207a;" 
d="M506 618h-119v289h-272v107h272v286h119v-286h272v-107h-272v-289z" />
    <glyph glyph-name="uni207B" unicode="&#x207b;" 
d="M778 1014v-107h-663v107h663z" />
    <glyph glyph-name="uni207C" unicode="&#x207c;" 
d="M776 1180v-109h-657v109h657zM776 850v-107h-657v107h657z" />
    <glyph glyph-name="uni207D" unicode="&#x207d;" 
d="M543 1554h94q-164 -259 -164 -596q0 -334 164 -596h-94q-193 251 -193 596t193 596z" />
    <glyph glyph-name="uni207E" unicode="&#x207e;" 
d="M543 958q0 -165 -51 -321t-140 -275h-96q164 262 164 596q0 337 -164 596h96q191 -253 191 -596z" />
    <glyph glyph-name="uni207F" unicode="&#x207f;" 
d="M487 1096q-102 0 -182 -133v-490h-125v713h125v-86q85 102 203 102q94 0 154.5 -62.5t60.5 -160.5v-506h-125v498q0 56 -30 90.5t-81 34.5z" />
    <glyph glyph-name="zeroinferior" unicode="&#x2080;" 
d="M596 -111q55 110 55 287q0 178 -55 285q-52 110 -150 110q-97 0 -149 -110q-53 -109 -53 -285q0 -175 53 -287q52 -110 149 -110q98 0 150 110zM776 176q0 -229 -88.5 -366.5t-241.5 -137.5q-152 0 -240.5 137.5t-88.5 366.5q0 226 88 363q89 139 241 139q153 0 242 -139
q88 -137 88 -363z" />
    <glyph glyph-name="oneinferior" unicode="&#x2081;" 
d="M424 530l-182 -75l-39 98l254 109h96v-973h-129v841z" />
    <glyph glyph-name="twoinferior" unicode="&#x2082;" 
d="M739 -203v-108h-589v94l321 344q133 145 133 270q0 78 -48 125t-130 47q-97 0 -219 -88l-35 111q127 86 262 86q131 0 215 -78t84 -192q0 -163 -170 -351l-241 -260h417z" />
    <glyph glyph-name="threeinferior" unicode="&#x2083;" 
d="M295 158v104q146 0 219.5 47t73.5 125q0 61 -46 98t-120 37q-105 0 -215 -55l-23 107q126 57 246 57q127 0 207 -68t80 -174q0 -74 -49.5 -135.5t-130.5 -87.5q98 -30 155.5 -97.5t57.5 -158.5q0 -128 -99 -206.5t-260 -78.5q-136 0 -252 58l29 106q116 -55 225 -55
q101 0 164.5 47.5t63.5 126.5q0 91 -85 147t-241 56z" />
    <glyph glyph-name="fourinferior" unicode="&#x2084;" 
d="M539 477l-306 -438h306v438zM539 -311v239h-443v99l449 635h121v-623h141v-111h-141v-239h-127z" />
    <glyph glyph-name="fiveinferior" unicode="&#x2085;" 
d="M195 152l30 510h488v-109h-369l-16 -268q46 12 106 12q137 0 232 -86q94 -85 94 -217q0 -143 -99 -232.5t-260 -89.5q-122 0 -245 66l39 108q103 -65 206 -65q105 0 167.5 56.5t62.5 150.5q0 93 -58.5 146.5t-162.5 53.5q-120 0 -215 -36z" />
    <glyph glyph-name="sixinferior" unicode="&#x2086;" 
d="M522 569q-115 0 -180 -94t-76 -262q80 102 209 102q133 0 217 -89.5t84 -229.5q0 -141 -88 -232q-86 -92 -229 -92q-153 0 -239.5 121t-86.5 342q0 251 103 397t294 146q81 0 172 -31l-24 -112q-78 34 -156 34zM467 209q-144 0 -203 -164q11 -125 62 -195.5t135 -70.5
q87 0 138.5 59t51.5 154q0 98 -50 157.5t-134 59.5z" />
    <glyph glyph-name="seveninferior" unicode="&#x2087;" 
d="M762 569l-383 -880h-137l383 864h-465v109h602v-93z" />
    <glyph glyph-name="eightinferior" unicode="&#x2088;" 
d="M743 432q0 -149 -178 -237q205 -85 205 -256q0 -111 -90 -189t-234 -78q-143 0 -233 78t-90 189q0 170 207 256q-180 88 -180 237q0 101 83 172q86 74 213 74q128 0 211 -74q86 -71 86 -172zM446 145q-93 -30 -144.5 -84t-51.5 -118q0 -70 54.5 -117t141.5 -47t143 47
t56 117q0 66 -51.5 118.5t-147.5 83.5zM446 571q-73 0 -121.5 -42.5t-48.5 -104.5q0 -116 170 -178q170 62 170 178q0 63 -48 105t-122 42z" />
    <glyph glyph-name="nineinferior" unicode="&#x2089;" 
d="M371 -219q115 0 181 94.5t77 263.5q-82 -104 -209 -104q-132 0 -219 90q-84 93 -84 229q0 141 88 232q89 92 231 92q151 0 237.5 -121.5t86.5 -341.5q0 -251 -102 -397t-293 -146q-81 0 -172 31l22 113q84 -35 156 -35zM428 143q144 0 203 164q-11 124 -62 194t-135 70
q-87 0 -138.5 -59t-51.5 -154q0 -97 50 -156t134 -59z" />
    <glyph glyph-name="uni208A" unicode="&#x208a;" 
d="M506 -166h-119v289h-272v106h272v287h119v-287h272v-106h-272v-289z" />
    <glyph glyph-name="uni208B" unicode="&#x208b;" 
d="M778 229v-106h-663v106h663z" />
    <glyph glyph-name="uni208C" unicode="&#x208c;" 
d="M776 395v-108h-657v108h657zM776 66v-109h-657v109h657z" />
    <glyph glyph-name="uni208D" unicode="&#x208d;" 
d="M543 770h94q-164 -259 -164 -596t164 -596h-94q-193 251 -193 596t193 596z" />
    <glyph glyph-name="uni208E" unicode="&#x208e;" 
d="M352 -422h-96q164 259 164 596t-164 596h96q191 -253 191 -596t-191 -596z" />
    <glyph glyph-name="uni2090" unicode="&#x2090;" 
d="M162 -131q0 111 97 180.5t255 69.5h57v84q0 51 -29.5 80.5t-80.5 29.5q-96 0 -211 -69l-29 108q138 66 244 66q105 0 167 -58t62 -153v-336q0 -84 25 -182h-125q-9 46 -14 82q-88 -99 -201 -99q-99 0 -158 54.5t-59 142.5zM389 -223q105 0 182 117v124h-49
q-107 0 -172 -41.5t-65 -105.5q0 -44 27.5 -69t76.5 -25z" />
    <glyph glyph-name="uni2091" unicode="&#x2091;" 
d="M739 68v-52h-458q8 -114 56.5 -174t127.5 -61t184 45l35 -100q-114 -54 -217 -54q-143 0 -225 105q-84 107 -84 268q0 162 82 266q82 107 217 107q131 0 207 -101q75 -97 75 -249zM457 315q-65 0 -112 -57t-58 -141h329q-5 87 -48.5 142.5t-110.5 55.5z" />
    <glyph glyph-name="uni2092" unicode="&#x2092;" 
d="M682 -221q-88 -107 -236 -107q-147 0 -235 107q-88 104 -88 266t88 266q88 107 235 107q148 0 236 -107q90 -107 90 -266t-90 -266zM446 313q-91 0 -145.5 -75.5t-54.5 -192.5t54.5 -192.5t145.5 -75.5q92 0 147.5 75.5t55.5 192.5t-55.5 192.5t-147.5 75.5z" />
    <glyph glyph-name="uni2093" unicode="&#x2093;" 
d="M623 -311l-177 272l-176 -272h-139l246 372l-221 340h139l151 -239l152 239h139l-221 -340l246 -372h-139z" />
    <glyph glyph-name="uni2094" unicode="&#x2094;" 
d="M154 23v53h458q-8 111 -55.5 173t-128.5 62q-82 0 -182 -47l-37 101q115 53 219 53q140 0 223.5 -103.5t83.5 -269.5q0 -162 -82 -266q-82 -107 -215 -107t-209 101q-75 97 -75 250zM438 -225q65 0 112 56t58 142h-329q5 -87 48.5 -142.5t110.5 -55.5z" />
    <glyph glyph-name="uni20A0" unicode="&#x20a0;" horiz-adv-x="1476" 
d="M1374 115v-115h-547v522q-125 -49 -247 -49q-219 0 -353 137q-135 138 -135 363q0 222 135 360q134 137 353 137q139 0 266 -59l-31 -115q-127 62 -235 62q-158 0 -258 -109q-99 -108 -99 -276q0 -171 99 -279t258 -108q128 0 247 55v326h529v-115h-395v-297h350v-115
h-350v-325h413z" />
    <glyph glyph-name="colonmonetary" unicode="&#x20a1;" horiz-adv-x="1323" 
d="M700 1630h103l-27 -160h39q74 0 123 -8l29 168h102l-33 -188q81 -18 156 -53l-31 -113q-77 34 -143 53l-211 -1237h8q190 0 363 84l32 -115q-189 -86 -395 -86h-29l-26 -159h-105l29 170q-66 10 -156 41l-34 -211h-105l45 256q-161 95 -250.5 264.5t-89.5 388.5
q0 295 156 492q154 194 420 241zM229 725q0 -345 228 -520l192 1128q-196 -52 -309 -215q-111 -163 -111 -393zM756 1352l-207 -1205q75 -35 156 -47l213 1248q-63 8 -103 8q-9 0 -59 -4z" />
    <glyph glyph-name="uni20A2" unicode="&#x20a2;" horiz-adv-x="1325" 
d="M94 725q0 336 199 541q198 204 522 204q205 0 377 -81l-31 -113q-168 80 -346 80q-267 0 -426 -176q-160 -177 -160 -455q0 -250 125 -418q123 -166 344 -207v777h131v-140q39 73 101 117.5t127 44.5q45 0 80 -12l-9 -109q-45 10 -77 10q-68 0 -129.5 -63.5t-92.5 -165.5
v-467q182 3 349 84l32 -115q-189 -86 -395 -86q-323 0 -522 205t-199 545z" />
    <glyph glyph-name="franc" unicode="&#x20a3;" horiz-adv-x="1083" 
d="M291 0v528h-217v103h217v192h-217v101h217v522h708v-115h-573v-407h416v-101h-416v-192h416v-103h-416v-528h-135z" />
    <glyph glyph-name="lira" unicode="&#x20a4;" horiz-adv-x="1284" 
d="M305 487h-213v103h213v192h-213v101h213v151q0 210 111 323t315 113q220 0 367 -153l-82 -94q-119 131 -285 131q-143 0 -217 -81t-74 -239v-151h443v-101h-443v-192h443v-103h-445q-9 -249 -168 -372h901v-115h-1079v106q201 127 213 381z" />
    <glyph glyph-name="uni20A6" unicode="&#x20a6;" horiz-adv-x="1540" 
d="M80 545v98h164v162h-164v98h164v543h153l332 -543h438v543h131v-543h164v-98h-164v-162h164v-98h-164v-545h-153l-334 545h-436v-545h-131v545h-164zM1167 805h-379l99 -162h280v162zM653 805h-278v-162h377zM1167 545h-221l221 -361v361zM594 903l-219 359v-359h219z
" />
    <glyph glyph-name="peseta" unicode="&#x20a7;" horiz-adv-x="2260" 
d="M1815 0h-424q-123 0 -187.5 62t-64.5 178v692h-203q-31 -148 -154.5 -234t-312.5 -86h-152v-612h-133v1446h285q217 0 344.5 -110.5t132.5 -291.5h193v302h131v-302h444q70 25 154 25q122 0 246 -47l-25 -111q-121 47 -221 47q-90 0 -148.5 -45.5t-58.5 -113.5
q0 -113 231 -195q277 -102 277 -315q0 -125 -98 -207t-256 -82zM1577 932h-307v-680q0 -139 123 -139h411q106 0 170 47.5t64 126.5q0 147 -219 221q-287 100 -287 287q0 80 45 137zM469 1331h-152v-606h152q164 0 256 82t92 223q0 138 -92 219.5t-256 81.5z" />
    <glyph glyph-name="uni20A8" unicode="&#x20a8;" horiz-adv-x="1865" 
d="M670 670l381 -670h-148l-362 651h-226v-651h-131v1446h334q221 0 346 -113q127 -112 127 -284q0 -141 -85 -242.5t-236 -136.5zM315 1331v-567h203q157 0 249.5 79t92.5 206q0 126 -92 204t-250 78h-203zM1419 -25q-144 0 -286 56l22 116q115 -59 252 -59q106 0 170.5 49
t64.5 131q0 151 -221 228q-288 101 -288 292q0 125 92 203t245 78q122 0 246 -47l-24 -111q-115 47 -222 47q-91 0 -148.5 -46.5t-57.5 -118.5q0 -119 231 -201q279 -102 279 -322q0 -128 -99 -211q-101 -84 -256 -84z" />
    <glyph glyph-name="uni20A9" unicode="&#x20a9;" horiz-adv-x="2045" 
d="M61 565v99h281l-47 161h-234v99h203l-158 522h142l151 -522h410l152 522h124l152 -522h410l151 522h141l-157 -522h205v-99h-236l-49 -161h285v-99h-314l-170 -565h-121l-163 565h-392l-161 -565h-123l-170 565h-312zM1618 825h-352l47 -161h260zM780 825h-352l47 -161
h258zM1143 825h-240l-47 -161h334zM1544 565h-203l103 -348zM705 565h-203l102 -348zM1114 924l-90 317l-92 -317h182z" />
    <glyph glyph-name="afii57636" unicode="&#x20aa;" horiz-adv-x="1794" 
d="M319 0h-135v1446h480q257 0 393.5 -137t136.5 -391v-359h-135v354q0 416 -406 416h-334v-1329zM1477 1446h133v-1446h-477q-259 0 -395 136.5t-136 393.5v357h135v-355q0 -415 404 -415h336v1329z" />
    <glyph glyph-name="dong" unicode="&#x20ab;" horiz-adv-x="1224" 
d="M502 -25q-181 0 -295 144q-113 143 -113 385q0 258 135 411q139 154 346 154q136 0 238 -57v202h-387v105h387v168h129v-168h225v-105h-225v-1214h-129v152q-121 -177 -311 -177zM522 88q176 0 291 201v610q-109 62 -246 62q-149 0 -248 -123q-96 -125 -96 -326
q0 -198 79.5 -311t219.5 -113zM897 -322h-575v111h575v-111z" />
    <glyph glyph-name="Euro" unicode="&#x20ac;" horiz-adv-x="1484" 
d="M262 823h-188v101h205q56 254 241 399q188 147 457 147q201 0 379 -81l-31 -113q-168 80 -348 80q-212 0 -359.5 -116t-199.5 -316h655v-101h-676q-13 -101 0 -192h600v-101h-581q50 -204 198.5 -321t362.5 -117q188 0 364 84l31 -115q-186 -86 -395 -86q-271 0 -459 150
q-186 149 -242 405h-202v101h188q-7 92 0 192z" />
    <glyph glyph-name="afii61248" unicode="&#x2105;" horiz-adv-x="2025" 
d="M1546 -16q-171 0 -280 127q-107 125 -107 321q0 197 107 322q109 127 280 127q175 0 281 -127q106 -124 106 -322q0 -197 -106 -321q-106 -127 -281 -127zM1546 776q-117 0 -187.5 -97t-70.5 -247t70.5 -246t187.5 -96q119 0 189.5 95.5t70.5 246.5t-70.5 247.5
t-189.5 96.5zM498 565q-187 0 -297 125q-109 127 -109 324q0 196 109 323q110 125 297 125q116 0 231 -47l-33 -104q-113 45 -196 45q-127 0 -202 -95t-75 -247q0 -151 75 -245.5t202 -94.5q90 0 205 47l32 -105q-108 -51 -239 -51zM1444 1446l-789 -1446h-133l791 1446h131
z" />
    <glyph glyph-name="uni2109" unicode="&#x2109;" horiz-adv-x="1572" 
d="M915 690v-690h-133v1446h709v-115h-576v-526h512v-115h-512zM360 950q-116 0 -192 76t-76 184q0 109 76 185q75 75 192 75q114 0 189 -75q78 -78 78 -185q0 -106 -78 -184q-76 -76 -189 -76zM360 1053q66 0 111 45t45 112t-45 112.5t-111 45.5q-67 0 -112 -45t-45 -113
t44.5 -112.5t112.5 -44.5z" />
    <glyph glyph-name="afii61289" unicode="&#x2113;" horiz-adv-x="1064" 
d="M195 817q0 298 106 473q107 180 281 180q140 0 217.5 -122t77.5 -338q0 -253 -107.5 -459.5t-304.5 -337.5q76 -125 188 -125q120 0 185 145l98 -57q-92 -201 -279 -201q-176 0 -290 181q-86 -49 -228 -95l-41 107q129 42 209 86q-112 242 -112 563zM324 823
q0 -294 88 -501q336 241 336 690q0 167 -45.5 257.5t-127.5 90.5q-109 0 -180 -148t-71 -389z" />
    <glyph glyph-name="afii61352" unicode="&#x2116;" horiz-adv-x="2109" 
d="M1610 252q-175 0 -283 129q-106 127 -106 324q0 199 106 323q108 129 283 129q174 0 282 -129q107 -125 107 -323t-107 -326q-109 -127 -282 -127zM1348 705q0 -147 69 -244q72 -96 193 -96q118 0 190 96q72 101 72 244q0 150 -71 246t-191 96t-191 -96t-71 -246z
M1063 1446v-1446h-148l-602 1217v-1217h-129v1446h148l602 -1215v1215h129zM1235 115h750v-115h-750v115z" />
    <glyph glyph-name="uni2117" unicode="&#x2117;" horiz-adv-x="1671" 
d="M846 641h-111v-356h-114v878h225q144 0 227.5 -71.5t83.5 -188.5q0 -119 -83 -190.5t-228 -71.5zM846 1065h-111v-324h111q93 0 144.5 44t51.5 118t-51.5 118t-144.5 44zM305 193q-215 218 -215 530t215 530q217 217 531 217t528 -217q217 -217 217 -530t-217 -530
q-215 -218 -528 -218t-531 218zM371 1192q-191 -194 -191 -469q0 -277 191 -471q193 -193 465 -193t462 193q193 193 193 471q0 276 -193 469q-191 194 -462 194t-465 -194z" />
    <glyph glyph-name="uni2120" unicode="&#x2120;" horiz-adv-x="1556" 
d="M303 690q-103 0 -197 49l29 105q94 -58 168 -58q62 0 99.5 31t37.5 82q0 92 -133 145q-196 76 -196 222q0 85 64 138.5t167 53.5q83 0 178 -39l-24 -98q-87 43 -152 43q-56 0 -89.5 -27.5t-33.5 -70.5q0 -78 135 -133q193 -76 193 -228q0 -98 -67.5 -156.5t-178.5 -58.5z
M1286 702v502l-217 -502h-90l-217 502v-502h-107v744h119l252 -594l250 594h119v-744h-109z" />
    <glyph glyph-name="uni2121" unicode="&#x2121;" horiz-adv-x="1826" 
d="M1374 557v-55h-555q2 -187 65.5 -301.5t172.5 -114.5q102 0 215 70l31 -109q-119 -72 -248 -72q-162 0 -262 152q-99 153 -99 395q0 234 97 391q94 156 253 156q153 0 242 -145q88 -143 88 -367zM823 610h424q-3 143 -59 246q-56 102 -144 102t-149 -102
q-63 -105 -72 -246zM532 1331v-1331h-131v1331h-342v115h813v-115h-340zM1638 1487v-1487h-129v1487h129z" />
    <glyph glyph-name="trademark" unicode="&#x2122;" horiz-adv-x="1560" 
d="M373 1350v-648h-113v648h-209v96h529v-96h-207zM1290 702v502l-217 -502h-90l-217 502v-502h-107v744h119l252 -594l250 594h119v-744h-109z" />
    <glyph glyph-name="Omega" unicode="&#x2126;" horiz-adv-x="1527" 
d="M764 1358q-237 0 -381 -166q-145 -168 -145 -428q0 -438 432 -655v-109h-525v117h322q-365 217 -365 647q0 312 183 510q184 196 479 196q296 0 477 -196q184 -196 184 -510q0 -434 -364 -647h321v-117h-524v109q434 218 434 655q0 260 -145 428q-144 166 -383 166z" />
    <glyph glyph-name="estimated" unicode="&#x212e;" horiz-adv-x="1671" 
d="M1585 670h-1202v-432q188 -179 453 -179q308 0 505 238h113q-104 -150 -267 -236t-351 -86q-315 0 -533 218q-217 217 -217 530t217 530t533 217q315 0 532 -217t217 -530v-53zM383 756h905v452q-187 178 -452 178q-266 0 -453 -178v-452z" />
    <glyph glyph-name="onethird" unicode="&#x2153;" horiz-adv-x="2072" 
d="M1473 469v104q147 0 220.5 47t73.5 125q0 61 -46.5 98.5t-121.5 37.5q-104 0 -213 -56l-22 107q123 57 244 57q127 0 207.5 -67.5t80.5 -173.5q0 -73 -50.5 -135.5t-131.5 -88.5q98 -30 156.5 -97.5t58.5 -156.5q0 -129 -98 -207.5t-262 -78.5q-133 0 -250 57l27 109
q119 -58 225 -58q103 0 166 47.5t63 126.5q0 91 -84 147t-243 56zM1497 1446l-790 -1446h-132l789 1446h133zM424 1315l-182 -76l-39 98l254 109h96v-973h-129v842z" />
    <glyph glyph-name="twothirds" unicode="&#x2154;" horiz-adv-x="2072" 
d="M1473 469v104q147 0 220.5 47t73.5 125q0 61 -46.5 98.5t-121.5 37.5q-104 0 -213 -56l-22 107q123 57 244 57q127 0 207.5 -67.5t80.5 -173.5q0 -73 -50.5 -135.5t-131.5 -88.5q98 -30 156.5 -97.5t58.5 -156.5q0 -129 -98 -207.5t-262 -78.5q-133 0 -250 57l27 109
q119 -58 225 -58q103 0 166 47.5t63 126.5q0 91 -84 147t-243 56zM739 582v-109h-589v94l321 344q133 145 133 271q0 76 -48.5 124t-129.5 48q-97 0 -219 -88l-35 110q127 86 262 86q131 0 215 -78t84 -192q0 -162 -170 -350l-241 -260h417zM1497 1446l-790 -1446h-132
l789 1446h133z" />
    <glyph glyph-name="onefifth" unicode="&#x2155;" horiz-adv-x="2072" 
d="M1497 1446l-790 -1446h-132l789 1446h133zM424 1315l-182 -76l-39 98l254 109h96v-973h-129v842zM1372 463l31 510h489v-109h-370l-17 -268q47 12 109 12q137 0 229 -86q94 -85 94 -215q0 -143 -98.5 -233t-257.5 -90q-131 0 -246 65l37 111q103 -68 209 -68
q105 0 166 56.5t61 150.5q0 93 -58 147t-163 54q-117 0 -215 -37z" />
    <glyph glyph-name="twofifths" unicode="&#x2156;" horiz-adv-x="2072" 
d="M1497 1446l-790 -1446h-132l789 1446h133zM739 582v-109h-589v94l321 344q133 145 133 271q0 76 -48.5 124t-129.5 48q-97 0 -219 -88l-35 110q127 86 262 86q131 0 215 -78t84 -192q0 -162 -170 -350l-241 -260h417zM1372 463l31 510h489v-109h-370l-17 -268
q47 12 109 12q137 0 229 -86q94 -85 94 -215q0 -143 -98.5 -233t-257.5 -90q-131 0 -246 65l37 111q103 -68 209 -68q105 0 166 56.5t61 150.5q0 93 -58 147t-163 54q-117 0 -215 -37z" />
    <glyph glyph-name="threefifths" unicode="&#x2157;" horiz-adv-x="2072" 
d="M1372 463l31 510h489v-109h-370l-17 -268q47 12 109 12q137 0 229 -86q94 -85 94 -215q0 -143 -98.5 -233t-257.5 -90q-131 0 -246 65l37 111q103 -68 209 -68q105 0 166 56.5t61 150.5q0 93 -58 147t-163 54q-117 0 -215 -37zM295 942v105q146 0 219.5 47t73.5 125
q0 61 -46 98t-120 37q-103 0 -215 -56l-23 107q126 57 246 57q127 0 207 -67.5t80 -173.5q0 -74 -49.5 -136t-130.5 -88q98 -30 155.5 -97t57.5 -157q0 -129 -99 -207.5t-260 -78.5q-132 0 -252 57l29 109q119 -58 225 -58q101 0 164.5 47.5t63.5 126.5q0 91 -85 147
t-241 56zM1497 1446l-790 -1446h-132l789 1446h133z" />
    <glyph glyph-name="fourfifths" unicode="&#x2158;" horiz-adv-x="2072" 
d="M1497 1446l-790 -1446h-132l789 1446h133zM1372 463l31 510h489v-109h-370l-17 -268q47 12 109 12q137 0 229 -86q94 -85 94 -215q0 -143 -98.5 -233t-257.5 -90q-131 0 -246 65l37 111q103 -68 209 -68q105 0 166 56.5t61 150.5q0 93 -58 147t-163 54q-117 0 -215 -37z
M539 1262l-306 -439h306v439zM539 473v242h-443v96l449 635h121v-623h141v-108h-141v-242h-127z" />
    <glyph glyph-name="onesixth" unicode="&#x2159;" horiz-adv-x="2072" 
d="M1497 1446l-790 -1446h-132l789 1446h133zM424 1315l-182 -76l-39 98l254 109h96v-973h-129v842zM1702 881q-115 0 -181 -94.5t-77 -262.5q83 103 209 103q133 0 217 -90q86 -89 86 -228t-88 -233q-89 -92 -232 -92q-151 0 -237 120.5t-86 341.5q0 251 102 397t293 146
q81 0 172 -31l-22 -112q-84 35 -156 35zM1645 520q-144 0 -203 -164q11 -125 61.5 -195.5t134.5 -70.5q87 0 139 60t52 155q0 97 -50 156t-134 59z" />
    <glyph glyph-name="fivesixths" unicode="&#x215a;" horiz-adv-x="2072" 
d="M1497 1446l-790 -1446h-132l789 1446h133zM1702 881q-115 0 -181 -94.5t-77 -262.5q83 103 209 103q133 0 217 -90q86 -89 86 -228t-88 -233q-89 -92 -232 -92q-151 0 -237 120.5t-86 341.5q0 251 102 397t293 146q81 0 172 -31l-22 -112q-84 35 -156 35zM1645 520
q-144 0 -203 -164q11 -125 61.5 -195.5t134.5 -70.5q87 0 139 60t52 155q0 97 -50 156t-134 59zM195 936l30 510h488v-109h-369l-16 -268q46 12 106 12q137 0 232 -86q94 -85 94 -215q0 -143 -100 -233t-259 -90q-124 0 -245 65l39 111q103 -68 206 -68q105 0 167.5 56.5
t62.5 150.5q0 93 -58.5 147t-162.5 54q-117 0 -215 -37z" />
    <glyph glyph-name="oneeighth" unicode="&#x215b;" horiz-adv-x="2072" 
d="M1497 1446l-790 -1446h-132l789 1446h133zM424 1315l-182 -76l-39 98l254 109h96v-973h-129v842zM1923 743q0 -149 -180 -237q207 -86 207 -256q0 -109 -92 -189q-89 -77 -232 -77t-235 77q-91 82 -91 189q0 170 207 256q-178 88 -178 237q0 100 84 172q86 74 213 74
q128 0 211 -74q86 -71 86 -172zM1626 457q-96 -31 -147.5 -84t-51.5 -119q0 -70 56 -116t143 -46t142 46t55 116q0 64 -52 118.5t-145 84.5zM1626 883q-75 0 -123.5 -42.5t-48.5 -105.5q0 -117 172 -178q170 62 170 178q0 62 -48.5 105t-121.5 43z" />
    <glyph glyph-name="threeeighths" unicode="&#x215c;" horiz-adv-x="2072" 
d="M1923 743q0 -149 -180 -237q207 -86 207 -256q0 -109 -92 -189q-89 -77 -232 -77t-235 77q-91 82 -91 189q0 170 207 256q-178 88 -178 237q0 100 84 172q86 74 213 74q128 0 211 -74q86 -71 86 -172zM295 942v105q146 0 219.5 47t73.5 125q0 61 -46 98t-120 37
q-103 0 -215 -56l-23 107q126 57 246 57q127 0 207 -67.5t80 -173.5q0 -74 -49.5 -136t-130.5 -88q98 -30 155.5 -97t57.5 -157q0 -129 -99 -207.5t-260 -78.5q-132 0 -252 57l29 109q119 -58 225 -58q101 0 164.5 47.5t63.5 126.5q0 91 -85 147t-241 56zM1497 1446
l-790 -1446h-132l789 1446h133zM1626 457q-96 -31 -147.5 -84t-51.5 -119q0 -70 56 -116t143 -46t142 46t55 116q0 64 -52 118.5t-145 84.5zM1626 883q-75 0 -123.5 -42.5t-48.5 -105.5q0 -117 172 -178q170 62 170 178q0 62 -48.5 105t-121.5 43z" />
    <glyph glyph-name="fiveeighths" unicode="&#x215d;" horiz-adv-x="2072" 
d="M1497 1446l-790 -1446h-132l789 1446h133zM195 936l30 510h488v-109h-369l-16 -268q46 12 106 12q137 0 232 -86q94 -85 94 -215q0 -143 -100 -233t-259 -90q-124 0 -245 65l39 111q103 -68 206 -68q105 0 167.5 56.5t62.5 150.5q0 93 -58.5 147t-162.5 54
q-117 0 -215 -37zM1923 743q0 -149 -180 -237q207 -86 207 -256q0 -109 -92 -189q-89 -77 -232 -77t-235 77q-91 82 -91 189q0 170 207 256q-178 88 -178 237q0 100 84 172q86 74 213 74q128 0 211 -74q86 -71 86 -172zM1626 457q-96 -31 -147.5 -84t-51.5 -119
q0 -70 56 -116t143 -46t142 46t55 116q0 64 -52 118.5t-145 84.5zM1626 883q-75 0 -123.5 -42.5t-48.5 -105.5q0 -117 172 -178q170 62 170 178q0 62 -48.5 105t-121.5 43z" />
    <glyph glyph-name="seveneighths" unicode="&#x215e;" horiz-adv-x="2072" 
d="M1497 1446l-790 -1446h-132l789 1446h133zM1923 743q0 -149 -180 -237q207 -86 207 -256q0 -109 -92 -189q-89 -77 -232 -77t-235 77q-91 82 -91 189q0 170 207 256q-178 88 -178 237q0 100 84 172q86 74 213 74q128 0 211 -74q86 -71 86 -172zM1626 457
q-96 -31 -147.5 -84t-51.5 -119q0 -70 56 -116t143 -46t142 46t55 116q0 64 -52 118.5t-145 84.5zM1626 883q-75 0 -123.5 -42.5t-48.5 -105.5q0 -117 172 -178q170 62 170 178q0 62 -48.5 105t-121.5 43zM762 1354l-383 -881h-137l383 864h-465v109h602v-92z" />
    <glyph glyph-name="uni215F" unicode="&#x215f;" horiz-adv-x="2072" 
d="M1497 1446l-790 -1446h-132l789 1446h133zM424 1315l-182 -76l-39 98l254 109h96v-973h-129v842z" />
    <glyph glyph-name="arrowleft" unicode="&#x2190;" horiz-adv-x="1802" 
d="M1698 625h-1415l323 -316l-76 -76l-446 447l446 444l76 -75l-323 -316h1415v-108z" />
    <glyph glyph-name="arrowup" unicode="&#x2191;" horiz-adv-x="1802" 
d="M958 -78h-112v1405l-301 -303l-76 74l432 432l432 -432l-76 -74l-299 303v-1405z" />
    <glyph glyph-name="arrowright" unicode="&#x2192;" horiz-adv-x="1802" 
d="M1272 233l-76 76l324 316h-1416v108h1416l-324 316l76 75l446 -444z" />
    <glyph glyph-name="arrowdown" unicode="&#x2193;" horiz-adv-x="1802" 
d="M469 336l76 74l301 -306v1407h112v-1407l299 306l76 -74l-432 -432z" />
    <glyph glyph-name="arrowboth" unicode="&#x2194;" horiz-adv-x="1802" 
d="M1520 625h-1237l323 -316l-76 -76l-446 447l446 444l76 -75l-323 -316h1237l-324 316l76 75l446 -444l-446 -447l-76 76z" />
    <glyph glyph-name="arrowupdn" unicode="&#x2195;" horiz-adv-x="1802" 
d="M469 336l76 74l301 -306v1223l-301 -303l-76 74l432 432l432 -432l-76 -74l-299 303v-1223l299 306l76 -74l-432 -432z" />
    <glyph glyph-name="arrowupdnbse" unicode="&#x21a8;" horiz-adv-x="1802" 
d="M469 336l76 74l301 -306v1223l-301 -303l-76 74l432 432l432 -432l-76 -74l-299 303v-1223l299 306l76 -74l-432 -432zM500 -227v106h803v-106h-803z" />
    <glyph glyph-name="partialdiff" unicode="&#x2202;" horiz-adv-x="1179" 
d="M586 799q-164 0 -258 -117q-97 -117 -97 -287q0 -139 77 -221t214 -82q144 0 245.5 113.5t139.5 322.5q-29 131 -114.5 201t-206.5 70zM557 1356q-112 0 -221 -41l-10 119q115 36 233 36q249 0 378.5 -171t129.5 -472q0 -383 -149 -618q-147 -234 -406 -234
q-191 0 -305 117q-113 119 -113 297q0 219 139 373q138 153 353 153q116 0 208 -55t136 -153q6 67 6 124q0 247 -100 386t-279 139z" />
    <glyph glyph-name="increment" unicode="&#x2206;" horiz-adv-x="1337" 
d="M733 1446l567 -1446h-1261l565 1446h129zM209 115h919l-458 1179z" />
    <glyph glyph-name="product" unicode="&#x220f;" horiz-adv-x="1452" 
d="M190 -248v1755h1072v-1755h-134v1639h-802v-1639h-136z" />
    <glyph glyph-name="summation" unicode="&#x2211;" horiz-adv-x="1398" 
d="M1270 -248h-1125v119l623 774l-623 731v131h1125v-112h-977l608 -709v-78l-608 -743h977v-113z" />
    <glyph glyph-name="minus" unicode="&#x2212;" horiz-adv-x="1214" 
d="M1083 758v-117h-952v117h952z" />
    <glyph glyph-name="uni2215" unicode="&#x2215;" horiz-adv-x="286" 
d="M604 1446l-790 -1446h-131l790 1446h131z" />
    <glyph glyph-name="uni2219" unicode="&#x2219;" horiz-adv-x="587" 
d="M219 588q-31 31 -31 75.5t31 75.5t76 31t76 -31t31 -75.5t-31 -75.5q-31 -29 -76 -29t-76 29z" />
    <glyph glyph-name="radical" unicode="&#x221a;" horiz-adv-x="1153" 
d="M260 500h-182v116h278l217 -708l371 1599h133l-418 -1755h-159z" />
    <glyph glyph-name="infinity" unicode="&#x221e;" horiz-adv-x="1650" 
d="M756 698q-85 101 -151.5 142t-139.5 41q-81 0 -130.5 -50.5t-49.5 -132.5t49 -132t131 -50q74 0 140 40.5t151 141.5zM825 618q-100 -112 -185.5 -161t-182.5 -49q-131 0 -215 81t-84 209q0 130 84 211.5t215 81.5q94 0 181.5 -49.5t186.5 -161.5q99 112 186.5 161.5
t182.5 49.5q131 0 215 -81.5t84 -211.5q0 -128 -84 -209t-215 -81q-97 0 -183.5 49t-185.5 161zM897 698q84 -100 151 -141t138 -41q82 0 131 50t49 132t-49.5 132.5t-130.5 50.5q-71 0 -138 -41.5t-151 -141.5z" />
    <glyph glyph-name="orthogonal" unicode="&#x221f;" horiz-adv-x="1267" 
d="M319 117h883v-117h-1018v1186h135v-1069z" />
    <glyph glyph-name="intersection" unicode="&#x2229;" horiz-adv-x="1429" 
d="M1257 674v-674h-133v674q0 191 -112 315q-110 125 -295 125q-184 0 -297 -125q-111 -126 -111 -315v-674h-135v674q0 241 150 397q151 160 393 160q240 0 391 -160q149 -155 149 -397z" />
    <glyph glyph-name="integral" unicode="&#x222b;" horiz-adv-x="899" 
d="M385 -127v1378q0 131 66 202t194 71q104 0 205 -37l-25 -107q-76 31 -170 31q-139 0 -139 -160v-1378q0 -130 -66 -201t-194 -71q-104 0 -205 37l25 106q73 -31 168 -31q141 0 141 160z" />
    <glyph glyph-name="approxequal" unicode="&#x2248;" horiz-adv-x="1214" 
d="M580 432q-107 88 -181 88q-124 0 -127 -176h-131q1 144 68.5 218.5t187.5 74.5q116 0 240 -100q110 -88 180 -88q125 0 125 178h133q-1 -144 -68.5 -218.5t-187.5 -74.5q-117 0 -239 98zM580 858q-107 88 -181 88q-124 0 -127 -176h-131q1 144 68.5 218.5t187.5 74.5
q116 0 240 -100q112 -89 180 -89q125 0 125 179h133q-1 -144 -68.5 -218.5t-187.5 -74.5q-117 0 -239 98z" />
    <glyph glyph-name="notequal" unicode="&#x2260;" horiz-adv-x="1214" 
d="M537 412l-154 -324h-129l154 324h-265v116h320l162 342h-482v117h537l151 320h130l-152 -320h262v-117h-317l-162 -342h479v-116h-534z" />
    <glyph glyph-name="equivalence" unicode="&#x2261;" horiz-adv-x="1214" 
d="M1073 1143v-117h-930v117h930zM1073 373v-117h-930v117h930zM1073 758v-117h-930v117h930z" />
    <glyph glyph-name="lessequal" unicode="&#x2264;" horiz-adv-x="1214" 
d="M287 852l770 -360v-132l-924 441v104l924 441v-132zM1083 172v-117h-952v117h952z" />
    <glyph glyph-name="greaterequal" unicode="&#x2265;" horiz-adv-x="1214" 
d="M1081 905v-104l-921 -441v132l768 360l-768 362v132zM1083 172v-117h-952v117h952z" />
    <glyph glyph-name="house" unicode="&#x2302;" horiz-adv-x="1413" 
d="M303 111h807v565l-403 446l-404 -446v-565zM1243 711v-711h-1073v711l537 592z" />
    <glyph glyph-name="revlogicalnot" unicode="&#x2310;" horiz-adv-x="1214" 
d="M143 905h949v-117h-813v-428h-136v545z" />
    <glyph glyph-name="uni2318" unicode="&#x2318;" horiz-adv-x="1869" 
d="M492 969h143v137q0 91 -46.5 144t-125.5 53q-74 0 -123 -48t-49 -120q0 -77 56 -121.5t145 -44.5zM1237 1106v-137h143q89 0 145 44.5t56 121.5q0 72 -49.5 120t-124.5 48q-78 0 -124 -53t-46 -144zM1237 862v-342h152q137 0 226 -74.5t89 -197.5q0 -116 -82 -195
q-84 -78 -213 -78q-133 0 -214 81.5t-81 215.5v144h-356v-144q0 -134 -81 -215.5t-214 -81.5q-129 0 -213 78q-82 79 -82 195q0 123 88 197.5t225 74.5h154v342h-154q-134 0 -223 74q-90 78 -90 199q0 118 82.5 195t212.5 77q133 0 214 -81.5t81 -215.5v-141h356v141
q0 134 81 215.5t214 81.5q130 0 212.5 -77t82.5 -195q0 -122 -89 -197.5t-226 -75.5h-152zM758 520h356v342h-356v-342zM635 276v140h-143q-90 0 -145.5 -45t-55.5 -123q0 -72 48.5 -119t123.5 -47q80 0 126 52t46 142zM1380 416h-143v-140q0 -90 46 -142t124 -52
q75 0 124.5 47t49.5 119q0 78 -55.5 123t-145.5 45z" />
    <glyph glyph-name="lozenge" unicode="&#x25ca;" horiz-adv-x="1232" 
d="M233 618l383 -675l385 675l-385 676zM616 1532l529 -914l-529 -913l-528 913z" />
    <glyph glyph-name="H18533" unicode="&#x25cf;" horiz-adv-x="2048" 
d="M514 186q-211 211 -211 508t211 508q213 213 510 213q295 0 508 -213t213 -508t-213 -508q-211 -211 -508 -211q-299 0 -510 211z" />
    <glyph glyph-name="NULL" horiz-adv-x="0" 
 />
    <glyph glyph-name="CR" horiz-adv-x="681" 
 />
    <glyph glyph-name="at.case" horiz-adv-x="1861" 
d="M1327 944l-55 -399q0 -72 39 -112t112 -40q99 0 160.5 97.5t61.5 257.5q0 284 -201 485q-200 203 -502 203q-308 0 -516 -211q-207 -213 -207 -516q0 -306 207 -519q205 -208 522 -208q256 0 461 129l43 -101q-225 -141 -504 -141q-370 0 -612 242t-242 598
q0 355 246 598q244 241 602 241q352 0 588 -233q237 -231 237 -567q0 -218 -96.5 -342.5t-259.5 -124.5q-85 0 -146.5 42t-84.5 115q-132 -147 -338 -147q-132 0 -228 90q-92 92 -92 227q0 218 137 367q139 151 330 151q108 0 197.5 -48.5t140.5 -133.5zM852 406
q182 0 291 139l51 373q-75 96 -207 96q-135 0 -233 -119q-97 -120 -97 -277q0 -94 54 -153t141 -59z" />
    <glyph glyph-name="braceleft.case" horiz-adv-x="659" 
d="M68 664v110q196 15 196 234v325q0 134 77 210.5t208 76.5h55v-117h-53q-70 0 -111 -45.5t-41 -128.5v-334q0 -98 -49 -172.5t-131 -103.5q82 -29 131 -103t49 -172v-333q0 -86 39.5 -131.5t112.5 -45.5h53v-116h-55q-131 0 -208 76t-77 210v326q0 219 -196 234z" />
    <glyph glyph-name="braceright.case" horiz-adv-x="659" 
d="M592 774v-110q-197 -18 -197 -234v-326q0 -134 -76.5 -210t-207.5 -76h-54v116h54q72 0 111.5 45.5t39.5 131.5v333q0 99 48 172.5t130 102.5q-82 29 -130 103t-48 173v334q0 83 -40.5 128.5t-110.5 45.5h-54v117h54q131 0 207.5 -76.5t76.5 -210.5v-325q0 -216 197 -234
z" />
    <glyph glyph-name="bracketleft.case" horiz-adv-x="659" 
d="M596 -66v-116h-377v1802h377v-117h-242v-1569h242z" />
    <glyph glyph-name="bracketright.case" horiz-adv-x="659" 
d="M440 1620v-1802h-377v116h244v1569h-244v117h377z" />
    <glyph glyph-name="bullet.case" horiz-adv-x="923" 
d="M463 987q110 0 186 -76q78 -78 78 -186t-78 -186q-76 -76 -186 -76q-113 0 -189 76q-75 75 -75 186t75 186q76 76 189 76z" />
    <glyph glyph-name="commaaccent" horiz-adv-x="804" 
d="M305 -205q0 41 27.5 66.5t70.5 25.5q49 0 80 -38.5t31 -104.5q0 -86 -51 -160t-135 -116l-45 51q130 68 139 194q-8 -8 -29 -8q-37 0 -62.5 26t-25.5 64z" />
    <glyph glyph-name="eight.denominator" 
d="M743 743q0 -149 -178 -237q205 -85 205 -256q0 -109 -92 -189q-89 -77 -232 -77q-141 0 -233 77q-90 81 -90 189q0 170 207 256q-180 88 -180 237q0 101 83 172q86 74 213 74q128 0 211 -74q86 -71 86 -172zM446 457q-93 -30 -144.5 -84.5t-51.5 -118.5q0 -70 54.5 -116
t141.5 -46t143 46t56 116q0 66 -51.5 119t-147.5 84zM446 883q-73 0 -121.5 -43t-48.5 -105q0 -116 170 -178q170 62 170 178q0 64 -48 106t-122 42z" />
    <glyph glyph-name="eight.numerator" 
d="M743 1217q0 -150 -178 -238q205 -85 205 -256q0 -108 -92 -188q-90 -78 -232 -78q-140 0 -233 78q-90 81 -90 188q0 170 207 256q-180 88 -180 238q0 101 83 172q85 73 213 73q129 0 211 -73q86 -71 86 -172zM446 930q-93 -30 -144.5 -84.5t-51.5 -118.5q0 -70 54.5 -116
t141.5 -46t143 46t56 116q0 66 -51.5 119t-147.5 84zM446 1356q-73 0 -121.5 -43t-48.5 -105q0 -116 170 -178q170 62 170 178q0 64 -48 106t-122 42z" />
    <glyph glyph-name="eight.tnum" horiz-adv-x="1157" 
d="M918 367q0 112 -88.5 200t-249.5 129q-161 -41 -249.5 -129t-88.5 -200q0 -118 94 -197q96 -78 244 -78q147 0 243 78q95 80 95 197zM580 811q297 101 297 295q0 107 -84 178.5t-213 71.5q-128 0 -212.5 -72t-84.5 -178q0 -194 297 -295zM109 358q0 128 90 231.5
t256 164.5q-303 125 -303 364q0 144 122 248t306 104q183 0 305 -104q125 -104 125 -248q0 -238 -305 -364q167 -61 257.5 -164.5t90.5 -231.5q0 -155 -133 -270q-131 -113 -340 -113t-340 113t-131 270z" />
    <glyph glyph-name="emdash.case" horiz-adv-x="2048" 
d="M2048 666h-2048v114h2048v-114z" />
    <glyph glyph-name="endash.case" horiz-adv-x="1024" 
d="M1024 666h-1024v116h1024v-116z" />
    <glyph glyph-name="exclamdown.case" horiz-adv-x="745" 
d="M436 1057l13 -1057h-150l12 1057h125zM375 1470q43 0 72.5 -29.5t29.5 -72.5t-29.5 -72.5t-72.5 -29.5q-64 -4 -90 49t0 106t90 49z" />
    <glyph glyph-name="fi" horiz-adv-x="1191" 
d="M1006 1044v-1044h-132v932h-509v-932h-134v932h-182v112h182v195q0 130 67.5 201t195.5 71q104 0 202 -36l-22 -107q-76 31 -170 31q-139 0 -139 -160v-195h641zM1006 1464q26 -26 26 -65.5t-26 -65.5t-66 -26t-66 26t-26 65.5t26 65.5t66 26t66 -26z" />
    <glyph glyph-name="five.denominator" 
d="M195 463l30 510h488v-109h-369l-16 -268q46 12 106 12q137 0 232 -86q94 -85 94 -215q0 -143 -100 -233t-259 -90q-124 0 -245 65l39 111q103 -68 206 -68q105 0 167.5 56.5t62.5 150.5q0 93 -58.5 147t-162.5 54q-117 0 -215 -37z" />
    <glyph glyph-name="five.numerator" 
d="M195 936l30 510h488v-109h-369l-16 -268q46 12 106 12q137 0 232 -86q94 -85 94 -215q0 -143 -100 -233t-259 -90q-124 0 -245 65l39 111q103 -68 206 -68q105 0 167.5 56.5t62.5 150.5q0 93 -58.5 147t-162.5 54q-117 0 -215 -37z" />
    <glyph glyph-name="five.tnum" horiz-adv-x="1087" 
d="M172 721l45 725h696v-115h-569l-29 -475q79 29 197 29q203 0 334 -125q135 -123 135 -314q0 -211 -143 -342q-141 -129 -375 -129q-186 0 -344 88l41 117q143 -88 303 -88q176 0 280.5 94t104.5 250q0 153 -101.5 244.5t-273.5 91.5q-173 0 -301 -51z" />
    <glyph glyph-name="fl" horiz-adv-x="1193" 
d="M1006 1487v-1487h-132v1309q-159 90 -327 90q-182 0 -182 -180v-175h272v-112h-272v-932h-134v932h-182v112h182v175q0 136 81.5 214t226.5 78q168 0 335 -86v62h132z" />
    <glyph glyph-name="four.denominator" 
d="M539 788l-306 -438h306v438zM539 0v242h-443v96l449 635h121v-623h141v-108h-141v-242h-127z" />
    <glyph glyph-name="four.numerator" 
d="M539 1262l-306 -439h306v439zM539 473v242h-443v96l449 635h121v-623h141v-108h-141v-242h-127z" />
    <glyph glyph-name="four.tnum" horiz-adv-x="1153" 
d="M748 1264l-551 -779h551v779zM748 0v371h-691v116l682 959h142v-961h211v-114h-211v-371h-133z" />
    <glyph glyph-name="guillemotleft.case" horiz-adv-x="1187" 
d="M600 354l-473 314v110l473 314v-138l-350 -231l350 -229v-140zM1063 354l-475 314v110l475 314v-138l-352 -231l352 -229v-140z" />
    <glyph glyph-name="guillemotright.case" horiz-adv-x="1187" 
d="M588 1092l475 -314v-110l-475 -314v140l350 229l-350 231v138zM127 1092l473 -314v-110l-473 -314v140l350 229l-350 231v138z" />
    <glyph glyph-name="guilsinglleft.case" horiz-adv-x="724" 
d="M600 354l-473 314v110l473 314v-138l-350 -231l350 -229v-140z" />
    <glyph glyph-name="guilsinglright.case" horiz-adv-x="724" 
d="M127 1092l473 -314v-110l-473 -314v140l350 229l-350 231v138z" />
    <glyph glyph-name="hyphen.case" horiz-adv-x="841" 
d="M721 782v-118h-598v118h598z" />
    <glyph glyph-name="nine.denominator" 
d="M371 92q115 0 181 95t77 264q-83 -105 -209 -105q-132 0 -219 90q-84 93 -84 230q0 140 88 231q89 92 231 92q151 0 237.5 -121.5t86.5 -341.5q0 -244 -101 -393t-294 -149q-83 0 -172 30l22 113q90 -35 156 -35zM428 455q145 0 203 163q-11 124 -62 194.5t-135 70.5
q-87 0 -138.5 -59t-51.5 -154q0 -97 50 -156t134 -59z" />
    <glyph glyph-name="nine.numerator" 
d="M371 565q115 0 181 95t77 264q-83 -105 -209 -105q-132 0 -219 90q-84 93 -84 230q0 140 88 231q89 92 231 92q151 0 237.5 -121.5t86.5 -341.5q0 -244 -101 -393t-294 -149q-83 0 -172 30l22 113q90 -35 156 -35zM428 928q144 0 203 164q-11 124 -62 194t-135 70
q-87 0 -138.5 -59t-51.5 -154q0 -97 50 -156t134 -59z" />
    <glyph glyph-name="nine.tnum" horiz-adv-x="1142" 
d="M549 649q118 0 207.5 71t136.5 206q-17 208 -102.5 319t-231.5 111q-150 0 -236.5 -98.5t-86.5 -256.5q0 -160 84 -256t229 -96zM461 92q207 0 315 178q109 183 121 473q-126 -211 -362 -211q-191 0 -314 132q-121 133 -121 333q0 204 125 338q126 135 336 135
q222 0 346.5 -178.5t124.5 -507.5q0 -362 -147 -587q-148 -222 -434 -222q-112 0 -230 37l23 119q98 -39 217 -39z" />
    <glyph glyph-name="one.denominator" 
d="M424 842l-182 -76l-39 98l254 109h96v-973h-129v842z" />
    <glyph glyph-name="one.numerator" 
d="M424 1315l-182 -76l-39 98l254 109h96v-973h-129v842z" />
    <glyph glyph-name="one.tnum" horiz-adv-x="835" 
d="M408 1313l-291 -125l-41 106l360 152h107v-1446h-135v1313z" />
    <glyph glyph-name="parenleft.case" horiz-adv-x="659" 
d="M479 1606h115q-275 -411 -275 -901q0 -488 275 -902h-115q-299 388 -299 902q0 513 299 901z" />
    <glyph glyph-name="parenright.case" horiz-adv-x="659" 
d="M182 -197h-116q276 414 276 902q0 490 -276 901h116q297 -388 297 -901q0 -514 -297 -902z" />
    <glyph glyph-name="periodcentered.case" horiz-adv-x="587" 
d="M219 647q-31 31 -31 76t31 76t76 31t76 -31t31 -76t-31 -76q-31 -29 -76 -29t-76 29z" />
    <glyph glyph-name="questiondown.case" horiz-adv-x="1017" 
d="M858 197l39 -113q-174 -109 -344 -109q-179 0 -299 99q-121 103 -121 262q0 228 248 397q75 51 104 106.5t29 143.5v84h133v-90q0 -111 -37 -184t-127 -134q-110 -78 -161.5 -150t-51.5 -165q0 -116 80.5 -184t214.5 -68q149 0 293 105zM582 1266q-64 -4 -90 49t0 106
t90 49q43 0 72.5 -29.5t29.5 -72.5t-29.5 -72.5t-72.5 -29.5z" />
    <glyph glyph-name="seven.denominator" 
d="M762 881l-383 -881h-137l383 864h-465v109h602v-92z" />
    <glyph glyph-name="seven.numerator" 
d="M762 1354l-383 -881h-137l383 864h-465v109h602v-92z" />
    <glyph glyph-name="seven.tnum" horiz-adv-x="1052" 
d="M971 1337l-580 -1337h-147l585 1331h-725v115h867v-109z" />
    <glyph glyph-name="six.denominator" 
d="M522 881q-115 0 -180 -94.5t-76 -262.5q80 103 209 103q133 0 217 -90t84 -228q0 -139 -88 -233q-86 -92 -229 -92q-153 0 -239.5 120.5t-86.5 341.5q0 251 103 397t294 146q81 0 172 -31l-24 -112q-81 35 -156 35zM467 520q-144 0 -203 -164q11 -125 62 -195.5
t135 -70.5q87 0 138.5 60t51.5 155t-50 155t-134 60z" />
    <glyph glyph-name="six.numerator" 
d="M522 1354q-115 0 -180 -94.5t-76 -262.5q80 103 209 103q133 0 217 -90t84 -228q0 -139 -88 -233q-86 -92 -229 -92q-153 0 -239.5 121t-86.5 342q0 251 103 396.5t294 145.5q84 0 172 -30l-24 -113q-81 35 -156 35zM467 993q-144 0 -203 -164q11 -125 62 -195.5
t135 -70.5q87 0 138.5 60t51.5 155t-50 155t-134 60z" />
    <glyph glyph-name="six.tnum" horiz-adv-x="1142" 
d="M596 799q-118 0 -207.5 -71t-136.5 -206q17 -208 103 -320t231 -112q150 0 236.5 97.5t86.5 258.5q0 160 -84 256.5t-229 96.5zM684 1356q-208 0 -315 -180q-109 -180 -121 -474q126 211 362 211q193 0 312 -131q122 -131 122 -331q0 -207 -124 -340q-127 -136 -336 -136
q-222 0 -346.5 179.5t-124.5 509.5q0 364 147 585t434 221q115 0 230 -36l-23 -119q-109 41 -217 41z" />
    <glyph glyph-name="three.denominator" 
d="M295 469v104q146 0 219.5 47t73.5 125q0 61 -46 98.5t-120 37.5q-103 0 -215 -56l-23 107q126 57 246 57q127 0 207 -67.5t80 -173.5q0 -74 -49.5 -136t-130.5 -88q98 -30 155.5 -97t57.5 -157q0 -129 -99 -207.5t-260 -78.5q-132 0 -252 57l29 109q119 -58 225 -58
q101 0 164.5 47.5t63.5 126.5q0 91 -85 147t-241 56z" />
    <glyph glyph-name="three.numerator" 
d="M295 942v105q146 0 219.5 47t73.5 125q0 61 -46 98t-120 37q-103 0 -215 -56l-23 107q126 57 246 57q127 0 207 -67.5t80 -173.5q0 -74 -49.5 -136t-130.5 -88q98 -30 155.5 -97t57.5 -157q0 -129 -99 -207.5t-260 -78.5q-132 0 -252 57l29 109q119 -58 225 -58
q101 0 164.5 47.5t63.5 126.5q0 91 -85 147t-241 56z" />
    <glyph glyph-name="three.tnum" horiz-adv-x="1062" 
d="M307 723v113q229 1 344 80.5t115 207.5q0 104 -81 168t-210 64q-160 0 -311 -74l-21 113q163 75 344 75q178 0 297 -96q117 -95 117 -248q0 -125 -86.5 -220t-236.5 -124q168 -31 271 -137t103 -254q0 -186 -145 -301t-381 -115q-197 0 -352 76l30 115q162 -76 328 -76
q171 0 278 81t107 214q0 151 -133 244.5t-377 93.5z" />
    <glyph glyph-name="two.denominator" 
d="M739 109v-109h-589v94l321 344q133 145 133 271q0 78 -48 125t-130 47q-97 0 -219 -88l-35 110q127 86 262 86q131 0 215 -78t84 -192q0 -162 -170 -350l-241 -260h417z" />
    <glyph glyph-name="two.numerator" 
d="M739 582v-109h-589v94l321 344q133 145 133 271q0 76 -48.5 124t-129.5 48q-97 0 -219 -88l-35 110q127 86 262 86q131 0 215 -78t84 -192q0 -162 -170 -350l-241 -260h417z" />
    <glyph glyph-name="two.tnum" horiz-adv-x="1060" 
d="M938 117v-117h-854v109l489 522q220 240 220 440q0 129 -84 207t-226 78q-161 0 -317 -117l-39 115q168 116 371 116q193 0 309 -110q119 -107 119 -277q0 -252 -254 -524l-414 -442h680z" />
    <glyph glyph-name="zero.denominator" 
d="M596 201q55 110 55 286q0 178 -55 285q-52 111 -150 111q-96 0 -149 -111q-53 -109 -53 -285q0 -174 53 -286q53 -109 149 -109q97 0 150 109zM776 487q0 -229 -88.5 -366t-241.5 -137t-241 137t-88 366q0 226 88 363q89 139 241 139q153 0 242 -139q88 -137 88 -363z
" />
    <glyph glyph-name="zero.numerator" 
d="M596 674q55 110 55 287t-55 284q-52 111 -150 111q-96 0 -149 -111q-53 -109 -53 -284t53 -287q53 -109 149 -109q97 0 150 109zM776 961q0 -229 -88.5 -366.5t-241.5 -137.5q-152 0 -240.5 137.5t-88.5 366.5q0 225 88 362q89 139 241 139q153 0 242 -139
q88 -137 88 -362z" />
    <glyph glyph-name="zero.tnum" horiz-adv-x="1175" 
d="M590 1358q-166 0 -254 -174q-90 -178 -90 -461t90 -461q88 -172 254 -172q164 0 252 172q90 178 90 461t-90 461q-88 174 -252 174zM590 -25q-224 0 -350 203q-127 207 -127 545q0 339 127 543q125 204 350 204q223 0 348 -204q127 -204 127 -543q0 -338 -127 -545
q-126 -203 -348 -203z" />
    </font>
</defs>
</svg>
