<?xml version="1.0" standalone="no"?>
<!DOCTYPE svg PUBLIC "-//W3C//DTD SVG 1.1//EN" "http://www.w3.org/Graphics/SVG/1.1/DTD/svg11.dtd" >
<svg xmlns="http://www.w3.org/2000/svg" xmlns:xlink="http://www.w3.org/1999/xlink" version="1.1">
<metadata>
Created by FontForge 20170731 at Sat Aug  1 23:58:15 2020
 By Aleksey,,,
Copyright (c) 2018 by Grida. All rights reserved. |DCNT
</metadata>
<defs>
<font id="Conamore-Medium" horiz-adv-x="905" >
  <font-face 
    font-family="Conamore Medium"
    font-weight="500"
    font-stretch="normal"
    units-per-em="2048"
    panose-1="2 11 0 0 0 0 0 0 0 0"
    ascent="1581"
    descent="-467"
    x-height="1044"
    cap-height="1446"
    bbox="-905 -571 2222 2034"
    underline-thickness="102"
    underline-position="-358"
    unicode-range="U+0020-FB04"
  />
<missing-glyph horiz-adv-x="1024" 
d="M895 1536v-1536h-764v1536h764zM324 1374v-1212h376v1212h-376z" />
    <glyph glyph-name="f_f" unicode="ff" horiz-adv-x="1417" 
d="M446 1206v-162h463v164q0 145 77.5 224t227.5 79q131 0 252 -47l-36 -178q-93 37 -185 37q-102 0 -102 -117v-162h239v-188h-239v-856h-234v856h-463v-856h-233v856h-176v188h176v164q0 145 77.5 224t227.5 79q132 0 260 -49l-39 -178q-95 39 -190 39q-103 0 -103 -117z
" />
    <glyph glyph-name="f_i" unicode="fi" horiz-adv-x="1298" 
d="M1143 1044v-1044h-234v856h-463v-856h-233v856h-176v188h176v164q0 145 77.5 224t227.5 79q126 0 260 -49l-39 -178q-95 39 -190 39q-103 0 -103 -117v-162h697zM1169 1354q0 -57 -41 -97t-102 -40t-102 40t-41 97q0 60 40.5 99.5t102.5 39.5t102.5 -39.5t40.5 -99.5z
" />
    <glyph glyph-name="f_l" unicode="fl" horiz-adv-x="1298" 
d="M1143 1487v-1487h-234v1253q-152 70 -319 70q-68 0 -104.5 -35.5t-36.5 -99.5v-144h258v-188h-258v-856h-236v856h-176v188h176v144q0 153 91.5 238t258.5 85q175 0 346 -71v47h234z" />
    <glyph glyph-name="f_f_i" unicode="ffi" horiz-adv-x="1992" 
d="M1606 0v856h-463v-856h-234v856h-463v-856h-233v856h-176v188h176v164q0 145 77.5 224t227.5 79q126 0 260 -49l-39 -178q-95 39 -190 39q-103 0 -103 -117v-162h463v164q0 145 77.5 224t227.5 79q127 0 261 -49l-39 -178q-95 39 -191 39q-102 0 -102 -117v-162h696
v-1044h-233zM1864 1354q0 -57 -41 -97t-101 -40q-61 0 -102 40t-41 97q0 60 40.5 99.5t102.5 39.5q60 0 101 -39.5t41 -99.5z" />
    <glyph glyph-name="f_f_l" unicode="ffl" horiz-adv-x="1992" 
d="M1839 1487v-1487h-233v1253q-155 70 -320 70q-68 0 -105.5 -35.5t-37.5 -99.5v-144h260v-188h-260v-856h-234v856h-460v-856h-236v856h-176v188h176v164q0 144 78.5 223.5t226.5 79.5q132 0 260 -49l-37 -178q-95 39 -190 39q-102 0 -102 -117v-162h460v144
q0 153 91.5 238t256.5 85q175 0 349 -71v47h233z" />
    <glyph glyph-name=".notdef" horiz-adv-x="1024" 
d="M895 1536v-1536h-764v1536h764zM324 1374v-1212h376v1212h-376z" />
    <glyph glyph-name=".null" horiz-adv-x="0" 
 />
    <glyph glyph-name="nonmarkingreturn" horiz-adv-x="682" 
 />
    <glyph glyph-name="space" unicode=" " horiz-adv-x="491" 
 />
    <glyph glyph-name="exclam" unicode="!" horiz-adv-x="786" 
d="M283 410l-21 1036h264l-20 -1036h-223zM549 123q0 -62 -44.5 -105t-111.5 -43q-65 0 -109 43t-44 105q0 63 43.5 106t109.5 43q67 0 111.5 -43t44.5 -106z" />
    <glyph glyph-name="quotedbl" unicode="&#x22;" horiz-adv-x="956" 
d="M428 1446l-14 -537h-213l-15 537h242zM770 1446l-14 -537h-213l-15 537h242z" />
    <glyph glyph-name="numbersign" unicode="#" horiz-adv-x="1406" 
d="M1126 1087h193v-190h-219l-51 -346h221v-191h-248l-53 -360h-234l51 360h-272l-51 -360h-236l54 360h-193v191h219l51 346h-221v190h248l53 359h234l-54 -359h275l51 359h236zM864 897h-272l-51 -346h274z" />
    <glyph glyph-name="dollar" unicode="$" horiz-adv-x="1075" 
d="M625 -193h-162v168q-189 9 -365 101l64 203q148 -97 301 -109v506q-357 144 -357 416q0 141 98 242.5t259 127.5v176h162v-170q159 -10 311 -77l-53 -191q-137 64 -258 76v-438q364 -143 364 -439q0 -163 -97.5 -272.5t-266.5 -140.5v-179zM754 383q0 137 -129 219v-409
q129 53 129 190zM342 1092q0 -104 121 -181v349q-121 -47 -121 -168z" />
    <glyph glyph-name="percent" unicode="%" horiz-adv-x="1691" 
d="M1364 1446l-825 -1446h-211l827 1446h209zM770 1090q0 -168 -94 -275q-93 -106 -254 -106q-163 0 -256 106q-94 107 -94 275q0 167 94 274q93 106 256 106q158 0 253 -105.5t95 -274.5zM422 887q63 0 101 56t38 147t-38 146.5t-101 55.5q-65 0 -102 -55t-37 -147
t37 -147.5t102 -55.5zM1620 356q0 -164 -96 -274q-94 -107 -252 -107q-162 0 -256 107t-94 274q0 168 94 275q93 106 256 106q159 0 252 -106q96 -110 96 -275zM1272 154q63 0 101 55.5t38 146.5t-38 147t-101 56q-65 0 -103.5 -55.5t-38.5 -147.5t38.5 -147t103.5 -55z" />
    <glyph glyph-name="ampersand" unicode="&#x26;" horiz-adv-x="1409" 
d="M1022 1151q0 -239 -309 -391l274 -299q69 153 72 354h233q-6 -295 -147 -520l274 -295h-291l-120 135q-186 -160 -424 -160q-227 0 -365 111q-137 113 -137 305q0 249 303 418q-156 178 -156 326q0 145 117 239q119 96 301 96q158 0 268 -90q107 -88 107 -229zM588 162
q158 0 278 123l-346 377q-207 -118 -207 -265q0 -108 76 -171.5t199 -63.5zM461 1126q0 -99 119 -227q211 94 211 229q0 70 -41.5 113t-112.5 43q-74 0 -125 -45t-51 -113z" />
    <glyph glyph-name="quotesingle" unicode="'" horiz-adv-x="612" 
d="M428 1446l-14 -537h-213l-15 537h242z" />
    <glyph glyph-name="parenleft" unicode="(" horiz-adv-x="716" 
d="M674 -287h-207q-145 175 -228 410.5t-83 490.5t83 491t228 411h207q-279 -405 -279 -902q0 -496 279 -901z" />
    <glyph glyph-name="parenright" unicode=")" horiz-adv-x="716" 
d="M45 1516h207q145 -175 228 -411t83 -491t-83 -490.5t-228 -410.5h-207q279 405 279 901q0 497 -279 902z" />
    <glyph glyph-name="asterisk" unicode="*" horiz-adv-x="1222" 
d="M735 229h-246l23 312l-272 -181l-113 201l299 137l-299 138l113 200l272 -180l-23 311h246l-22 -311l270 180l115 -200l-299 -138l299 -137l-115 -201l-270 181z" />
    <glyph glyph-name="plus" unicode="+" horiz-adv-x="1241" 
d="M502 205v397h-389v195h389v397h239v-397h389v-195h-389v-397h-239z" />
    <glyph glyph-name="comma" unicode="," horiz-adv-x="598" 
d="M131 131q0 66 45 109t117 43q77 0 129.5 -62t52.5 -160q0 -118 -71 -220.5t-193 -164.5l-80 84q73 37 121 99.5t55 130.5q-6 -2 -24 -2q-66 0 -109 40t-43 103z" />
    <glyph glyph-name="hyphen" unicode="-" horiz-adv-x="876" 
d="M772 762v-197h-666v197h666z" />
    <glyph glyph-name="period" unicode="." horiz-adv-x="598" 
d="M459 129q0 -63 -46.5 -108.5t-113.5 -45.5t-112.5 45t-45.5 109q0 66 45 110t113 44t114 -44t46 -110z" />
    <glyph glyph-name="slash" unicode="/" horiz-adv-x="880" 
d="M877 1528l-627 -1753h-244l627 1753h244z" />
    <glyph glyph-name="zero" unicode="0" horiz-adv-x="1198" 
d="M88 723q0 341 135 543q137 204 377 204q241 0 375 -204q137 -201 137 -543q0 -339 -137 -543q-135 -205 -375 -205q-239 0 -377 205q-135 206 -135 543zM395 317q74 -151 205 -151q132 0 203 151q74 154 74 406t-74 403q-71 154 -203 154q-131 0 -205 -154
q-71 -151 -71 -403t71 -406z" />
    <glyph glyph-name="one" unicode="1" horiz-adv-x="1198" 
d="M537 1214l-261 -108l-71 180l377 160h192v-1446h-237v1214z" />
    <glyph glyph-name="two" unicode="2" horiz-adv-x="1198" 
d="M1051 195v-195h-924v170l475 494q195 204 195 385q0 105 -66.5 167t-181.5 62q-149 0 -330 -129l-65 184q198 137 419 137q207 0 332 -116q127 -118 127 -289q0 -253 -258 -526l-330 -344h607z" />
    <glyph glyph-name="three" unicode="3" horiz-adv-x="1198" 
d="M338 682v190q224 0 333 62.5t109 167.5q0 79 -63.5 127.5t-167.5 48.5q-164 0 -334 -86l-39 186q195 92 391 92q198 0 324 -102q127 -103 127 -262q0 -112 -69.5 -201t-192.5 -125q141 -37 227 -137.5t86 -232.5q0 -195 -151 -316q-149 -119 -406 -119q-215 0 -399 93
l51 184q188 -84 356 -84q132 0 221 65q90 66 90 170q0 126 -126.5 202.5t-366.5 76.5z" />
    <glyph glyph-name="four" unicode="4" horiz-adv-x="1198" 
d="M711 1120l-412 -581h412v581zM711 0v348h-654v182l658 916h227v-907h201v-191h-201v-348h-231z" />
    <glyph glyph-name="five" unicode="5" horiz-adv-x="1198" 
d="M193 676l45 770h774v-193h-547l-23 -354q62 19 150 19q202 0 344 -130q141 -126 141 -323q0 -220 -151 -356q-152 -134 -398 -134q-208 0 -393 105l66 190q153 -100 327 -100q142 0 228 78t86 203q0 128 -84 202t-230 74q-195 0 -335 -51z" />
    <glyph glyph-name="six" unicode="6" horiz-adv-x="1198" 
d="M623 752q-95 0 -167.5 -56t-107.5 -159q24 -369 268 -369q120 0 188 80t68 213q0 131 -67 211t-182 80zM709 1278q-149 0 -246.5 -122.5t-110.5 -334.5q111 123 289 123q204 0 336 -135q131 -134 131 -342q0 -214 -135 -352q-134 -140 -361 -140q-236 0 -369.5 181
t-133.5 510q0 362 153 583q156 221 459 221q130 0 278 -49l-41 -194q-119 51 -249 51z" />
    <glyph glyph-name="seven" unicode="7" horiz-adv-x="1198" 
d="M1073 1274l-565 -1274h-262l569 1253h-680v193h938v-172z" />
    <glyph glyph-name="eight" unicode="8" horiz-adv-x="1198" 
d="M600 662q-126 -29 -199 -103t-73 -168q0 -99 75.5 -161t196.5 -62t196.5 62t75.5 161q0 94 -73 168t-199 103zM369 1083q0 -155 231 -237q231 82 231 237q0 87 -63.5 141t-167.5 54t-167.5 -54t-63.5 -141zM600 -25q-226 0 -367 117q-141 120 -141 289q0 119 78 219.5
t217 157.5q-252 126 -252 340q0 153 133 262q131 110 332 110t332 -110q133 -109 133 -262q0 -214 -252 -340q137 -57 216 -158t79 -219q0 -168 -143 -287q-140 -119 -365 -119z" />
    <glyph glyph-name="nine" unicode="9" horiz-adv-x="1198" 
d="M578 694q93 0 166 57t108 160q-27 367 -268 367q-120 0 -189 -79.5t-69 -211.5q0 -131 68 -212t184 -81zM492 170q149 0 245 122.5t109 334.5q-108 -123 -287 -123q-206 0 -338 135q-131 134 -131 342q0 211 133 350q136 139 363 139q239 0 371.5 -179.5t132.5 -510.5
q0 -362 -156 -583q-154 -222 -457 -222q-135 0 -278 52l41 194q111 -51 252 -51z" />
    <glyph glyph-name="colon" unicode=":" horiz-adv-x="598" 
d="M459 129q0 -63 -46.5 -108.5t-113.5 -45.5t-112.5 45t-45.5 109q0 66 45 110t113 44t114 -44t46 -110zM459 915q0 -63 -46.5 -108t-113.5 -45t-112.5 44.5t-45.5 108.5q0 66 45 110t113 44t114 -44t46 -110z" />
    <glyph glyph-name="semicolon" unicode=";" horiz-adv-x="598" 
d="M459 915q0 -63 -46.5 -108t-113.5 -45t-112.5 44.5t-45.5 108.5q0 66 45 110t113 44t114 -44t46 -110zM131 131q0 66 45 109t117 43q77 0 129.5 -62t52.5 -160q0 -118 -71 -220.5t-193 -164.5l-80 84q73 37 121 99.5t55 130.5q-6 -2 -24 -2q-66 0 -109 40t-43 103z" />
    <glyph glyph-name="less" unicode="&#x3c;" horiz-adv-x="1241" 
d="M373 698l719 -372v-232l-975 518v172l975 516v-229z" />
    <glyph glyph-name="equal" unicode="=" horiz-adv-x="1241" 
d="M1114 1028v-194h-985v194h985zM1114 563v-194h-985v194h985z" />
    <glyph glyph-name="greater" unicode="&#x3e;" horiz-adv-x="1241" 
d="M1126 612l-974 -518v232l718 372l-718 373v229l974 -516v-172z" />
    <glyph glyph-name="question" unicode="?" horiz-adv-x="1056" 
d="M172 1157l-74 182q192 131 394 131q198 0 325 -106q131 -104 131 -274q0 -228 -250 -404q-66 -47 -90 -93t-24 -126v-64h-240v80q0 117 40.5 193.5t137.5 142.5q97 69 141 128t44 132q0 90 -64 143.5t-170 53.5q-143 0 -301 -119zM618 123q0 -62 -44 -105t-111 -43
q-66 0 -110 43t-44 105q0 63 44 106t110 43q67 0 111 -43t44 -106z" />
    <glyph glyph-name="at" unicode="@" horiz-adv-x="1878" 
d="M1368 856l-53 -377q0 -104 108 -104q76 0 126 82t50 211q0 261 -184 442q-184 184 -465 184q-283 0 -477 -194q-192 -192 -192 -469q0 -283 190 -473q194 -191 483 -191q249 0 471 139l78 -157q-264 -158 -549 -158q-382 0 -630 242t-248 598q0 353 252 596
q255 243 622 243t609 -233q245 -230 245 -561q0 -229 -109.5 -358.5t-295.5 -129.5q-81 0 -144 36.5t-94 99.5q-125 -125 -313 -125q-149 0 -250 94q-100 93 -100 242q0 225 145 376q149 152 352 152q120 0 219 -56.5t154 -150.5zM870 383q144 0 224 102l45 332
q-56 62 -148 62q-110 0 -186 -101q-78 -101 -78 -231q0 -72 40 -118t103 -46z" />
    <glyph glyph-name="A" unicode="A" horiz-adv-x="1361" 
d="M8 0l563 1446h220l563 -1446h-252l-127 346h-590l-125 -346h-252zM453 539h454l-225 622z" />
    <glyph glyph-name="B" unicode="B" horiz-adv-x="1175" 
d="M551 0h-391v1446h372q232 0 361 -111q129 -108 129 -282q0 -92 -50.5 -172.5t-131.5 -122.5q112 -39 179.5 -128t67.5 -208q0 -189 -143 -305q-144 -117 -393 -117zM551 653h-160v-463h160q138 0 219.5 61.5t81.5 170.5t-81.5 170t-219.5 61zM532 1255h-141v-409h141
q118 0 187 54.5t69 150.5q0 92 -70 148t-186 56z" />
    <glyph glyph-name="C" unicode="C" horiz-adv-x="1353" 
d="M76 725q0 334 207 541q207 204 540 204q228 0 414 -92l-53 -190q-172 90 -361 90q-229 0 -368 -154q-140 -155 -140 -399q0 -246 140 -401q139 -154 368 -154q201 0 379 96l55 -192q-203 -99 -434 -99q-332 0 -540 205q-207 207 -207 545z" />
    <glyph glyph-name="D" unicode="D" horiz-adv-x="1368" 
d="M522 1255h-127v-1065h127q267 0 401 137t134 398q0 260 -133.5 395t-401.5 135zM522 0h-362v1446h362q376 0 573 -189.5t197 -531.5q0 -343 -197 -534t-573 -191z" />
    <glyph glyph-name="E" unicode="E" horiz-adv-x="1110" 
d="M999 195v-195h-839v1446h813v-193h-574v-411h506v-193h-506v-454h600z" />
    <glyph glyph-name="F" unicode="F" horiz-adv-x="1032" 
d="M399 649v-649h-239v1446h790v-193h-551v-411h490v-193h-490z" />
    <glyph glyph-name="G" unicode="G" horiz-adv-x="1421" 
d="M823 -25q-332 0 -540 205q-207 207 -207 545q0 334 207 541q207 204 540 204q232 0 422 -96l-53 -190q-178 94 -369 94q-229 0 -368 -154q-140 -155 -140 -399q0 -246 140 -401q139 -154 368 -154q137 0 240 47v367h-332v194h569v-663q-228 -140 -477 -140z" />
    <glyph glyph-name="H" unicode="H" horiz-adv-x="1406" 
d="M399 649v-649h-239v1446h239v-602h611v602h239v-1446h-239v649h-611z" />
    <glyph glyph-name="I" unicode="I" horiz-adv-x="571" 
d="M406 1446v-1446h-238v1446h238z" />
    <glyph glyph-name="J" unicode="J" horiz-adv-x="782" 
d="M391 377v1069h238v-1069q0 -190 -106 -296t-287 -106q-114 0 -216 45l31 185q87 -35 174 -35q79 0 122.5 52t43.5 155z" />
    <glyph glyph-name="K" unicode="K" horiz-adv-x="1290" 
d="M397 666v-666h-237v1446h237v-602l547 602h293l-637 -688l698 -758h-299z" />
    <glyph glyph-name="L" unicode="L" horiz-adv-x="1038" 
d="M985 195v-195h-825v1446h239v-1251h586z" />
    <glyph glyph-name="M" unicode="M" horiz-adv-x="1804" 
d="M1417 0v979l-407 -979h-213l-410 979v-979h-227v1446h268l475 -1151l475 1151h267v-1446h-228z" />
    <glyph glyph-name="N" unicode="N" horiz-adv-x="1445" 
d="M1286 1446v-1446h-264l-639 1106v-1106h-223v1446h264l639 -1104v1104h223z" />
    <glyph glyph-name="O" unicode="O" horiz-adv-x="1523" 
d="M434 322q123 -156 328 -156t325 156q123 156 123 401q0 243 -123 399q-122 158 -325 158t-328 -158q-121 -157 -121 -399q0 -244 121 -401zM1260 186q-187 -211 -498 -211q-313 0 -500 211q-186 210 -186 537q0 324 186 534q189 213 500 213q312 0 498 -210
q188 -212 188 -537t-188 -537z" />
    <glyph glyph-name="P" unicode="P" horiz-adv-x="1144" 
d="M553 578h-158v-578h-235v1446h393q248 0 387 -121q141 -120 141 -313q0 -194 -141 -314q-138 -120 -387 -120zM553 1255h-158v-487h158q138 0 216.5 66.5t78.5 177.5t-78.5 177t-216.5 66z" />
    <glyph glyph-name="Q" unicode="Q" horiz-adv-x="1523" 
d="M762 -25q-313 0 -500 211q-186 210 -186 537q0 324 186 534q189 213 500 213q309 0 498 -213q188 -212 188 -534q0 -253 -119 -442q-118 -192 -323 -265q91 -156 358 -223l-64 -176q-175 39 -315 135q-146 96 -223 223zM1087 1122q-122 158 -325 158t-328 -158
q-121 -157 -121 -399q0 -244 121 -401q123 -156 328 -156t325 156q123 156 123 401q0 243 -123 399z" />
    <glyph glyph-name="R" unicode="R" horiz-adv-x="1165" 
d="M1128 0h-258l-335 612h-142v-612h-233v1446h372q237 0 375 -117q137 -116 137 -301q0 -132 -75 -233.5t-209 -145.5zM532 1255h-139v-454h139q126 0 201.5 63t75.5 164t-75.5 164t-201.5 63z" />
    <glyph glyph-name="S" unicode="S" horiz-adv-x="1075" 
d="M500 -25q-213 0 -402 101l64 203q165 -109 338 -109q115 0 184.5 58t69.5 155q0 94 -60 161t-198 120q-199 76 -294.5 179.5t-95.5 248.5q0 163 130 272q130 106 337 106q189 0 363 -79l-53 -191q-170 78 -308 78q-108 0 -170.5 -50.5t-62.5 -135.5q0 -79 62 -135.5
t212 -116.5q373 -144 373 -441q0 -195 -135 -309q-133 -115 -354 -115z" />
    <glyph glyph-name="T" unicode="T" horiz-adv-x="1171" 
d="M707 1251v-1251h-240v1251h-412v195h1063v-195h-411z" />
    <glyph glyph-name="U" unicode="U" horiz-adv-x="1402" 
d="M702 -25q-251 0 -401 150q-149 149 -149 393v928h239v-928q0 -160 84 -254t227 -94q146 0 229 93.5t83 254.5v928h237v-928q0 -244 -149 -393q-150 -150 -400 -150z" />
    <glyph glyph-name="V" unicode="V" horiz-adv-x="1351" 
d="M573 0l-565 1446h252l416 -1118l416 1118h251l-565 -1446h-205z" />
    <glyph glyph-name="W" unicode="W" horiz-adv-x="1916" 
d="M1470 0h-217l-295 1061l-294 -1061h-218l-438 1446h250l297 -1067l297 1067h215l297 -1067l297 1067h250z" />
    <glyph glyph-name="X" unicode="X" horiz-adv-x="1335" 
d="M1327 0h-276l-383 578l-381 -578h-279l520 760l-465 686h275l330 -502l329 502h277l-465 -686z" />
    <glyph glyph-name="Y" unicode="Y" horiz-adv-x="1327" 
d="M664 823l380 623h277l-537 -838v-608h-239v608l-537 838h277z" />
    <glyph glyph-name="Z" unicode="Z" horiz-adv-x="1200" 
d="M1096 195v-195h-987v178l679 1075h-663v193h944v-178l-680 -1073h707z" />
    <glyph glyph-name="bracketleft" unicode="[" horiz-adv-x="718" 
d="M662 -94v-193h-465v1803h465v-193h-228v-1417h228z" />
    <glyph glyph-name="backslash" unicode="\" horiz-adv-x="880" 
d="M250 1528l627 -1753h-244l-627 1753h244z" />
    <glyph glyph-name="bracketright" unicode="]" horiz-adv-x="718" 
d="M522 1516v-1803h-465v193h228v1417h-228v193h465z" />
    <glyph glyph-name="asciicircum" unicode="^" horiz-adv-x="1224" 
d="M106 664l404 782h205l403 -782h-260l-246 512l-243 -512h-263z" />
    <glyph glyph-name="underscore" unicode="_" horiz-adv-x="1024" 
d="M1024 -369h-1024v195h1024v-195z" />
    <glyph glyph-name="grave" unicode="`" horiz-adv-x="841" 
d="M416 1161l-250 330h262l205 -330h-217z" />
    <glyph glyph-name="a" unicode="a" horiz-adv-x="1038" 
d="M66 274q0 166 143 267q141 100 389 100h74v98q0 67 -39.5 105.5t-108.5 38.5q-159 0 -319 -92l-49 178q190 100 381 100q170 0 266 -86.5t96 -234.5v-463q0 -155 43 -285h-223q-22 56 -31 121q-128 -146 -291 -146q-153 0 -242 81.5t-89 217.5zM426 160q138 0 246 147
v166h-62q-147 0 -233 -54.5t-86 -142.5q0 -116 135 -116z" />
    <glyph glyph-name="b" unicode="b" horiz-adv-x="1142" 
d="M150 82v1405h229v-535q108 117 266 117q188 0 305 -141q119 -140 119 -387q0 -267 -143 -416q-141 -150 -369 -150q-215 0 -407 107zM840 532q0 164 -62.5 257.5t-171.5 93.5q-136 0 -227 -135v-555q79 -31 186 -31q125 0 200 98t75 272z" />
    <glyph glyph-name="c" unicode="c" horiz-adv-x="983" 
d="M594 -25q-240 0 -381 150q-139 151 -139 397q0 247 139 398q140 149 381 149q156 0 313 -65l-59 -181q-128 58 -248 58q-135 0 -214 -98.5t-79 -260.5q0 -161 79 -258.5t214 -97.5q129 0 258 57l60 -178q-149 -70 -324 -70z" />
    <glyph glyph-name="d" unicode="d" horiz-adv-x="1142" 
d="M500 -25q-186 0 -307 142q-117 141 -117 389q0 264 141 414q143 149 371 149q102 0 176 -39v457h231v-1487h-231v98q-102 -123 -264 -123zM539 162q143 0 225 137v545q-87 41 -184 41q-123 0 -199 -100.5t-76 -270.5q0 -165 62.5 -258.5t171.5 -93.5z" />
    <glyph glyph-name="e" unicode="e" horiz-adv-x="1036" 
d="M965 549v-84h-660q7 -139 74 -221t170 -82q141 0 278 67l62 -172q-174 -82 -342 -82q-218 0 -346 152q-125 149 -125 395q0 243 123 393q124 154 333 154q206 0 320 -147q113 -143 113 -373zM313 637h420q-2 108 -58.5 182t-142.5 74q-87 0 -147.5 -72.5t-71.5 -183.5z
" />
    <glyph glyph-name="f" unicode="f" horiz-adv-x="720" 
d="M449 856v-856h-236v856h-176v188h176v164q0 144 78.5 223.5t226.5 79.5q127 0 254 -47l-39 -178q-87 37 -182 37q-102 0 -102 -117v-162h237v-188h-237z" />
    <glyph glyph-name="g" unicode="g" horiz-adv-x="1136" 
d="M995 963v-975q0 -200 -127 -318q-125 -116 -331 -116q-184 0 -338 65l41 184q152 -61 288 -61q109 0 173.5 66t64.5 176v108q-108 -117 -266 -117q-186 0 -307 142q-117 141 -117 389q0 264 141 414q143 149 373 149q215 0 405 -106zM305 516q0 -167 62 -260.5t172 -93.5
q141 0 227 139v551q-79 33 -186 33q-123 0 -199 -99.5t-76 -269.5z" />
    <glyph glyph-name="h" unicode="h" horiz-adv-x="1130" 
d="M383 717v-717h-233v1487h233v-559q126 141 285 141q149 0 243.5 -95.5t94.5 -244.5v-729h-236v711q0 81 -40 125.5t-109 44.5q-124 0 -238 -164z" />
    <glyph glyph-name="i" unicode="i" horiz-adv-x="544" 
d="M389 1044v-1044h-233v1044h233zM416 1354q0 -57 -41.5 -97t-102.5 -40q-60 0 -100.5 40t-40.5 97q0 60 40.5 99.5t100.5 39.5q62 0 103 -39.5t41 -99.5z" />
    <glyph glyph-name="j" unicode="j" horiz-adv-x="544" 
d="M33 -446l-90 172q110 47 161.5 111.5t51.5 156.5v1050h233v-1054q0 -298 -356 -436zM416 1354q0 -57 -41.5 -97t-102.5 -40q-60 0 -100.5 40t-40.5 97q0 60 40.5 99.5t100.5 39.5q62 0 103 -39.5t41 -99.5z" />
    <glyph glyph-name="k" unicode="k" horiz-adv-x="1054" 
d="M383 469v-469h-233v1487h233v-852l356 409h293l-450 -489l493 -555h-297z" />
    <glyph glyph-name="l" unicode="l" horiz-adv-x="544" 
d="M389 1487v-1487h-233v1487h233z" />
    <glyph glyph-name="m" unicode="m" horiz-adv-x="1634" 
d="M377 721v-721h-234v1044h234v-108q115 133 258 133q97 0 169 -44.5t105 -123.5q128 168 293 168q142 0 223.5 -89t81.5 -239v-741h-231v721q0 158 -125 158q-109 0 -209 -158v-721h-233v721q0 158 -123 158q-109 0 -209 -158z" />
    <glyph glyph-name="n" unicode="n" horiz-adv-x="1124" 
d="M377 717v-717h-234v1044h234v-116q126 141 285 141q149 0 243 -95t94 -245v-729h-235v711q0 81 -40.5 125.5t-109.5 44.5q-123 0 -237 -164z" />
    <glyph glyph-name="o" unicode="o" horiz-adv-x="1142" 
d="M573 -25q-223 0 -362 154q-137 152 -137 393t137 393q139 154 362 154q222 0 361 -154q137 -152 137 -393t-137 -393q-139 -154 -361 -154zM573 883q-124 0 -198 -105q-72 -104 -72 -256q0 -151 72 -258q73 -102 198 -102t195 102q74 106 74 258q0 153 -74 256
q-70 105 -195 105z" />
    <glyph glyph-name="p" unicode="p" horiz-adv-x="1142" 
d="M645 1069q188 0 305 -141q119 -140 119 -387q0 -267 -143 -416q-141 -150 -369 -150q-101 0 -178 41v-438h-229v1466h229v-98q102 123 266 123zM604 883q-134 0 -225 -135v-547q87 -41 186 -41q123 0 198 99.5t75 270.5q0 165 -62.5 259t-171.5 94z" />
    <glyph glyph-name="q" unicode="q" horiz-adv-x="1142" 
d="M995 963v-1385h-229v514q-108 -117 -266 -117q-186 0 -307 142q-117 141 -117 389q0 264 141 414q143 149 373 149q215 0 405 -106zM305 516q0 -167 62 -260.5t172 -93.5q141 0 227 139v551q-79 33 -186 33q-123 0 -199 -99.5t-76 -269.5z" />
    <glyph glyph-name="r" unicode="r" horiz-adv-x="731" 
d="M707 1057l-19 -189q-44 13 -100 13q-69 0 -128 -52.5t-83 -138.5v-690h-234v1044h234v-118q37 63 100 103t129 40q58 0 101 -12z" />
    <glyph glyph-name="s" unicode="s" horiz-adv-x="878" 
d="M86 43l37 188q128 -67 280 -67q80 0 127.5 32t47.5 91q0 111 -195 176q-291 94 -291 307q0 136 101 217.5t272 81.5q145 0 293 -59l-41 -185q-148 60 -252 60q-63 0 -104.5 -31t-41.5 -78q0 -76 201 -153q285 -105 285 -332q0 -140 -107 -228t-280 -88q-167 0 -332 68z
" />
    <glyph glyph-name="t" unicode="t" horiz-adv-x="749" 
d="M449 1346v-302h237v-188h-237v-598q0 -92 75 -92t160 33l37 -172q-119 -52 -248 -52q-125 0 -192.5 67.5t-67.5 195.5v618h-176v188h176v302h236z" />
    <glyph glyph-name="u" unicode="u" horiz-adv-x="1124" 
d="M748 328v716h235v-1044h-235v117q-121 -142 -285 -142q-147 0 -242 95q-94 94 -94 245v729h233v-710q0 -79 42 -124.5t110 -45.5q122 0 236 164z" />
    <glyph glyph-name="v" unicode="v" horiz-adv-x="1021" 
d="M754 1044h243l-379 -1044h-215l-378 1044h245l242 -743z" />
    <glyph glyph-name="w" unicode="w" horiz-adv-x="1564" 
d="M469 303l205 741h221l203 -741l200 741h242l-328 -1044h-225l-205 721l-204 -721h-224l-329 1044h241z" />
    <glyph glyph-name="x" unicode="x" horiz-adv-x="1026" 
d="M1004 0h-261l-229 381l-229 -381h-260l354 549l-318 495h258l195 -327l195 327h258l-318 -495z" />
    <glyph glyph-name="y" unicode="y" horiz-adv-x="1021" 
d="M270 1044l246 -729l236 729h245l-405 -1124q-77 -218 -281 -354l-141 149q158 101 217 267l16 53l-378 1009h245z" />
    <glyph glyph-name="z" unicode="z" horiz-adv-x="974" 
d="M903 190v-190h-831v168l530 688h-512v188h797v-167l-533 -687h549z" />
    <glyph glyph-name="braceleft" unicode="{" horiz-adv-x="722" 
d="M322 614q78 -31 122.5 -102t44.5 -164v-311q0 -61 29.5 -96t79.5 -35h70v-193h-62q-167 0 -260.5 83t-93.5 237v295q0 187 -186 196v181q186 9 186 196v295q0 154 93.5 237t260.5 83h62v-193h-70q-50 0 -79.5 -35t-29.5 -96v-309q0 -94 -44.5 -166t-122.5 -103z" />
    <glyph glyph-name="bar" unicode="|" horiz-adv-x="606" 
d="M424 1569v-1966h-240v1966h240z" />
    <glyph glyph-name="braceright" unicode="}" horiz-adv-x="722" 
d="M403 614q-78 31 -122.5 103t-44.5 166v309q0 61 -29.5 96t-79.5 35h-70v193h62q167 0 260.5 -83t93.5 -237v-295q0 -187 186 -196v-181q-186 -9 -186 -196v-295q0 -154 -93.5 -237t-260.5 -83h-62v193h70q50 0 79.5 35t29.5 96v311q0 93 44.5 164t122.5 102z" />
    <glyph glyph-name="asciitilde" unicode="~" horiz-adv-x="1241" 
d="M578 606q-94 82 -152 82q-88 0 -88 -166h-227q0 177 79.5 271t223.5 94q132 0 252 -99q97 -81 151 -81q88 0 88 165h228q0 -177 -80 -270.5t-224 -93.5q-132 0 -251 98z" />
    <glyph glyph-name="uni00A0" unicode="&#xa0;" horiz-adv-x="491" 
 />
    <glyph glyph-name="exclamdown" unicode="&#xa1;" horiz-adv-x="786" 
d="M506 635l20 -1036h-264l21 1036h223zM393 774q-65 0 -109 43t-44 105t43.5 104.5t109.5 42.5q67 0 111.5 -42.5t44.5 -104.5t-44.5 -105t-111.5 -43z" />
    <glyph glyph-name="cent" unicode="&#xa2;" horiz-adv-x="983" 
d="M649 -229h-168v215q-190 32 -298.5 176t-108.5 360t108.5 360.5t298.5 176.5v215h168v-207q125 -9 258 -63l-59 -181q-96 45 -199 54v-709q108 9 209 55l60 -178q-130 -59 -269 -68v-206zM481 190v666q-84 -38 -129 -126t-45 -208t45 -208t129 -124z" />
    <glyph glyph-name="sterling" unicode="&#xa3;" horiz-adv-x="1329" 
d="M287 506v102h-201v166h201v248q0 217 118 332.5t338 115.5q252 0 422 -176l-131 -155q-127 139 -284 139q-109 0 -167.5 -66t-58.5 -190v-248h441v-166h-441v-94q0 -207 -127 -319h828v-195h-1139v168q201 118 201 338z" />
    <glyph glyph-name="currency" unicode="&#xa4;" horiz-adv-x="1429" 
d="M262 973l-190 186l149 154l203 -195q128 82 291 82t291 -82l202 195l150 -154l-191 -186q95 -130 95 -293q0 -164 -95 -297l191 -184l-150 -154l-202 193q-136 -80 -291 -80t-291 80l-203 -193l-149 154l190 184q-94 131 -94 297q0 165 94 293zM395 680q0 -141 92 -236
q96 -96 228 -96q134 0 227 96q92 95 92 236q0 138 -92 233q-94 97 -227 97q-131 0 -228 -97q-92 -95 -92 -233z" />
    <glyph glyph-name="yen" unicode="&#xa5;" horiz-adv-x="1327" 
d="M784 553v-137h402v-158h-402v-258h-239v258h-402v158h402v137h-402v160h336l-471 733h277l379 -623l380 623h277l-471 -733h336v-160h-402z" />
    <glyph glyph-name="brokenbar" unicode="&#xa6;" horiz-adv-x="606" 
d="M184 -225v696h240v-696h-240zM184 733v697h240v-697h-240z" />
    <glyph glyph-name="section" unicode="&#xa7;" horiz-adv-x="1175" 
d="M682 731l-172 76q-137 -52 -137 -180q0 -118 121 -174l170 -78q139 53 139 182q0 118 -121 174zM307 913q-141 102 -141 252q0 137 114.5 221t305.5 84q180 0 387 -92l-78 -188q-178 90 -309 90q-87 0 -135 -30.5t-48 -84.5q0 -89 123 -141l269 -119q241 -107 241 -344
q0 -189 -168 -293q142 -100 142 -250q0 -140 -116 -223.5t-312 -83.5q-179 0 -394 90l78 191q172 -90 318 -90q91 0 139.5 30t48.5 86q0 86 -123 142l-268 119q-242 108 -242 342q0 191 168 292z" />
    <glyph glyph-name="dieresis" unicode="&#xa8;" horiz-adv-x="841" 
d="M242 1475q56 0 92.5 -36.5t36.5 -92.5q0 -54 -37 -90.5t-92 -36.5q-57 0 -93 35.5t-36 91.5t36 92.5t93 36.5zM471 1346q0 56 37 92.5t94 36.5q56 0 92.5 -36.5t36.5 -92.5q0 -54 -37 -90.5t-92 -36.5q-57 0 -94 36.5t-37 90.5z" />
    <glyph glyph-name="copyright" unicode="&#xa9;" horiz-adv-x="1671" 
d="M299 193q-219 219 -219 530t219 530q217 217 537 217q317 0 536 -219q221 -218 221 -528q0 -312 -221 -530q-218 -218 -536 -218q-319 0 -537 218zM213 723q0 -262 180 -442q181 -181 443 -181q261 0 442 181q180 180 180 442t-180 442q-183 183 -442 183
q-260 0 -443 -183q-180 -180 -180 -442zM870 1178q142 0 269 -62l-41 -151q-122 61 -228 61q-123 0 -196.5 -82.5t-73.5 -218.5t73.5 -218.5t196.5 -82.5q109 0 236 68l47 -154q-139 -68 -283 -68q-204 0 -329 125q-127 127 -127 330q0 204 127 328q125 125 329 125z" />
    <glyph glyph-name="ordfeminine" unicode="&#xaa;" horiz-adv-x="980" 
d="M121 829q0 139 123 218q124 81 317 81h41v60q0 44 -27 72t-73 28q-120 0 -266 -82l-48 164q170 92 322 92q141 0 223 -73t82 -193v-307q0 -171 37 -289h-209q-14 35 -20 82q-100 -100 -224 -100q-129 0 -203.5 66t-74.5 181zM424 754q98 0 178 108v107h-39
q-105 0 -169 -38.5t-64 -99.5q0 -77 94 -77z" />
    <glyph glyph-name="guillemotleft" unicode="&#xab;" horiz-adv-x="1236" 
d="M1124 121l-493 317v174l493 316v-226l-299 -178l299 -178v-225zM608 121l-493 317v174l493 316v-226l-299 -178l299 -178v-225z" />
    <glyph glyph-name="logicalnot" unicode="&#xac;" horiz-adv-x="1241" 
d="M870 739h-745v195h983v-594h-238v399z" />
    <glyph glyph-name="uni00AD" unicode="&#xad;" horiz-adv-x="876" 
d="M772 762v-197h-666v197h666z" />
    <glyph glyph-name="registered" unicode="&#xae;" horiz-adv-x="1671" 
d="M756 643v-358h-178v878h237q148 0 235 -71.5t87 -188.5q0 -167 -162 -231l221 -387h-195l-196 358h-49zM815 1020h-59v-236h59q65 0 104 33.5t39 85.5t-39 84.5t-104 32.5zM299 193q-219 219 -219 530t219 530q217 217 537 217q317 0 536 -219q221 -218 221 -528
q0 -312 -221 -530q-218 -218 -536 -218q-319 0 -537 218zM1458 723q0 262 -180 442q-183 183 -442 183q-260 0 -443 -183q-180 -180 -180 -442t180 -442q181 -181 443 -181q261 0 442 181q180 180 180 442z" />
    <glyph glyph-name="overscore" unicode="&#xaf;" horiz-adv-x="841" 
d="M733 1260h-622v174h622v-174z" />
    <glyph glyph-name="degree" unicode="&#xb0;" horiz-adv-x="806" 
d="M203 1008q-82 79 -82 192q0 115 82 191q82 79 203 79t200 -79q82 -76 82 -191q0 -113 -82 -192q-80 -80 -200 -80t-203 80zM289 1200q0 -51 33 -84t84 -33q50 0 82 33t32 84q0 50 -32.5 82.5t-81.5 32.5q-51 0 -84 -32.5t-33 -82.5z" />
    <glyph glyph-name="plusminus" unicode="&#xb1;" horiz-adv-x="1241" 
d="M502 334v391h-389v195h389v389h239v-389h389v-195h-389v-391h-239zM1130 231v-194h-1017v194h1017z" />
    <glyph glyph-name="twosuperior" unicode="&#xb2;" 
d="M772 639v-166h-643v137l311 326q117 123 117 231q0 58 -35.5 93.5t-97.5 35.5q-88 0 -225 -98l-56 164q147 100 297 100q144 0 232 -82q90 -84 90 -200q0 -173 -174 -353l-180 -188h364z" />
    <glyph glyph-name="threesuperior" unicode="&#xb3;" 
d="M268 909v164q281 0 281 129q0 43 -33.5 68.5t-89.5 25.5q-98 0 -231 -65l-35 160q148 71 278 71q140 0 228 -72t88 -188q0 -62 -39.5 -119.5t-106.5 -87.5q82 -32 130 -96t48 -143q0 -136 -103.5 -217.5t-279.5 -81.5q-155 0 -284 69l43 160q135 -63 244 -63q78 0 127 37
t49 94q0 70 -80.5 112.5t-233.5 42.5z" />
    <glyph glyph-name="acute" unicode="&#xb4;" horiz-adv-x="841" 
d="M211 1161l205 330h260l-248 -330h-217z" />
    <glyph glyph-name="mu" unicode="&#xb5;" horiz-adv-x="1148" 
d="M383 27v-449h-233v1466h233v-808q46 -70 147 -70q139 0 244 164v714h234v-1044h-234v115q-107 -140 -246 -140q-90 0 -145 52z" />
    <glyph glyph-name="paragraph" unicode="&#xb6;" horiz-adv-x="1275" 
d="M813 -352h-178v876q-242 3 -389 123q-148 121 -148 340q0 210 148 334q146 125 375 125h473v-1798h-176v1638h-105v-1638z" />
    <glyph glyph-name="middot" unicode="&#xb7;" horiz-adv-x="598" 
d="M459 664q0 -63 -46.5 -108.5t-113.5 -45.5t-112.5 45t-45.5 109q0 66 45 109.5t113 43.5t114 -43.5t46 -109.5z" />
    <glyph glyph-name="cedilla" unicode="&#xb8;" horiz-adv-x="841" 
d="M184 -455l31 131q70 -28 139 -28q43 0 70 20t27 51q0 93 -187 93l74 188h190l-51 -104q73 -13 115.5 -62t42.5 -117q0 -94 -71 -150t-197 -56q-105 0 -183 34z" />
    <glyph glyph-name="onesuperior" unicode="&#xb9;" 
d="M389 1243l-156 -65l-63 155l266 113h158v-973h-205v770z" />
    <glyph glyph-name="ordmasculine" unicode="&#xba;" horiz-adv-x="980" 
d="M791 702q-111 -120 -299 -120t-302 120q-110 122 -110 320t110 317q114 123 302 123t299 -123q112 -118 112 -317t-112 -320zM492 1288q-92 0 -144.5 -73.5t-52.5 -192.5t52.5 -192.5t144.5 -73.5q91 0 143.5 73.5t52.5 192.5t-52.5 192.5t-143.5 73.5z" />
    <glyph glyph-name="guillemotright" unicode="&#xbb;" horiz-adv-x="1236" 
d="M115 928l493 -316v-174l-493 -317v225l299 178l-299 178v226zM631 928l493 -316v-174l-493 -317v225l299 178l-299 178v226z" />
    <glyph glyph-name="onequarter" unicode="&#xbc;" horiz-adv-x="2097" 
d="M1538 1446l-782 -1446h-199l782 1446h199zM389 1243l-156 -65l-63 155l266 113h158v-973h-205v770zM1692 682l-205 -293h205v293zM1692 0v223h-420v144l432 606h186v-584h131v-166h-131v-223h-198z" />
    <glyph glyph-name="onehalf" unicode="&#xbd;" horiz-adv-x="2097" 
d="M1538 1446l-782 -1446h-199l782 1446h199zM389 1243l-156 -65l-63 155l266 113h158v-973h-205v770zM1964 166v-166h-645v137l313 326q117 123 117 231q0 58 -36 93.5t-97 35.5q-84 0 -227 -98l-56 164q147 100 297 100q141 0 231.5 -81t90.5 -201q0 -169 -172 -353
l-181 -188h365z" />
    <glyph glyph-name="threequarters" unicode="&#xbe;" horiz-adv-x="2097" 
d="M1538 1446l-782 -1446h-199l782 1446h199zM1692 682l-205 -293h205v293zM1692 0v223h-420v144l432 606h186v-584h131v-166h-131v-223h-198zM268 909v164q281 0 281 129q0 43 -33.5 68.5t-89.5 25.5q-98 0 -231 -65l-35 160q148 71 278 71q140 0 228 -72t88 -188
q0 -62 -39.5 -119.5t-106.5 -87.5q82 -32 130 -96t48 -143q0 -136 -103.5 -217.5t-279.5 -81.5q-155 0 -284 69l43 160q135 -63 244 -63q78 0 127 37t49 94q0 70 -80.5 112.5t-233.5 42.5z" />
    <glyph glyph-name="questiondown" unicode="&#xbf;" horiz-adv-x="1056" 
d="M883 -113l73 -182q-192 -131 -393 -131q-196 0 -327 107q-130 109 -130 274q0 229 250 405q66 47 90.5 93.5t24.5 124.5v65h238v-80q0 -117 -40 -193.5t-137 -142.5q-98 -69 -141 -128t-43 -134q0 -90 64 -143t170 -53q140 0 301 118zM436 922q0 63 44 106t110 43
t110.5 -43t44.5 -106q0 -62 -44.5 -105t-110.5 -43t-110 43t-44 105z" />
    <glyph glyph-name="Agrave" unicode="&#xc0;" horiz-adv-x="1361" 
d="M8 0l563 1446h220l563 -1446h-252l-127 346h-590l-125 -346h-252zM453 539h454l-225 622zM588 1567l-248 329h260l205 -329h-217z" />
    <glyph glyph-name="Aacute" unicode="&#xc1;" horiz-adv-x="1361" 
d="M8 0l563 1446h220l563 -1446h-252l-127 346h-590l-125 -346h-252zM453 539h454l-225 622zM559 1567l205 329h260l-248 -329h-217z" />
    <glyph glyph-name="Acircumflex" unicode="&#xc2;" horiz-adv-x="1361" 
d="M8 0l563 1446h220l563 -1446h-252l-127 346h-590l-125 -346h-252zM453 539h454l-225 622zM295 1569l270 323h236l270 -323h-221l-168 182l-168 -182h-219z" />
    <glyph glyph-name="Atilde" unicode="&#xc3;" horiz-adv-x="1361" 
d="M8 0l563 1446h220l563 -1446h-252l-127 346h-590l-125 -346h-252zM453 539h454l-225 622zM813 1583q-91 0 -164 64q-55 49 -84 49q-43 0 -43 -103h-184q0 124 55.5 193t155.5 69q89 0 164 -63q58 -49 84 -49q43 0 43 102h184q0 -124 -55.5 -193t-155.5 -69z" />
    <glyph glyph-name="Adieresis" unicode="&#xc4;" horiz-adv-x="1361" 
d="M8 0l563 1446h220l563 -1446h-252l-127 346h-590l-125 -346h-252zM453 539h454l-225 622zM631 1718q0 -56 -36.5 -92.5t-92.5 -36.5q-42 -4 -74.5 20t-45.5 59t-6.5 75t34.5 65q27 29 67 35t74.5 -8t58.5 -45.5t21 -71.5zM731 1718q0 54 37 90.5t94 36.5q55 0 92 -36.5
t37 -90.5q0 -56 -36.5 -92.5t-92.5 -36.5q-57 0 -94 36.5t-37 92.5z" />
    <glyph glyph-name="Aring" unicode="&#xc5;" horiz-adv-x="1361" 
d="M8 0l563 1446h220l563 -1446h-252l-127 346h-590l-125 -346h-252zM453 539h454l-225 622zM682 1960q103 0 173.5 -64.5t70.5 -162.5t-70.5 -163t-173.5 -65q-105 0 -175.5 65t-70.5 163t70.5 162.5t175.5 64.5zM682 1649q35 0 60.5 24.5t25.5 59.5t-25.5 59.5t-60.5 24.5
q-37 0 -61.5 -24.5t-24.5 -59.5t24.5 -59.5t61.5 -24.5z" />
    <glyph glyph-name="AE" unicode="&#xc6;" horiz-adv-x="1820" 
d="M874 0v346h-421l-177 -346h-268l785 1446h893v-193h-576v-411h508v-193h-508v-454h602v-195h-838zM874 537v630l-323 -630h323z" />
    <glyph glyph-name="Ccedilla" unicode="&#xc7;" horiz-adv-x="1353" 
d="M547 -455l31 131q70 -28 139 -28q42 0 69 20t27 51q0 93 -186 93l67 172q-282 41 -450 239t-168 502q0 334 207 541q207 204 540 204q228 0 414 -92l-53 -190q-172 90 -361 90q-229 0 -368 -154q-140 -155 -140 -399q0 -246 140 -401q139 -154 368 -154q201 0 379 96
l55 -192q-176 -85 -376 -97l-41 -81q73 -13 115 -62t42 -117q0 -94 -71 -150t-197 -56q-104 0 -182 34z" />
    <glyph glyph-name="Egrave" unicode="&#xc8;" horiz-adv-x="1110" 
d="M999 195v-195h-839v1446h813v-193h-574v-411h506v-193h-506v-454h600zM469 1567l-248 329h260l205 -329h-217z" />
    <glyph glyph-name="Eacute" unicode="&#xc9;" horiz-adv-x="1110" 
d="M999 195v-195h-839v1446h813v-193h-574v-411h506v-193h-506v-454h600zM420 1567l205 329h262l-250 -329h-217z" />
    <glyph glyph-name="Ecircumflex" unicode="&#xca;" horiz-adv-x="1110" 
d="M999 195v-195h-839v1446h813v-193h-574v-411h506v-193h-506v-454h600zM172 1569l270 323h236l270 -323h-219l-168 182l-168 -182h-221z" />
    <glyph glyph-name="Edieresis" unicode="&#xcb;" horiz-adv-x="1110" 
d="M999 195v-195h-839v1446h813v-193h-574v-411h506v-193h-506v-454h600zM256 1718q0 54 37 90.5t92 36.5q57 0 94 -36.5t37 -90.5q0 -56 -37 -92.5t-94 -36.5q-55 0 -92 36.5t-37 92.5zM616 1718q0 54 37 90.5t92 36.5t92 -36.5t37 -90.5q0 -56 -37 -92.5t-92 -36.5
t-92 36.5t-37 92.5z" />
    <glyph glyph-name="Igrave" unicode="&#xcc;" horiz-adv-x="571" 
d="M406 1446v-1446h-238v1446h238zM188 1567l-249 329h262l205 -329h-218z" />
    <glyph glyph-name="Iacute" unicode="&#xcd;" horiz-adv-x="571" 
d="M406 1446v-1446h-238v1446h238zM168 1567l205 329h260l-248 -329h-217z" />
    <glyph glyph-name="Icircumflex" unicode="&#xce;" horiz-adv-x="571" 
d="M406 1446v-1446h-238v1446h238zM-100 1569l270 323h236l270 -323h-219l-168 182l-168 -182h-221z" />
    <glyph glyph-name="Idieresis" unicode="&#xcf;" horiz-adv-x="571" 
d="M406 1446v-1446h-238v1446h238zM-25 1718q0 54 37 90.5t94 36.5q55 0 92.5 -36.5t37.5 -90.5q0 -55 -37 -92t-93 -37q-57 0 -94 36.5t-37 92.5zM336 1718q0 54 37 90.5t94 36.5q55 0 92 -36.5t37 -90.5q0 -56 -37 -92.5t-92 -36.5q-57 0 -94 36.5t-37 92.5z" />
    <glyph glyph-name="Eth" unicode="&#xd0;" horiz-adv-x="1484" 
d="M653 0h-362v627h-221v170h221v649h362q376 0 573 -189t197 -532t-197 -534t-573 -191zM653 1255h-127v-458h346v-170h-346v-437h127q267 0 401 137t134 398q0 259 -134 394.5t-401 135.5z" />
    <glyph glyph-name="Ntilde" unicode="&#xd1;" horiz-adv-x="1445" 
d="M1286 1446v-1446h-264l-639 1106v-1106h-223v1446h264l639 -1104v1104h223zM856 1583q-91 0 -164 64q-58 49 -84 49q-43 0 -43 -103h-184q0 124 55.5 193t155.5 69q86 0 164 -63q55 -49 84 -49q43 0 43 102h184q0 -124 -55.5 -193t-155.5 -69z" />
    <glyph glyph-name="Ograve" unicode="&#xd2;" horiz-adv-x="1523" 
d="M434 322q123 -156 328 -156t325 156q123 156 123 401q0 243 -123 399q-122 158 -325 158t-328 -158q-121 -157 -121 -399q0 -244 121 -401zM1260 186q-187 -211 -498 -211q-313 0 -500 211q-186 210 -186 537q0 324 186 534q189 213 500 213q312 0 498 -210
q188 -212 188 -537t-188 -537zM676 1567l-248 329h260l205 -329h-217z" />
    <glyph glyph-name="Oacute" unicode="&#xd3;" horiz-adv-x="1523" 
d="M434 322q123 -156 328 -156t325 156q123 156 123 401q0 243 -123 399q-122 158 -325 158t-328 -158q-121 -157 -121 -399q0 -244 121 -401zM1260 186q-187 -211 -498 -211q-313 0 -500 211q-186 210 -186 537q0 324 186 534q189 213 500 213q312 0 498 -210
q188 -212 188 -537t-188 -537zM633 1567l205 329h260l-248 -329h-217z" />
    <glyph glyph-name="Ocircumflex" unicode="&#xd4;" horiz-adv-x="1523" 
d="M434 322q123 -156 328 -156t325 156q123 156 123 401q0 243 -123 399q-122 158 -325 158t-328 -158q-121 -157 -121 -399q0 -244 121 -401zM1260 186q-187 -211 -498 -211q-313 0 -500 211q-186 210 -186 537q0 324 186 534q189 213 500 213q312 0 498 -210
q188 -212 188 -537t-188 -537zM375 1569l270 323h236l270 -323h-221l-168 182l-168 -182h-219z" />
    <glyph glyph-name="Otilde" unicode="&#xd5;" horiz-adv-x="1523" 
d="M434 322q123 -156 328 -156t325 156q123 156 123 401q0 243 -123 399q-122 158 -325 158t-328 -158q-121 -157 -121 -399q0 -244 121 -401zM1260 186q-187 -211 -498 -211q-313 0 -500 211q-186 210 -186 537q0 324 186 534q189 213 500 213q312 0 498 -210
q188 -212 188 -537t-188 -537zM893 1583q-91 0 -164 64q-55 49 -84 49q-43 0 -43 -103h-184q0 124 55.5 193t155.5 69q89 0 164 -63q58 -49 84 -49q43 0 43 102h184q0 -124 -55.5 -193t-155.5 -69z" />
    <glyph glyph-name="Odieresis" unicode="&#xd6;" horiz-adv-x="1523" 
d="M434 322q123 -156 328 -156t325 156q123 156 123 401q0 243 -123 399q-122 158 -325 158t-328 -158q-121 -157 -121 -399q0 -244 121 -401zM1260 186q-187 -211 -498 -211q-313 0 -500 211q-186 210 -186 537q0 324 186 534q189 213 500 213q312 0 498 -210
q188 -212 188 -537t-188 -537zM582 1845q55 0 92 -36.5t37 -90.5q0 -56 -36.5 -92.5t-92.5 -36.5q-57 0 -93 36.5t-36 92.5t36 91.5t93 35.5zM811 1718q0 54 37 90.5t94 36.5q55 0 92 -36.5t37 -90.5q0 -56 -36.5 -92.5t-92.5 -36.5q-57 0 -94 36.5t-37 92.5z" />
    <glyph glyph-name="multiply" unicode="&#xd7;" horiz-adv-x="1241" 
d="M954 221l-331 328l-334 -328l-150 152l330 325l-330 328l150 150l334 -328l331 328l150 -150l-330 -328l330 -325z" />
    <glyph glyph-name="Oslash" unicode="&#xd8;" horiz-adv-x="1523" 
d="M762 -25q-184 0 -332 80l-98 -157h-185l156 247q-227 211 -227 578q0 324 186 534q189 213 500 213q186 0 332 -79l100 157h184l-157 -248q227 -211 227 -577q0 -325 -188 -537q-187 -211 -498 -211zM313 723q0 -235 111 -385l559 881q-94 61 -221 61q-203 0 -328 -158
q-121 -157 -121 -399zM762 166q205 0 325 156q123 156 123 401q0 232 -110 387l-559 -883q94 -61 221 -61z" />
    <glyph glyph-name="Ugrave" unicode="&#xd9;" horiz-adv-x="1402" 
d="M702 -25q-251 0 -401 150q-149 149 -149 393v928h239v-928q0 -160 84 -254t227 -94q146 0 229 93.5t83 254.5v928h237v-928q0 -244 -149 -393q-150 -150 -400 -150zM614 1567l-249 329h262l204 -329h-217z" />
    <glyph glyph-name="Uacute" unicode="&#xda;" horiz-adv-x="1402" 
d="M702 -25q-251 0 -401 150q-149 149 -149 393v928h239v-928q0 -160 84 -254t227 -94q146 0 229 93.5t83 254.5v928h237v-928q0 -244 -149 -393q-150 -150 -400 -150zM580 1567l204 329h260l-247 -329h-217z" />
    <glyph glyph-name="Ucircumflex" unicode="&#xdb;" horiz-adv-x="1402" 
d="M702 -25q-251 0 -401 150q-149 149 -149 393v928h239v-928q0 -160 84 -254t227 -94q146 0 229 93.5t83 254.5v928h237v-928q0 -244 -149 -393q-150 -150 -400 -150zM315 1569l271 323h235l271 -323h-222l-168 182l-167 -182h-220z" />
    <glyph glyph-name="Udieresis" unicode="&#xdc;" horiz-adv-x="1402" 
d="M702 -25q-251 0 -401 150q-149 149 -149 393v928h239v-928q0 -160 84 -254t227 -94q146 0 229 93.5t83 254.5v928h237v-928q0 -244 -149 -393q-150 -150 -400 -150zM651 1718q0 -56 -36.5 -92.5t-92.5 -36.5q-42 -4 -74.5 20t-45.5 59t-6.5 75t34.5 65q27 29 67 35
t74.5 -8t58.5 -45.5t21 -71.5zM752 1718q0 54 37 90.5t94 36.5q55 0 92 -36.5t37 -90.5q0 -56 -37 -92.5t-92 -36.5q-57 0 -94 36.5t-37 92.5z" />
    <glyph glyph-name="Yacute" unicode="&#xdd;" horiz-adv-x="1327" 
d="M664 823l380 623h277l-537 -838v-608h-239v608l-537 838h277zM535 1567l204 329h262l-249 -329h-217z" />
    <glyph glyph-name="Thorn" unicode="&#xde;" horiz-adv-x="1144" 
d="M553 297h-158v-297h-235v1446h235v-279h158q249 0 387 -120q141 -120 141 -314q0 -192 -141 -315q-139 -121 -387 -121zM553 977h-158v-490h158q140 0 217.5 66t77.5 180q0 111 -78.5 177.5t-216.5 66.5z" />
    <glyph glyph-name="germandbls" unicode="&#xdf;" horiz-adv-x="1169" 
d="M504 659v189q130 1 204 66.5t74 175.5q0 85 -54 137.5t-144 52.5q-199 0 -199 -246v-1034h-233v1034q0 209 117.5 322.5t314.5 113.5q191 0 311 -108q121 -109 121 -270q0 -109 -57.5 -195.5t-161.5 -130.5q135 -42 209.5 -145.5t74.5 -241.5q0 -176 -110 -289
q-112 -115 -295 -115q-126 0 -227 52l28 196q68 -43 135 -53t118.5 10.5t83.5 72.5t32 126q0 124 -92.5 201.5t-249.5 78.5z" />
    <glyph glyph-name="agrave" unicode="&#xe0;" horiz-adv-x="1038" 
d="M66 274q0 166 143 267q141 100 389 100h74v98q0 67 -39.5 105.5t-108.5 38.5q-159 0 -319 -92l-49 178q190 100 381 100q170 0 266 -86.5t96 -234.5v-463q0 -155 43 -285h-223q-22 56 -31 121q-128 -146 -291 -146q-153 0 -242 81.5t-89 217.5zM426 160q138 0 246 147
v166h-62q-147 0 -233 -54.5t-86 -142.5q0 -116 135 -116zM418 1186l-250 330h262l205 -330h-217z" />
    <glyph glyph-name="aacute" unicode="&#xe1;" horiz-adv-x="1038" 
d="M66 274q0 166 143 267q141 100 389 100h74v98q0 67 -39.5 105.5t-108.5 38.5q-159 0 -319 -92l-49 178q190 100 381 100q170 0 266 -86.5t96 -234.5v-463q0 -155 43 -285h-223q-22 56 -31 121q-128 -146 -291 -146q-153 0 -242 81.5t-89 217.5zM426 160q138 0 246 147
v166h-62q-147 0 -233 -54.5t-86 -142.5q0 -116 135 -116zM371 1186l204 330h263l-250 -330h-217z" />
    <glyph glyph-name="acircumflex" unicode="&#xe2;" horiz-adv-x="1038" 
d="M66 274q0 166 143 267q141 100 389 100h74v98q0 67 -39.5 105.5t-108.5 38.5q-159 0 -319 -92l-49 178q190 100 381 100q170 0 266 -86.5t96 -234.5v-463q0 -155 43 -285h-223q-22 56 -31 121q-128 -146 -291 -146q-153 0 -242 81.5t-89 217.5zM426 160q138 0 246 147
v166h-62q-147 0 -233 -54.5t-86 -142.5q0 -116 135 -116zM127 1188l270 323h236l270 -323h-221l-168 182l-168 -182h-219z" />
    <glyph glyph-name="atilde" unicode="&#xe3;" horiz-adv-x="1038" 
d="M66 274q0 166 143 267q141 100 389 100h74v98q0 67 -39.5 105.5t-108.5 38.5q-159 0 -319 -92l-49 178q190 100 381 100q170 0 266 -86.5t96 -234.5v-463q0 -155 43 -285h-223q-22 56 -31 121q-128 -146 -291 -146q-153 0 -242 81.5t-89 217.5zM426 160q138 0 246 147
v166h-62q-147 0 -233 -54.5t-86 -142.5q0 -116 135 -116zM645 1204q-91 0 -164 64q-58 49 -84 49q-43 0 -43 -105h-184q0 124 55.5 193.5t155.5 69.5q88 0 164 -64q55 -49 84 -49q43 0 43 104h184q0 -124 -55.5 -193t-155.5 -69z" />
    <glyph glyph-name="adieresis" unicode="&#xe4;" horiz-adv-x="1038" 
d="M66 274q0 166 143 267q141 100 389 100h74v98q0 67 -39.5 105.5t-108.5 38.5q-159 0 -319 -92l-49 178q190 100 381 100q170 0 266 -86.5t96 -234.5v-463q0 -155 43 -285h-223q-22 56 -31 121q-128 -146 -291 -146q-153 0 -242 81.5t-89 217.5zM426 160q138 0 246 147
v166h-62q-147 0 -233 -54.5t-86 -142.5q0 -116 135 -116zM336 1466q56 0 92.5 -37t36.5 -92q0 -54 -37 -90.5t-92 -36.5q-57 0 -93 35.5t-36 91.5t36 92.5t93 36.5zM565 1337q0 56 37 92.5t94 36.5q56 0 92.5 -37t36.5 -92q0 -54 -37 -90.5t-92 -36.5q-57 0 -94 36.5
t-37 90.5z" />
    <glyph glyph-name="aring" unicode="&#xe5;" horiz-adv-x="1038" 
d="M66 274q0 166 143 267q141 100 389 100h74v98q0 67 -39.5 105.5t-108.5 38.5q-159 0 -319 -92l-49 178q190 100 381 100q170 0 266 -86.5t96 -234.5v-463q0 -155 43 -285h-223q-22 56 -31 121q-128 -146 -291 -146q-153 0 -242 81.5t-89 217.5zM426 160q138 0 246 147
v166h-62q-147 0 -233 -54.5t-86 -142.5q0 -116 135 -116zM498 1579q105 0 175 -64.5t70 -162.5t-70 -163t-175 -65q-103 0 -173.5 65t-70.5 163t70.5 162.5t173.5 64.5zM498 1268q37 0 61.5 24.5t24.5 59.5t-24.5 59.5t-61.5 24.5q-35 0 -59.5 -24.5t-24.5 -59.5t24.5 -59.5
t59.5 -24.5z" />
    <glyph glyph-name="ae" unicode="&#xe6;" horiz-adv-x="1675" 
d="M1604 549v-84h-658q6 -139 72.5 -221t171.5 -82q138 0 278 67l60 -172q-174 -82 -342 -82q-255 0 -375 215q-56 -101 -156 -158t-229 -57q-160 0 -260 80.5t-100 212.5q0 164 147 269q149 104 387 104h117q-4 114 -61.5 178t-149.5 64q-146 0 -303 -97l-51 181
q188 102 360 102q105 0 191 -49t128 -129q120 178 343 178q206 0 317 -147q113 -143 113 -373zM442 160q110 0 187 86q79 85 88 225h-107q-147 0 -233 -54.5t-86 -140.5q0 -55 40.5 -85.5t110.5 -30.5zM952 637h420q-2 108 -58.5 182t-142.5 74q-87 0 -147.5 -72.5
t-71.5 -183.5z" />
    <glyph glyph-name="ccedilla" unicode="&#xe7;" horiz-adv-x="983" 
d="M324 -455l32 131q70 -28 140 -28q41 0 67.5 20t26.5 51q0 93 -187 93l70 174q-186 37 -292.5 179.5t-106.5 356.5q0 247 139 398q140 149 381 149q156 0 313 -65l-59 -181q-128 58 -248 58q-135 0 -214 -98.5t-79 -260.5q0 -161 79 -258.5t214 -97.5q129 0 258 57
l60 -178q-124 -56 -261 -68l-41 -81q73 -13 115.5 -62t42.5 -117q0 -94 -71 -150t-197 -56q-104 0 -182 34z" />
    <glyph glyph-name="egrave" unicode="&#xe8;" horiz-adv-x="1036" 
d="M965 549v-84h-660q7 -139 74 -221t170 -82q141 0 278 67l62 -172q-174 -82 -342 -82q-218 0 -346 152q-125 149 -125 395q0 243 123 393q124 154 333 154q206 0 320 -147q113 -143 113 -373zM313 637h420q-2 108 -58.5 182t-142.5 74q-87 0 -147.5 -72.5t-71.5 -183.5z
M432 1186l-248 330h260l205 -330h-217z" />
    <glyph glyph-name="eacute" unicode="&#xe9;" horiz-adv-x="1036" 
d="M965 549v-84h-660q7 -139 74 -221t170 -82q141 0 278 67l62 -172q-174 -82 -342 -82q-218 0 -346 152q-125 149 -125 395q0 243 123 393q124 154 333 154q206 0 320 -147q113 -143 113 -373zM313 637h420q-2 108 -58.5 182t-142.5 74q-87 0 -147.5 -72.5t-71.5 -183.5z
M391 1186l205 330h262l-250 -330h-217z" />
    <glyph glyph-name="ecircumflex" unicode="&#xea;" horiz-adv-x="1036" 
d="M965 549v-84h-660q7 -139 74 -221t170 -82q141 0 278 67l62 -172q-174 -82 -342 -82q-218 0 -346 152q-125 149 -125 395q0 243 123 393q124 154 333 154q206 0 320 -147q113 -143 113 -373zM313 637h420q-2 108 -58.5 182t-142.5 74q-87 0 -147.5 -72.5t-71.5 -183.5z
M131 1188l270 323h236l270 -323h-219l-168 182l-168 -182h-221z" />
    <glyph glyph-name="edieresis" unicode="&#xeb;" horiz-adv-x="1036" 
d="M965 549v-84h-660q7 -139 74 -221t170 -82q141 0 278 67l62 -172q-174 -82 -342 -82q-218 0 -346 152q-125 149 -125 395q0 243 123 393q124 154 333 154q206 0 320 -147q113 -143 113 -373zM313 637h420q-2 108 -58.5 182t-142.5 74q-87 0 -147.5 -72.5t-71.5 -183.5z
M215 1337q0 55 36.5 92t92.5 37q57 0 94 -36.5t37 -92.5q0 -54 -37 -90.5t-94 -36.5q-55 0 -92 36.5t-37 90.5zM575 1337q0 55 37 92t93 37q55 0 92 -37t37 -92q0 -54 -37 -90.5t-92 -36.5t-92.5 36.5t-37.5 90.5z" />
    <glyph glyph-name="igrave" unicode="&#xec;" horiz-adv-x="544" 
d="M174 1186l-250 330h262l205 -330h-217zM389 1044v-1044h-233v1044h233z" />
    <glyph glyph-name="iacute" unicode="&#xed;" horiz-adv-x="544" 
d="M156 1186l204 330h263l-250 -330h-217zM389 1044v-1044h-233v1044h233z" />
    <glyph glyph-name="icircumflex" unicode="&#xee;" horiz-adv-x="544" 
d="M389 1044v-1044h-233v1044h233zM-115 1188l271 323h235l271 -323h-220l-168 182l-168 -182h-221z" />
    <glyph glyph-name="idieresis" unicode="&#xef;" horiz-adv-x="544" 
d="M-37 1337q0 55 36.5 92t92.5 37q57 0 94 -36.5t37 -92.5q0 -54 -37 -90.5t-94 -36.5q-55 0 -92 36.5t-37 90.5zM324 1337q0 55 37 92t92 37t92 -37t37 -92q0 -54 -37 -90.5t-92 -36.5t-92 36.5t-37 90.5zM389 1044v-1044h-233v1044h233z" />
    <glyph glyph-name="eth" unicode="&#xf0;" horiz-adv-x="1183" 
d="M670 1165l-387 -114l-47 149l290 88q-83 53 -182 98l98 130q179 -60 301 -164l297 90l47 -150l-217 -65q193 -242 193 -592q0 -308 -148 -485q-147 -175 -389 -175q-195 0 -325 136q-127 136 -127 364q0 250 137 393q138 144 350 144q149 0 244 -86q-35 136 -135 239z
M532 162q139 0 220.5 123t81.5 348v53q-89 145 -263 145q-126 0 -197 -91t-71 -257q0 -149 62 -235t167 -86z" />
    <glyph glyph-name="ntilde" unicode="&#xf1;" horiz-adv-x="1124" 
d="M377 717v-717h-234v1044h234v-116q126 141 285 141q149 0 243 -95t94 -245v-729h-235v711q0 81 -40.5 125.5t-109.5 44.5q-123 0 -237 -164zM709 1204q-91 0 -164 64q-55 49 -84 49q-43 0 -43 -105h-185q0 124 55.5 193.5t155.5 69.5q91 0 164 -64q58 -49 84 -49
q43 0 43 104h185q0 -124 -55.5 -193t-155.5 -69z" />
    <glyph glyph-name="ograve" unicode="&#xf2;" horiz-adv-x="1142" 
d="M573 -25q-223 0 -362 154q-137 152 -137 393t137 393q139 154 362 154q222 0 361 -154q137 -152 137 -393t-137 -393q-139 -154 -361 -154zM573 883q-124 0 -198 -105q-72 -104 -72 -256q0 -151 72 -258q73 -102 198 -102t195 102q74 106 74 258q0 153 -74 256
q-70 105 -195 105zM487 1186l-249 330h262l205 -330h-218z" />
    <glyph glyph-name="oacute" unicode="&#xf3;" horiz-adv-x="1142" 
d="M573 -25q-223 0 -362 154q-137 152 -137 393t137 393q139 154 362 154q222 0 361 -154q137 -152 137 -393t-137 -393q-139 -154 -361 -154zM573 883q-124 0 -198 -105q-72 -104 -72 -256q0 -151 72 -258q73 -102 198 -102t195 102q74 106 74 258q0 153 -74 256
q-70 105 -195 105zM444 1186l205 330h262l-249 -330h-218z" />
    <glyph glyph-name="ocircumflex" unicode="&#xf4;" horiz-adv-x="1142" 
d="M573 -25q-223 0 -362 154q-137 152 -137 393t137 393q139 154 362 154q222 0 361 -154q137 -152 137 -393t-137 -393q-139 -154 -361 -154zM573 883q-124 0 -198 -105q-72 -104 -72 -256q0 -151 72 -258q73 -102 198 -102t195 102q74 106 74 258q0 153 -74 256
q-70 105 -195 105zM184 1188l271 323h235l271 -323h-220l-168 182l-167 -182h-222z" />
    <glyph glyph-name="otilde" unicode="&#xf5;" horiz-adv-x="1142" 
d="M573 -25q-223 0 -362 154q-137 152 -137 393t137 393q139 154 362 154q222 0 361 -154q137 -152 137 -393t-137 -393q-139 -154 -361 -154zM573 883q-124 0 -198 -105q-72 -104 -72 -256q0 -151 72 -258q73 -102 198 -102t195 102q74 106 74 258q0 153 -74 256
q-70 105 -195 105zM705 1204q-91 0 -164 64q-55 49 -84 49q-43 0 -43 -105h-185q0 124 55.5 193.5t155.5 69.5q91 0 164 -64q58 -49 84 -49q43 0 43 104h184q0 -124 -55 -193t-155 -69z" />
    <glyph glyph-name="odieresis" unicode="&#xf6;" horiz-adv-x="1142" 
d="M573 -25q-223 0 -362 154q-137 152 -137 393t137 393q139 154 362 154q222 0 361 -154q137 -152 137 -393t-137 -393q-139 -154 -361 -154zM573 883q-124 0 -198 -105q-72 -104 -72 -256q0 -151 72 -258q73 -102 198 -102t195 102q74 106 74 258q0 153 -74 256
q-70 105 -195 105zM262 1337q0 55 37 92t92 37q57 0 94 -36.5t37 -92.5q0 -54 -37 -90.5t-94 -36.5q-55 0 -92 36.5t-37 90.5zM623 1337q0 55 36.5 92t92.5 37t92.5 -37t36.5 -92q0 -54 -37 -90.5t-92 -36.5t-92 36.5t-37 90.5z" />
    <glyph glyph-name="divide" unicode="&#xf7;" horiz-adv-x="1241" 
d="M1130 797v-195h-1017v195h1017zM623 1235q63 0 108 -43.5t45 -104.5t-45 -105t-108 -44q-66 0 -111 43.5t-45 105.5t45 105t111 43zM467 311q0 62 45 105t111 43q63 0 108 -43.5t45 -104.5q0 -63 -43.5 -106t-109.5 -43t-111 43t-45 106z" />
    <glyph glyph-name="oslash" unicode="&#xf8;" horiz-adv-x="1142" 
d="M573 -25q-123 0 -223 50l-78 -127h-170l129 208q-157 154 -157 416q0 241 137 393q139 154 362 154q126 0 220 -49l79 127h170l-129 -209q158 -155 158 -416q0 -241 -137 -393q-139 -154 -361 -154zM573 885q-127 0 -200 -105q-74 -103 -74 -258q0 -130 53 -219l338 551
q-51 31 -117 31zM573 160q125 0 199 102q74 106 74 260q0 126 -53 221l-338 -553q49 -30 118 -30z" />
    <glyph glyph-name="ugrave" unicode="&#xf9;" horiz-adv-x="1124" 
d="M748 328v716h235v-1044h-235v117q-121 -142 -285 -142q-147 0 -242 95q-94 94 -94 245v729h233v-710q0 -79 42 -124.5t110 -45.5q122 0 236 164zM471 1186l-250 330h262l205 -330h-217z" />
    <glyph glyph-name="uacute" unicode="&#xfa;" horiz-adv-x="1124" 
d="M748 328v716h235v-1044h-235v117q-121 -142 -285 -142q-147 0 -242 95q-94 94 -94 245v729h233v-710q0 -79 42 -124.5t110 -45.5q122 0 236 164zM428 1186l205 330h262l-250 -330h-217z" />
    <glyph glyph-name="ucircumflex" unicode="&#xfb;" horiz-adv-x="1124" 
d="M748 328v716h235v-1044h-235v117q-121 -142 -285 -142q-147 0 -242 95q-94 94 -94 245v729h233v-710q0 -79 42 -124.5t110 -45.5q122 0 236 164zM168 1188l270 323h236l270 -323h-221l-168 182l-168 -182h-219z" />
    <glyph glyph-name="udieresis" unicode="&#xfc;" horiz-adv-x="1124" 
d="M748 328v716h235v-1044h-235v117q-121 -142 -285 -142q-147 0 -242 95q-94 94 -94 245v729h233v-710q0 -79 42 -124.5t110 -45.5q122 0 236 164zM375 1466q55 0 92 -37t37 -92q3 -40 -21 -72t-58.5 -45.5t-74.5 -8t-67 33.5q-28 27 -34.5 67t7 74.5t45.5 58.5t74 21z
M604 1337q0 56 37 92.5t94 36.5q55 0 92 -37t37 -92q0 -54 -37 -90.5t-92 -36.5q-57 0 -94 36.5t-37 90.5z" />
    <glyph glyph-name="yacute" unicode="&#xfd;" horiz-adv-x="1021" 
d="M270 1044l246 -729l236 729h245l-405 -1124q-77 -218 -281 -354l-141 149q158 101 217 267l16 53l-378 1009h245zM387 1186l205 330h260l-248 -330h-217z" />
    <glyph glyph-name="thorn" unicode="&#xfe;" horiz-adv-x="1146" 
d="M639 1069q194 0 313 -143q121 -142 121 -387q0 -263 -139 -414q-138 -150 -359 -150q-113 0 -192 43v-440h-229v1909h229v-526q99 108 256 108zM604 883q-132 0 -221 -127v-551q77 -45 186 -45q124 0 198.5 99t74.5 269q0 165 -64 260t-174 95z" />
    <glyph glyph-name="ydieresis" unicode="&#xff;" horiz-adv-x="1021" 
d="M270 1044l246 -729l236 729h245l-405 -1124q-77 -218 -281 -354l-141 149q158 101 217 267l16 53l-378 1009h245zM334 1466q56 0 92.5 -37t36.5 -92q3 -40 -21 -72t-58.5 -45.5t-74.5 -8t-67 33.5q-28 27 -34.5 67t7 74.5t45.5 58.5t74 21zM563 1337q0 56 37 92.5
t94 36.5q56 0 92.5 -37t36.5 -92q0 -54 -37 -90.5t-92 -36.5q-57 0 -94 36.5t-37 90.5z" />
    <glyph glyph-name="Amacron" unicode="&#x100;" horiz-adv-x="1361" 
d="M8 0l563 1446h220l563 -1446h-252l-127 346h-590l-125 -346h-252zM453 539h454l-225 622zM993 1632h-622v172h622v-172z" />
    <glyph glyph-name="amacron" unicode="&#x101;" horiz-adv-x="1038" 
d="M66 274q0 166 143 267q141 100 389 100h74v98q0 67 -39.5 105.5t-108.5 38.5q-159 0 -319 -92l-49 178q190 100 381 100q170 0 266 -86.5t96 -234.5v-463q0 -155 43 -285h-223q-22 56 -31 121q-128 -146 -291 -146q-153 0 -242 81.5t-89 217.5zM426 160q138 0 246 147
v166h-62q-147 0 -233 -54.5t-86 -142.5q0 -116 135 -116zM840 1251h-625v174h625v-174z" />
    <glyph glyph-name="Abreve" unicode="&#x102;" horiz-adv-x="1361" 
d="M8 0l563 1446h220l563 -1446h-252l-127 346h-590l-125 -346h-252zM453 539h454l-225 622zM332 1862h198q5 -74 45 -117t107 -43t107 43t45 117h198q-3 -147 -100 -234q-98 -88 -250 -88t-250 88q-97 87 -100 234z" />
    <glyph glyph-name="abreve" unicode="&#x103;" horiz-adv-x="1038" 
d="M66 274q0 166 143 267q141 100 389 100h74v98q0 67 -39.5 105.5t-108.5 38.5q-159 0 -319 -92l-49 178q190 100 381 100q170 0 266 -86.5t96 -234.5v-463q0 -155 43 -285h-223q-22 56 -31 121q-128 -146 -291 -146q-153 0 -242 81.5t-89 217.5zM426 160q138 0 246 147
v166h-62q-147 0 -233 -54.5t-86 -142.5q0 -116 135 -116zM170 1481h199q1 -73 42 -115.5t109 -42.5t109.5 42.5t42.5 115.5h198q-5 -142 -101.5 -231t-248.5 -89t-250 88q-97 87 -100 232z" />
    <glyph glyph-name="Aogonek" unicode="&#x104;" horiz-adv-x="1361" 
d="M1167 0h-65l-127 346h-590l-125 -346h-252l563 1446h220l563 -1446q-154 -127 -154 -236q0 -37 23.5 -58t64.5 -21q51 0 101 16l22 -141q-80 -25 -156 -25q-110 0 -174.5 56t-64.5 149q0 136 151 260zM453 539h454l-225 622z" />
    <glyph glyph-name="aogonek" unicode="&#x105;" horiz-adv-x="1038" 
d="M942 0q-156 -126 -156 -236q0 -37 25 -59t66 -22q45 0 98 18l22 -141q-77 -25 -155 -25q-109 0 -174.5 55.5t-65.5 149.5q0 139 154 260h-37q-22 56 -31 121q-128 -146 -291 -146q-153 0 -242 81.5t-89 217.5q0 166 143 267q141 100 389 100h74v98q0 67 -39.5 105.5
t-108.5 38.5q-159 0 -319 -92l-49 178q190 100 381 100q170 0 266 -86.5t96 -234.5v-463q0 -155 43 -285zM426 160q138 0 246 147v166h-62q-147 0 -233 -54.5t-86 -142.5q0 -116 135 -116z" />
    <glyph glyph-name="Cacute" unicode="&#x106;" horiz-adv-x="1353" 
d="M76 725q0 334 207 541q207 204 540 204q228 0 414 -92l-53 -190q-172 90 -361 90q-229 0 -368 -154q-140 -155 -140 -399q0 -246 140 -401q139 -154 368 -154q201 0 379 96l55 -192q-203 -99 -434 -99q-332 0 -540 205q-207 207 -207 545zM643 1567l205 329h260
l-248 -329h-217z" />
    <glyph glyph-name="cacute" unicode="&#x107;" horiz-adv-x="983" 
d="M594 -25q-240 0 -381 150q-139 151 -139 397q0 247 139 398q140 149 381 149q156 0 313 -65l-59 -181q-128 58 -248 58q-135 0 -214 -98.5t-79 -260.5q0 -161 79 -258.5t214 -97.5q129 0 258 57l60 -178q-149 -70 -324 -70zM420 1186l205 330h260l-248 -330h-217z" />
    <glyph glyph-name="Ccircumflex" unicode="&#x108;" horiz-adv-x="1353" 
d="M76 725q0 334 207 541q207 204 540 204q228 0 414 -92l-53 -190q-172 90 -361 90q-229 0 -368 -154q-140 -155 -140 -399q0 -246 140 -401q139 -154 368 -154q201 0 379 96l55 -192q-203 -99 -434 -99q-332 0 -540 205q-207 207 -207 545zM375 1569l270 323h236l270 -323
h-219l-168 182l-168 -182h-221z" />
    <glyph glyph-name="ccircumflex" unicode="&#x109;" horiz-adv-x="983" 
d="M594 -25q-240 0 -381 150q-139 151 -139 397q0 247 139 398q140 149 381 149q156 0 313 -65l-59 -181q-128 58 -248 58q-135 0 -214 -98.5t-79 -260.5q0 -161 79 -258.5t214 -97.5q129 0 258 57l60 -178q-149 -70 -324 -70zM141 1188l271 323h235l271 -323h-222l-168 182
l-168 -182h-219z" />
    <glyph glyph-name="Cdotaccent" unicode="&#x10a;" horiz-adv-x="1353" 
d="M76 725q0 334 207 541q207 204 540 204q228 0 414 -92l-53 -190q-172 90 -361 90q-229 0 -368 -154q-140 -155 -140 -399q0 -246 140 -401q139 -154 368 -154q201 0 379 96l55 -192q-203 -99 -434 -99q-332 0 -540 205q-207 207 -207 545zM664 1620q-38 41 -38 99t38 96
q41 41 100 41t98 -39q38 -38 38 -98.5t-38 -98.5t-97.5 -38t-100.5 38z" />
    <glyph glyph-name="cdotaccent" unicode="&#x10b;" horiz-adv-x="983" 
d="M594 -25q-240 0 -381 150q-139 151 -139 397q0 247 139 398q140 149 381 149q156 0 313 -65l-59 -181q-128 58 -248 58q-135 0 -214 -98.5t-79 -260.5q0 -161 79 -258.5t214 -97.5q129 0 258 57l60 -178q-149 -70 -324 -70zM541 1475q58 0 97.5 -39.5t39.5 -98.5
q0 -57 -40 -96t-97 -39q-60 0 -100 39t-40 96t40.5 97.5t99.5 40.5z" />
    <glyph glyph-name="Ccaron" unicode="&#x10c;" horiz-adv-x="1353" 
d="M76 725q0 334 207 541q207 204 540 204q228 0 414 -92l-53 -190q-172 90 -361 90q-229 0 -368 -154q-140 -155 -140 -399q0 -246 140 -401q139 -154 368 -154q201 0 379 96l55 -192q-203 -99 -434 -99q-332 0 -540 205q-207 207 -207 545zM1151 1892l-270 -323h-236
l-270 323h219l168 -182l168 182h221z" />
    <glyph glyph-name="ccaron" unicode="&#x10d;" horiz-adv-x="983" 
d="M594 -25q-240 0 -381 150q-139 151 -139 397q0 247 139 398q140 149 381 149q156 0 313 -65l-59 -181q-128 58 -248 58q-135 0 -214 -98.5t-79 -260.5q0 -161 79 -258.5t214 -97.5q129 0 258 57l60 -178q-149 -70 -324 -70zM932 1511l-270 -323h-236l-270 323h219
l168 -182l168 182h221z" />
    <glyph glyph-name="Dcaron" unicode="&#x10e;" horiz-adv-x="1368" 
d="M522 1255h-127v-1065h127q267 0 401 137t134 398q0 260 -133.5 395t-401.5 135zM522 0h-362v1446h362q376 0 573 -189.5t197 -531.5q0 -343 -197 -534t-573 -191zM1016 1892l-271 -323h-235l-270 323h219l168 -182l168 182h221z" />
    <glyph glyph-name="dcaron" unicode="&#x10f;" horiz-adv-x="1474" 
d="M500 -25q-186 0 -307 142q-117 141 -117 389q0 264 141 414q143 149 371 149q102 0 176 -39v457h231v-1487h-231v98q-102 -123 -264 -123zM539 162q143 0 225 137v545q-87 41 -184 41q-123 0 -199 -100.5t-76 -270.5q0 -165 62.5 -258.5t171.5 -93.5zM1141 1382
q0 56 39 92.5t100 36.5q65 0 109.5 -51.5t44.5 -136.5q0 -104 -63 -197t-169 -147l-67 72q64 36 107 93.5t50 119.5q-20 -4 -24 -4q-55 0 -91 34t-36 88z" />
    <glyph glyph-name="Dcroat" unicode="&#x110;" horiz-adv-x="1484" 
d="M653 0h-362v627h-221v170h221v649h362q376 0 573 -189t197 -532t-197 -534t-573 -191zM653 1255h-127v-458h346v-170h-346v-437h127q267 0 401 137t134 398q0 259 -134 394.5t-401 135.5z" />
    <glyph glyph-name="dslash" unicode="&#x111;" horiz-adv-x="1259" 
d="M500 -25q-186 0 -307 142q-117 141 -117 389q0 264 141 414q143 149 371 149q102 0 176 -39v148h-367v165h367v144h231v-144h213v-165h-213v-1178h-231v98q-102 -123 -264 -123zM539 162q143 0 225 137v545q-87 41 -184 41q-123 0 -199 -100.5t-76 -270.5
q0 -165 62.5 -258.5t171.5 -93.5z" />
    <glyph glyph-name="Emacron" unicode="&#x112;" horiz-adv-x="1110" 
d="M999 195v-195h-839v1446h813v-193h-574v-411h506v-193h-506v-454h600zM881 1632h-625v172h625v-172z" />
    <glyph glyph-name="emacron" unicode="&#x113;" horiz-adv-x="1036" 
d="M965 549v-84h-660q7 -139 74 -221t170 -82q141 0 278 67l62 -172q-174 -82 -342 -82q-218 0 -346 152q-125 149 -125 395q0 243 123 393q124 154 333 154q206 0 320 -147q113 -143 113 -373zM313 637h420q-2 108 -58.5 182t-142.5 74q-87 0 -147.5 -72.5t-71.5 -183.5z
M831 1251h-624v174h624v-174z" />
    <glyph glyph-name="Ebreve" unicode="&#x114;" horiz-adv-x="1110" 
d="M999 195v-195h-839v1446h813v-193h-574v-411h506v-193h-506v-454h600zM221 1862h201q5 -74 44 -117t105 -43q67 0 107 43t45 117h199q-3 -146 -101 -234t-250 -88q-151 0 -249 88t-101 234z" />
    <glyph glyph-name="ebreve" unicode="&#x115;" horiz-adv-x="1036" 
d="M965 549v-84h-660q7 -139 74 -221t170 -82q141 0 278 67l62 -172q-174 -82 -342 -82q-218 0 -346 152q-125 149 -125 395q0 243 123 393q124 154 333 154q206 0 320 -147q113 -143 113 -373zM313 637h420q-2 108 -58.5 182t-142.5 74q-87 0 -147.5 -72.5t-71.5 -183.5z
M168 1481h201q1 -73 42 -115.5t107 -42.5q68 0 109.5 42.5t42.5 115.5h198q-3 -145 -100 -232q-98 -88 -250 -88t-248.5 89t-101.5 231z" />
    <glyph glyph-name="Edotaccent" unicode="&#x116;" horiz-adv-x="1110" 
d="M999 195v-195h-839v1446h813v-193h-574v-411h506v-193h-506v-454h600zM463 1620q-38 41 -38 99t38 96q41 41 100.5 41t98.5 -39q38 -38 38 -98.5t-38 -98.5t-98 -38t-101 38z" />
    <glyph glyph-name="edotaccent" unicode="&#x117;" horiz-adv-x="1036" 
d="M965 549v-84h-660q7 -139 74 -221t170 -82q141 0 278 67l62 -172q-174 -82 -342 -82q-218 0 -346 152q-125 149 -125 395q0 243 123 393q124 154 333 154q206 0 320 -147q113 -143 113 -373zM313 637h420q-2 108 -58.5 182t-142.5 74q-87 0 -147.5 -72.5t-71.5 -183.5z
M381 1337q0 60 38.5 99t98.5 39t99.5 -39t39.5 -99q0 -57 -39.5 -96t-99.5 -39q-57 0 -97 39t-40 96z" />
    <glyph glyph-name="Eogonek" unicode="&#x118;" horiz-adv-x="1110" 
d="M694 0h-534v1446h813v-193h-574v-411h506v-193h-506v-454h600v-195h-118q-154 -127 -154 -236q0 -36 24.5 -58.5t63.5 -22.5q47 0 100 18l23 -141q-80 -25 -156 -25q-110 0 -174.5 55.5t-64.5 149.5q0 136 151 260z" />
    <glyph glyph-name="eogonek" unicode="&#x119;" horiz-adv-x="1036" 
d="M965 549v-84h-660q7 -139 74 -221t170 -82q141 0 278 67l62 -172q-115 -55 -240 -73q-133 -118 -133 -220q0 -37 24.5 -59t65.5 -22q46 0 99 18l22 -141q-77 -25 -156 -25q-109 0 -174 55.5t-65 149.5q0 129 131 242q-182 29 -284.5 173.5t-102.5 366.5q0 243 123 393
q124 154 333 154q206 0 320 -147q113 -143 113 -373zM313 637h420q-2 108 -58.5 182t-142.5 74q-87 0 -147.5 -72.5t-71.5 -183.5z" />
    <glyph glyph-name="Ecaron" unicode="&#x11a;" horiz-adv-x="1110" 
d="M999 195v-195h-839v1446h813v-193h-574v-411h506v-193h-506v-454h600zM956 1892l-270 -323h-235l-271 323h221l168 -182l168 182h219z" />
    <glyph glyph-name="ecaron" unicode="&#x11b;" horiz-adv-x="1036" 
d="M965 549v-84h-660q7 -139 74 -221t170 -82q141 0 278 67l62 -172q-174 -82 -342 -82q-218 0 -346 152q-125 149 -125 395q0 243 123 393q124 154 333 154q206 0 320 -147q113 -143 113 -373zM313 637h420q-2 108 -58.5 182t-142.5 74q-87 0 -147.5 -72.5t-71.5 -183.5z
M907 1511l-270 -323h-236l-270 323h221l168 -182l168 182h219z" />
    <glyph glyph-name="Gcircumflex" unicode="&#x11c;" horiz-adv-x="1421" 
d="M823 -25q-332 0 -540 205q-207 207 -207 545q0 334 207 541q207 204 540 204q232 0 422 -96l-53 -190q-178 94 -369 94q-229 0 -368 -154q-140 -155 -140 -399q0 -246 140 -401q139 -154 368 -154q137 0 240 47v367h-332v194h569v-663q-228 -140 -477 -140zM367 1569
l270 323h235l271 -323h-221l-168 182l-168 -182h-219z" />
    <glyph glyph-name="gcircumflex" unicode="&#x11d;" horiz-adv-x="1136" 
d="M995 963v-975q0 -200 -127 -318q-125 -116 -331 -116q-184 0 -338 65l41 184q152 -61 288 -61q109 0 173.5 66t64.5 176v108q-108 -117 -266 -117q-186 0 -307 142q-117 141 -117 389q0 264 141 414q143 149 373 149q215 0 405 -106zM305 516q0 -167 62 -260.5t172 -93.5
q141 0 227 139v551q-79 33 -186 33q-123 0 -199 -99.5t-76 -269.5zM180 1188l271 323h235l270 -323h-221l-168 182l-168 -182h-219z" />
    <glyph glyph-name="Gbreve" unicode="&#x11e;" horiz-adv-x="1421" 
d="M823 -25q-332 0 -540 205q-207 207 -207 545q0 334 207 541q207 204 540 204q232 0 422 -96l-53 -190q-178 94 -369 94q-229 0 -368 -154q-140 -155 -140 -399q0 -246 140 -401q139 -154 368 -154q137 0 240 47v367h-332v194h569v-663q-228 -140 -477 -140zM403 1862h201
q5 -74 44.5 -117t105.5 -43q67 0 106.5 43t44.5 117h199q-3 -147 -100 -234q-98 -88 -250 -88t-250 88t-101 234z" />
    <glyph glyph-name="gbreve" unicode="&#x11f;" horiz-adv-x="1136" 
d="M995 963v-975q0 -200 -127 -318q-125 -116 -331 -116q-184 0 -338 65l41 184q152 -61 288 -61q109 0 173.5 66t64.5 176v108q-108 -117 -266 -117q-186 0 -307 142q-117 141 -117 389q0 264 141 414q143 149 373 149q215 0 405 -106zM305 516q0 -167 62 -260.5t172 -93.5
q141 0 227 139v551q-79 33 -186 33q-123 0 -199 -99.5t-76 -269.5zM213 1481h201q1 -73 42 -115.5t107 -42.5q68 0 109.5 42.5t42.5 115.5h198q-3 -145 -100 -232q-98 -88 -250 -88t-248.5 89t-101.5 231z" />
    <glyph glyph-name="Gdotaccent" unicode="&#x120;" horiz-adv-x="1421" 
d="M823 -25q-332 0 -540 205q-207 207 -207 545q0 334 207 541q207 204 540 204q232 0 422 -96l-53 -190q-178 94 -369 94q-229 0 -368 -154q-140 -155 -140 -399q0 -246 140 -401q139 -154 368 -154q137 0 240 47v367h-332v194h569v-663q-228 -140 -477 -140zM754 1855
q58 0 97.5 -39t39.5 -98t-39.5 -98t-97.5 -39q-60 0 -100 40t-40 97t40 97t100 40z" />
    <glyph glyph-name="gdotaccent" unicode="&#x121;" horiz-adv-x="1136" 
d="M995 963v-975q0 -200 -127 -318q-125 -116 -331 -116q-184 0 -338 65l41 184q152 -61 288 -61q109 0 173.5 66t64.5 176v108q-108 -117 -266 -117q-186 0 -307 142q-117 141 -117 389q0 264 141 414q143 149 373 149q215 0 405 -106zM305 516q0 -167 62 -260.5t172 -93.5
q141 0 227 139v551q-79 33 -186 33q-123 0 -199 -99.5t-76 -269.5zM430 1337q0 60 38.5 99t98.5 39t100 -39t40 -99q0 -57 -40 -96t-100 -39q-57 0 -97 39t-40 96z" />
    <glyph glyph-name="Gcommaaccent" unicode="&#x122;" horiz-adv-x="1421" 
d="M823 -25q-332 0 -540 205q-207 207 -207 545q0 334 207 541q207 204 540 204q232 0 422 -96l-53 -190q-178 94 -369 94q-229 0 -368 -154q-140 -155 -140 -399q0 -246 140 -401q139 -154 368 -154q137 0 240 47v367h-332v194h569v-663q-228 -140 -477 -140zM758 -98
q64 0 105.5 -48t41.5 -128q0 -93 -60 -173.5t-159 -123.5l-63 73q124 58 145 160q-6 -2 -25 -2q-50 0 -84 33t-34 86q0 54 38 88.5t95 34.5z" />
    <glyph glyph-name="gcommaaccent" unicode="&#x123;" horiz-adv-x="1136" 
d="M995 963v-975q0 -200 -127 -318q-125 -116 -331 -116q-184 0 -338 65l41 184q152 -61 288 -61q109 0 173.5 66t64.5 176v108q-108 -117 -266 -117q-186 0 -307 142q-117 141 -117 389q0 264 141 414q143 149 373 149q215 0 405 -106zM305 516q0 -167 62 -260.5t172 -93.5
q141 0 227 139v551q-79 33 -186 33q-123 0 -199 -99.5t-76 -269.5zM565 1157q-64 0 -105.5 48t-41.5 128q0 93 60 173.5t159 123.5l63 -74q-124 -58 -145 -159q6 2 25 2q50 0 84 -33t34 -86q0 -54 -38 -88.5t-95 -34.5z" />
    <glyph glyph-name="Hcircumflex" unicode="&#x124;" horiz-adv-x="1406" 
d="M399 649v-649h-239v1446h239v-602h611v602h239v-1446h-239v649h-611zM317 1569l271 323h235l271 -323h-222l-167 182l-168 -182h-220z" />
    <glyph glyph-name="hcircumflex" unicode="&#x125;" horiz-adv-x="1130" 
d="M383 717v-717h-233v1487h233v-559q126 141 285 141q149 0 243.5 -95.5t94.5 -244.5v-729h-236v711q0 81 -40 125.5t-109 44.5q-124 0 -238 -164zM-123 1569l270 323h236l270 -323h-219l-168 182l-168 -182h-221z" />
    <glyph glyph-name="Hbar" unicode="&#x126;" horiz-adv-x="1546" 
d="M229 0v1079h-155v170h155v197h238v-197h612v197h240v-197h154v-170h-154v-1079h-240v649h-612v-649h-238zM1079 1079h-612v-235h612v235z" />
    <glyph glyph-name="hbar" unicode="&#x127;" horiz-adv-x="1247" 
d="M500 717v-717h-234v1178h-213v165h213v144h234v-144h362v-165h-362v-250q126 141 284 141q151 0 242 -94q94 -94 94 -246v-729h-233v711q0 75 -42 122.5t-108 47.5q-123 0 -237 -164z" />
    <glyph glyph-name="Itilde" unicode="&#x128;" horiz-adv-x="571" 
d="M406 1446v-1446h-238v1446h238zM420 1583q-91 0 -164 64q-58 49 -84 49q-43 0 -43 -103h-186q0 124 56.5 193t156.5 69q85 0 163 -63q55 -49 84 -49q43 0 43 102h185q0 -124 -55.5 -193t-155.5 -69z" />
    <glyph glyph-name="itilde" unicode="&#x129;" horiz-adv-x="544" 
d="M406 1204q-91 0 -164 64q-55 49 -84 49q-43 0 -43 -105h-185q0 124 55.5 193.5t155.5 69.5q91 0 164 -64q58 -49 84 -49q43 0 43 104h184q0 -124 -55 -193t-155 -69zM389 1044v-1044h-233v1044h233z" />
    <glyph glyph-name="Imacron" unicode="&#x12a;" horiz-adv-x="571" 
d="M406 1446v-1446h-238v1446h238zM598 1632h-625v172h625v-172z" />
    <glyph glyph-name="imacron" unicode="&#x12b;" horiz-adv-x="544" 
d="M586 1251h-625v174h625v-174zM389 1044v-1044h-233v1044h233z" />
    <glyph glyph-name="Ibreve" unicode="&#x12c;" horiz-adv-x="571" 
d="M406 1446v-1446h-238v1446h238zM-66 1862h201q5 -74 45 -117t107 -43t106.5 43t44.5 117h199q-3 -147 -100 -234q-98 -88 -250 -88q-151 0 -252 88q-98 88 -101 234z" />
    <glyph glyph-name="ibreve" unicode="&#x12d;" horiz-adv-x="544" 
d="M-78 1481h201q1 -73 42 -115.5t107 -42.5q68 0 109.5 42.5t42.5 115.5h199q-3 -144 -101 -232t-250 -88q-151 0 -249 88t-101 232zM389 1044v-1044h-233v1044h233z" />
    <glyph glyph-name="Iogonek" unicode="&#x12e;" horiz-adv-x="571" 
d="M219 0h-51v1446h238v-1446q-154 -127 -154 -236q0 -37 23.5 -59t64.5 -22q44 0 100 18l23 -141q-80 -25 -156 -25q-110 0 -174.5 55.5t-64.5 149.5q0 139 151 260z" />
    <glyph glyph-name="iogonek" unicode="&#x12f;" horiz-adv-x="544" 
d="M203 0h-47v1044h233v-1044q-153 -126 -153 -236q0 -36 24.5 -58.5t63.5 -22.5q48 0 100 18l22 -141q-80 -25 -155 -25q-110 0 -175 55.5t-65 149.5q0 135 152 260zM416 1354q0 -57 -41.5 -97t-102.5 -40q-60 0 -100.5 40t-40.5 97q0 60 40.5 99.5t100.5 39.5
q62 0 103 -39.5t41 -99.5z" />
    <glyph glyph-name="Idot" unicode="&#x130;" horiz-adv-x="571" 
d="M406 1446v-1446h-238v1446h238zM287 1855q58 0 97.5 -39t39.5 -98t-39.5 -98t-97.5 -39q-60 0 -100 40t-40 97t40 97t100 40z" />
    <glyph glyph-name="dotlessi" unicode="&#x131;" horiz-adv-x="544" 
d="M389 1044v-1044h-233v1044h233z" />
    <glyph glyph-name="IJ" unicode="&#x132;" horiz-adv-x="1345" 
d="M406 1446v-1446h-238v1446h238zM952 377v1069h240v-1069q0 -190 -106 -296t-287 -106q-115 0 -217 45l32 185q87 -35 174 -35q77 0 120.5 52.5t43.5 154.5z" />
    <glyph glyph-name="ij" unicode="&#x133;" horiz-adv-x="1085" 
d="M389 1044v-1044h-233v1044h233zM416 1354q0 -57 -41.5 -97t-102.5 -40q-60 0 -100.5 40t-40.5 97q0 60 40.5 99.5t100.5 39.5q62 0 103 -39.5t41 -99.5zM573 -446l-88 172q110 47 160.5 111.5t50.5 156.5v1050h236v-1054q0 -301 -359 -436zM956 1354q0 -57 -40.5 -97
t-100.5 -40q-61 0 -102 40t-41 97q0 60 40.5 99.5t102.5 39.5q60 0 100.5 -39.5t40.5 -99.5z" />
    <glyph glyph-name="Jcircumflex" unicode="&#x134;" horiz-adv-x="782" 
d="M391 377v1069h238v-1069q0 -190 -106 -296t-287 -106q-114 0 -216 45l31 185q87 -35 174 -35q79 0 122.5 52t43.5 155zM121 1569l270 323h236l270 -323h-219l-168 182l-168 -182h-221z" />
    <glyph glyph-name="jcircumflex" unicode="&#x135;" horiz-adv-x="544" 
d="M33 -446l-90 172q110 47 161.5 111.5t51.5 156.5v1050h233v-1054q0 -298 -356 -436zM-117 1188l271 323h235l270 -323h-219l-168 182l-168 -182h-221z" />
    <glyph glyph-name="Kcommaaccent" unicode="&#x136;" horiz-adv-x="1290" 
d="M397 666v-666h-237v1446h237v-602l547 602h293l-637 -688l698 -758h-299zM649 -98q65 0 106.5 -47t41.5 -129q0 -93 -59.5 -173.5t-157.5 -123.5l-66 73q124 58 145 160q-4 -2 -22 -2q-52 0 -86.5 33t-34.5 86q0 54 38 88.5t95 34.5z" />
    <glyph glyph-name="kcommaaccent" unicode="&#x137;" horiz-adv-x="1054" 
d="M383 469v-469h-233v1487h233v-852l356 409h293l-450 -489l493 -555h-297zM547 -98q64 0 105.5 -48t41.5 -128q0 -93 -60 -173.5t-159 -123.5l-63 73q124 58 145 160q-6 -2 -25 -2q-50 0 -84 33t-34 86q0 54 38 88.5t95 34.5z" />
    <glyph glyph-name="kgreenlandic" unicode="&#x138;" horiz-adv-x="1048" 
d="M377 469v-469h-234v1044h234v-409l356 409h293l-451 -489l494 -555h-297z" />
    <glyph glyph-name="Lacute" unicode="&#x139;" horiz-adv-x="1038" 
d="M985 195v-195h-825v1446h239v-1251h586zM160 1567l205 329h262l-250 -329h-217z" />
    <glyph glyph-name="lacute" unicode="&#x13a;" horiz-adv-x="544" 
d="M389 1487v-1487h-233v1487h233zM156 1567l204 329h263l-250 -329h-217z" />
    <glyph glyph-name="Lcommaaccent" unicode="&#x13b;" horiz-adv-x="1038" 
d="M985 195v-195h-825v1446h239v-1251h586zM565 -98q64 0 106 -48t42 -128q0 -93 -60 -173.5t-159 -123.5l-64 73q124 58 145 160q-6 -2 -24 -2q-51 0 -85 33t-34 86q0 54 38 88.5t95 34.5z" />
    <glyph glyph-name="lcommaaccent" unicode="&#x13c;" horiz-adv-x="544" 
d="M389 1487v-1487h-233v1487h233zM268 -98q64 0 106 -48t42 -128q0 -93 -60 -173.5t-159 -123.5l-64 73q125 58 146 160q-6 -2 -25 -2q-51 0 -85 33t-34 86q0 54 38 88.5t95 34.5z" />
    <glyph glyph-name="Lcaron" unicode="&#x13d;" horiz-adv-x="1038" 
d="M985 195v-195h-825v1446h239v-1251h586zM670 1382q0 56 38 92.5t99 36.5q68 0 112 -51t44 -137q0 -104 -63 -197t-169 -147l-69 72q136 75 157 213q-16 -4 -24 -4q-54 0 -89.5 34t-35.5 88z" />
    <glyph glyph-name="lcaron" unicode="&#x13e;" horiz-adv-x="864" 
d="M389 1487v-1487h-233v1487h233zM528 1382q0 56 39.5 92.5t100.5 36.5q65 0 109 -51.5t44 -136.5q0 -104 -62.5 -197t-168.5 -147l-68 72q64 36 107.5 93.5t50.5 119.5q-20 -4 -25 -4q-55 0 -91 34t-36 88z" />
    <glyph glyph-name="Ldot" unicode="&#x13f;" horiz-adv-x="1038" 
d="M985 195v-195h-825v1446h239v-1251h586zM754 944q57 0 97 -40t40 -97t-40 -97t-97 -40q-60 0 -100 40t-40 97t40 97t100 40z" />
    <glyph glyph-name="ldot" unicode="&#x140;" horiz-adv-x="849" 
d="M389 1487v-1487h-233v1487h233zM809 799q0 -57 -39.5 -96t-99.5 -39q-43 -3 -77.5 22t-49.5 61t-9 78t37 70q28 32 71 38.5t81 -8t64 -49t22 -77.5z" />
    <glyph glyph-name="Lslash" unicode="&#x141;" horiz-adv-x="1163" 
d="M1110 195v-195h-825v553l-152 -100l-90 145l242 156v692h239v-539l367 242l90 -145l-457 -299v-510h586z" />
    <glyph glyph-name="lslash" unicode="&#x142;" horiz-adv-x="980" 
d="M608 752v-752h-235v604l-240 -153l-90 143l330 211v682h235v-537l242 154l90 -141z" />
    <glyph glyph-name="Nacute" unicode="&#x143;" horiz-adv-x="1445" 
d="M1286 1446v-1446h-264l-639 1106v-1106h-223v1446h264l639 -1104v1104h223zM598 1567l205 329h260l-248 -329h-217z" />
    <glyph glyph-name="nacute" unicode="&#x144;" horiz-adv-x="1124" 
d="M377 717v-717h-234v1044h234v-116q126 141 285 141q149 0 243 -95t94 -245v-729h-235v711q0 81 -40.5 125.5t-109.5 44.5q-123 0 -237 -164zM451 1186l204 330h260l-247 -330h-217z" />
    <glyph glyph-name="Ncommaaccent" unicode="&#x145;" horiz-adv-x="1445" 
d="M1286 1446v-1446h-264l-639 1106v-1106h-223v1446h264l639 -1104v1104h223zM717 -98q65 0 106 -46.5t41 -129.5q0 -93 -59.5 -173.5t-157.5 -123.5l-65 73q124 58 145 160q-4 -2 -22 -2q-52 0 -86.5 33t-34.5 86q0 54 38 88.5t95 34.5z" />
    <glyph glyph-name="ncommaaccent" unicode="&#x146;" horiz-adv-x="1124" 
d="M377 717v-717h-234v1044h234v-116q126 141 285 141q149 0 243 -95t94 -245v-729h-235v711q0 81 -40.5 125.5t-109.5 44.5q-123 0 -237 -164zM565 -98q64 0 106 -48t42 -128q0 -93 -60 -173.5t-159 -123.5l-64 73q124 58 145 160q-6 -2 -24 -2q-51 0 -85 33t-34 86
q0 54 38 88.5t95 34.5z" />
    <glyph glyph-name="Ncaron" unicode="&#x147;" horiz-adv-x="1445" 
d="M1286 1446v-1446h-264l-639 1106v-1106h-223v1446h264l639 -1104v1104h223zM1112 1892l-270 -323h-236l-270 323h221l168 -182l168 182h219z" />
    <glyph glyph-name="ncaron" unicode="&#x148;" horiz-adv-x="1124" 
d="M377 717v-717h-234v1044h234v-116q126 141 285 141q149 0 243 -95t94 -245v-729h-235v711q0 81 -40.5 125.5t-109.5 44.5q-123 0 -237 -164zM961 1511l-271 -323h-235l-271 323h219l168 -182l168 182h222z" />
    <glyph glyph-name="napostrophe" unicode="&#x149;" horiz-adv-x="1329" 
d="M582 717v-717h-236v1044h236v-116q120 141 284 141q146 0 242 -96q94 -94 94 -244v-729h-233v711q0 79 -41 124.5t-109 45.5q-123 0 -237 -164zM53 1382q0 56 39.5 92.5t100.5 36.5q65 0 109 -51.5t44 -136.5q0 -104 -62.5 -197t-168.5 -147l-68 72q64 36 107.5 93.5
t50.5 119.5q-20 -4 -25 -4q-55 0 -91 34t-36 88z" />
    <glyph glyph-name="Eng" unicode="&#x14a;" horiz-adv-x="1445" 
d="M1059 -57v39l-676 1130v-1112h-223v1446h264l639 -1079v1079h223v-1505q0 -182 -104.5 -284.5t-280.5 -102.5q-113 0 -211 43l29 186q87 -35 176 -35q75 0 119.5 51.5t44.5 143.5z" />
    <glyph glyph-name="eng" unicode="&#x14b;" horiz-adv-x="1128" 
d="M764 -57v768q0 75 -42 122.5t-108 47.5q-123 0 -237 -164v-717h-234v1044h234v-116q126 141 285 141q149 0 243 -95t94 -245v-788q0 -182 -104.5 -284.5t-280.5 -102.5q-113 0 -211 43l27 184q76 -33 174 -33q75 0 117.5 50t42.5 145z" />
    <glyph glyph-name="Omacron" unicode="&#x14c;" horiz-adv-x="1523" 
d="M434 322q123 -156 328 -156t325 156q123 156 123 401q0 243 -123 399q-122 158 -325 158t-328 -158q-121 -157 -121 -399q0 -244 121 -401zM1260 186q-187 -211 -498 -211q-313 0 -500 211q-186 210 -186 537q0 324 186 534q189 213 500 213q312 0 498 -210
q188 -212 188 -537t-188 -537zM1073 1632h-622v172h622v-172z" />
    <glyph glyph-name="omacron" unicode="&#x14d;" horiz-adv-x="1142" 
d="M573 -25q-223 0 -362 154q-137 152 -137 393t137 393q139 154 362 154q222 0 361 -154q137 -152 137 -393t-137 -393q-139 -154 -361 -154zM573 883q-124 0 -198 -105q-72 -104 -72 -256q0 -151 72 -258q73 -102 198 -102t195 102q74 106 74 258q0 153 -74 256
q-70 105 -195 105zM885 1251h-625v174h625v-174z" />
    <glyph glyph-name="Obreve" unicode="&#x14e;" horiz-adv-x="1523" 
d="M434 322q123 -156 328 -156t325 156q123 156 123 401q0 243 -123 399q-122 158 -325 158t-328 -158q-121 -157 -121 -399q0 -244 121 -401zM1260 186q-187 -211 -498 -211q-313 0 -500 211q-186 210 -186 537q0 324 186 534q189 213 500 213q312 0 498 -210
q188 -212 188 -537t-188 -537zM412 1862h198q5 -74 45 -117t107 -43t106.5 43t44.5 117h199q-3 -147 -100 -234q-98 -88 -250 -88t-250 88q-97 87 -100 234z" />
    <glyph glyph-name="obreve" unicode="&#x14f;" horiz-adv-x="1142" 
d="M573 -25q-223 0 -362 154q-137 152 -137 393t137 393q139 154 362 154q222 0 361 -154q137 -152 137 -393t-137 -393q-139 -154 -361 -154zM573 883q-124 0 -198 -105q-72 -104 -72 -256q0 -151 72 -258q73 -102 198 -102t195 102q74 106 74 258q0 153 -74 256
q-70 105 -195 105zM221 1481h201q1 -73 42 -115.5t107 -42.5q68 0 109.5 42.5t42.5 115.5h199q-3 -144 -101 -232t-250 -88t-248.5 89t-101.5 231z" />
    <glyph glyph-name="Ohungarumlaut" unicode="&#x150;" horiz-adv-x="1523" 
d="M434 322q123 -156 328 -156t325 156q123 156 123 401q0 243 -123 399q-122 158 -325 158t-328 -158q-121 -157 -121 -399q0 -244 121 -401zM1260 186q-187 -211 -498 -211q-313 0 -500 211q-186 210 -186 537q0 324 186 534q189 213 500 213q312 0 498 -210
q188 -212 188 -537t-188 -537zM477 1567l205 329h258l-248 -329h-215zM795 1567l204 329h258l-247 -329h-215z" />
    <glyph glyph-name="ohungarumlaut" unicode="&#x151;" horiz-adv-x="1142" 
d="M573 -25q-223 0 -362 154q-137 152 -137 393t137 393q139 154 362 154q222 0 361 -154q137 -152 137 -393t-137 -393q-139 -154 -361 -154zM573 883q-124 0 -198 -105q-72 -104 -72 -256q0 -151 72 -258q73 -102 198 -102t195 102q74 106 74 258q0 153 -74 256
q-70 105 -195 105zM289 1186l205 330h258l-248 -330h-215zM606 1186l205 330h258l-248 -330h-215z" />
    <glyph glyph-name="OE" unicode="&#x152;" horiz-adv-x="1720" 
d="M1610 193v-193h-826q-315 0 -512 203q-196 202 -196 520t196 520q197 203 512 203h801v-193h-575v-411h506v-193h-506v-456h600zM774 195v1056q-208 -3 -336 -149q-127 -148 -127 -379t127 -379q128 -146 336 -149z" />
    <glyph glyph-name="oe" unicode="&#x153;" horiz-adv-x="1767" 
d="M555 -25q-217 0 -350 154q-131 152 -131 393t131 393q133 154 350 154q234 0 363 -203q120 203 348 203q206 0 317 -147q113 -143 113 -373v-84h-658q6 -139 72.5 -221t171.5 -82q139 0 279 67l59 -172q-174 -82 -342 -82q-232 0 -358 203q-132 -203 -365 -203zM1044 637
h420q-2 108 -58 182t-142 74q-87 0 -148 -72.5t-72 -183.5zM371 264q68 -102 184 -102t184 102q68 103 68 258t-68 258t-184 103q-117 0 -184 -105q-68 -103 -68 -256q0 -152 68 -258z" />
    <glyph glyph-name="Racute" unicode="&#x154;" horiz-adv-x="1165" 
d="M1128 0h-258l-335 612h-142v-612h-233v1446h372q237 0 375 -117q137 -116 137 -301q0 -132 -75 -233.5t-209 -145.5zM532 1255h-139v-454h139q126 0 201.5 63t75.5 164t-75.5 164t-201.5 63zM416 1567l205 329h260l-248 -329h-217z" />
    <glyph glyph-name="racute" unicode="&#x155;" horiz-adv-x="731" 
d="M707 1057l-19 -189q-44 13 -100 13q-69 0 -128 -52.5t-83 -138.5v-690h-234v1044h234v-118q37 63 100 103t129 40q58 0 101 -12zM248 1186l205 330h262l-250 -330h-217z" />
    <glyph glyph-name="Rcommaaccent" unicode="&#x156;" horiz-adv-x="1165" 
d="M1128 0h-258l-335 612h-142v-612h-233v1446h372q237 0 375 -117q137 -116 137 -301q0 -132 -75 -233.5t-209 -145.5zM532 1255h-139v-454h139q126 0 201.5 63t75.5 164t-75.5 164t-201.5 63zM557 -98q65 0 106.5 -47t41.5 -129q0 -93 -60 -173.5t-158 -123.5l-65 73
q124 58 145 160q-4 -2 -22 -2q-52 0 -86.5 33t-34.5 86q0 54 38 88.5t95 34.5z" />
    <glyph glyph-name="rcommaaccent" unicode="&#x157;" horiz-adv-x="768" 
d="M707 1057l-19 -189q-44 13 -100 13q-69 0 -128 -52.5t-83 -138.5v-690h-234v1044h234v-118q37 63 100 103t129 40q58 0 101 -12zM258 -98q64 0 106 -48t42 -128q0 -93 -60.5 -173.5t-159.5 -123.5l-63 73q124 58 145 160q-6 -2 -24 -2q-51 0 -85 33t-34 86q0 54 38 88.5
t95 34.5z" />
    <glyph glyph-name="Rcaron" unicode="&#x158;" horiz-adv-x="1165" 
d="M1128 0h-258l-335 612h-142v-612h-233v1446h372q237 0 375 -117q137 -116 137 -301q0 -132 -75 -233.5t-209 -145.5zM532 1255h-139v-454h139q126 0 201.5 63t75.5 164t-75.5 164t-201.5 63zM958 1892l-270 -323h-235l-271 323h219l168 -182l168 182h221z" />
    <glyph glyph-name="rcaron" unicode="&#x159;" horiz-adv-x="768" 
d="M707 1057l-19 -189q-44 13 -100 13q-69 0 -128 -52.5t-83 -138.5v-690h-234v1044h234v-118q37 63 100 103t129 40q58 0 101 -12zM786 1511l-270 -323h-235l-271 323h221l168 -182l168 182h219z" />
    <glyph glyph-name="Sacute" unicode="&#x15a;" horiz-adv-x="1075" 
d="M500 -25q-213 0 -402 101l64 203q165 -109 338 -109q115 0 184.5 58t69.5 155q0 94 -60 161t-198 120q-199 76 -294.5 179.5t-95.5 248.5q0 163 130 272q130 106 337 106q189 0 363 -79l-53 -191q-170 78 -308 78q-108 0 -170.5 -50.5t-62.5 -135.5q0 -79 62 -135.5
t212 -116.5q373 -144 373 -441q0 -195 -135 -309q-133 -115 -354 -115zM414 1567l204 329h263l-250 -329h-217z" />
    <glyph glyph-name="sacute" unicode="&#x15b;" horiz-adv-x="878" 
d="M86 43l37 188q128 -67 280 -67q80 0 127.5 32t47.5 91q0 111 -195 176q-291 94 -291 307q0 136 101 217.5t272 81.5q145 0 293 -59l-41 -185q-148 60 -252 60q-63 0 -104.5 -31t-41.5 -78q0 -76 201 -153q285 -105 285 -332q0 -140 -107 -228t-280 -88q-167 0 -332 68z
M303 1186l205 330h262l-250 -330h-217z" />
    <glyph glyph-name="Scircumflex" unicode="&#x15c;" horiz-adv-x="1075" 
d="M500 -25q-213 0 -402 101l64 203q165 -109 338 -109q115 0 184.5 58t69.5 155q0 94 -60 161t-198 120q-199 76 -294.5 179.5t-95.5 248.5q0 163 130 272q130 106 337 106q189 0 363 -79l-53 -191q-170 78 -308 78q-108 0 -170.5 -50.5t-62.5 -135.5q0 -79 62 -135.5
t212 -116.5q373 -144 373 -441q0 -195 -135 -309q-133 -115 -354 -115zM152 1569l270 323h235l271 -323h-219l-168 182l-168 -182h-221z" />
    <glyph glyph-name="scircumflex" unicode="&#x15d;" horiz-adv-x="878" 
d="M86 43l37 188q128 -67 280 -67q80 0 127.5 32t47.5 91q0 111 -195 176q-291 94 -291 307q0 136 101 217.5t272 81.5q145 0 293 -59l-41 -185q-148 60 -252 60q-63 0 -104.5 -31t-41.5 -78q0 -76 201 -153q285 -105 285 -332q0 -140 -107 -228t-280 -88q-167 0 -332 68z
M49 1188l270 323h236l270 -323h-219l-168 182l-168 -182h-221z" />
    <glyph glyph-name="Scedilla" unicode="&#x15e;" horiz-adv-x="1075" 
d="M313 -455l31 131q70 -28 139 -28q43 0 70 20t27 51q0 93 -187 93l66 163q-191 12 -361 101l64 203q165 -109 338 -109q115 0 184.5 58t69.5 155q0 94 -60 161t-198 120q-199 76 -294.5 179.5t-95.5 248.5q0 163 130 272q130 106 337 106q189 0 363 -79l-53 -191
q-170 78 -308 78q-108 0 -170.5 -50.5t-62.5 -135.5q0 -79 62 -135.5t212 -116.5q376 -146 373 -441q-1 -157 -89.5 -263.5t-244.5 -143.5l-49 -96q73 -13 115.5 -62t42.5 -117q0 -94 -71 -150t-197 -56q-105 0 -183 34z" />
    <glyph glyph-name="scedilla" unicode="&#x15f;" horiz-adv-x="878" 
d="M209 -455l31 131q70 -28 139 -28q42 0 69 20t27 51q0 93 -186 93l65 165q-144 12 -268 66l37 188q128 -67 280 -67q80 0 127.5 32t47.5 91q0 111 -195 176q-291 94 -291 307q0 136 101 217.5t272 81.5q145 0 293 -59l-41 -185q-148 60 -252 60q-63 0 -104.5 -31
t-41.5 -78q0 -76 201 -153q285 -105 285 -332q0 -110 -68.5 -190t-187.5 -109l-47 -96q73 -13 115 -62t42 -117q0 -94 -71 -150t-197 -56q-104 0 -182 34z" />
    <glyph glyph-name="Scaron" unicode="&#x160;" horiz-adv-x="1075" 
d="M500 -25q-213 0 -402 101l64 203q165 -109 338 -109q115 0 184.5 58t69.5 155q0 94 -60 161t-198 120q-199 76 -294.5 179.5t-95.5 248.5q0 163 130 272q130 106 337 106q189 0 363 -79l-53 -191q-170 78 -308 78q-108 0 -170.5 -50.5t-62.5 -135.5q0 -79 62 -135.5
t212 -116.5q373 -144 373 -441q0 -195 -135 -309q-133 -115 -354 -115zM928 1892l-271 -323h-235l-270 323h221l168 -182l168 182h219z" />
    <glyph glyph-name="scaron" unicode="&#x161;" horiz-adv-x="878" 
d="M86 43l37 188q128 -67 280 -67q80 0 127.5 32t47.5 91q0 111 -195 176q-291 94 -291 307q0 136 101 217.5t272 81.5q145 0 293 -59l-41 -185q-148 60 -252 60q-63 0 -104.5 -31t-41.5 -78q0 -76 201 -153q285 -105 285 -332q0 -140 -107 -228t-280 -88q-167 0 -332 68z
M825 1511l-270 -323h-236l-270 323h221l168 -182l168 182h219z" />
    <glyph glyph-name="Tcommaaccent" unicode="&#x162;" horiz-adv-x="1171" 
d="M344 -455l33 131q70 -28 139 -28q41 0 67.5 20t26.5 51q0 93 -184 93l74 188h-33v1251h-412v195h1063v-195h-411v-1251h-17l-53 -104q74 -13 117 -62t43 -117q0 -94 -71.5 -150t-197.5 -56q-103 0 -184 34z" />
    <glyph glyph-name="tcommaaccent" unicode="&#x163;" horiz-adv-x="749" 
d="M180 -455l33 131q70 -28 139 -28q41 0 67.5 20t26.5 51q0 93 -184 93l74 190q-123 59 -123 236v618h-176v188h176v302h236v-302h237v-188h-237v-598q0 -92 75 -92t160 33l37 -172q-110 -44 -205 -50l-43 -81q74 -13 117 -62t43 -117q0 -94 -71 -150t-197 -56
q-104 0 -185 34z" />
    <glyph glyph-name="Tcaron" unicode="&#x164;" horiz-adv-x="1171" 
d="M707 1251v-1251h-240v1251h-412v195h1063v-195h-411zM975 1892l-270 -323h-236l-270 323h221l168 -182l168 182h219z" />
    <glyph glyph-name="tcaron" unicode="&#x165;" horiz-adv-x="1081" 
d="M449 1346v-302h237v-188h-237v-598q0 -92 75 -92t160 33l37 -172q-119 -52 -248 -52q-125 0 -192.5 67.5t-67.5 195.5v618h-176v188h176v302h236zM748 1382q0 56 38 92.5t99 36.5q68 0 111.5 -51t43.5 -137q0 -104 -62.5 -197t-168.5 -147l-70 72q137 76 158 213
q-16 -4 -25 -4q-54 0 -89 34t-35 88z" />
    <glyph glyph-name="Tbar" unicode="&#x166;" horiz-adv-x="1171" 
d="M707 612v-612h-240v612h-309v174h309v465h-412v195h1063v-195h-411v-465h309v-174h-309z" />
    <glyph glyph-name="tbar" unicode="&#x167;" horiz-adv-x="770" 
d="M457 1346v-302h239v-188h-239v-250h207v-164h-207v-184q0 -92 78 -92q74 0 159 33l35 -172q-116 -52 -246 -52q-125 0 -192.5 67.5t-67.5 195.5v204h-155v164h155v250h-176v188h176v302h234z" />
    <glyph glyph-name="Utilde" unicode="&#x168;" horiz-adv-x="1402" 
d="M702 -25q-251 0 -401 150q-149 149 -149 393v928h239v-928q0 -160 84 -254t227 -94q146 0 229 93.5t83 254.5v928h237v-928q0 -244 -149 -393q-150 -150 -400 -150zM834 1583q-91 0 -164 64q-55 49 -84 49q-43 0 -43 -103h-185q0 124 55.5 193t155.5 69q89 0 164 -63
q58 -49 84 -49q43 0 43 102h184q0 -124 -55 -193t-155 -69z" />
    <glyph glyph-name="utilde" unicode="&#x169;" horiz-adv-x="1124" 
d="M748 328v716h235v-1044h-235v117q-121 -142 -285 -142q-147 0 -242 95q-94 94 -94 245v729h233v-710q0 -79 42 -124.5t110 -45.5q122 0 236 164zM690 1204q-91 0 -164 64q-55 49 -84 49q-43 0 -43 -105h-184q0 124 55.5 193.5t155.5 69.5q91 0 164 -64q58 -49 84 -49
q43 0 43 104h184q0 -124 -55.5 -193t-155.5 -69z" />
    <glyph glyph-name="Umacron" unicode="&#x16a;" horiz-adv-x="1402" 
d="M702 -25q-251 0 -401 150q-149 149 -149 393v928h239v-928q0 -160 84 -254t227 -94q146 0 229 93.5t83 254.5v928h237v-928q0 -244 -149 -393q-150 -150 -400 -150zM1014 1632h-623v172h623v-172z" />
    <glyph glyph-name="umacron" unicode="&#x16b;" horiz-adv-x="1124" 
d="M748 328v716h235v-1044h-235v117q-121 -142 -285 -142q-147 0 -242 95q-94 94 -94 245v729h233v-710q0 -79 42 -124.5t110 -45.5q122 0 236 164zM866 1251h-622v174h622v-174z" />
    <glyph glyph-name="Ubreve" unicode="&#x16c;" horiz-adv-x="1402" 
d="M702 -25q-251 0 -401 150q-149 149 -149 393v928h239v-928q0 -160 84 -254t227 -94q146 0 229 93.5t83 254.5v928h237v-928q0 -244 -149 -393q-150 -150 -400 -150zM352 1862h199q5 -74 44.5 -117t106.5 -43t107 43t45 117h199q-3 -146 -101 -234t-250 -88
q-151 0 -249 88t-101 234z" />
    <glyph glyph-name="ubreve" unicode="&#x16d;" horiz-adv-x="1124" 
d="M748 328v716h235v-1044h-235v117q-121 -142 -285 -142q-147 0 -242 95q-94 94 -94 245v729h233v-710q0 -79 42 -124.5t110 -45.5q122 0 236 164zM205 1481h198q1 -73 42.5 -115.5t109.5 -42.5t109.5 42.5t42.5 115.5h198q-5 -142 -101.5 -231t-248.5 -89t-250 88
q-97 87 -100 232z" />
    <glyph glyph-name="Uring" unicode="&#x16e;" horiz-adv-x="1402" 
d="M702 -25q-251 0 -401 150q-149 149 -149 393v928h239v-928q0 -160 84 -254t227 -94q146 0 229 93.5t83 254.5v928h237v-928q0 -244 -149 -393q-150 -150 -400 -150zM702 1960q103 0 173.5 -64.5t70.5 -162.5t-70.5 -163t-173.5 -65q-105 0 -175 65t-70 163t70 162.5
t175 64.5zM702 1649q35 0 60.5 24.5t25.5 59.5t-25.5 59.5t-60.5 24.5q-37 0 -61.5 -24.5t-24.5 -59.5t24.5 -59.5t61.5 -24.5z" />
    <glyph glyph-name="uring" unicode="&#x16f;" horiz-adv-x="1124" 
d="M748 328v716h235v-1044h-235v117q-121 -142 -285 -142q-147 0 -242 95q-94 94 -94 245v729h233v-710q0 -79 42 -124.5t110 -45.5q122 0 236 164zM555 1579q103 0 173.5 -64.5t70.5 -162.5t-70.5 -163t-173.5 -65q-105 0 -175.5 65t-70.5 163t70.5 162.5t175.5 64.5z
M555 1268q35 0 60.5 24.5t25.5 59.5t-25.5 59.5t-60.5 24.5q-37 0 -61.5 -24.5t-24.5 -59.5t24.5 -59.5t61.5 -24.5z" />
    <glyph glyph-name="Uhungarumlaut" unicode="&#x170;" horiz-adv-x="1402" 
d="M702 -25q-251 0 -401 150q-149 149 -149 393v928h239v-928q0 -160 84 -254t227 -94q146 0 229 93.5t83 254.5v928h237v-928q0 -244 -149 -393q-150 -150 -400 -150zM420 1567l205 329h258l-248 -329h-215zM737 1567l205 329h258l-248 -329h-215z" />
    <glyph glyph-name="uhungarumlaut" unicode="&#x171;" horiz-adv-x="1124" 
d="M748 328v716h235v-1044h-235v117q-121 -142 -285 -142q-147 0 -242 95q-94 94 -94 245v729h233v-710q0 -79 42 -124.5t110 -45.5q122 0 236 164zM272 1186l205 330h258l-248 -330h-215zM590 1186l205 330h258l-248 -330h-215z" />
    <glyph glyph-name="Uogonek" unicode="&#x172;" horiz-adv-x="1402" 
d="M152 518v928h239v-928q0 -160 84 -254t227 -94q146 0 229 93.5t83 254.5v928h237v-928q0 -210 -110 -351t-305 -179q-140 -119 -140 -224q0 -37 23.5 -59t64.5 -22q46 0 101 18l22 -141q-80 -25 -155 -25q-110 0 -175 55.5t-65 149.5q0 128 127 237q-223 21 -356 166
q-131 146 -131 375z" />
    <glyph glyph-name="uogonek" unicode="&#x173;" horiz-adv-x="1179" 
d="M748 328v716h235v-1044q-156 -123 -156 -236q0 -37 24.5 -58t66.5 -21q48 0 98 16l24 -141q-80 -25 -155 -25q-110 0 -175 56t-65 149q0 138 152 260h-49v117q-121 -142 -285 -142q-147 0 -242 95q-94 94 -94 245v729h233v-710q0 -75 42.5 -122.5t109.5 -47.5
q122 0 236 164z" />
    <glyph glyph-name="Wcircumflex" unicode="&#x174;" horiz-adv-x="1916" 
d="M1470 0h-217l-295 1061l-294 -1061h-218l-438 1446h250l297 -1067l297 1067h215l297 -1067l297 1067h250zM571 1569l271 323h235l271 -323h-220l-167 182l-168 -182h-222z" />
    <glyph glyph-name="wcircumflex" unicode="&#x175;" horiz-adv-x="1564" 
d="M469 303l205 741h221l203 -741l200 741h242l-328 -1044h-225l-205 721l-204 -721h-224l-329 1044h241zM395 1188l271 323h235l270 -323h-221l-168 182l-168 -182h-219z" />
    <glyph glyph-name="Ycircumflex" unicode="&#x176;" horiz-adv-x="1327" 
d="M664 823l380 623h277l-537 -838v-608h-239v608l-537 838h277zM276 1569l271 323h235l271 -323h-222l-167 182l-168 -182h-220z" />
    <glyph glyph-name="ycircumflex" unicode="&#x177;" horiz-adv-x="1021" 
d="M270 1044l246 -729l236 729h245l-405 -1124q-77 -218 -281 -354l-141 149q158 101 217 267l16 53l-378 1009h245zM129 1188l270 323h236l270 -323h-219l-168 182l-168 -182h-221z" />
    <glyph glyph-name="Ydieresis" unicode="&#x178;" horiz-adv-x="1327" 
d="M664 823l380 623h277l-537 -838v-608h-239v608l-537 838h277zM483 1845q55 0 92 -36.5t37 -90.5q0 -56 -37 -92.5t-92 -36.5q-57 0 -93 36.5t-36 92.5t36 91.5t93 35.5zM713 1718q0 54 37 90.5t94 36.5q55 0 92 -36.5t37 -90.5q0 -56 -36.5 -92.5t-92.5 -36.5
q-57 0 -94 36.5t-37 92.5z" />
    <glyph glyph-name="Zacute" unicode="&#x179;" horiz-adv-x="1200" 
d="M1096 195v-195h-987v178l679 1075h-663v193h944v-178l-680 -1073h707zM485 1567l205 329h260l-248 -329h-217z" />
    <glyph glyph-name="zacute" unicode="&#x17a;" horiz-adv-x="974" 
d="M903 190v-190h-831v168l530 688h-512v188h797v-167l-533 -687h549zM360 1186l205 330h262l-249 -330h-218z" />
    <glyph glyph-name="Zdotaccent" unicode="&#x17b;" horiz-adv-x="1200" 
d="M1096 195v-195h-987v178l679 1075h-663v193h944v-178l-680 -1073h707zM498 1620q-38 38 -38 98.5t38 98.5t98 38t98 -38q41 -38 41 -98.5t-41 -98.5q-38 -38 -98 -38t-98 38z" />
    <glyph glyph-name="zdotaccent" unicode="&#x17c;" horiz-adv-x="974" 
d="M903 190v-190h-831v168l530 688h-512v188h797v-167l-533 -687h549zM354 1337q0 59 40 98.5t98 39.5q60 0 99.5 -39t39.5 -99q0 -57 -39.5 -96t-99.5 -39q-57 0 -97.5 39t-40.5 96z" />
    <glyph glyph-name="Zcaron" unicode="&#x17d;" horiz-adv-x="1200" 
d="M1096 195v-195h-987v178l679 1075h-663v193h944v-178l-680 -1073h707zM1001 1892l-270 -323h-235l-271 323h221l168 -182l168 182h219z" />
    <glyph glyph-name="zcaron" unicode="&#x17e;" horiz-adv-x="974" 
d="M903 190v-190h-831v168l530 688h-512v188h797v-167l-533 -687h549zM881 1511l-271 -323h-235l-271 323h220l168 -182l167 182h222z" />
    <glyph glyph-name="longs" unicode="&#x17f;" horiz-adv-x="720" 
d="M449 1206v-1206h-236v856h-176v188h176v164q0 144 78.5 223.5t226.5 79.5q127 0 254 -47l-39 -178q-87 37 -182 37q-102 0 -102 -117z" />
    <glyph glyph-name="uni0191" unicode="&#x191;" horiz-adv-x="1032" 
d="M160 -55v1501h790v-193h-553v-411h492v-193h-492v-708q0 -182 -105.5 -284.5t-281.5 -102.5q-122 0 -213 45l27 184q87 -35 174 -35q70 0 116 53t46 144z" />
    <glyph glyph-name="florin" unicode="&#x192;" horiz-adv-x="720" 
d="M213 -57v913h-176v188h176v164q0 142 79.5 222.5t225.5 80.5q131 0 252 -47l-37 -178q-93 37 -184 37q-103 0 -103 -117v-162h240v-188h-240v-915q0 -182 -103.5 -284.5t-279.5 -102.5q-117 0 -210 43l26 184q76 -33 174 -33q74 0 117 51t43 144z" />
    <glyph glyph-name="Aringacute" unicode="&#x1fa;" horiz-adv-x="1361" 
d="M922 1509q0 -110 -93 -176l525 -1333h-252l-127 346h-590l-125 -346h-252l527 1333q-95 65 -95 176q0 93 71 157.5t171 64.5t170 -64.5t70 -157.5zM453 539h454l-225 622zM559 1772l168 262h246l-213 -262h-201zM623 1565q-23 -23 -23 -55.5t23 -55.5q25 -23 59 -23
t57 23t23 55.5t-23 55.5t-57 23t-59 -23z" />
    <glyph glyph-name="aringacute" unicode="&#x1fb;" horiz-adv-x="1038" 
d="M66 274q0 166 143 267q141 100 389 100h74v98q0 67 -39.5 105.5t-108.5 38.5q-159 0 -319 -92l-49 178q190 100 381 100q170 0 266 -86.5t96 -234.5v-463q0 -155 43 -285h-223q-22 56 -31 121q-128 -146 -291 -146q-153 0 -242 81.5t-89 217.5zM426 160q138 0 246 147
v166h-62q-147 0 -233 -54.5t-86 -142.5q0 -116 135 -116zM391 1630l182 283h246l-227 -283h-201zM260 1352q0 98 69.5 161.5t174.5 63.5q103 0 172 -63.5t69 -161.5q0 -96 -69 -160t-172 -64q-105 0 -174.5 63.5t-69.5 160.5zM504 1272q35 0 59.5 23.5t24.5 56.5t-24.5 56.5
t-59.5 23.5q-37 0 -61.5 -22.5t-24.5 -57.5t24.5 -57.5t61.5 -22.5z" />
    <glyph glyph-name="AEacute" unicode="&#x1fc;" horiz-adv-x="1820" 
d="M874 0v346h-421l-177 -346h-268l785 1446h893v-193h-576v-411h508v-193h-508v-454h602v-195h-838zM874 537v630l-323 -630h323zM834 1567l204 329h262l-249 -329h-217z" />
    <glyph glyph-name="aeacute" unicode="&#x1fd;" horiz-adv-x="1675" 
d="M1604 549v-84h-658q6 -139 72.5 -221t171.5 -82q138 0 278 67l60 -172q-174 -82 -342 -82q-255 0 -375 215q-56 -101 -156 -158t-229 -57q-160 0 -260 80.5t-100 212.5q0 164 147 269q149 104 387 104h117q-4 114 -61.5 178t-149.5 64q-146 0 -303 -97l-51 181
q188 102 360 102q105 0 191 -49t128 -129q120 178 343 178q206 0 317 -147q113 -143 113 -373zM442 160q110 0 187 86q79 85 88 225h-107q-147 0 -233 -54.5t-86 -140.5q0 -55 40.5 -85.5t110.5 -30.5zM952 637h420q-2 108 -58.5 182t-142.5 74q-87 0 -147.5 -72.5
t-71.5 -183.5zM707 1186l204 330h260l-247 -330h-217z" />
    <glyph glyph-name="Oslashacute" unicode="&#x1fe;" horiz-adv-x="1523" 
d="M762 -25q-184 0 -332 80l-98 -157h-185l156 247q-227 211 -227 578q0 324 186 534q189 213 500 213q186 0 332 -79l100 157h184l-157 -248q227 -211 227 -577q0 -325 -188 -537q-187 -211 -498 -211zM313 723q0 -235 111 -385l559 881q-94 61 -221 61q-203 0 -328 -158
q-121 -157 -121 -399zM762 166q205 0 325 156q123 156 123 401q0 232 -110 387l-559 -883q94 -61 221 -61zM635 1567l205 329h260l-248 -329h-217z" />
    <glyph glyph-name="oslashacute" unicode="&#x1ff;" horiz-adv-x="1142" 
d="M444 1186l205 330h262l-249 -330h-218zM573 -25q-123 0 -223 50l-78 -127h-170l129 208q-157 154 -157 416q0 241 137 393q139 154 362 154q126 0 220 -49l79 127h170l-129 -209q158 -155 158 -416q0 -241 -137 -393q-139 -154 -361 -154zM573 885q-127 0 -200 -105
q-74 -103 -74 -258q0 -130 53 -219l338 551q-51 31 -117 31zM573 160q125 0 199 102q74 106 74 260q0 126 -53 221l-338 -553q49 -30 118 -30z" />
    <glyph glyph-name="Scommaaccent" unicode="&#x218;" horiz-adv-x="1075" 
d="M500 -25q-213 0 -402 101l64 203q165 -109 338 -109q115 0 184.5 58t69.5 155q0 94 -60 161t-198 120q-199 76 -294.5 179.5t-95.5 248.5q0 163 130 272q130 106 337 106q189 0 363 -79l-53 -191q-170 78 -308 78q-108 0 -170.5 -50.5t-62.5 -135.5q0 -79 62 -135.5
t212 -116.5q373 -144 373 -441q0 -195 -135 -309q-133 -115 -354 -115zM545 -98q65 0 106 -46.5t41 -129.5q0 -93 -59.5 -173.5t-157.5 -123.5l-65 73q124 58 145 160q-4 -2 -23 -2q-52 0 -86 33t-34 86q0 54 38 88.5t95 34.5z" />
    <glyph glyph-name="scommaaccent" unicode="&#x219;" horiz-adv-x="878" 
d="M86 43l37 188q128 -67 280 -67q80 0 127.5 32t47.5 91q0 111 -195 176q-291 94 -291 307q0 136 101 217.5t272 81.5q145 0 293 -59l-41 -185q-148 60 -252 60q-63 0 -104.5 -31t-41.5 -78q0 -76 201 -153q285 -105 285 -332q0 -140 -107 -228t-280 -88q-167 0 -332 68z
M451 -98q64 0 105.5 -48t41.5 -128q0 -93 -60 -173.5t-159 -123.5l-64 73q125 58 146 160q-6 -2 -25 -2q-51 0 -85 33t-34 86q0 54 38.5 88.5t95.5 34.5z" />
    <glyph glyph-name="uni021A" unicode="&#x21a;" horiz-adv-x="1171" 
d="M707 1251v-1251h-240v1251h-412v195h1063v-195h-411zM580 -98q64 0 105.5 -48t41.5 -128q0 -93 -60 -173.5t-159 -123.5l-64 73q125 58 146 160q-6 -2 -25 -2q-51 0 -85 33t-34 86q0 54 38.5 88.5t95.5 34.5z" />
    <glyph glyph-name="uni021B" unicode="&#x21b;" horiz-adv-x="749" 
d="M449 1346v-302h237v-188h-237v-598q0 -92 75 -92t160 33l37 -172q-119 -52 -248 -52q-125 0 -192.5 67.5t-67.5 195.5v618h-176v188h176v302h236zM389 -98q65 0 106.5 -47t41.5 -129q0 -93 -60 -173.5t-158 -123.5l-65 73q124 58 145 160q-4 -2 -22 -2q-52 0 -86.5 33
t-34.5 86q0 54 38 88.5t95 34.5z" />
    <glyph glyph-name="dotlessj" unicode="&#x237;" horiz-adv-x="544" 
d="M33 -446l-90 172q110 47 161.5 111.5t51.5 156.5v1050h233v-1054q0 -298 -356 -436z" />
    <glyph glyph-name="apostrophe" unicode="&#x2bc;" horiz-adv-x="841" 
d="M272 1382q0 56 38.5 92.5t99.5 36.5q68 0 111.5 -51t43.5 -137q0 -104 -62.5 -197t-168.5 -147l-70 72q137 76 158 213q-16 -4 -25 -4q-54 0 -89.5 34t-35.5 88z" />
    <glyph glyph-name="circumflex" unicode="&#x2c6;" horiz-adv-x="841" 
d="M33 1163l270 324h236l270 -324h-219l-168 183l-168 -183h-221z" />
    <glyph glyph-name="caron" unicode="&#x2c7;" horiz-adv-x="841" 
d="M809 1487l-270 -324h-236l-270 324h221l168 -182l168 182h219z" />
    <glyph glyph-name="uni02C9" unicode="&#x2c9;" horiz-adv-x="841" 
d="M733 1260h-622v174h622v-174z" />
    <glyph glyph-name="breve" unicode="&#x2d8;" horiz-adv-x="841" 
d="M72 1487h198q1 -73 42.5 -115.5t109.5 -42.5t109 42.5t42 115.5h199q-5 -142 -101.5 -231t-248.5 -89t-250 88q-97 87 -100 232z" />
    <glyph glyph-name="dotaccent" unicode="&#x2d9;" horiz-adv-x="841" 
d="M422 1481q57 0 97 -40.5t40 -97.5t-40 -97t-97 -40q-60 0 -99.5 40t-39.5 97q0 58 40 98t99 40z" />
    <glyph glyph-name="ring" unicode="&#x2da;" horiz-adv-x="841" 
d="M422 1554q103 0 173.5 -64.5t70.5 -162.5t-70.5 -162.5t-173.5 -64.5q-105 0 -175.5 64.5t-70.5 162.5t70.5 162.5t175.5 64.5zM422 1243q35 0 60.5 24.5t25.5 59.5t-25.5 59.5t-60.5 24.5q-37 0 -61.5 -24.5t-24.5 -59.5t24.5 -59.5t61.5 -24.5z" />
    <glyph glyph-name="ogonek" unicode="&#x2db;" horiz-adv-x="841" 
d="M377 0h186q-153 -126 -153 -236q0 -37 23.5 -59t64.5 -22q44 0 100 18l23 -141q-80 -25 -156 -25q-110 0 -175 55.5t-65 149.5q0 135 152 260z" />
    <glyph glyph-name="tilde" unicode="&#x2dc;" horiz-adv-x="841" 
d="M553 1217q-92 0 -164 63q-55 49 -84 49q-43 0 -43 -102h-184q0 124 55.5 193t155.5 69q88 0 164 -64q58 -49 84 -49q43 0 43 103h184q0 -124 -55.5 -193t-155.5 -69z" />
    <glyph glyph-name="hungarumlaut" unicode="&#x2dd;" horiz-adv-x="841" 
d="M47 1161l205 330h258l-250 -330h-213zM365 1161l204 330h258l-249 -330h-213z" />
    <glyph glyph-name="gravecomb" unicode="&#x300;" horiz-adv-x="0" 
d="M-547 1161l-250 330h262l205 -330h-217z" />
    <glyph glyph-name="acutecomb" unicode="&#x301;" horiz-adv-x="0" 
d="M-688 1161l205 330h260l-248 -330h-217z" />
    <glyph glyph-name="uni0302" unicode="&#x302;" horiz-adv-x="0" 
d="M-905 1163l270 324h236l270 -324h-219l-168 183l-168 -183h-221z" />
    <glyph glyph-name="tildecomb" unicode="&#x303;" horiz-adv-x="0" 
d="M-383 1217q-92 0 -164 63q-58 49 -84 49q-43 0 -43 -102h-184q0 124 55.5 193t155.5 69q85 0 164 -64q55 -49 84 -49q43 0 43 103h184q0 -124 -55.5 -193t-155.5 -69z" />
    <glyph glyph-name="uni0304" unicode="&#x304;" horiz-adv-x="0" 
d="M-201 1262h-622v172h622v-172z" />
    <glyph glyph-name="uni0306" unicode="&#x306;" horiz-adv-x="0" 
d="M-868 1487h198q1 -73 42.5 -115.5t109.5 -42.5t109 42.5t42 115.5h199q-5 -142 -101.5 -231t-248.5 -89t-250 88q-97 87 -100 232z" />
    <glyph glyph-name="uni0307" unicode="&#x307;" horiz-adv-x="0" 
d="M-616 1245q-41 41 -41 99t41 96q38 41 98 41t98 -41q38 -38 38 -96t-38 -99q-38 -38 -98 -38t-98 38z" />
    <glyph glyph-name="uni0308" unicode="&#x308;" horiz-adv-x="0" 
d="M-827 1346q0 56 36.5 92.5t92.5 36.5q57 0 94 -36.5t37 -92.5q0 -54 -37 -90.5t-94 -36.5q-55 0 -92 36.5t-37 90.5zM-467 1346q0 56 36.5 92.5t92.5 36.5t92.5 -36.5t36.5 -92.5q0 -54 -37 -90.5t-92 -36.5t-92 36.5t-37 90.5z" />
    <glyph glyph-name="uni030A" unicode="&#x30a;" horiz-adv-x="0" 
d="M-518 1554q105 0 175.5 -64.5t70.5 -162.5t-70.5 -162.5t-175.5 -64.5q-103 0 -173.5 64.5t-70.5 162.5t70.5 162.5t173.5 64.5zM-518 1243q37 0 61.5 24.5t24.5 59.5t-24.5 59.5t-61.5 24.5q-35 0 -59.5 -24.5t-24.5 -59.5t24.5 -59.5t59.5 -24.5z" />
    <glyph glyph-name="uni030C" unicode="&#x30c;" horiz-adv-x="0" 
d="M-129 1487l-270 -324h-236l-270 324h221l168 -182l168 182h219z" />
    <glyph glyph-name="uni0327" unicode="&#x327;" horiz-adv-x="0" 
d="M-750 -455l31 131q70 -28 139 -28q43 0 70 20t27 51q0 93 -187 93l74 188h190l-51 -104q73 -13 115.5 -62t42.5 -117q0 -94 -71 -150t-197 -56q-105 0 -183 34z" />
    <glyph glyph-name="uni03A9" unicode="&#x3a9;" horiz-adv-x="1542" 
d="M322 762q0 -400 387 -588v-174h-586v193h252q-291 204 -291 569q0 316 190 512t498 196t498 -196t190 -512q0 -365 -291 -569h250v-193h-583v174q387 190 387 588q0 230 -125 373q-124 145 -326 145q-201 0 -328 -145q-122 -143 -122 -373z" />
    <glyph glyph-name="uni0400" unicode="&#x400;" horiz-adv-x="1110" 
d="M999 195v-195h-839v1446h813v-193h-574v-411h506v-193h-506v-454h600zM475 1567l-248 329h260l205 -329h-217z" />
    <glyph glyph-name="afii10023" unicode="&#x401;" horiz-adv-x="1110" 
d="M999 195v-195h-839v1446h813v-193h-574v-411h506v-193h-506v-454h600zM520 1718q0 -56 -37 -92.5t-92 -36.5q-42 -4 -74.5 20t-45.5 59t-6.5 75t34.5 65q27 29 67 35t74.5 -8t58.5 -45.5t21 -71.5zM621 1718q0 54 37 90.5t94 36.5q55 0 92 -36.5t37 -90.5
q0 -56 -36.5 -92.5t-92.5 -36.5q-57 0 -94 36.5t-37 92.5z" />
    <glyph glyph-name="afii10051" unicode="&#x402;" horiz-adv-x="1507" 
d="M702 659v-659h-237v1251h-410v195h1057v-195h-410v-391q118 92 279 92q205 0 328 -129q125 -125 125 -331q0 -217 -123 -355q-122 -137 -338 -137h-58v195h52q106 0 167.5 78.5t61.5 203.5q0 129 -64 205t-176 76q-143 0 -254 -99z" />
    <glyph glyph-name="afii10052" unicode="&#x403;" horiz-adv-x="1038" 
d="M418 1567l205 329h260l-248 -329h-217zM160 0v1446h825v-195h-586v-1251h-239z" />
    <glyph glyph-name="afii10053" unicode="&#x404;" horiz-adv-x="1353" 
d="M76 725q0 334 207 541q207 204 540 204q228 0 414 -92l-53 -190q-172 90 -361 90q-206 0 -340 -125t-161 -332h788v-192h-788q26 -210 161.5 -334.5t339.5 -124.5q201 0 379 96l55 -192q-203 -99 -434 -99q-332 0 -540 205q-207 207 -207 545z" />
    <glyph glyph-name="afii10054" unicode="&#x405;" horiz-adv-x="1075" 
d="M500 -25q-213 0 -402 101l64 203q165 -109 338 -109q115 0 184.5 58t69.5 155q0 94 -60 161t-198 120q-199 76 -294.5 179.5t-95.5 248.5q0 163 130 272q130 106 337 106q189 0 363 -79l-53 -191q-170 78 -308 78q-108 0 -170.5 -50.5t-62.5 -135.5q0 -79 62 -135.5
t212 -116.5q373 -144 373 -441q0 -195 -135 -309q-133 -115 -354 -115z" />
    <glyph glyph-name="afii10055" unicode="&#x406;" horiz-adv-x="571" 
d="M406 1446v-1446h-238v1446h238z" />
    <glyph glyph-name="afii10056" unicode="&#x407;" horiz-adv-x="571" 
d="M406 1446v-1446h-238v1446h238zM-25 1718q0 54 37 90.5t94 36.5q55 0 92.5 -36.5t37.5 -90.5q0 -55 -37 -92t-93 -37q-57 0 -94 36.5t-37 92.5zM336 1718q0 54 37 90.5t94 36.5q55 0 92 -36.5t37 -90.5q0 -56 -37 -92.5t-92 -36.5q-57 0 -94 36.5t-37 92.5z" />
    <glyph glyph-name="afii10057" unicode="&#x408;" horiz-adv-x="782" 
d="M391 377v1069h238v-1069q0 -190 -106 -296t-287 -106q-114 0 -216 45l31 185q87 -35 174 -35q79 0 122.5 52t43.5 155z" />
    <glyph glyph-name="afii10058" unicode="&#x409;" horiz-adv-x="2146" 
d="M391 377v1069h1008v-580h155q248 0 390 -121q141 -120 141 -313q0 -191 -141 -311q-142 -121 -390 -121h-393v1251h-532v-874q0 -190 -106 -296t-287 -106q-122 0 -213 45l26 185q78 -35 176 -35q77 0 121.5 53t44.5 154zM1554 674h-155v-484h155q140 0 218.5 65.5
t78.5 176.5t-78.5 176.5t-218.5 65.5z" />
    <glyph glyph-name="afii10059" unicode="&#x40a;" horiz-adv-x="1990" 
d="M397 649v-649h-237v1446h237v-602h609v602h235v-580h156q250 0 389 -121q141 -120 141 -313q0 -191 -141 -311q-142 -121 -389 -121h-391v649h-609zM1397 674h-156v-484h156q140 0 218.5 65.5t78.5 176.5t-78.5 176.5t-218.5 65.5z" />
    <glyph glyph-name="afii10060" unicode="&#x40b;" horiz-adv-x="1540" 
d="M1413 0h-237v496q0 122 -58.5 192t-161.5 70q-145 0 -254 -103v-655h-237v1251h-410v195h1057v-195h-410v-391q115 92 275 92q203 0 319.5 -120t116.5 -322v-510z" />
    <glyph glyph-name="afii10061" unicode="&#x40c;" horiz-adv-x="1290" 
d="M397 666v-666h-237v1446h237v-602l547 602h293l-637 -688l698 -758h-299zM528 1567l205 329h262l-250 -329h-217z" />
    <glyph glyph-name="uni040D" unicode="&#x40d;" horiz-adv-x="1445" 
d="M637 1567l-248 329h260l205 -329h-217zM1063 1106l-639 -1106h-264v1446h223v-1104l639 1104h264v-1446h-223v1106z" />
    <glyph glyph-name="afii10062" unicode="&#x40e;" horiz-adv-x="1280" 
d="M289 1862h200q5 -74 44.5 -117t105.5 -43q67 0 107 43t45 117h198q-3 -147 -100 -234q-98 -88 -250 -88t-250 88q-97 87 -100 234zM276 1446l388 -741l346 741h264l-617 -1288q-89 -183 -307 -183q-113 0 -209 41l37 189q85 -33 166 -33q71 0 105 70l88 190l-529 1014
h268z" />
    <glyph glyph-name="afii10145" unicode="&#x40f;" horiz-adv-x="1409" 
d="M160 0v1446h239v-1251h613v1251h237v-1446h-426v-246h-237v246h-426z" />
    <glyph glyph-name="afii10017" unicode="&#x410;" horiz-adv-x="1361" 
d="M8 0l563 1446h220l563 -1446h-252l-127 346h-590l-125 -346h-252zM453 539h454l-225 622z" />
    <glyph glyph-name="afii10018" unicode="&#x411;" horiz-adv-x="1150" 
d="M395 1253v-387h156q250 0 389 -121q141 -120 141 -313q0 -191 -141 -311q-142 -121 -389 -121h-391v1446h817v-193h-582zM395 674v-484h156q140 0 218.5 65.5t78.5 176.5t-78.5 176.5t-218.5 65.5h-156z" />
    <glyph glyph-name="afii10019" unicode="&#x412;" horiz-adv-x="1175" 
d="M551 0h-391v1446h372q232 0 361 -111q129 -108 129 -282q0 -92 -50.5 -172.5t-131.5 -122.5q112 -39 179.5 -128t67.5 -208q0 -189 -143 -305q-144 -117 -393 -117zM551 653h-160v-463h160q138 0 219.5 61.5t81.5 170.5t-81.5 170t-219.5 61zM532 1255h-141v-409h141
q118 0 187 54.5t69 150.5q0 92 -70 148t-186 56z" />
    <glyph glyph-name="afii10020" unicode="&#x413;" horiz-adv-x="1038" 
d="M160 0v1446h825v-195h-586v-1251h-239z" />
    <glyph glyph-name="afii10021" unicode="&#x414;" horiz-adv-x="1337" 
d="M1120 1446v-1256h164v-403h-235v213h-758v-213h-236v403h119q279 489 279 1256h667zM428 190h459v1065h-211q-15 -610 -248 -1065z" />
    <glyph glyph-name="afii10022" unicode="&#x415;" horiz-adv-x="1110" 
d="M999 195v-195h-839v1446h813v-193h-574v-411h506v-193h-506v-454h600z" />
    <glyph glyph-name="afii10024" unicode="&#x416;" horiz-adv-x="1892" 
d="M1065 1446v-604h76l413 604h285l-471 -668q66 -47 111 -116l413 -662h-282l-326 549q-60 100 -180 100h-39v-649h-238v649h-36q-124 0 -181 -100l-327 -549h-281l414 662q43 70 110 116l-473 668h285l416 -604h73v604h238z" />
    <glyph glyph-name="afii10025" unicode="&#x417;" horiz-adv-x="1120" 
d="M303 682v190q224 0 333 62.5t109 167.5q0 79 -64.5 127.5t-168.5 48.5q-160 0 -334 -86l-37 186q192 92 389 92q198 0 324 -102q125 -101 125 -262q0 -112 -69.5 -201t-192.5 -125q142 -35 228.5 -136t86.5 -234q0 -195 -151 -316q-149 -119 -406 -119q-208 0 -399 93
l51 186q182 -84 354 -84q137 0 225.5 64.5t88.5 168.5q0 126 -126 202.5t-366 76.5z" />
    <glyph glyph-name="afii10026" unicode="&#x418;" horiz-adv-x="1445" 
d="M1063 1106l-639 -1106h-264v1446h223v-1104l639 1104h264v-1446h-223v1106z" />
    <glyph glyph-name="afii10027" unicode="&#x419;" horiz-adv-x="1445" 
d="M373 1862h198q5 -74 45 -117t107 -43t106.5 43t44.5 117h199q-3 -147 -100 -234q-98 -88 -250 -88t-250 88q-97 87 -100 234zM1063 1106l-639 -1106h-264v1446h223v-1104l639 1104h264v-1446h-223v1106z" />
    <glyph glyph-name="afii10028" unicode="&#x41a;" horiz-adv-x="1269" 
d="M471 649h-74v-649h-237v1446h237v-604h121l414 604h285l-474 -668q70 -50 113 -116l414 -662h-283l-325 549q-63 100 -191 100z" />
    <glyph glyph-name="afii10029" unicode="&#x41b;" horiz-adv-x="1572" 
d="M391 377v1069h1022v-1446h-237v1251h-547v-874q0 -190 -106 -296t-287 -106q-122 0 -213 45l26 185q78 -35 176 -35q77 0 121.5 53t44.5 154z" />
    <glyph glyph-name="afii10030" unicode="&#x41c;" horiz-adv-x="1804" 
d="M1417 0v979l-407 -979h-213l-410 979v-979h-227v1446h268l475 -1151l475 1151h267v-1446h-228z" />
    <glyph glyph-name="afii10031" unicode="&#x41d;" horiz-adv-x="1406" 
d="M399 649v-649h-239v1446h239v-602h611v602h239v-1446h-239v649h-611z" />
    <glyph glyph-name="afii10032" unicode="&#x41e;" horiz-adv-x="1523" 
d="M434 322q123 -156 328 -156t325 156q123 156 123 401q0 243 -123 399q-122 158 -325 158t-328 -158q-121 -157 -121 -399q0 -244 121 -401zM1260 186q-187 -211 -498 -211q-313 0 -500 211q-186 210 -186 537q0 324 186 534q189 213 500 213q312 0 498 -210
q188 -212 188 -537t-188 -537z" />
    <glyph glyph-name="afii10033" unicode="&#x41f;" horiz-adv-x="1409" 
d="M399 1251v-1251h-239v1446h1089v-1446h-237v1251h-613z" />
    <glyph glyph-name="afii10034" unicode="&#x420;" horiz-adv-x="1144" 
d="M553 578h-158v-578h-235v1446h393q248 0 387 -121q141 -120 141 -313q0 -194 -141 -314q-138 -120 -387 -120zM553 1255h-158v-487h158q138 0 216.5 66.5t78.5 177.5t-78.5 177t-216.5 66z" />
    <glyph glyph-name="afii10035" unicode="&#x421;" horiz-adv-x="1353" 
d="M76 725q0 334 207 541q207 204 540 204q228 0 414 -92l-53 -190q-172 90 -361 90q-229 0 -368 -154q-140 -155 -140 -399q0 -246 140 -401q139 -154 368 -154q201 0 379 96l55 -192q-203 -99 -434 -99q-332 0 -540 205q-207 207 -207 545z" />
    <glyph glyph-name="afii10036" unicode="&#x422;" horiz-adv-x="1171" 
d="M707 1251v-1251h-240v1251h-412v195h1063v-195h-411z" />
    <glyph glyph-name="afii10037" unicode="&#x423;" horiz-adv-x="1280" 
d="M276 1446l388 -741l346 741h264l-617 -1288q-89 -183 -307 -183q-113 0 -209 41l37 189q85 -33 166 -33q71 0 105 70l88 190l-529 1014h268z" />
    <glyph glyph-name="afii10038" unicode="&#x424;" horiz-adv-x="1478" 
d="M627 1276v170h227v-170q243 -27 397 -178q156 -150 156 -373q0 -222 -156 -375q-154 -151 -397 -178v-172h-227v172q-245 27 -402 178q-153 153 -153 375q0 223 153 373q157 151 402 178zM1178 725q0 134 -88.5 230.5t-235.5 121.5v-704q148 25 236 121t88 231zM627 373
v704q-147 -25 -236.5 -121.5t-89.5 -230.5t89.5 -230.5t236.5 -121.5z" />
    <glyph glyph-name="afii10039" unicode="&#x425;" horiz-adv-x="1335" 
d="M1327 0h-276l-383 578l-381 -578h-279l520 760l-465 686h275l330 -502l329 502h277l-465 -686z" />
    <glyph glyph-name="afii10040" unicode="&#x426;" horiz-adv-x="1472" 
d="M1010 195v1251h239v-1253h170v-406h-237v213h-1022v1446h237v-1251h613z" />
    <glyph glyph-name="afii10041" unicode="&#x427;" horiz-adv-x="1376" 
d="M1217 1446v-1446h-238v584q-150 -185 -385 -185q-198 0 -334 121q-133 124 -133 311v615h240v-592q0 -123 65.5 -191.5t183.5 -68.5q226 0 363 242v610h238z" />
    <glyph glyph-name="afii10042" unicode="&#x428;" horiz-adv-x="1806" 
d="M160 1446h237v-1251h389v1251h236v-1251h389v1251h238v-1446h-1489v1446z" />
    <glyph glyph-name="afii10043" unicode="&#x429;" horiz-adv-x="1871" 
d="M1581 -213v213h-1421v1446h237v-1251h387v1251h238v-1251h389v1251h238v-1253h168v-406h-236z" />
    <glyph glyph-name="afii10044" unicode="&#x42a;" horiz-adv-x="1355" 
d="M606 1446v-580h156q250 0 389 -121q141 -120 141 -313q0 -191 -141 -311q-142 -121 -389 -121h-391v1251h-316v195h551zM606 674v-484h156q140 0 218.5 65.5t78.5 176.5t-78.5 176.5t-218.5 65.5h-156z" />
    <glyph glyph-name="afii10045" unicode="&#x42b;" horiz-adv-x="1689" 
d="M395 1446v-580h156q250 0 389 -121q141 -120 141 -313q0 -191 -141 -311q-142 -121 -389 -121h-391v1446h235zM395 674v-484h156q140 0 218.5 65.5t78.5 176.5t-78.5 176.5t-218.5 65.5h-156zM1530 1446v-1446h-240v1446h240z" />
    <glyph glyph-name="afii10046" unicode="&#x42c;" horiz-adv-x="1144" 
d="M395 1446v-580h156q250 0 389 -121q141 -120 141 -313q0 -191 -141 -311q-142 -121 -389 -121h-391v1446h235zM395 674v-484h156q140 0 218.5 65.5t78.5 176.5t-78.5 176.5t-218.5 65.5h-156z" />
    <glyph glyph-name="afii10047" unicode="&#x42d;" horiz-adv-x="1353" 
d="M1278 725q0 -338 -207 -545q-205 -205 -539 -205q-234 0 -434 99l56 192q178 -96 378 -96q204 0 340 124.5t162 334.5h-788v192h786q-27 206 -162 332q-131 125 -338 125q-188 0 -360 -90l-53 190q186 92 413 92q335 0 539 -204q207 -207 207 -541z" />
    <glyph glyph-name="afii10048" unicode="&#x42e;" horiz-adv-x="1771" 
d="M1149 -25q-236 0 -377 179q-141 178 -162 471h-211v-625h-239v1446h239v-627h211q21 293 160 473q141 178 379 178q255 0 399 -206q146 -208 146 -541t-146 -541q-145 -207 -399 -207zM1149 166q147 0 227 156q80 157 80 401t-80 401q-80 156 -227 156q-145 0 -225 -156
q-80 -157 -80 -401t80 -401q80 -156 225 -156z" />
    <glyph glyph-name="afii10049" unicode="&#x42f;" horiz-adv-x="1165" 
d="M772 612h-139l-338 -612h-258l369 649q-133 44 -208 146t-75 233q0 185 137 301q138 117 375 117h371v-1446h-234v612zM772 801v454h-137q-128 0 -203.5 -62t-75.5 -165t75.5 -165t203.5 -62h137z" />
    <glyph glyph-name="afii10065" unicode="&#x430;" horiz-adv-x="1038" 
d="M66 274q0 166 143 267q141 100 389 100h74v98q0 67 -39.5 105.5t-108.5 38.5q-159 0 -319 -92l-49 178q190 100 381 100q170 0 266 -86.5t96 -234.5v-463q0 -155 43 -285h-223q-22 56 -31 121q-128 -146 -291 -146q-153 0 -242 81.5t-89 217.5zM426 160q138 0 246 147
v166h-62q-147 0 -233 -54.5t-86 -142.5q0 -116 135 -116z" />
    <glyph glyph-name="afii10066" unicode="&#x431;" horiz-adv-x="1171" 
d="M594 -25q-230 0 -371 166q-139 171 -139 463q0 296 56.5 467.5t187.5 251.5q157 95 391 104q145 6 268 84v-188q-97 -66 -254 -72q-180 -6 -303 -84q-105 -67 -108 -256q43 74 120.5 116t171.5 42q212 0 344 -156q134 -155 134 -391q0 -242 -138 -395
q-137 -152 -360 -152zM322 545q0 -171 74 -277t198 -106q121 0 193.5 101t72.5 259q0 162 -70.5 261.5t-195.5 99.5q-121 0 -197 -99q-75 -97 -75 -239z" />
    <glyph glyph-name="afii10067" unicode="&#x432;" horiz-adv-x="1069" 
d="M512 0h-369v1044h351q208 0 326 -78t118 -208q0 -66 -41 -121.5t-109 -81.5q94 -26 149.5 -92t55.5 -152q0 -141 -129 -226t-352 -85zM512 455h-145v-273h145q119 0 186.5 36t67.5 101t-67 100.5t-187 35.5zM494 864h-127v-233h127q102 0 159.5 31.5t57.5 85.5t-57.5 85
t-159.5 31z" />
    <glyph glyph-name="afii10068" unicode="&#x433;" horiz-adv-x="868" 
d="M143 1044h695v-188h-461v-856h-234v1044z" />
    <glyph glyph-name="afii10069" unicode="&#x434;" horiz-adv-x="1173" 
d="M973 1044v-858h164v-399h-224v213h-653v-213h-223v399h125q217 337 223 858h588zM408 186h342v672h-154q-15 -379 -188 -672z" />
    <glyph glyph-name="afii10070" unicode="&#x435;" horiz-adv-x="1036" 
d="M965 549v-84h-660q7 -139 74 -221t170 -82q141 0 278 67l62 -172q-174 -82 -342 -82q-218 0 -346 152q-125 149 -125 395q0 243 123 393q124 154 333 154q206 0 320 -147q113 -143 113 -373zM313 637h420q-2 108 -58.5 182t-142.5 74q-87 0 -147.5 -72.5t-71.5 -183.5z
" />
    <glyph glyph-name="afii10072" unicode="&#x436;" horiz-adv-x="1574" 
d="M940 444h-35v-444h-233v444h-37q-94 0 -146 -82l-235 -362h-264l319 475q40 61 92 98l-366 471h270l305 -409h62v409h233v-409h60l305 409h270l-366 -471q56 -43 94 -98l317 -475h-264l-236 362q-52 82 -145 82z" />
    <glyph glyph-name="afii10073" unicode="&#x437;" horiz-adv-x="1034" 
d="M274 461v180q394 0 394 139q0 47 -52.5 75t-140.5 28q-160 0 -313 -66l-39 182q168 70 362 70q186 0 301 -80t115 -207q0 -74 -51 -134t-139 -89q106 -25 170.5 -96t64.5 -162q0 -147 -138 -236.5t-374 -89.5q-193 0 -364 74l53 180q155 -67 319 -67q122 0 197.5 38
t75.5 99q0 74 -110.5 117.5t-330.5 44.5z" />
    <glyph glyph-name="afii10074" unicode="&#x438;" horiz-adv-x="1277" 
d="M1135 1044v-1044h-226v743l-540 -743h-226v1044h226v-743l542 743h224z" />
    <glyph glyph-name="afii10075" unicode="&#x439;" horiz-adv-x="1277" 
d="M289 1481h198q1 -73 42.5 -115.5t109.5 -42.5t109.5 42.5t42.5 115.5h198q-5 -142 -101.5 -231t-248.5 -89t-250 88q-97 87 -100 232zM1135 1044v-1044h-226v743l-540 -743h-226v1044h226v-743l542 743h224z" />
    <glyph glyph-name="afii10076" unicode="&#x43a;" horiz-adv-x="1067" 
d="M432 444h-55v-444h-234v1044h234v-409h80l307 409h268l-364 -471q49 -37 92 -98l317 -475h-262l-235 362q-52 82 -148 82z" />
    <glyph glyph-name="afii10077" unicode="&#x43b;" horiz-adv-x="1357" 
d="M319 307v737h895v-1044h-233v856h-426v-549q0 -157 -93 -244.5t-253 -87.5q-112 0 -186 39l30 181q69 -29 144 -29q122 0 122 141z" />
    <glyph glyph-name="afii10078" unicode="&#x43c;" horiz-adv-x="1525" 
d="M1169 0v694l-305 -694h-202l-304 694v-694h-215v1044h281l340 -786l340 786h280v-1044h-215z" />
    <glyph glyph-name="afii10079" unicode="&#x43d;" horiz-adv-x="1280" 
d="M377 440v-440h-234v1044h234v-415h528v415h234v-1044h-234v440h-528z" />
    <glyph glyph-name="afii10080" unicode="&#x43e;" horiz-adv-x="1142" 
d="M573 -25q-223 0 -362 154q-137 152 -137 393t137 393q139 154 362 154q222 0 361 -154q137 -152 137 -393t-137 -393q-139 -154 -361 -154zM573 883q-124 0 -198 -105q-72 -104 -72 -256q0 -151 72 -258q73 -102 198 -102t195 102q74 106 74 258q0 153 -74 256
q-70 105 -195 105z" />
    <glyph glyph-name="afii10081" unicode="&#x43f;" horiz-adv-x="1210" 
d="M377 856v-856h-234v1044h924v-1044h-233v856h-457z" />
    <glyph glyph-name="afii10082" unicode="&#x440;" horiz-adv-x="1142" 
d="M645 1069q188 0 305 -141q119 -140 119 -387q0 -267 -143 -416q-141 -150 -369 -150q-101 0 -178 41v-438h-229v1466h229v-98q102 123 266 123zM604 883q-134 0 -225 -135v-547q87 -41 186 -41q123 0 198 99.5t75 270.5q0 165 -62.5 259t-171.5 94z" />
    <glyph glyph-name="afii10083" unicode="&#x441;" horiz-adv-x="983" 
d="M594 -25q-240 0 -381 150q-139 151 -139 397q0 247 139 398q140 149 381 149q156 0 313 -65l-59 -181q-128 58 -248 58q-135 0 -214 -98.5t-79 -260.5q0 -161 79 -258.5t214 -97.5q129 0 258 57l60 -178q-149 -70 -324 -70z" />
    <glyph glyph-name="afii10084" unicode="&#x442;" horiz-adv-x="1048" 
d="M641 856v-856h-233v856h-371v188h977v-188h-373z" />
    <glyph glyph-name="afii10085" unicode="&#x443;" horiz-adv-x="1021" 
d="M270 1044l246 -729l236 729h245l-405 -1124q-77 -218 -281 -354l-141 149q158 101 217 267l16 53l-378 1009h245z" />
    <glyph glyph-name="afii10086" unicode="&#x444;" horiz-adv-x="1759" 
d="M764 971v516h231v-522q98 104 252 104q195 0 316 -145q123 -144 123 -398q0 -250 -127 -401q-126 -150 -322 -150q-151 0 -242 99v-496h-231v502q-94 -105 -250 -105q-197 0 -317 144q-121 145 -121 399q0 253 125 402t323 149q149 0 240 -98zM1214 883q-134 0 -219 -125
v-479q85 -119 213 -119q113 0 179.5 98.5t66.5 265.5t-64.5 263t-175.5 96zM545 162q137 0 219 125v479q-85 119 -213 119q-113 0 -179.5 -99t-66.5 -266t64.5 -262.5t175.5 -95.5z" />
    <glyph glyph-name="afii10087" unicode="&#x445;" horiz-adv-x="1026" 
d="M1004 0h-261l-229 381l-229 -381h-260l354 549l-318 495h258l195 -327l195 327h258l-318 -495z" />
    <glyph glyph-name="afii10088" unicode="&#x446;" horiz-adv-x="1265" 
d="M834 188v856h233v-856h164v-401h-225v213h-863v1044h234v-856h457z" />
    <glyph glyph-name="afii10089" unicode="&#x447;" horiz-adv-x="1218" 
d="M1075 1044v-1044h-233v414q-147 -138 -338 -138q-182 0 -301 101t-119 258v409h233v-395q0 -85 56.5 -134.5t154.5 -49.5q177 0 314 162v417h233z" />
    <glyph glyph-name="afii10090" unicode="&#x448;" horiz-adv-x="1546" 
d="M657 1044h234v-854h280v854h234v-1044h-1262v1044h234v-854h280v854z" />
    <glyph glyph-name="afii10091" unicode="&#x449;" horiz-adv-x="1601" 
d="M1567 -213h-224v213h-1200v1044h232v-856h282v856h234v-856h280v856h234v-856h162v-401z" />
    <glyph glyph-name="afii10092" unicode="&#x44a;" horiz-adv-x="1280" 
d="M35 1044h524v-374h172q226 0 356 -95t130 -239q0 -147 -130 -242q-128 -94 -356 -94h-399v856h-297v188zM729 485h-170v-301h170q120 0 190 42t70 110q0 67 -70 108t-190 41z" />
    <glyph glyph-name="afii10093" unicode="&#x44b;" horiz-adv-x="1574" 
d="M143 0v1044h228v-374h172q226 0 356 -95q131 -94 131 -239q0 -148 -131 -242q-128 -94 -356 -94h-400zM541 485h-170v-301h170q120 0 190 42t70 110q0 67 -70 108t-190 41zM1434 1044v-1044h-236v1044h236z" />
    <glyph glyph-name="afii10094" unicode="&#x44c;" horiz-adv-x="1091" 
d="M143 0v1044h228v-374h172q226 0 356 -95q131 -94 131 -239q0 -148 -131 -242q-128 -94 -356 -94h-400zM541 485h-170v-301h170q120 0 190 42t70 110q0 67 -70 108t-190 41z" />
    <glyph glyph-name="afii10095" unicode="&#x44d;" horiz-adv-x="983" 
d="M391 -25q-173 0 -325 70l59 176q136 -59 258 -59q117 0 192.5 73.5t96.5 200.5h-488v185h486q-24 123 -98.5 192.5t-188.5 69.5q-115 0 -248 -56l-57 174q151 68 313 68q242 0 379 -149q141 -150 141 -398q0 -247 -141 -397q-138 -150 -379 -150z" />
    <glyph glyph-name="afii10096" unicode="&#x44e;" horiz-adv-x="1599" 
d="M1036 -25q-196 0 -327 125q-129 126 -156 328h-176v-428h-234v1044h234v-426h176q27 203 156 326q131 125 327 125q221 0 357 -154q135 -150 135 -393q0 -240 -135 -393q-136 -154 -357 -154zM1298 522q0 159 -70.5 260t-191.5 101q-119 0 -190 -103q-70 -101 -70 -258
q0 -154 70 -258q70 -102 190 -102t191 102q71 106 71 258z" />
    <glyph glyph-name="afii10097" unicode="&#x44f;" horiz-adv-x="1075" 
d="M707 0v410h-119l-295 -410h-273l347 442q-117 37 -182.5 112.5t-65.5 172.5q0 139 125 227q128 90 342 90h346v-1044h-225zM586 592h121v270h-121q-108 0 -174 -37.5t-66 -97.5t66 -97.5t174 -37.5z" />
    <glyph glyph-name="uni0450" unicode="&#x450;" horiz-adv-x="1036" 
d="M965 549v-84h-660q7 -139 74 -221t170 -82q141 0 278 67l62 -172q-174 -82 -342 -82q-218 0 -346 152q-125 149 -125 395q0 243 123 393q124 154 333 154q206 0 320 -147q113 -143 113 -373zM313 637h420q-2 108 -58.5 182t-142.5 74q-87 0 -147.5 -72.5t-71.5 -183.5z
M434 1186l-250 330h262l205 -330h-217z" />
    <glyph glyph-name="afii10071" unicode="&#x451;" horiz-adv-x="1036" 
d="M965 549v-84h-660q7 -139 74 -221t170 -82q141 0 278 67l62 -172q-174 -82 -342 -82q-218 0 -346 152q-125 149 -125 395q0 243 123 393q124 154 333 154q206 0 320 -147q113 -143 113 -373zM313 637h420q-2 108 -58.5 182t-142.5 74q-87 0 -147.5 -72.5t-71.5 -183.5z
M344 1466q56 0 92.5 -37t36.5 -92q0 -54 -37 -90.5t-92 -36.5q-57 0 -93 35.5t-36 91.5t36 92.5t93 36.5zM573 1337q0 56 37.5 92.5t94.5 36.5q55 0 92 -37t37 -92q0 -54 -37 -90.5t-92 -36.5q-57 0 -94.5 36.5t-37.5 90.5z" />
    <glyph glyph-name="afii10099" unicode="&#x452;" horiz-adv-x="1247" 
d="M266 0v1178h-213v165h213v144h234v-144h362v-165h-362v-250q126 141 284 141q151 0 242 -94q94 -94 94 -246v-788q0 -182 -103.5 -284.5t-279.5 -102.5q-113 0 -211 43l27 184q76 -33 174 -33q74 0 117 51t43 144v768q0 77 -39.5 120t-106.5 43q-129 0 -241 -157v-717
h-234z" />
    <glyph glyph-name="afii10100" unicode="&#x453;" horiz-adv-x="864" 
d="M336 1186l205 330h260l-248 -330h-217zM143 1044h695v-188h-461v-856h-234v1044z" />
    <glyph glyph-name="afii10101" unicode="&#x454;" horiz-adv-x="983" 
d="M592 -25q-238 0 -379 150t-141 397q0 248 141 398q140 149 379 149q164 0 315 -68l-59 -174q-133 56 -248 56t-190 -70t-95 -192h484v-185h-486q19 -126 94.5 -200t192.5 -74q125 0 258 59l60 -176q-149 -70 -326 -70z" />
    <glyph glyph-name="afii10102" unicode="&#x455;" horiz-adv-x="878" 
d="M86 43l37 188q128 -67 280 -67q80 0 127.5 32t47.5 91q0 111 -195 176q-291 94 -291 307q0 136 101 217.5t272 81.5q145 0 293 -59l-41 -185q-148 60 -252 60q-63 0 -104.5 -31t-41.5 -78q0 -76 201 -153q285 -105 285 -332q0 -140 -107 -228t-280 -88q-167 0 -332 68z
" />
    <glyph glyph-name="afii10103" unicode="&#x456;" horiz-adv-x="544" 
d="M389 1044v-1044h-233v1044h233zM416 1354q0 -57 -41.5 -97t-102.5 -40q-60 0 -100.5 40t-40.5 97q0 60 40.5 99.5t100.5 39.5q62 0 103 -39.5t41 -99.5z" />
    <glyph glyph-name="afii10104" unicode="&#x457;" horiz-adv-x="544" 
d="M-37 1337q0 55 36.5 92t92.5 37q57 0 94 -36.5t37 -92.5q0 -54 -37 -90.5t-94 -36.5q-55 0 -92 36.5t-37 90.5zM324 1337q0 55 37 92t92 37t92 -37t37 -92q0 -54 -37 -90.5t-92 -36.5t-92 36.5t-37 90.5zM389 1044v-1044h-233v1044h233z" />
    <glyph glyph-name="afii10105" unicode="&#x458;" horiz-adv-x="544" 
d="M33 -446l-90 172q110 47 161.5 111.5t51.5 156.5v1050h233v-1054q0 -298 -356 -436zM416 1354q0 -57 -41.5 -97t-102.5 -40q-60 0 -100.5 40t-40.5 97q0 60 40.5 99.5t100.5 39.5q62 0 103 -39.5t41 -99.5z" />
    <glyph glyph-name="afii10106" unicode="&#x459;" horiz-adv-x="1925" 
d="M319 307v737h887v-374h172q227 0 357 -95q129 -94 129 -239q0 -147 -129 -242q-128 -94 -357 -94h-403v856h-420v-549q0 -157 -93 -244.5t-253 -87.5q-112 0 -186 39l30 181q69 -29 144 -29q122 0 122 141zM1376 485h-170v-299h170q120 0 189 41t69 109q0 67 -69 108
t-189 41z" />
    <glyph glyph-name="afii10107" unicode="&#x45a;" horiz-adv-x="1851" 
d="M377 438v-438h-234v1044h234v-415h524v415h232v-374h170q226 0 356 -95q131 -94 131 -239q0 -148 -131 -242q-128 -94 -356 -94h-402v438h-524zM1300 485h-167v-301h167q120 0 190.5 42t70.5 110q0 67 -70.5 108t-190.5 41z" />
    <glyph glyph-name="afii10108" unicode="&#x45b;" horiz-adv-x="1247" 
d="M500 717v-717h-234v1178h-213v165h213v144h234v-144h362v-165h-362v-250q126 141 284 141q151 0 242 -94q94 -94 94 -246v-729h-233v711q0 75 -42 122.5t-108 47.5q-123 0 -237 -164z" />
    <glyph glyph-name="afii10109" unicode="&#x45c;" horiz-adv-x="1067" 
d="M416 1186l205 330h262l-250 -330h-217zM432 444h-55v-444h-234v1044h234v-409h80l307 409h268l-364 -471q49 -37 92 -98l317 -475h-262l-235 362q-52 82 -148 82z" />
    <glyph glyph-name="uni045D" unicode="&#x45d;" horiz-adv-x="1277" 
d="M553 1186l-248 330h260l205 -330h-217zM1135 1044v-1044h-226v743l-540 -743h-226v1044h226v-743l542 743h224z" />
    <glyph glyph-name="afii10110" unicode="&#x45e;" horiz-adv-x="1021" 
d="M270 1044l246 -729l236 729h245l-405 -1124q-77 -218 -281 -354l-141 149q158 101 217 267l16 53l-378 1009h245zM160 1481h200q1 -73 42 -115.5t108 -42.5q68 0 109.5 42.5t42.5 115.5h198q-3 -145 -100 -232q-98 -88 -250 -88t-248.5 89t-101.5 231z" />
    <glyph glyph-name="afii10193" unicode="&#x45f;" horiz-adv-x="1210" 
d="M719 0v-233h-230v233h-346v1044h234v-856h457v856h233v-1044h-348z" />
    <glyph glyph-name="afii10050" unicode="&#x490;" horiz-adv-x="1083" 
d="M797 1659h233v-408h-633v-1251h-237v1446h637v213z" />
    <glyph glyph-name="afii10098" unicode="&#x491;" 
d="M649 1257h228v-401h-500v-856h-234v1044h506v213z" />
    <glyph glyph-name="Wgrave" unicode="&#x1e80;" horiz-adv-x="1916" 
d="M1470 0h-217l-295 1061l-294 -1061h-218l-438 1446h250l297 -1067l297 1067h215l297 -1067l297 1067h250zM870 1567l-247 329h260l204 -329h-217z" />
    <glyph glyph-name="wgrave" unicode="&#x1e81;" horiz-adv-x="1564" 
d="M469 303l205 741h221l203 -741l200 741h242l-328 -1044h-225l-205 721l-204 -721h-224l-329 1044h241zM694 1186l-250 330h263l204 -330h-217z" />
    <glyph glyph-name="Wacute" unicode="&#x1e82;" horiz-adv-x="1916" 
d="M1470 0h-217l-295 1061l-294 -1061h-218l-438 1446h250l297 -1067l297 1067h215l297 -1067l297 1067h250zM834 1567l204 329h262l-249 -329h-217z" />
    <glyph glyph-name="wacute" unicode="&#x1e83;" horiz-adv-x="1564" 
d="M469 303l205 741h221l203 -741l200 741h242l-328 -1044h-225l-205 721l-204 -721h-224l-329 1044h241zM659 1186l205 330h260l-247 -330h-218z" />
    <glyph glyph-name="Wdieresis" unicode="&#x1e84;" horiz-adv-x="1916" 
d="M1470 0h-217l-295 1061l-294 -1061h-218l-438 1446h250l297 -1067l297 1067h215l297 -1067l297 1067h250zM649 1718q0 54 37 90.5t92 36.5q57 0 94 -36.5t37 -90.5q0 -56 -37 -92.5t-94 -36.5q-56 0 -92.5 36.5t-36.5 92.5zM1010 1718q0 54 37 90.5t92 36.5t92 -36.5
t37 -90.5q0 -56 -37 -92.5t-92 -36.5t-92 36.5t-37 92.5z" />
    <glyph glyph-name="wdieresis" unicode="&#x1e85;" horiz-adv-x="1564" 
d="M469 303l205 741h221l203 -741l200 741h242l-328 -1044h-225l-205 721l-204 -721h-224l-329 1044h241zM473 1337q0 55 36.5 92t92.5 37q57 0 94 -36.5t37 -92.5q0 -54 -37 -90.5t-94 -36.5q-55 0 -92 36.5t-37 90.5zM834 1337q0 55 37 92t92 37t92 -37t37 -92
q0 -54 -37 -90.5t-92 -36.5t-92 36.5t-37 90.5z" />
    <glyph glyph-name="Ygrave" unicode="&#x1ef2;" horiz-adv-x="1327" 
d="M664 823l380 623h277l-537 -838v-608h-239v608l-537 838h277zM578 1567l-248 329h260l205 -329h-217z" />
    <glyph glyph-name="ygrave" unicode="&#x1ef3;" horiz-adv-x="1021" 
d="M270 1044l246 -729l236 729h245l-405 -1124q-77 -218 -281 -354l-141 149q158 101 217 267l16 53l-378 1009h245zM424 1186l-248 330h260l205 -330h-217z" />
    <glyph glyph-name="thinspace" unicode="&#x2009;" horiz-adv-x="409" 
 />
    <glyph glyph-name="uni2010" unicode="&#x2010;" horiz-adv-x="876" 
d="M772 776v-196h-666v196h666z" />
    <glyph glyph-name="figuredash" unicode="&#x2012;" horiz-adv-x="1228" 
d="M1126 582h-1024v194h1024v-194z" />
    <glyph glyph-name="endash" unicode="&#x2013;" horiz-adv-x="1024" 
d="M1024 582h-1024v194h1024v-194z" />
    <glyph glyph-name="emdash" unicode="&#x2014;" horiz-adv-x="2048" 
d="M2048 776v-196h-2048v196h2048z" />
    <glyph glyph-name="afii00208" unicode="&#x2015;" horiz-adv-x="2048" 
d="M1843 776v-196h-1638v196h1638z" />
    <glyph glyph-name="uni2016" unicode="&#x2016;" horiz-adv-x="985" 
d="M410 1528v-1831h-226v1831h226zM801 1528v-1831h-223v1831h223z" />
    <glyph glyph-name="underscoredbl" unicode="&#x2017;" horiz-adv-x="1228" 
d="M1126 -442h-1024v174h1024v-174zM1126 -188h-1024v176h1024v-176z" />
    <glyph glyph-name="quoteleft" unicode="&#x2018;" horiz-adv-x="598" 
d="M469 1110q0 -66 -45 -109t-117 -43q-77 0 -129.5 62t-52.5 160q0 120 70.5 221t193.5 162l80 -84q-73 -37 -121 -99.5t-55 -130.5q20 4 24 4q66 0 109 -40t43 -103z" />
    <glyph glyph-name="quoteright" unicode="&#x2019;" horiz-adv-x="598" 
d="M131 1393q0 66 45 108.5t117 42.5q77 0 129.5 -61.5t52.5 -159.5q0 -120 -70.5 -221t-193.5 -162l-80 84q73 37 121 99t55 130q-20 -4 -24 -4q-66 0 -109 40.5t-43 103.5z" />
    <glyph glyph-name="quotesinglbase" unicode="&#x201a;" horiz-adv-x="598" 
d="M131 131q0 66 45 109t117 43q77 0 129.5 -62t52.5 -160q0 -118 -71 -220.5t-193 -164.5l-80 84q73 37 121 99.5t55 130.5q-6 -2 -24 -2q-66 0 -109 40t-43 103z" />
    <glyph glyph-name="quotereversed" unicode="&#x201b;" horiz-adv-x="598" 
d="M469 1393q0 -63 -43 -103.5t-109 -40.5q-4 0 -24 4q7 -68 55 -130t121 -99l-80 -84q-123 61 -193.5 162t-70.5 221q0 98 52.5 159.5t129.5 61.5q72 0 117 -42.5t45 -108.5z" />
    <glyph glyph-name="quotedblleft" unicode="&#x201c;" horiz-adv-x="985" 
d="M856 1110q0 -66 -45 -109t-117 -43q-77 0 -129.5 62t-52.5 160q0 120 70.5 221t193.5 162l80 -84q-73 -37 -121 -99.5t-55 -130.5q20 4 25 4q66 0 108.5 -40t42.5 -103zM469 1110q0 -66 -45 -109t-117 -43q-77 0 -129.5 62t-52.5 160q0 120 70.5 221t193.5 162l80 -84
q-73 -37 -121 -99.5t-55 -130.5q20 4 24 4q66 0 109 -40t43 -103z" />
    <glyph glyph-name="quotedblright" unicode="&#x201d;" horiz-adv-x="985" 
d="M518 1393q0 66 45 108.5t117 42.5q77 0 129.5 -61.5t52.5 -159.5q0 -120 -70.5 -221t-193.5 -162l-80 84q73 37 121 99t55 130q-20 -4 -24 -4q-66 0 -109 40.5t-43 103.5zM131 1393q0 66 45 108.5t117 42.5q77 0 129.5 -61.5t52.5 -159.5q0 -120 -70.5 -221t-193.5 -162
l-80 84q73 37 121 99t55 130q-20 -4 -24 -4q-66 0 -109 40.5t-43 103.5z" />
    <glyph glyph-name="quotedblbase" unicode="&#x201e;" horiz-adv-x="985" 
d="M518 131q0 66 45 109t117 43q77 0 129.5 -62t52.5 -160q0 -118 -71 -220.5t-193 -164.5l-80 84q73 37 121 99.5t55 130.5q-6 -2 -24 -2q-66 0 -109 40t-43 103zM131 131q0 66 45 109t117 43q77 0 129.5 -62t52.5 -160q0 -118 -71 -220.5t-193 -164.5l-80 84
q73 37 121 99.5t55 130.5q-6 -2 -24 -2q-66 0 -109 40t-43 103z" />
    <glyph glyph-name="uni201F" unicode="&#x201f;" horiz-adv-x="985" 
d="M856 1393q0 -63 -42.5 -103.5t-108.5 -40.5q-5 0 -25 4q7 -68 55 -130t121 -99l-80 -84q-123 61 -193.5 162t-70.5 221q0 98 52.5 159.5t129.5 61.5q72 0 117 -42.5t45 -108.5zM469 1393q0 -63 -43 -103.5t-109 -40.5q-4 0 -24 4q7 -68 55 -130t121 -99l-80 -84
q-123 61 -193.5 162t-70.5 221q0 98 52.5 159.5t129.5 61.5q72 0 117 -42.5t45 -108.5z" />
    <glyph glyph-name="dagger" unicode="&#x2020;" horiz-adv-x="1204" 
d="M721 1528v-340h366v-197h-366v-1294h-236v1294h-366v197h366v340h236z" />
    <glyph glyph-name="daggerdbl" unicode="&#x2021;" horiz-adv-x="1204" 
d="M119 39v194h366v758h-366v197h366v340h236v-340h366v-197h-366v-758h366v-194h-366v-342h-236v342h-366z" />
    <glyph glyph-name="bullet" unicode="&#x2022;" horiz-adv-x="954" 
d="M477 961q126 0 213 -87q86 -86 86 -210q0 -125 -86 -211q-87 -84 -213 -84q-124 0 -211 84q-86 86 -86 211q0 124 86 210q87 87 211 87z" />
    <glyph glyph-name="onedotenleader" unicode="&#x2024;" horiz-adv-x="598" 
d="M459 129q0 -63 -46.5 -108.5t-113.5 -45.5t-112.5 45t-45.5 109q0 66 45 110t113 44t114 -44t46 -110z" />
    <glyph glyph-name="twodotenleader" unicode="&#x2025;" horiz-adv-x="1198" 
d="M1057 129q0 -64 -45.5 -109t-112.5 -45t-113.5 45.5t-46.5 108.5q0 66 45.5 110t114.5 44q68 0 113 -44t45 -110zM459 129q0 -63 -46.5 -108.5t-113.5 -45.5t-112.5 45t-45.5 109q0 66 45 110t113 44t114 -44t46 -110z" />
    <glyph glyph-name="ellipsis" unicode="&#x2026;" horiz-adv-x="1796" 
d="M1057 129q0 -64 -45.5 -109t-112.5 -45t-113.5 45.5t-46.5 108.5q0 66 45.5 110t114.5 44q68 0 113 -44t45 -110zM1657 129q0 -63 -46.5 -108.5t-113.5 -45.5t-112.5 45t-45.5 109q0 66 45 110t113 44t114 -44t46 -110zM459 129q0 -63 -46.5 -108.5t-113.5 -45.5
t-112.5 45t-45.5 109q0 66 45 110t113 44t114 -44t46 -110z" />
    <glyph glyph-name="perthousand" unicode="&#x2030;" horiz-adv-x="2111" 
d="M1178 1446l-711 -1446h-188l708 1446h191zM496 1085q0 92 -32 152.5t-81 60.5q-48 0 -80.5 -60.5t-32.5 -152.5q0 -90 32.5 -150.5t80.5 -60.5q49 0 81 60t32 151zM688 1085q0 -166 -84.5 -271t-220.5 -105t-219.5 104.5t-83.5 271.5q0 168 83.5 272.5t219.5 104.5
t220.5 -104.5t84.5 -272.5zM1186 360q0 92 -32.5 152.5t-80.5 60.5q-49 0 -80.5 -60t-31.5 -153q0 -91 31.5 -150.5t80.5 -59.5q48 0 80.5 60t32.5 150zM1376 360q0 -167 -83.5 -271.5t-219.5 -104.5t-219.5 104.5t-83.5 271.5q0 168 83.5 272.5t219.5 104.5t219.5 -104.5
t83.5 -272.5zM1843 360q0 92 -32 152.5t-80 60.5q-50 0 -82.5 -60.5t-32.5 -152.5q0 -91 32.5 -150.5t82.5 -59.5q48 0 80 60t32 150zM2034 360q0 -167 -83.5 -271.5t-219.5 -104.5t-221 105t-85 271q0 167 85 272t221 105t219.5 -104.5t83.5 -272.5z" />
    <glyph glyph-name="minute" unicode="&#x2032;" horiz-adv-x="655" 
d="M526 1446l-202 -516h-213l149 516h266z" />
    <glyph glyph-name="second" unicode="&#x2033;" horiz-adv-x="1011" 
d="M526 1446l-202 -516h-213l149 516h266zM883 1446l-203 -516h-213l149 516h267z" />
    <glyph glyph-name="guilsinglleft" unicode="&#x2039;" horiz-adv-x="720" 
d="M608 121l-493 317v174l493 316v-226l-299 -178l299 -178v-225z" />
    <glyph glyph-name="guilsinglright" unicode="&#x203a;" horiz-adv-x="720" 
d="M115 928l493 -316v-174l-493 -317v225l299 178l-299 178v226z" />
    <glyph glyph-name="exclamdbl" unicode="&#x203c;" horiz-adv-x="1269" 
d="M764 410l-19 1036h263l-19 -1036h-225zM1032 123q0 -62 -44.5 -105t-110.5 -43t-111 43t-45 105q0 63 45 106t111 43t110.5 -43t44.5 -106zM283 410l-21 1036h264l-20 -1036h-223zM549 123q0 -62 -44.5 -105t-111.5 -43q-65 0 -109 43t-44 105q0 63 43.5 106t109.5 43
q67 0 111.5 -43t44.5 -106z" />
    <glyph glyph-name="uni203E" unicode="&#x203e;" horiz-adv-x="841" 
d="M733 1260h-622v174h622v-174z" />
    <glyph glyph-name="fraction" unicode="&#x2044;" horiz-adv-x="286" 
d="M635 1446l-785 -1446h-198l784 1446h199z" />
    <glyph glyph-name="zerosuperior" unicode="&#x2070;" 
d="M713 594q-94 -137 -260 -137t-260 137q-95 139 -95 367q0 225 95 364q94 137 260 137t260 -137t94 -364q0 -230 -94 -367zM340 715q40 -94 113 -94q72 0 112 94q41 96 41 246t-41 243q-40 94 -112 94q-73 0 -113 -94q-41 -93 -41 -243t41 -246z" />
    <glyph glyph-name="uni2071" unicode="&#x2071;" 
d="M553 1180v-707h-201v707h201zM535 1446q35 -32 35 -78t-35 -78q-32 -32 -81.5 -32t-84.5 32q-32 32 -32 78t32 78q35 32 84.5 32t81.5 -32z" />
    <glyph glyph-name="foursuperior" unicode="&#x2074;" 
d="M500 1155l-205 -293h205v293zM500 473v223h-418v144l432 606h184v-584h133v-166h-133v-223h-198z" />
    <glyph glyph-name="fivesuperior" unicode="&#x2075;" 
d="M174 903l33 543h545v-166h-355l-12 -180q30 6 74 6q141 0 237 -90q99 -89 99 -223q0 -152 -104 -244t-275 -92q-142 0 -281 80l58 161q112 -75 223 -75q84 0 130 43.5t46 117.5q0 73 -46 114.5t-130 41.5q-127 0 -242 -37z" />
    <glyph glyph-name="sixsuperior" unicode="&#x2076;" 
d="M467 958q-109 0 -152 -118q7 -103 46.5 -161t101.5 -58q65 0 103 45.5t38 121.5q0 79 -36 124.5t-101 45.5zM522 1296q-75 0 -127 -57.5t-69 -161.5q62 45 153 45q146 0 234 -94q92 -92 92 -235q0 -148 -94 -242t-250 -94q-165 0 -256.5 122t-91.5 343q0 245 104 391
q107 149 315 149q100 0 207 -39l-34 -170q-98 43 -183 43z" />
    <glyph glyph-name="sevensuperior" unicode="&#x2077;" 
d="M795 1309l-373 -836h-221l368 807h-430v166h656v-137z" />
    <glyph glyph-name="eightsuperior" unicode="&#x2078;" 
d="M453 903q-67 -20 -107.5 -64t-40.5 -94q0 -54 41 -89t107 -35t107.5 35t41.5 89q0 50 -40.5 94t-108.5 64zM453 457q-154 0 -252 82q-97 85 -97 200q0 163 168 242q-141 85 -141 221q0 104 90 182q93 78 232 78q138 0 231 -78q92 -77 92 -182q0 -136 -143 -221
q170 -83 170 -242q0 -118 -98 -200q-94 -82 -252 -82zM453 1057q122 52 122 133q0 48 -33.5 78t-88.5 30t-88 -30t-33 -78q0 -83 121 -133z" />
    <glyph glyph-name="ninesuperior" unicode="&#x2079;" 
d="M440 963q110 0 150 118q-8 103 -46.5 160t-101.5 57q-65 0 -103 -46t-38 -122t37 -121.5t102 -45.5zM383 623q75 0 127.5 57.5t71.5 161.5q-67 -43 -154 -43q-146 0 -238 92q-90 93 -90 235q0 144 93 240q96 96 251 96q165 0 258 -121.5t93 -343.5q0 -244 -107 -393
q-105 -147 -313 -147q-99 0 -209 39l37 170q98 -43 180 -43z" />
    <glyph glyph-name="uni207A" unicode="&#x207a;" 
d="M545 618h-183v259h-251v165h251v258h183v-258h252v-165h-252v-259z" />
    <glyph glyph-name="uni207B" unicode="&#x207b;" 
d="M797 1042v-165h-686v165h686z" />
    <glyph glyph-name="uni207C" unicode="&#x207c;" 
d="M791 877v-166h-674v166h674zM791 1208v-166h-674v166h674z" />
    <glyph glyph-name="uni207D" unicode="&#x207d;" 
d="M322 958q0 168 53.5 325t146.5 271h152q-158 -258 -158 -596q0 -332 158 -596h-152q-93 117 -146.5 274t-53.5 322z" />
    <glyph glyph-name="uni207E" unicode="&#x207e;" 
d="M383 362h-152q158 258 158 596q0 341 -158 596h152q94 -114 148.5 -272.5t54.5 -323.5q0 -164 -54.5 -321t-148.5 -275z" />
    <glyph glyph-name="uni207F" unicode="&#x207f;" 
d="M358 956v-483h-200v713h196v-49q71 65 168 65q104 0 170 -66.5t66 -172.5v-490h-201v479q0 40 -20 63t-52 23q-69 0 -127 -82z" />
    <glyph glyph-name="zeroinferior" unicode="&#x2080;" 
d="M98 176q0 229 95 365.5t260 136.5q164 0 259 -136.5t95 -365.5q0 -231 -94.5 -367.5t-259.5 -136.5t-260 137t-95 367zM340 -70q40 -94 113 -94q72 0 112 94q41 96 41 246q0 151 -41 244q-40 94 -112 94q-73 0 -113 -94q-41 -93 -41 -244q0 -150 41 -246z" />
    <glyph glyph-name="oneinferior" unicode="&#x2081;" 
d="M389 459l-156 -66l-63 156l266 113h158v-973h-205v770z" />
    <glyph glyph-name="twoinferior" unicode="&#x2082;" 
d="M772 -145v-166h-643v137l311 326q117 123 117 231q0 58 -35.5 93.5t-97.5 35.5q-88 0 -225 -98l-56 164q147 100 297 100q144 0 232 -82q90 -84 90 -201q0 -172 -174 -352l-180 -188h364z" />
    <glyph glyph-name="threeinferior" unicode="&#x2083;" 
d="M268 125v164q281 0 281 129q0 43 -33.5 68.5t-89.5 25.5q-96 0 -231 -66l-35 160q150 72 278 72q140 0 228 -72t88 -188q0 -62 -39.5 -119.5t-106.5 -87.5q82 -32 130 -96.5t48 -143.5q0 -136 -103.5 -217.5t-279.5 -81.5q-148 0 -284 68l43 162q141 -66 244 -66
q78 0 127 37t49 94q0 72 -80.5 115t-233.5 43z" />
    <glyph glyph-name="fourinferior" unicode="&#x2084;" 
d="M500 371l-205 -293h205v293zM500 -311v223h-418v143l432 607h184v-584h133v-166h-133v-223h-198z" />
    <glyph glyph-name="fiveinferior" unicode="&#x2085;" 
d="M174 119l33 543h545v-166h-355l-12 -181q35 7 74 7q140 0 237 -91q99 -89 99 -223q0 -152 -104 -244t-275 -92q-146 0 -281 78l58 164q113 -76 223 -76q81 0 128.5 43.5t47.5 116.5q0 74 -46 116t-130 42q-127 0 -242 -37z" />
    <glyph glyph-name="sixinferior" unicode="&#x2086;" 
d="M467 174q-109 0 -152 -119q7 -103 46.5 -161t101.5 -58q65 0 103 46t38 122q0 79 -36 124.5t-101 45.5zM522 512q-75 0 -127 -57.5t-69 -161.5q62 45 153 45q146 0 234 -94q92 -92 92 -236q0 -148 -94 -242t-250 -94q-165 0 -256.5 121.5t-91.5 343.5q0 245 104 391
q108 150 315 150q100 0 207 -39l-34 -170q-98 43 -183 43z" />
    <glyph glyph-name="seveninferior" unicode="&#x2087;" 
d="M795 524l-373 -835h-221l368 807h-430v166h656v-138z" />
    <glyph glyph-name="eightinferior" unicode="&#x2088;" 
d="M453 119q-67 -20 -107.5 -64t-40.5 -94q0 -56 40.5 -90.5t107.5 -34.5t108 34.5t41 90.5q0 50 -40.5 94t-108.5 64zM453 -328q-154 0 -252 82q-97 85 -97 201q0 163 168 242q-141 85 -141 221q0 104 90 182q93 78 232 78q138 0 231 -78q92 -77 92 -182q0 -136 -143 -221
q170 -83 170 -242q0 -119 -98 -201q-94 -82 -252 -82zM453 272q122 52 122 134q0 48 -33.5 78t-88.5 30t-88 -30t-33 -78q0 -84 121 -134z" />
    <glyph glyph-name="nineinferior" unicode="&#x2089;" 
d="M440 178q110 0 150 119q-8 103 -46.5 160t-101.5 57q-65 0 -103 -46t-38 -122t37 -122t102 -46zM383 -162q75 0 127.5 57.5t71.5 161.5q-67 -43 -154 -43q-146 0 -238 92q-90 93 -90 236q0 144 93 240q96 96 251 96q165 0 258 -121.5t93 -343.5q0 -245 -107 -391
q-105 -150 -313 -150q-99 0 -209 39l37 170q98 -43 180 -43z" />
    <glyph glyph-name="uni208A" unicode="&#x208a;" 
d="M545 -166h-183v258h-251v166h251v258h183v-258h252v-166h-252v-258z" />
    <glyph glyph-name="uni208B" unicode="&#x208b;" 
d="M797 258v-166h-686v166h686z" />
    <glyph glyph-name="uni208C" unicode="&#x208c;" 
d="M791 92v-166h-674v166h674zM791 424v-166h-674v166h674z" />
    <glyph glyph-name="uni208D" unicode="&#x208d;" 
d="M522 770h152q-158 -258 -158 -596t158 -596h-152q-93 114 -146.5 271t-53.5 325t53.5 325t146.5 271z" />
    <glyph glyph-name="uni208E" unicode="&#x208e;" 
d="M383 -422h-152q158 255 158 596t-158 596h152q94 -114 148.5 -272.5t54.5 -323.5t-54.5 -323.5t-148.5 -272.5z" />
    <glyph glyph-name="uni2090" unicode="&#x2090;" 
d="M137 -115q0 118 105 185t286 67v49q0 70 -71 70q-100 0 -224 -74l-43 160q149 76 275 76q120 0 189 -62t69 -166v-256q0 -135 35 -245h-195q-4 10 -16 57q-77 -74 -172 -74q-110 0 -174 58t-64 155zM395 -166q75 0 133 70v92q-90 0 -143 -28.5t-53 -76.5q0 -57 63 -57z
" />
    <glyph glyph-name="uni2091" unicode="&#x2091;" 
d="M766 61v-73h-426q7 -72 43 -113t90 -41q90 0 195 51l51 -151q-133 -62 -248 -62q-151 0 -239.5 102.5t-88.5 270.5q0 166 87 269.5t233 103.5q140 0 221.5 -99.5t81.5 -257.5zM463 266q-41 0 -73.5 -38t-43.5 -95h221q-5 58 -33.5 95.5t-70.5 37.5z" />
    <glyph glyph-name="uni2092" unicode="&#x2092;" 
d="M702 -223q-94 -105 -249 -105q-157 0 -252 105q-95 106 -95 268t95 268q95 105 252 105q155 0 249 -105q97 -108 97 -268t-97 -268zM453 256q-67 0 -107.5 -59.5t-40.5 -151.5t40.5 -151.5t107.5 -59.5q68 0 108.5 59.5t40.5 151.5t-40.5 151.5t-108.5 59.5z" />
    <glyph glyph-name="uni2093" unicode="&#x2093;" 
d="M569 59l242 -370h-223l-135 221l-136 -221h-223l242 370l-219 342h223l113 -190l112 190h223z" />
    <glyph glyph-name="uni2094" unicode="&#x2094;" 
d="M141 29v73h424q-6 72 -41.5 113t-91.5 41q-87 0 -192 -51l-54 151q133 62 250 62q151 0 238.5 -102t87.5 -271q0 -166 -86.5 -269.5t-231.5 -103.5q-140 0 -221.5 99.5t-81.5 257.5zM444 -176q40 0 72 38t43 95h-221q5 -58 34.5 -95.5t71.5 -37.5z" />
    <glyph glyph-name="uni20A0" unicode="&#x20a0;" horiz-adv-x="1495" 
d="M1411 188v-188h-616v479q-103 -33 -207 -33q-228 0 -373 142q-141 141 -141 373q0 230 141 368q144 141 373 141q162 0 311 -73l-53 -191q-139 74 -258 74q-126 0 -203.5 -89t-77.5 -230q0 -144 77 -234t204 -90q112 0 207 39v317h598v-188h-369v-205h328v-186h-328v-226
h387z" />
    <glyph glyph-name="colonmonetary" unicode="&#x20a1;" horiz-adv-x="1353" 
d="M823 -25l-26 -159h-150l29 172q-45 7 -113 26l-35 -198h-147l43 258q-166 95 -257 263.5t-91 387.5q0 290 157 485q159 196 426 246l31 174h148l-27 -160h33q40 0 84 -6l28 166h150l-33 -192q82 -23 164 -60l-53 -184q-59 32 -144 55l-184 -1083q188 6 346 94l55 -188
q-205 -97 -434 -97zM307 725q0 -261 158 -416l158 932q-147 -57 -231.5 -194.5t-84.5 -321.5zM823 1282q-5 0 -23 -1t-22 -1l-182 -1067q57 -26 113 -37l188 1102q-66 4 -74 4z" />
    <glyph glyph-name="uni20A2" unicode="&#x20a2;" horiz-adv-x="1357" 
d="M1167 891l-14 -170q-43 12 -94 12q-56 0 -107 -47t-71 -121v-397q176 12 321 92l55 -186q-203 -99 -434 -99q-332 0 -540 205q-207 207 -207 545q0 334 207 541q207 204 540 204q228 0 414 -92l-53 -184q-169 88 -361 88q-226 0 -372 -158q-144 -156 -144 -399
q0 -200 97.5 -344t263.5 -191v695h213v-92q32 51 85 81.5t109 30.5q60 0 92 -14z" />
    <glyph glyph-name="franc" unicode="&#x20a3;" horiz-adv-x="1140" 
d="M274 653v138h-204v159h204v496h791v-193h-553v-303h389v-159h-389v-138h389v-159h-389v-494h-238v494h-204v159h204z" />
    <glyph glyph-name="lira" unicode="&#x20a4;" horiz-adv-x="1337" 
d="M291 461h-201v157h205v134h-205v157h205v113q0 217 117.5 332.5t337.5 115.5q251 0 421 -176l-129 -155q-127 139 -284 139q-110 0 -169 -66t-59 -190v-113h398v-157h-398v-134h398v-157h-402q-12 -167 -123 -266h830v-195h-1139v168q176 105 197 293z" />
    <glyph glyph-name="uni20A6" unicode="&#x20a6;" horiz-adv-x="1585" 
d="M1511 915v-135h-155v-112h155v-136h-155v-532h-271l-297 532h-348v-532h-211v532h-155v136h155v112h-155v135h155v531h271l295 -531h350v531h211v-531h155zM1145 780h-275l64 -112h211v112zM649 780h-209v-112h273zM1145 532h-137l137 -245v245zM575 915l-135 244v-244
h135z" />
    <glyph glyph-name="peseta" unicode="&#x20a7;" horiz-adv-x="2297" 
d="M492 575h-101v-575h-231v1446h332q220 0 353.5 -110.5t145.5 -291.5h125v302h232v-302h383q73 25 163 25q134 0 283 -61l-39 -183q-145 62 -244 62q-61 0 -101 -30t-40 -75q0 -73 195 -147q274 -105 274 -326q0 -137 -103 -223t-272 -86h-458q-273 0 -273 260v598h-151
q-45 -131 -170 -207t-303 -76zM1421 184l379 2q203 0 203 117q0 107 -188 172q-281 92 -281 299q0 44 12 84h-198v-579q0 -95 73 -95zM492 1257h-101v-491h101q127 0 198.5 66.5t71.5 179.5q0 112 -72 178.5t-198 66.5z" />
    <glyph glyph-name="uni20A8" unicode="&#x20a8;" horiz-adv-x="1902" 
d="M1116 0h-254l-334 612h-137v-612h-231v1446h368q234 0 369 -117q137 -116 137 -301q0 -132 -74 -233.5t-206 -145.5zM1118 43l37 188q129 -69 277 -69q75 0 122.5 34t47.5 89q0 111 -191 176q-287 100 -287 307q0 137 99.5 219t269.5 82q140 0 289 -61l-39 -183
q-142 60 -250 60q-60 0 -101.5 -31.5t-41.5 -75.5q0 -45 47.5 -80.5t150.5 -74.5q281 -109 281 -334q0 -140 -105 -227t-278 -87q-177 0 -328 68zM528 1255h-137v-454h137q124 0 199.5 63.5t75.5 163.5t-75.5 163.5t-199.5 63.5z" />
    <glyph glyph-name="uni20A9" unicode="&#x20a9;" horiz-adv-x="2076" 
d="M2017 684v-135h-301l-166 -549h-217l-151 549h-287l-152 -549h-217l-166 549h-301v135h260l-36 117h-224v135h183l-154 510h248l141 -510h314l141 510h213l141 -510h311l142 510h250l-156 -510h184v-135h-223l-37 -117h260zM754 801h-238l33 -117h172zM1561 801h-238
l33 -117h172zM1112 801h-147l-33 -117h213zM1491 549h-98l49 -176zM684 549h-98l49 -176zM1075 936l-37 131l-37 -131h74z" />
    <glyph glyph-name="afii57636" unicode="&#x20aa;" horiz-adv-x="1785" 
d="M395 0h-235v1446h512q269 0 411 -138.5t142 -396.5v-370h-236v354q0 356 -330 356h-264v-1251zM1391 1446h235v-1446h-510q-270 0 -412.5 139.5t-142.5 397.5v368h236v-352q0 -358 331 -358h263v1251z" />
    <glyph glyph-name="dong" unicode="&#x20ab;" horiz-adv-x="1259" 
d="M500 -25q-186 0 -307 142q-117 141 -117 389q0 264 141 414q143 149 371 149q102 0 176 -39v148h-367v165h367v144h231v-144h213v-165h-213v-1178h-231v98q-102 -123 -264 -123zM539 162q143 0 225 137v545q-87 41 -184 41q-123 0 -199 -100.5t-76 -270.5
q0 -165 62.5 -258.5t171.5 -93.5zM934 -352h-625v172h625v-172z" />
    <glyph glyph-name="Euro" unicode="&#x20ac;" horiz-adv-x="1529" 
d="M252 725q0 54 2 68h-184v159h211q65 240 256 379q195 139 462 139q222 0 414 -92l-53 -190q-172 90 -361 90q-168 0 -291.5 -87t-179.5 -239h590v-159h-624q-1 -12 -2 -27t-2 -25t-1 -16q0 -1 5 -68h548v-157h-514q55 -156 178 -244t293 -88q195 0 379 96l56 -192
q-211 -97 -435 -97q-268 0 -464 140q-189 140 -254 385h-211v157h184q-2 14 -2 68z" />
    <glyph glyph-name="afii61248" unicode="&#x2105;" horiz-adv-x="2039" 
d="M498 565q-196 0 -310 123t-114 326q0 202 114 325t310 123q131 0 264 -59l-51 -166q-127 53 -207 53q-99 0 -157 -76t-58 -200t58 -199.5t157 -75.5q88 0 215 54l51 -164q-137 -64 -272 -64zM1559 -16q-182 0 -295 125t-113 323q0 197 113 322q115 127 295 127
q181 0 296 -127q113 -125 113 -322q0 -198 -113 -323t-296 -125zM1702 631q-53 80 -143 80q-91 0 -144 -80t-53 -199t53 -199q52 -79 144 -79q91 0 143 79q53 80 53 199t-53 199zM1489 1446l-782 -1446h-199l782 1446h199z" />
    <glyph glyph-name="uni2109" unicode="&#x2109;" horiz-adv-x="1642" 
d="M1008 649v-649h-238v1446h789v-193h-551v-411h491v-193h-491zM164 1008q-82 79 -82 192q0 115 82 191q82 79 203 79q120 0 202 -79q82 -76 82 -191q0 -113 -82 -192q-83 -80 -202 -80q-120 0 -203 80zM252 1200q0 -51 32 -84t83 -33t82.5 33t31.5 84q0 50 -31.5 82.5
t-82.5 32.5t-83 -32.5t-32 -82.5z" />
    <glyph glyph-name="afii61289" unicode="&#x2113;" horiz-adv-x="1095" 
d="M166 811q0 297 117 479q116 180 307 180q163 0 251.5 -125.5t88.5 -349.5q0 -234 -102 -430.5t-287 -326.5q53 -74 118 -74q104 0 168 155l174 -100q-55 -115 -141 -179.5t-194 -64.5q-180 0 -299 162q-123 -62 -234 -90l-70 180q132 42 205 80q-102 231 -102 504z
M393 819q0 -217 62 -391q250 206 250 573q0 281 -123 281q-81 0 -135 -128.5t-54 -334.5z" />
    <glyph glyph-name="afii61352" unicode="&#x2116;" horiz-adv-x="2144" 
d="M1638 252q-184 0 -299 127q-112 124 -112 326q0 201 112 325q115 127 299 127t299 -127q113 -125 113 -325q0 -201 -113 -326q-115 -127 -299 -127zM1638 979q-89 0 -141.5 -76.5t-52.5 -197.5t52.5 -198t141.5 -77q91 0 144 77t53 198t-53 197.5t-144 76.5zM1118 1446
v-1446h-250l-489 1040v-1040h-219v1446h250l491 -1038v1038h217zM1249 174h781v-174h-781v174z" />
    <glyph glyph-name="uni2117" unicode="&#x2117;" horiz-adv-x="1671" 
d="M846 623h-72v-338h-176v878h248q154 0 243 -73.5t89 -196.5t-89 -196.5t-243 -73.5zM846 1020h-72v-254h72q73 0 114 34.5t41 92.5t-41 92.5t-114 34.5zM299 193q-219 219 -219 530t219 530q217 217 537 217q317 0 536 -219q221 -218 221 -528q0 -312 -221 -530
q-218 -218 -536 -218q-319 0 -537 218zM213 723q0 -262 180 -442q181 -181 443 -181q261 0 442 181q180 180 180 442t-180 442q-183 183 -442 183q-260 0 -443 -183q-180 -180 -180 -442z" />
    <glyph glyph-name="uni2120" unicode="&#x2120;" horiz-adv-x="1560" 
d="M313 690q-108 0 -223 62l43 147q101 -70 180 -70q44 0 71.5 22.5t27.5 59.5q0 72 -109 113q-205 76 -205 229q0 91 70.5 148t181.5 57q92 0 205 -49l-37 -139q-99 51 -166 51q-41 0 -64.5 -18.5t-23.5 -49.5q0 -55 117 -102q197 -74 197 -233q0 -103 -73 -165.5
t-192 -62.5zM1257 702v383l-153 -383h-139l-154 383v-383h-162v744h182l205 -516l201 516h182v-744h-162z" />
    <glyph glyph-name="uni2121" unicode="&#x2121;" horiz-adv-x="1912" 
d="M1452 547v-84h-528q4 -136 54 -218.5t126 -82.5q107 0 235 78l50 -181q-147 -84 -287 -84q-180 0 -289 152q-104 149 -104 395q0 243 102 393q106 154 279 154q174 0 268 -147q94 -146 94 -375zM928 635h307q-5 108 -45 183t-100 75t-105.5 -75t-56.5 -183zM604 1253
v-1253h-225v1253h-324v193h873v-193h-324zM1759 1487v-1487h-219v1487h219z" />
    <glyph glyph-name="trademark" unicode="&#x2122;" horiz-adv-x="1581" 
d="M410 1307v-605h-168v605h-201v139h565v-139h-196zM1276 702v383l-154 -383h-137l-154 383v-383h-163v744h184l203 -516l202 516h183v-744h-164z" />
    <glyph glyph-name="Omega" unicode="&#x2126;" horiz-adv-x="1542" 
d="M322 762q0 -400 387 -588v-174h-586v193h252q-291 204 -291 569q0 316 190 512t498 196t498 -196t190 -512q0 -365 -291 -569h250v-193h-583v174q387 190 387 588q0 230 -125 373q-124 145 -326 145q-201 0 -328 -145q-122 -143 -122 -373z" />
    <glyph glyph-name="estimated" unicode="&#x212e;" horiz-adv-x="1671" 
d="M1585 723v-72h-1161v-395q172 -156 412 -156q268 0 450 197h168q-104 -150 -267 -236t-351 -86q-315 0 -533 218q-217 217 -217 530t217 530t533 217q315 0 532 -217t217 -530zM424 1190v-416h823v416q-173 156 -411 156q-240 0 -412 -156z" />
    <glyph glyph-name="onethird" unicode="&#x2153;" horiz-adv-x="2097" 
d="M1538 1446l-782 -1446h-199l782 1446h199zM389 1243l-156 -65l-63 155l266 113h158v-973h-205v770zM1460 436v164q281 0 281 129q0 43 -33.5 68.5t-89.5 25.5q-105 0 -232 -65l-34 160q145 71 276 71q141 0 228.5 -71.5t87.5 -188.5q0 -62 -39.5 -119.5t-106.5 -87.5
q83 -33 130.5 -95.5t47.5 -143.5q0 -136 -103.5 -217.5t-279.5 -81.5q-153 0 -282 69l43 160q135 -63 243 -63q78 0 127.5 37t49.5 94q0 70 -80.5 112.5t-233.5 42.5z" />
    <glyph glyph-name="twothirds" unicode="&#x2154;" horiz-adv-x="2097" 
d="M1538 1446l-782 -1446h-199l782 1446h199zM772 639v-166h-643v137l311 326q117 123 117 231q0 58 -35.5 93.5t-97.5 35.5q-88 0 -225 -98l-56 164q147 100 297 100q144 0 232 -82q90 -84 90 -200q0 -173 -174 -353l-180 -188h364zM1460 436v164q281 0 281 129
q0 43 -33.5 68.5t-89.5 25.5q-105 0 -232 -65l-34 160q145 71 276 71q141 0 228.5 -71.5t87.5 -188.5q0 -62 -39.5 -119.5t-106.5 -87.5q83 -33 130.5 -95.5t47.5 -143.5q0 -136 -103.5 -217.5t-279.5 -81.5q-153 0 -282 69l43 160q135 -63 243 -63q78 0 127.5 37t49.5 94
q0 70 -80.5 112.5t-233.5 42.5z" />
    <glyph glyph-name="onefifth" unicode="&#x2155;" horiz-adv-x="2097" 
d="M1538 1446l-782 -1446h-199l782 1446h199zM389 1243l-156 -65l-63 155l266 113h158v-973h-205v770zM1364 430l33 543h547v-166h-355l-12 -180q30 6 72 6q138 0 239 -90q99 -89 99 -224q0 -152 -104 -243.5t-275 -91.5q-143 0 -283 79l57 162q112 -75 226 -75
q81 0 127.5 43.5t46.5 117.5q0 73 -45 114.5t-129 41.5q-129 0 -244 -37z" />
    <glyph glyph-name="twofifths" unicode="&#x2156;" horiz-adv-x="2097" 
d="M1538 1446l-782 -1446h-199l782 1446h199zM772 639v-166h-643v137l311 326q117 123 117 231q0 58 -35.5 93.5t-97.5 35.5q-88 0 -225 -98l-56 164q147 100 297 100q144 0 232 -82q90 -84 90 -200q0 -173 -174 -353l-180 -188h364zM1364 430l33 543h547v-166h-355
l-12 -180q30 6 72 6q138 0 239 -90q99 -89 99 -224q0 -152 -104 -243.5t-275 -91.5q-143 0 -283 79l57 162q112 -75 226 -75q81 0 127.5 43.5t46.5 117.5q0 73 -45 114.5t-129 41.5q-129 0 -244 -37z" />
    <glyph glyph-name="threefifths" unicode="&#x2157;" horiz-adv-x="2097" 
d="M1538 1446l-782 -1446h-199l782 1446h199zM1364 430l33 543h547v-166h-355l-12 -180q30 6 72 6q138 0 239 -90q99 -89 99 -224q0 -152 -104 -243.5t-275 -91.5q-143 0 -283 79l57 162q112 -75 226 -75q81 0 127.5 43.5t46.5 117.5q0 73 -45 114.5t-129 41.5
q-129 0 -244 -37zM268 909v164q281 0 281 129q0 43 -33.5 68.5t-89.5 25.5q-98 0 -231 -65l-35 160q148 71 278 71q140 0 228 -72t88 -188q0 -62 -39.5 -119.5t-106.5 -87.5q82 -32 130 -96t48 -143q0 -136 -103.5 -217.5t-279.5 -81.5q-155 0 -284 69l43 160
q135 -63 244 -63q78 0 127 37t49 94q0 70 -80.5 112.5t-233.5 42.5z" />
    <glyph glyph-name="fourfifths" unicode="&#x2158;" horiz-adv-x="2097" 
d="M1538 1446l-782 -1446h-199l782 1446h199zM1364 430l33 543h547v-166h-355l-12 -180q30 6 72 6q138 0 239 -90q99 -89 99 -224q0 -152 -104 -243.5t-275 -91.5q-143 0 -283 79l57 162q112 -75 226 -75q81 0 127.5 43.5t46.5 117.5q0 73 -45 114.5t-129 41.5
q-129 0 -244 -37zM500 1155l-205 -293h205v293zM500 473v223h-418v144l432 606h184v-584h133v-166h-133v-223h-198z" />
    <glyph glyph-name="onesixth" unicode="&#x2159;" horiz-adv-x="2097" 
d="M1538 1446l-782 -1446h-199l782 1446h199zM389 1243l-156 -65l-63 155l266 113h158v-973h-205v770zM1657 485q-110 0 -150 -118q7 -103 46.5 -161.5t101.5 -58.5q65 0 103 46t38 122t-37 123t-102 47zM1714 823q-75 0 -127 -57.5t-71 -161.5q62 45 153 45q148 0 236 -94
q92 -92 92 -236q0 -145 -94 -239q-93 -96 -250 -96q-165 0 -257.5 121.5t-92.5 343.5q0 245 104 391q107 149 315 149q99 0 209 -39l-37 -170q-98 43 -180 43z" />
    <glyph glyph-name="fivesixths" unicode="&#x215a;" horiz-adv-x="2097" 
d="M1538 1446l-782 -1446h-199l782 1446h199zM1657 485q-110 0 -150 -118q7 -103 46.5 -161.5t101.5 -58.5q65 0 103 46t38 122t-37 123t-102 47zM1714 823q-75 0 -127 -57.5t-71 -161.5q62 45 153 45q148 0 236 -94q92 -92 92 -236q0 -145 -94 -239q-93 -96 -250 -96
q-165 0 -257.5 121.5t-92.5 343.5q0 245 104 391q107 149 315 149q99 0 209 -39l-37 -170q-98 43 -180 43zM174 903l33 543h545v-166h-355l-12 -180q30 6 74 6q141 0 237 -90q99 -89 99 -223q0 -152 -104 -244t-275 -92q-142 0 -281 80l58 161q112 -75 223 -75
q84 0 130 43.5t46 117.5q0 73 -46 114.5t-130 41.5q-127 0 -242 -37z" />
    <glyph glyph-name="oneeighth" unicode="&#x215b;" horiz-adv-x="2097" 
d="M1538 1446l-782 -1446h-199l782 1446h199zM389 1243l-156 -65l-63 155l266 113h158v-973h-205v770zM1645 430q-68 -20 -109 -64t-41 -94q0 -54 42 -89.5t108 -35.5q65 0 106 35t41 90q0 50 -40 94t-107 64zM1645 -16q-156 0 -254 82q-97 85 -97 200q0 159 170 242
q-143 85 -143 221q0 105 92 182q93 78 232 78t229 -78q92 -77 92 -182q0 -135 -141 -221q168 -79 168 -242q0 -118 -99 -200q-94 -82 -249 -82zM1645 584q120 52 120 133q0 48 -32.5 78t-87.5 30t-89 -30t-34 -78q0 -81 123 -133z" />
    <glyph glyph-name="threeeighths" unicode="&#x215c;" horiz-adv-x="2097" 
d="M1538 1446l-782 -1446h-199l782 1446h199zM1645 430q-68 -20 -109 -64t-41 -94q0 -54 42 -89.5t108 -35.5q65 0 106 35t41 90q0 50 -40 94t-107 64zM1645 -16q-156 0 -254 82q-97 85 -97 200q0 159 170 242q-143 85 -143 221q0 105 92 182q93 78 232 78t229 -78
q92 -77 92 -182q0 -135 -141 -221q168 -79 168 -242q0 -118 -99 -200q-94 -82 -249 -82zM1645 584q120 52 120 133q0 48 -32.5 78t-87.5 30t-89 -30t-34 -78q0 -81 123 -133zM268 909v164q281 0 281 129q0 43 -33.5 68.5t-89.5 25.5q-98 0 -231 -65l-35 160q148 71 278 71
q140 0 228 -72t88 -188q0 -62 -39.5 -119.5t-106.5 -87.5q82 -32 130 -96t48 -143q0 -136 -103.5 -217.5t-279.5 -81.5q-155 0 -284 69l43 160q135 -63 244 -63q78 0 127 37t49 94q0 70 -80.5 112.5t-233.5 42.5z" />
    <glyph glyph-name="fiveeighths" unicode="&#x215d;" horiz-adv-x="2097" 
d="M1538 1446l-782 -1446h-199l782 1446h199zM174 903l33 543h545v-166h-355l-12 -180q30 6 74 6q141 0 237 -90q99 -89 99 -223q0 -152 -104 -244t-275 -92q-142 0 -281 80l58 161q112 -75 223 -75q84 0 130 43.5t46 117.5q0 73 -46 114.5t-130 41.5q-127 0 -242 -37z
M1645 430q-68 -20 -109 -64t-41 -94q0 -54 42 -89.5t108 -35.5q65 0 106 35t41 90q0 50 -40 94t-107 64zM1645 -16q-156 0 -254 82q-97 85 -97 200q0 159 170 242q-143 85 -143 221q0 105 92 182q93 78 232 78t229 -78q92 -77 92 -182q0 -135 -141 -221q168 -79 168 -242
q0 -118 -99 -200q-94 -82 -249 -82zM1645 584q120 52 120 133q0 48 -32.5 78t-87.5 30t-89 -30t-34 -78q0 -81 123 -133z" />
    <glyph glyph-name="seveneighths" unicode="&#x215e;" horiz-adv-x="2097" 
d="M1538 1446l-782 -1446h-199l782 1446h199zM1645 430q-68 -20 -109 -64t-41 -94q0 -54 42 -89.5t108 -35.5q65 0 106 35t41 90q0 50 -40 94t-107 64zM1645 -16q-156 0 -254 82q-97 85 -97 200q0 159 170 242q-143 85 -143 221q0 105 92 182q93 78 232 78t229 -78
q92 -77 92 -182q0 -135 -141 -221q168 -79 168 -242q0 -118 -99 -200q-94 -82 -249 -82zM1645 584q120 52 120 133q0 48 -32.5 78t-87.5 30t-89 -30t-34 -78q0 -81 123 -133zM795 1309l-373 -836h-221l368 807h-430v166h656v-137z" />
    <glyph glyph-name="uni215F" unicode="&#x215f;" horiz-adv-x="2097" 
d="M1538 1446l-782 -1446h-199l782 1446h199zM389 1243l-156 -65l-63 155l266 113h158v-973h-205v770z" />
    <glyph glyph-name="arrowleft" unicode="&#x2190;" horiz-adv-x="1802" 
d="M551 195l-485 485l485 485l119 -121l-287 -276h1325v-176h-1325l287 -277z" />
    <glyph glyph-name="arrowup" unicode="&#x2191;" horiz-adv-x="1802" 
d="M553 967l-119 120l467 457l467 -457l-117 -120l-260 260v-1313h-180v1313z" />
    <glyph glyph-name="arrowright" unicode="&#x2192;" horiz-adv-x="1802" 
d="M1135 1044l118 121l486 -485l-486 -485l-118 120l284 277h-1323v176h1323z" />
    <glyph glyph-name="arrowdown" unicode="&#x2193;" horiz-adv-x="1802" 
d="M1368 348l-467 -459l-467 459l119 119l258 -260v1313h180v-1313l260 260z" />
    <glyph glyph-name="arrowboth" unicode="&#x2194;" horiz-adv-x="1802" 
d="M1135 1044l118 121l486 -485l-486 -485l-118 120l284 277h-1036l287 -277l-119 -120l-485 485l485 485l119 -121l-287 -276h1036z" />
    <glyph glyph-name="arrowupdn" unicode="&#x2195;" horiz-adv-x="1802" 
d="M1368 348l-467 -459l-467 459l119 119l258 -260v1020l-258 -260l-119 120l467 457l467 -457l-117 -120l-260 260v-1020l260 260z" />
    <glyph glyph-name="arrowupdnbse" unicode="&#x21a8;" horiz-adv-x="1802" 
d="M553 967l-119 120l467 457l467 -457l-117 -120l-260 260v-1020l260 260l117 -119l-420 -414h377v-176h-846v176h377l-422 414l119 119l258 -260v1020z" />
    <glyph glyph-name="partialdiff" unicode="&#x2202;" horiz-adv-x="1202" 
d="M594 754q-128 0 -205 -99q-78 -96 -78 -241q0 -114 59.5 -181t166.5 -67q116 0 196.5 95.5t112.5 277.5q-20 102 -87 158.5t-165 56.5zM569 1280q-137 0 -260 -57l-20 196q140 51 278 51q270 0 402 -176q135 -176 135 -473q0 -380 -156 -614q-157 -232 -426 -232
q-206 0 -327 121q-119 119 -119 312q0 222 147 378q151 160 371 160q181 0 285 -131q-2 219 -82.5 342t-227.5 123z" />
    <glyph glyph-name="increment" unicode="&#x2206;" horiz-adv-x="1361" 
d="M8 0l563 1446h220l563 -1446h-1346zM682 1161l-369 -971h736z" />
    <glyph glyph-name="product" unicode="&#x220f;" horiz-adv-x="1472" 
d="M168 -248v1755h1139v-1755h-238v1561h-663v-1561h-238z" />
    <glyph glyph-name="summation" unicode="&#x2211;" horiz-adv-x="1425" 
d="M1305 -248h-1174v201l574 692l-574 643v219h1174v-192h-902l529 -596v-146l-531 -628h904v-193z" />
    <glyph glyph-name="minus" unicode="&#x2212;" horiz-adv-x="1241" 
d="M1130 797v-195h-1017v195h1017z" />
    <glyph glyph-name="uni2215" unicode="&#x2215;" horiz-adv-x="286" 
d="M635 1446l-785 -1446h-198l784 1446h199z" />
    <glyph glyph-name="uni2219" unicode="&#x2219;" horiz-adv-x="598" 
d="M459 664q0 -63 -46.5 -108.5t-113.5 -45.5t-112.5 45t-45.5 109q0 66 45 109.5t113 43.5t114 -43.5t46 -109.5z" />
    <glyph glyph-name="radical" unicode="&#x221a;" horiz-adv-x="1230" 
d="M602 20l338 1487h240l-424 -1755h-285l-223 694h-178v195h350z" />
    <glyph glyph-name="infinity" unicode="&#x221e;" horiz-adv-x="1654" 
d="M713 698q-118 142 -226 142q-60 0 -98.5 -39.5t-38.5 -102.5q0 -61 38.5 -100t98.5 -39q108 0 226 139zM829 571q-170 -194 -364 -194q-146 0 -242 90t-96 231q0 144 96 234t242 90q193 0 364 -195q171 195 365 195q144 0 240 -90t96 -234q0 -141 -96 -231t-240 -90
q-195 0 -365 194zM944 698q121 -139 225 -139q60 0 99 39t39 100q0 63 -39 102.5t-99 39.5q-104 0 -225 -142z" />
    <glyph glyph-name="orthogonal" unicode="&#x221f;" horiz-adv-x="1282" 
d="M397 195h832v-195h-1069v1186h237v-991z" />
    <glyph glyph-name="intersection" unicode="&#x2229;" horiz-adv-x="1431" 
d="M387 668v-668h-237v670q0 246 155 401q157 160 412 160q252 0 409 -160q158 -158 158 -401v-670h-240v668q0 163 -89.5 265.5t-237.5 102.5t-239 -103t-91 -265z" />
    <glyph glyph-name="integral" unicode="&#x222b;" horiz-adv-x="952" 
d="M360 -94v1315q0 145 78 224t228 79q125 0 252 -47l-37 -179q-93 37 -185 37q-102 0 -102 -116v-1315q0 -145 -77.5 -224t-227.5 -79q-131 0 -252 47l37 178q93 -37 184 -37q102 0 102 117z" />
    <glyph glyph-name="approxequal" unicode="&#x2248;" horiz-adv-x="1241" 
d="M578 381q-94 82 -152 82q-88 0 -88 -166h-227q0 177 79.5 271t223.5 94q132 0 252 -99q98 -82 151 -82q88 0 88 166h228q0 -177 -80 -270.5t-224 -93.5q-132 0 -251 98zM578 834q-93 81 -152 81q-88 0 -88 -167h-227q0 178 79.5 271t223.5 93q133 0 252 -98
q98 -82 151 -82q88 0 88 168h228q0 -178 -80 -271.5t-224 -93.5q-134 0 -251 99z" />
    <glyph glyph-name="notequal" unicode="&#x2260;" horiz-adv-x="1241" 
d="M221 88l133 281h-227v194h319l127 271h-446v194h539l133 279h223l-133 -279h225v-194h-317l-127 -271h444v-194h-536l-134 -281h-223z" />
    <glyph glyph-name="equivalence" unicode="&#x2261;" horiz-adv-x="1241" 
d="M1114 1186v-195h-985v195h985zM1114 408v-195h-985v195h985zM1114 797v-195h-985v195h985z" />
    <glyph glyph-name="lessequal" unicode="&#x2264;" horiz-adv-x="1241" 
d="M1094 1362v-221l-691 -293l691 -295v-219l-971 428v172zM1124 231v-194h-1007v194h1007z" />
    <glyph glyph-name="greaterequal" unicode="&#x2265;" horiz-adv-x="1241" 
d="M147 334v219l691 295l-691 293v221l971 -428v-172zM1124 231v-194h-1007v194h1007z" />
    <glyph glyph-name="house" unicode="&#x2302;" horiz-adv-x="1413" 
d="M358 653v-477h699v477l-348 369zM1266 713v-713h-1116v713l559 590z" />
    <glyph glyph-name="revlogicalnot" unicode="&#x2310;" horiz-adv-x="1241" 
d="M135 934h983v-195h-745v-399h-238v594z" />
    <glyph glyph-name="uni2318" unicode="&#x2318;" horiz-adv-x="1884" 
d="M512 989h104v103q0 80 -34.5 122.5t-100.5 42.5q-60 0 -99.5 -39t-39.5 -96q0 -61 47 -97t123 -36zM799 551h288v283h-288v-283zM1268 1092v-103h104q78 0 124 36t46 97q0 57 -39.5 96t-99.5 39q-63 0 -99 -43.5t-36 -121.5zM1268 834v-283h114q150 0 246 -79.5
t96 -211.5q0 -125 -90 -209t-229 -84q-145 0 -231.5 88t-86.5 232v106h-288v-106q0 -143 -87.5 -231.5t-232.5 -88.5q-139 0 -229 84q-88 82 -88 209q0 132 95 211.5t245 79.5h114v283h-114q-149 0 -244.5 79.5t-95.5 208.5q0 127 88 209q90 84 229 84q145 0 232.5 -88
t87.5 -231v-107h288v107q0 144 86.5 231.5t231.5 87.5q139 0 229 -84t90 -209q0 -129 -96.5 -208.5t-245.5 -79.5h-114zM616 291v102h-104q-79 0 -124.5 -35t-45.5 -98q0 -57 39.5 -96t99.5 -39q65 0 100 43.5t35 122.5zM1372 393h-104v-102q0 -78 36 -122t99 -44
q60 0 99.5 39t39.5 96q0 63 -45.5 98t-124.5 35z" />
    <glyph glyph-name="lozenge" unicode="&#x25ca;" horiz-adv-x="1257" 
d="M631 1546l559 -928l-559 -927l-561 927zM631 1159l-322 -541l322 -538l319 538z" />
    <glyph glyph-name="H18533" unicode="&#x25cf;" horiz-adv-x="2048" 
d="M514 186q-211 211 -211 508t211 508q213 213 510 213q295 0 508 -213t213 -508t-213 -508q-211 -211 -508 -211q-299 0 -510 211z" />
    <glyph glyph-name="NULL" horiz-adv-x="0" 
 />
    <glyph glyph-name="CR" horiz-adv-x="681" 
 />
    <glyph glyph-name="at.case" horiz-adv-x="1878" 
d="M1368 934l-53 -377q0 -104 108 -104q76 0 126 81.5t50 210.5q0 262 -184 443q-184 184 -465 184q-283 0 -477 -194q-192 -192 -192 -469q0 -281 190 -471q194 -191 483 -191q255 0 471 137l78 -157q-264 -158 -549 -158q-382 0 -630 242t-248 598q0 353 252 596
q255 243 622 243t609 -233q245 -230 245 -561q0 -229 -109.5 -358.5t-295.5 -129.5q-81 0 -144 36t-94 99q-125 -125 -313 -125q-147 0 -250 95q-100 93 -100 241q0 226 145 377q149 152 352 152q120 0 219 -56.5t154 -150.5zM870 461q144 0 224 102l45 332q-55 61 -148 61
q-111 0 -186 -100q-78 -101 -78 -231q0 -72 40 -118t103 -46z" />
    <glyph glyph-name="braceleft.case" horiz-adv-x="722" 
d="M322 719q78 -31 122.5 -102t44.5 -164v-312q0 -61 29.5 -95t79.5 -34h70v-194h-62q-167 0 -260.5 82.5t-93.5 236.5v295q0 188 -186 197v180q186 9 186 197v294q0 154 93.5 237t260.5 83h62v-193h-70q-50 0 -79.5 -35t-29.5 -96v-309q0 -94 -44.5 -165.5t-122.5 -102.5z
" />
    <glyph glyph-name="braceright.case" horiz-adv-x="722" 
d="M403 719q-78 31 -122.5 102.5t-44.5 165.5v309q0 61 -29.5 96t-79.5 35h-70v193h62q167 0 260.5 -83t93.5 -237v-294q0 -188 186 -197v-180q-186 -9 -186 -197v-295q0 -154 -93.5 -236.5t-260.5 -82.5h-62v194h70q50 0 79.5 34t29.5 95v312q0 93 44.5 164t122.5 102z" />
    <glyph glyph-name="bracketleft.case" horiz-adv-x="718" 
d="M662 12v-194h-465v1802h465v-193h-228v-1415h228z" />
    <glyph glyph-name="bracketright.case" horiz-adv-x="718" 
d="M522 1620v-1802h-465v194h228v1415h-228v193h465z" />
    <glyph glyph-name="bullet.case" horiz-adv-x="954" 
d="M477 1022q127 0 213 -86t86 -211t-86 -211q-87 -84 -213 -84q-124 0 -211 84q-86 86 -86 211t86 211t211 86z" />
    <glyph glyph-name="commaaccent" horiz-adv-x="841" 
d="M285 -205q0 54 38 89.5t95 35.5q64 0 105.5 -49t41.5 -129q0 -93 -59.5 -172.5t-159.5 -124.5l-63 74q123 57 145 162l-25 -5q-50 0 -84 34t-34 85z" />
    <glyph glyph-name="eight.denominator" 
d="M453 430q-67 -20 -107.5 -64t-40.5 -94q0 -54 41 -89.5t107 -35.5t107.5 35.5t41.5 89.5q0 50 -40.5 94t-108.5 64zM453 -16q-154 0 -252 82q-97 85 -97 200q0 163 168 242q-141 86 -141 221q0 104 90 182q93 78 232 78q138 0 231 -78q92 -77 92 -182q0 -136 -143 -221
q170 -83 170 -242q0 -118 -98 -200q-94 -82 -252 -82zM453 584q122 52 122 133q0 48 -33.5 78t-88.5 30t-88 -30t-33 -78q0 -83 121 -133z" />
    <glyph glyph-name="eight.numerator" 
d="M453 903q-67 -20 -107.5 -64t-40.5 -94q0 -54 41 -89t107 -35t107.5 35t41.5 89q0 50 -40.5 94t-108.5 64zM453 457q-154 0 -252 82q-97 85 -97 200q0 163 168 242q-141 85 -141 221q0 104 90 182q93 78 232 78q138 0 231 -78q92 -77 92 -182q0 -136 -143 -221
q170 -83 170 -242q0 -118 -98 -200q-94 -82 -252 -82zM453 1057q122 52 122 133q0 48 -33.5 78t-88.5 30t-88 -30t-33 -78q0 -83 121 -133z" />
    <glyph glyph-name="eight.tnum" horiz-adv-x="1183" 
d="M594 662q-126 -29 -199 -103t-73 -168q0 -99 75.5 -161t196.5 -62t196.5 62t75.5 161q0 94 -73 168t-199 103zM362 1083q0 -154 232 -237q231 82 231 237q0 87 -63.5 141t-167.5 54t-168 -54t-64 -141zM594 -25q-226 0 -367 117q-141 120 -141 289q0 118 79 219t216 158
q-252 126 -252 340q0 153 133 262q131 110 332 110t332 -110q133 -109 133 -262q0 -214 -252 -340q137 -57 216 -158t79 -219q0 -167 -144 -287q-140 -119 -364 -119z" />
    <glyph glyph-name="emdash.case" horiz-adv-x="2048" 
d="M2048 821v-196h-2048v196h2048z" />
    <glyph glyph-name="endash.case" horiz-adv-x="1024" 
d="M1024 627h-1024v194h1024v-194z" />
    <glyph glyph-name="exclamdown.case" horiz-adv-x="786" 
d="M506 1036l20 -1036h-264l21 1036h223zM393 1176q-66 0 -109.5 42.5t-43.5 104.5t43.5 104.5t109.5 42.5q67 0 111.5 -42.5t44.5 -104.5t-44.5 -104.5t-111.5 -42.5z" />
    <glyph glyph-name="fi" horiz-adv-x="1298" 
d="M1143 1044v-1044h-234v856h-463v-856h-233v856h-176v188h176v164q0 145 77.5 224t227.5 79q126 0 260 -49l-39 -178q-95 39 -190 39q-103 0 -103 -117v-162h697zM1169 1354q0 -57 -41 -97t-102 -40t-102 40t-41 97q0 60 40.5 99.5t102.5 39.5t102.5 -39.5t40.5 -99.5z
" />
    <glyph glyph-name="five.denominator" 
d="M174 430l33 543h545v-166h-355l-12 -180q30 6 74 6q141 0 237 -90q99 -89 99 -224q0 -152 -104 -243.5t-275 -91.5q-144 0 -281 79l58 162q112 -75 223 -75q84 0 130 43.5t46 117.5q0 73 -46 114.5t-130 41.5q-127 0 -242 -37z" />
    <glyph glyph-name="five.numerator" 
d="M174 903l33 543h545v-166h-355l-12 -180q30 6 74 6q141 0 237 -90q99 -89 99 -223q0 -152 -104 -244t-275 -92q-142 0 -281 80l58 161q112 -75 223 -75q84 0 130 43.5t46 117.5q0 73 -46 114.5t-130 41.5q-127 0 -242 -37z" />
    <glyph glyph-name="five.tnum" horiz-adv-x="1122" 
d="M145 676l48 770h774v-193h-549l-23 -354q62 19 152 19q202 0 344 -130q141 -126 141 -323q0 -220 -151 -356q-152 -134 -400 -134q-209 0 -393 105l68 190q153 -100 325 -100q145 0 229.5 76.5t84.5 204.5t-84 202t-230 74q-196 0 -336 -51z" />
    <glyph glyph-name="fl" horiz-adv-x="1298" 
d="M1143 1487v-1487h-234v1253q-152 70 -319 70q-68 0 -104.5 -35.5t-36.5 -99.5v-144h258v-188h-258v-856h-236v856h-176v188h176v144q0 153 91.5 238t258.5 85q175 0 346 -71v47h234z" />
    <glyph glyph-name="four.denominator" 
d="M500 682l-205 -293h205v293zM500 0v223h-418v144l432 606h184v-584h133v-166h-133v-223h-198z" />
    <glyph glyph-name="four.numerator" 
d="M500 1155l-205 -293h205v293zM500 473v223h-418v144l432 606h184v-584h133v-166h-133v-223h-198z" />
    <glyph glyph-name="four.tnum" horiz-adv-x="1187" 
d="M702 1120l-411 -581h411v581zM702 0v348h-653v182l658 916h227v-907h201v-191h-201v-348h-232z" />
    <glyph glyph-name="guillemotleft.case" horiz-adv-x="1236" 
d="M1124 319l-493 318v174l493 315v-225l-299 -178l299 -178v-226zM608 319l-493 318v174l493 315v-225l-299 -178l299 -178v-226z" />
    <glyph glyph-name="guillemotright.case" horiz-adv-x="1236" 
d="M115 1126l493 -315v-174l-493 -318v226l299 178l-299 178v225zM631 1126l493 -315v-174l-493 -318v226l299 178l-299 178v225z" />
    <glyph glyph-name="guilsinglleft.case" horiz-adv-x="720" 
d="M608 319l-493 318v174l493 315v-225l-299 -178l299 -178v-226z" />
    <glyph glyph-name="guilsinglright.case" horiz-adv-x="720" 
d="M115 1126l493 -315v-174l-493 -318v226l299 178l-299 178v225z" />
    <glyph glyph-name="hyphen.case" horiz-adv-x="876" 
d="M772 821v-196h-666v196h666z" />
    <glyph glyph-name="nine.denominator" 
d="M440 489q110 0 150 119q-8 103 -46.5 160t-101.5 57q-65 0 -103 -46t-38 -122t37 -122t102 -46zM383 150q75 0 127.5 57.5t71.5 161.5q-67 -43 -154 -43q-146 0 -238 92q-90 93 -90 235q0 144 93 240q96 96 251 96q165 0 258 -121.5t93 -343.5q0 -244 -107 -393
q-105 -147 -313 -147q-99 0 -209 39l37 170q98 -43 180 -43z" />
    <glyph glyph-name="nine.numerator" 
d="M440 963q110 0 150 118q-8 103 -46.5 160t-101.5 57q-65 0 -103 -46t-38 -122t37 -121.5t102 -45.5zM383 623q75 0 127.5 57.5t71.5 161.5q-67 -43 -154 -43q-146 0 -238 92q-90 93 -90 235q0 144 93 240q96 96 251 96q165 0 258 -121.5t93 -343.5q0 -244 -107 -393
q-105 -147 -313 -147q-99 0 -209 39l37 170q98 -43 180 -43z" />
    <glyph glyph-name="nine.tnum" horiz-adv-x="1165" 
d="M565 694q93 0 166.5 57t108.5 160q-27 367 -269 367q-120 0 -189 -79.5t-69 -211.5q0 -131 68 -212t184 -81zM479 170q149 0 245.5 122.5t109.5 334.5q-108 -123 -287 -123q-206 0 -338 135q-131 134 -131 342q0 211 133 350q136 139 362 139q239 0 371.5 -179.5
t132.5 -510.5q0 -364 -155 -583q-154 -222 -457 -222q-136 0 -279 52l41 194q111 -51 252 -51z" />
    <glyph glyph-name="one.denominator" 
d="M389 770l-156 -65l-63 155l266 113h158v-973h-205v770z" />
    <glyph glyph-name="one.numerator" 
d="M389 1243l-156 -65l-63 155l266 113h158v-973h-205v770z" />
    <glyph glyph-name="one.tnum" horiz-adv-x="899" 
d="M393 1214l-260 -108l-72 180l377 160h193v-1446h-238v1214z" />
    <glyph glyph-name="parenleft.case" horiz-adv-x="716" 
d="M395 705q0 -494 279 -902h-207q-145 177 -228 412t-83 490t83 490.5t228 410.5h207q-279 -405 -279 -901z" />
    <glyph glyph-name="parenright.case" horiz-adv-x="716" 
d="M324 705q0 496 -279 901h207q145 -175 228 -410.5t83 -490.5t-83 -490t-228 -412h-207q279 408 279 902z" />
    <glyph glyph-name="periodcentered.case" horiz-adv-x="598" 
d="M459 723q0 -63 -46.5 -108.5t-113.5 -45.5t-112.5 45t-45.5 109q0 66 45 110t113 44t114 -44t46 -110z" />
    <glyph glyph-name="questiondown.case" horiz-adv-x="1056" 
d="M885 289l73 -183q-192 -131 -393 -131q-196 0 -327 107q-129 108 -129 274q0 230 249 406q66 44 91.5 91.5t25.5 125.5v65h238v-81q0 -114 -40.5 -191t-135.5 -145q-100 -69 -143.5 -126.5t-43.5 -133.5q0 -88 65 -142.5t169 -54.5q143 0 301 119zM594 1470
q66 0 110 -42.5t44 -104.5t-44 -104.5t-110 -42.5q-67 0 -111.5 42.5t-44.5 104.5t44.5 104.5t111.5 42.5z" />
    <glyph glyph-name="seven.denominator" 
d="M795 836l-373 -836h-221l368 807h-430v166h656v-137z" />
    <glyph glyph-name="seven.numerator" 
d="M795 1309l-373 -836h-221l368 807h-430v166h656v-137z" />
    <glyph glyph-name="seven.tnum" horiz-adv-x="1101" 
d="M1030 1274l-567 -1274h-262l571 1253h-682v193h940v-172z" />
    <glyph glyph-name="six.denominator" 
d="M467 485q-109 0 -152 -118q7 -103 46.5 -161.5t101.5 -58.5q65 0 103 46t38 122q0 79 -36 124.5t-101 45.5zM522 823q-75 0 -127 -57.5t-69 -161.5q62 45 153 45q146 0 234 -94q92 -92 92 -236q0 -148 -94 -241.5t-250 -93.5q-165 0 -256.5 122t-91.5 343q0 245 104 391
q107 149 315 149q100 0 207 -39l-34 -170q-98 43 -183 43z" />
    <glyph glyph-name="six.numerator" 
d="M467 958q-109 0 -152 -118q7 -103 46.5 -161t101.5 -58q65 0 103 45.5t38 121.5q0 79 -36 124.5t-101 45.5zM522 1296q-75 0 -127 -57.5t-69 -161.5q62 45 153 45q146 0 234 -94q92 -92 92 -235q0 -148 -94 -242t-250 -94q-165 0 -256.5 122t-91.5 343q0 245 104 391
q107 149 315 149q100 0 207 -39l-34 -170q-98 43 -183 43z" />
    <glyph glyph-name="six.tnum" horiz-adv-x="1165" 
d="M602 752q-95 0 -167 -56t-107 -159q27 -369 268 -369q120 0 189 80.5t69 212.5q0 130 -68 210.5t-184 80.5zM688 1278q-149 0 -245 -122.5t-109 -334.5q111 123 287 123q205 0 337 -135t132 -342q0 -213 -136 -352q-134 -140 -360 -140q-239 0 -371.5 180.5t-132.5 510.5
q0 361 154 583q156 221 458 221q131 0 279 -49l-41 -194q-119 51 -252 51z" />
    <glyph glyph-name="three.denominator" 
d="M268 436v164q281 0 281 129q0 43 -33.5 68.5t-89.5 25.5q-98 0 -231 -65l-35 160q148 71 278 71q140 0 228 -72t88 -188q0 -62 -39.5 -119.5t-106.5 -87.5q82 -32 130 -96t48 -143q0 -136 -103.5 -217.5t-279.5 -81.5q-155 0 -284 69l43 160q135 -63 244 -63q78 0 127 37
t49 94q0 70 -80.5 112.5t-233.5 42.5z" />
    <glyph glyph-name="three.numerator" 
d="M268 909v164q281 0 281 129q0 43 -33.5 68.5t-89.5 25.5q-98 0 -231 -65l-35 160q148 71 278 71q140 0 228 -72t88 -188q0 -62 -39.5 -119.5t-106.5 -87.5q82 -32 130 -96t48 -143q0 -136 -103.5 -217.5t-279.5 -81.5q-155 0 -284 69l43 160q135 -63 244 -63q78 0 127 37
t49 94q0 70 -80.5 112.5t-233.5 42.5z" />
    <glyph glyph-name="three.tnum" horiz-adv-x="1107" 
d="M289 682v190q224 0 333 62.5t109 167.5q0 79 -63.5 127.5t-167.5 48.5q-164 0 -334 -86l-39 186q195 92 391 92q198 0 324 -102q127 -103 127 -262q0 -112 -69.5 -201t-192.5 -125q141 -37 227 -137.5t86 -232.5q0 -194 -152 -316q-149 -119 -405 -119q-216 0 -400 93
l52 184q188 -84 356 -84q132 0 221 65q90 66 90 170q0 126 -126.5 202.5t-366.5 76.5z" />
    <glyph glyph-name="two.denominator" 
d="M772 166v-166h-643v137l311 326q117 123 117 231q0 58 -35.5 93.5t-97.5 35.5q-88 0 -225 -98l-56 164q147 100 297 100q144 0 232 -82q90 -84 90 -200q0 -173 -174 -353l-180 -188h364z" />
    <glyph glyph-name="two.numerator" 
d="M772 639v-166h-643v137l311 326q117 123 117 231q0 58 -35.5 93.5t-97.5 35.5q-88 0 -225 -98l-56 164q147 100 297 100q144 0 232 -82q90 -84 90 -200q0 -173 -174 -353l-180 -188h364z" />
    <glyph glyph-name="two.tnum" horiz-adv-x="1107" 
d="M1006 195v-195h-926v170l475 494q197 206 197 385q0 105 -66.5 167t-181.5 62q-150 0 -332 -129l-63 184q198 137 417 137q209 0 334 -116q127 -115 127 -289q0 -253 -258 -526l-332 -344h609z" />
    <glyph glyph-name="zero.denominator" 
d="M713 121q-94 -137 -260 -137t-260 137q-95 139 -95 366q0 226 95 365q94 137 260 137t260 -137t94 -365q0 -229 -94 -366zM340 242q41 -95 113 -95q71 0 112 95q41 96 41 245q0 151 -41 244q-40 94 -112 94q-73 0 -113 -94q-41 -93 -41 -244q0 -149 41 -245z" />
    <glyph glyph-name="zero.numerator" 
d="M713 594q-94 -137 -260 -137t-260 137q-95 139 -95 367q0 225 95 364q94 137 260 137t260 -137t94 -364q0 -230 -94 -367zM340 715q40 -94 113 -94q72 0 112 94q41 96 41 246t-41 243q-40 94 -112 94q-73 0 -113 -94q-41 -93 -41 -243t41 -246z" />
    <glyph glyph-name="zero.tnum" horiz-adv-x="1198" 
d="M88 723q0 341 135 543q137 204 377 204q241 0 375 -204q137 -201 137 -543q0 -339 -137 -543q-135 -205 -375 -205q-239 0 -377 205q-135 206 -135 543zM395 317q74 -151 205 -151q132 0 203 151q74 154 74 406t-74 403q-71 154 -203 154q-131 0 -205 -154
q-71 -151 -71 -403t71 -406z" />
    </font>
</defs>
</svg>
